<svg id="svg" xmlns="http://www.w3.org/2000/svg" xmlns:xlink="http://www.w3.org/1999/xlink" width="400" height="185.5421686746988" viewBox="0, 0, 400,185.5421686746988"><g id="svgg"><path id="path0" d="M230.487 22.903 C 230.149 23.160,230.023 23.681,230.347 23.481 C 230.520 23.374,230.980 22.638,230.865 22.651 C 230.836 22.654,230.666 22.768,230.487 22.903 M58.130 23.773 C 55.553 24.107,54.907 24.527,51.019 28.391 C 48.521 30.875,43.802 35.247,40.743 37.912 C 38.708 39.685,37.053 41.224,36.812 41.568 C 36.671 41.769,35.940 42.437,35.187 43.052 C 30.709 46.711,30.268 49.481,33.607 52.993 C 34.383 53.810,35.486 55.117,36.058 55.897 C 38.996 59.908,41.415 59.850,45.334 55.673 C 46.379 54.560,47.779 53.234,48.446 52.727 C 49.113 52.220,50.187 51.253,50.832 50.579 C 52.966 48.347,54.186 47.788,55.269 48.547 C 56.303 49.271,56.377 51.077,56.120 69.234 C 56.039 74.900,55.996 80.872,56.023 82.506 C 56.050 84.139,56.092 90.654,56.116 96.984 C 56.163 109.654,56.124 109.219,57.326 110.504 C 59.180 112.486,69.990 112.727,72.390 110.840 C 74.086 109.506,74.064 109.745,73.886 95.035 C 73.840 91.309,73.854 74.603,73.916 57.912 C 74.046 22.904,74.189 25.297,71.918 24.293 C 70.433 23.636,61.717 23.307,58.130 23.773 M244.872 25.056 C 243.659 25.796,244.362 26.729,246.133 26.729 C 247.234 26.729,249.040 26.285,249.409 25.924 C 250.323 25.028,246.209 24.241,244.872 25.056 M224.313 28.791 C 223.906 29.006,223.428 29.310,223.250 29.467 C 222.816 29.851,220.990 32.552,221.293 32.364 C 221.424 32.282,221.688 32.191,221.878 32.161 C 222.069 32.131,222.451 31.920,222.727 31.692 C 223.003 31.463,223.508 31.067,223.849 30.812 C 224.532 30.301,225.567 28.808,225.412 28.558 C 225.270 28.327,225.134 28.356,224.313 28.791 M244.154 29.930 C 243.249 30.963,243.063 32.195,243.426 34.740 C 243.589 35.887,243.633 35.806,242.117 37.129 C 240.545 38.502,239.827 38.970,238.977 39.178 C 237.548 39.528,236.778 39.991,235.918 41.019 C 235.483 41.539,234.870 42.096,234.556 42.259 C 233.883 42.607,233.503 42.959,233.503 43.235 C 233.503 43.344,233.417 43.434,233.311 43.434 C 233.181 43.434,233.183 43.553,233.318 43.805 C 233.427 44.009,233.451 44.183,233.371 44.191 C 233.291 44.200,233.538 44.353,233.921 44.532 C 234.757 44.922,236.126 44.798,237.412 44.216 C 239.121 43.444,239.635 43.273,240.593 43.158 C 242.901 42.882,245.579 41.756,250.023 39.191 C 252.045 38.024,253.082 37.494,253.342 37.494 C 253.442 37.494,254.031 37.012,254.650 36.422 C 256.036 35.104,256.141 34.511,255.145 33.636 C 254.527 33.094,253.976 32.875,251.508 32.194 C 250.845 32.011,250.218 31.805,250.116 31.737 C 250.014 31.669,249.596 31.483,249.188 31.323 C 248.780 31.164,247.862 30.691,247.149 30.273 C 245.625 29.379,244.726 29.276,244.154 29.930 M229.742 45.401 C 229.575 45.568,229.805 46.046,229.996 45.928 C 230.088 45.871,230.162 45.705,230.162 45.557 C 230.162 45.284,229.941 45.202,229.742 45.401 M209.589 47.664 C 208.048 49.298,207.851 50.539,208.943 51.733 C 209.642 52.497,211.778 50.790,211.778 49.466 C 211.778 47.451,210.659 46.530,209.589 47.664 M191.253 47.644 C 190.714 47.752,190.189 48.377,189.807 49.363 C 189.631 49.816,189.326 50.414,189.129 50.691 C 188.506 51.565,188.760 51.978,190.719 53.274 C 191.230 53.612,192.121 54.334,192.701 54.879 C 194.254 56.340,194.807 56.154,195.992 53.771 C 197.138 51.466,196.534 49.692,194.191 48.482 C 192.727 47.726,191.949 47.504,191.253 47.644 M226.402 48.829 C 225.578 48.965,225.438 49.073,225.586 49.458 C 225.795 50.003,228.121 49.599,228.121 49.019 C 228.121 48.792,227.223 48.693,226.402 48.829 M216.195 51.150 C 215.547 51.502,215.547 51.717,216.195 51.841 C 217.091 52.012,218.139 51.198,217.309 50.975 C 216.768 50.831,216.791 50.827,216.195 51.150 M175.664 53.439 C 174.972 53.861,174.629 54.340,173.491 56.468 C 172.307 58.683,172.170 59.385,172.608 60.996 C 172.799 61.699,172.994 63.043,173.041 63.984 C 173.186 66.861,173.905 67.366,176.712 66.561 C 181.781 65.107,182.417 63.811,179.247 61.390 C 178.178 60.574,178.036 59.790,178.516 57.376 C 178.733 56.284,178.881 55.227,178.843 55.027 C 178.806 54.827,178.769 54.553,178.761 54.417 C 178.699 53.344,176.802 52.745,175.664 53.439 M210.626 53.400 C 209.712 53.637,210.960 54.555,212.019 54.424 C 212.504 54.364,212.756 53.794,212.390 53.585 C 212.133 53.439,210.954 53.315,210.626 53.400 M190.445 59.416 C 189.354 59.857,188.542 61.104,189.028 61.591 C 189.426 61.988,190.393 61.534,191.087 60.624 C 191.867 59.602,191.534 58.976,190.445 59.416 M194.925 83.898 C 194.124 84.277,193.463 84.455,192.853 84.455 C 192.166 84.455,191.632 84.627,190.561 85.195 C 189.793 85.602,188.512 86.111,187.714 86.327 C 186.354 86.696,184.459 87.599,184.214 87.995 C 183.649 88.910,181.510 89.134,179.990 88.438 C 178.235 87.635,177.343 87.632,175.736 88.426 C 174.445 89.064,172.351 89.540,172.472 89.168 C 172.663 88.585,170.679 86.287,169.436 85.650 C 166.229 84.009,163.317 85.173,164.416 87.658 C 165.255 89.556,169.478 90.792,171.926 89.856 C 172.299 89.714,172.436 89.718,172.436 89.873 C 172.436 89.990,172.489 90.032,172.553 89.968 C 172.617 89.904,173.306 90.441,174.084 91.162 C 175.997 92.934,176.824 93.305,178.219 93.017 C 179.205 92.813,179.383 92.835,180.962 93.360 C 183.743 94.284,184.789 94.123,187.335 92.380 C 188.066 91.880,189.123 91.364,189.878 91.139 C 190.650 90.909,191.490 90.495,191.965 90.112 C 192.403 89.758,193.289 89.204,193.935 88.881 C 196.960 87.365,198.339 84.785,196.768 83.579 C 196.349 83.258,196.238 83.277,194.925 83.898 M289.002 130.793 C 287.581 131.028,285.774 131.544,284.548 132.065 C 282.462 132.952,280.896 133.429,279.380 133.641 C 277.095 133.961,275.650 134.671,271.574 137.480 C 271.104 137.803,270.255 138.241,269.687 138.451 C 266.661 139.574,268.302 141.362,272.001 140.971 C 274.646 140.692,275.295 141.960,273.699 144.292 C 271.651 147.282,271.143 149.819,272.087 152.331 C 272.723 154.022,272.945 154.164,274.851 154.099 C 278.307 153.982,281.280 155.313,279.703 156.272 C 278.952 156.728,276.306 157.217,274.586 157.216 C 272.952 157.216,272.668 157.316,272.668 157.894 C 272.668 158.608,273.400 159.256,276.742 161.504 C 277.615 162.092,278.705 162.907,279.165 163.317 C 281.367 165.282,284.548 163.968,284.548 161.093 C 284.548 160.185,284.497 160.080,283.714 159.361 C 282.837 158.556,281.138 155.992,281.303 155.725 C 281.356 155.638,281.877 155.295,282.459 154.962 C 283.042 154.628,283.907 153.955,284.381 153.466 C 285.800 152.001,286.879 152.309,288.195 154.554 C 288.698 155.414,289.209 155.731,290.091 155.731 C 290.574 155.731,294.087 154.031,294.477 153.608 C 294.580 153.497,295.237 152.758,295.937 151.966 C 297.488 150.211,298.052 149.870,301.489 148.609 C 306.424 146.799,308.165 145.273,306.993 143.784 C 306.782 143.515,306.437 143.295,306.226 143.295 C 304.090 143.295,303.387 142.446,303.387 139.863 L 303.387 137.696 302.759 137.134 C 302.233 136.664,302.023 136.590,301.480 136.678 C 300.664 136.810,300.308 136.624,298.986 135.374 C 297.902 134.350,296.960 133.828,296.193 133.828 C 294.878 133.828,293.579 133.258,292.500 132.207 C 291.101 130.844,290.401 130.561,289.002 130.793 M30.070 132.083 C 25.695 132.899,25.421 133.039,22.552 135.939 C 19.291 139.235,18.516 140.673,18.011 144.364 C 17.404 148.796,19.631 153.777,23.934 157.613 C 25.756 159.236,29.599 159.915,34.556 159.488 C 38.470 159.151,39.297 158.824,41.206 156.858 C 42.074 155.964,43.332 154.807,44.002 154.286 C 46.808 152.104,47.483 148.752,46.323 142.759 C 45.641 139.234,45.478 138.937,42.824 136.364 C 39.258 132.908,34.396 131.276,30.070 132.083 M63.109 132.180 C 62.053 132.253,60.718 132.497,59.782 132.787 C 57.920 133.364,56.808 133.389,54.955 132.896 C 49.845 131.537,48.465 133.137,48.467 140.418 C 48.467 142.270,48.354 143.854,48.130 145.151 C 47.637 148.005,48.046 154.631,48.849 156.790 C 49.948 159.743,54.543 159.957,55.963 157.121 L 56.520 156.009 56.520 150.534 C 56.520 144.733,56.573 144.279,57.457 142.533 C 58.484 140.507,60.799 139.825,62.967 140.911 C 64.457 141.656,64.770 143.210,64.777 149.884 C 64.786 157.897,65.239 158.949,68.684 158.953 C 71.236 158.956,72.007 158.259,72.952 155.099 C 74.299 150.592,74.792 150.339,77.011 153.012 C 77.532 153.640,78.681 154.780,79.565 155.545 C 80.449 156.311,81.614 157.329,82.154 157.809 C 85.275 160.576,94.700 160.268,97.428 157.309 C 98.935 155.674,98.456 153.191,96.321 151.562 L 95.424 150.878 94.069 151.698 C 90.982 153.568,88.042 153.598,86.343 151.778 C 84.295 149.583,90.947 148.381,94.587 150.288 L 95.531 150.783 97.177 149.962 C 101.577 147.768,102.238 144.928,99.771 138.827 C 98.461 135.588,98.037 135.141,94.436 133.198 C 91.158 131.429,88.121 131.566,83.042 133.712 C 80.386 134.835,79.718 135.429,77.799 138.375 C 76.215 140.806,75.837 141.318,74.680 142.606 C 73.883 143.493,73.723 143.364,72.973 141.227 C 70.228 133.406,68.484 131.807,63.109 132.180 M90.536 139.737 C 91.533 140.446,91.553 141.770,90.576 142.276 C 89.394 142.887,86.708 142.386,86.232 141.465 C 85.393 139.844,88.778 138.485,90.536 139.737 M34.081 140.042 C 37.080 140.933,38.300 145.670,36.462 149.285 C 34.826 152.500,33.252 152.999,29.843 151.381 C 25.944 149.531,25.578 142.109,29.303 140.461 C 30.827 139.787,32.675 139.625,34.081 140.042 M212.765 144.341 C 209.927 145.740,210.763 149.677,213.953 149.933 C 216.895 150.170,218.683 149.211,217.859 147.838 C 215.963 144.680,214.339 143.565,212.765 144.341 M205.847 158.324 C 205.592 158.405,204.865 158.732,204.233 159.050 C 203.601 159.368,202.999 159.629,202.896 159.629 C 201.263 159.629,200.929 162.267,202.480 162.918 C 203.428 163.317,207.034 163.352,207.789 162.970 C 210.610 161.542,208.863 157.361,205.847 158.324 M268.456 158.273 C 267.683 158.424,266.420 159.721,266.708 160.068 C 267.465 160.981,270.240 159.525,269.822 158.435 C 269.714 158.154,269.314 158.107,268.456 158.273 M260.814 161.883 C 260.154 162.671,258.967 163.871,257.034 165.704 C 253.512 169.045,255.167 172.325,260.210 171.999 C 264.428 171.727,270.406 172.401,271.048 173.222 C 273.255 176.046,275.900 176.336,279.285 174.128 C 281.701 172.551,282.231 171.469,280.882 170.871 C 280.499 170.701,280.040 170.482,279.863 170.385 C 279.685 170.288,278.873 170.074,278.057 169.909 L 276.574 169.611 275.596 170.250 C 274.221 171.149,274.181 171.170,273.482 171.327 C 272.070 171.646,271.512 170.327,272.339 168.626 C 273.348 166.548,271.407 165.874,267.083 166.802 C 264.586 167.337,264.186 167.106,263.668 164.826 C 262.850 161.228,262.052 160.405,260.814 161.883 " stroke="none" fill="#dae5b9" fill-rule="evenodd"></path><path id="path1" d="M247.610 9.301 C 245.392 9.552,244.550 9.803,241.299 11.181 C 239.615 11.894,237.619 12.681,236.863 12.929 C 236.108 13.176,235.272 13.528,235.007 13.710 C 234.077 14.348,232.455 15.185,230.898 15.830 C 227.978 17.040,227.141 17.481,226.284 18.262 C 224.766 19.644,221.641 21.025,218.207 21.831 C 217.537 21.988,216.679 22.482,215.099 23.619 C 214.425 24.104,213.793 24.501,213.694 24.501 C 213.506 24.501,212.132 25.937,210.639 27.694 C 209.546 28.979,209.067 29.202,206.161 29.780 C 204.868 30.038,203.495 30.384,203.111 30.549 C 201.052 31.436,195.945 32.998,193.120 33.605 C 191.915 33.864,190.536 34.344,189.142 34.989 C 187.968 35.532,186.572 36.066,186.040 36.175 C 185.509 36.284,184.170 36.666,183.065 37.023 C 181.960 37.380,180.348 37.803,179.484 37.963 C 176.485 38.518,175.552 38.947,172.722 41.073 C 170.039 43.089,169.757 43.317,168.724 44.300 C 168.142 44.855,167.225 45.484,166.589 45.763 C 164.813 46.544,161.995 49.504,160.956 51.680 C 160.521 52.590,160.017 53.551,159.836 53.814 C 159.654 54.077,159.142 55.169,158.698 56.241 C 157.578 58.943,156.166 61.575,155.354 62.473 C 153.327 64.714,152.110 67.571,152.117 70.070 C 152.125 73.029,152.898 74.432,154.025 73.532 C 154.299 73.312,155.026 72.782,155.638 72.354 C 156.251 71.925,156.855 71.473,156.982 71.348 C 158.155 70.190,161.299 72.810,161.299 74.946 C 161.299 75.224,162.019 76.337,162.267 76.442 C 162.347 76.476,162.413 76.581,162.413 76.674 C 162.413 77.045,163.185 77.587,163.711 77.587 C 165.156 77.587,166.291 74.717,166.507 70.514 C 166.645 67.833,166.739 67.212,167.231 65.732 C 167.594 64.639,167.796 63.656,167.796 62.979 C 167.796 60.408,168.609 58.555,171.362 54.849 C 174.381 50.786,175.617 49.942,178.176 50.195 C 179.608 50.336,179.612 50.333,180.593 48.538 C 182.395 45.238,185.718 43.788,190.751 44.106 L 193.689 44.291 195.610 45.384 C 197.709 46.578,198.210 47.101,198.700 48.607 C 199.882 52.244,203.434 51.334,203.434 47.394 C 203.434 45.600,203.201 45.053,202.105 44.266 C 200.783 43.316,200.602 42.772,200.758 40.216 C 200.926 37.437,201.373 36.760,203.044 36.748 C 204.537 36.738,207.671 35.692,209.072 34.738 C 210.764 33.585,211.323 33.440,212.435 33.864 C 213.753 34.368,215.204 33.013,215.580 30.928 C 215.651 30.533,215.783 30.074,215.871 29.908 C 215.960 29.741,216.237 29.137,216.486 28.565 C 217.038 27.297,217.436 26.987,220.720 25.265 C 223.415 23.851,223.936 23.441,225.491 21.506 C 226.508 20.240,227.247 19.741,229.292 18.934 C 229.885 18.700,230.841 18.144,231.416 17.698 C 232.743 16.667,233.325 16.518,236.404 16.423 C 238.212 16.367,239.314 16.233,240.333 15.948 C 242.608 15.309,246.677 15.046,248.724 15.404 C 253.066 16.165,256.509 16.407,258.176 16.070 C 258.970 15.909,259.935 15.777,260.320 15.777 C 260.727 15.777,261.644 15.496,262.510 15.105 C 264.246 14.321,266.218 14.260,267.205 14.960 C 268.372 15.787,268.634 15.915,268.977 15.826 C 270.322 15.474,270.119 13.095,268.627 11.728 C 267.073 10.305,266.105 10.066,260.974 9.836 C 258.882 9.743,255.415 9.540,253.271 9.386 C 251.128 9.232,249.290 9.114,249.188 9.125 C 249.086 9.135,248.376 9.214,247.610 9.301 M229.507 30.602 C 228.687 30.879,227.643 31.372,227.187 31.699 C 226.731 32.026,225.552 32.834,224.567 33.493 C 222.415 34.934,219.916 37.112,219.360 38.032 C 219.138 38.400,218.593 39.178,218.150 39.760 C 217.707 40.343,217.152 41.237,216.916 41.747 C 216.679 42.257,216.186 43.006,215.819 43.412 C 214.727 44.621,214.526 46.222,215.416 46.627 C 215.955 46.873,218.422 46.017,220.626 44.817 C 221.456 44.366,222.876 43.737,223.782 43.420 C 225.788 42.717,229.176 40.952,231.183 39.565 C 235.571 36.532,236.245 35.132,234.862 31.926 C 234.796 31.773,234.728 31.606,234.710 31.555 C 234.517 30.997,234.286 30.783,233.676 30.601 C 233.282 30.482,233.003 30.315,233.056 30.228 C 233.275 29.875,230.934 30.122,229.507 30.602 M285.661 47.140 C 284.794 47.219,281.828 47.502,279.072 47.771 C 275.276 48.141,273.011 48.259,269.734 48.260 C 264.714 48.260,263.316 48.432,261.478 49.277 C 260.742 49.616,259.513 50.078,258.747 50.304 C 256.872 50.858,256.015 51.317,253.828 52.939 C 249.170 56.394,247.371 57.056,242.599 57.068 L 239.165 57.077 236.937 56.360 C 234.038 55.427,233.252 55.007,232.019 53.730 C 230.604 52.266,230.142 52.098,227.951 52.254 C 224.143 52.526,222.833 52.944,221.727 54.241 C 220.351 55.855,218.674 57.133,217.376 57.557 C 214.940 58.354,214.664 58.824,215.338 61.033 C 215.578 61.821,215.569 61.859,214.715 63.538 C 214.238 64.476,213.713 65.636,213.548 66.115 C 213.153 67.264,212.714 67.794,211.648 68.405 C 210.607 69.002,210.126 69.541,210.120 70.116 C 210.118 70.346,210.012 70.543,209.884 70.555 C 209.437 70.596,208.906 70.516,208.538 70.353 C 208.334 70.262,207.776 70.136,207.298 70.073 C 205.879 69.885,205.405 69.381,205.567 68.230 C 205.875 66.050,205.709 65.600,203.867 63.609 C 203.378 63.079,203.240 62.794,203.321 62.474 C 203.682 61.034,202.786 60.133,200.685 59.824 C 199.123 59.595,198.720 59.794,198.644 60.829 C 198.541 62.246,199.536 63.290,200.997 63.297 C 202.811 63.307,202.573 64.512,200.650 65.059 C 200.394 65.132,199.893 65.465,199.536 65.799 C 198.648 66.629,198.216 66.821,197.237 66.821 C 195.535 66.821,195.295 66.536,195.074 64.253 C 194.877 62.218,194.605 62.085,193.198 63.340 C 190.440 65.802,189.712 66.147,188.440 65.592 C 186.736 64.850,185.856 64.923,184.745 65.899 C 183.813 66.717,182.921 67.113,180.861 67.621 C 177.711 68.399,176.011 69.558,174.274 72.111 C 173.519 73.222,173.221 73.462,171.889 74.034 C 170.249 74.738,169.936 75.708,170.893 77.126 C 171.856 78.554,172.314 78.646,173.318 77.616 C 174.306 76.603,174.643 76.473,176.281 76.473 C 178.189 76.473,179.422 76.136,180.679 75.270 C 181.820 74.484,182.794 74.433,184.100 75.091 C 185.001 75.545,186.315 75.371,187.484 74.644 C 189.126 73.624,189.512 73.914,190.531 76.937 C 191.825 80.773,193.044 81.416,195.236 79.417 C 196.512 78.253,196.905 78.164,198.416 78.695 C 200.523 79.435,201.784 80.190,202.076 80.888 C 202.560 82.047,201.609 86.340,200.565 87.709 C 200.032 88.408,199.994 88.538,200.325 88.540 C 200.583 88.541,201.021 89.368,201.021 89.853 C 201.021 90.303,200.702 90.975,199.443 93.179 C 198.446 94.924,198.320 95.263,198.237 96.419 L 198.144 97.710 197.461 97.753 C 194.565 97.935,194.318 101.258,196.836 106.141 C 197.567 107.559,198.241 109.206,198.557 110.348 C 198.614 110.552,198.760 110.845,198.882 110.998 C 199.678 111.997,199.718 114.008,198.971 115.466 C 197.398 118.537,197.949 120.971,199.771 119.002 C 200.219 118.517,200.909 118.087,201.889 117.683 C 202.687 117.353,203.489 116.952,203.670 116.792 C 204.177 116.344,204.451 116.767,204.398 117.915 C 204.324 119.506,204.680 120.612,205.510 121.375 C 206.339 122.136,206.719 122.806,206.872 123.777 C 207.683 128.910,208.616 130.094,209.886 127.604 C 211.109 125.207,211.170 122.767,210.047 121.137 C 209.038 119.671,209.117 119.209,210.546 118.237 C 211.488 117.596,211.819 116.832,211.686 115.604 C 211.503 113.908,212.382 112.951,214.384 112.668 C 215.733 112.478,215.867 112.382,216.597 111.090 C 217.845 108.878,218.984 109.626,219.377 112.918 C 219.612 114.885,219.963 115.530,221.303 116.452 C 222.914 117.562,223.655 117.290,224.574 115.254 C 225.545 113.103,225.927 113.201,226.175 115.667 C 226.241 116.315,226.504 117.471,226.761 118.237 C 227.148 119.391,227.208 119.835,227.112 120.835 C 226.843 123.638,229.058 127.775,231.441 128.925 C 232.094 129.239,232.790 129.720,232.988 129.992 C 233.207 130.292,233.525 130.487,233.797 130.487 C 234.207 130.487,234.355 130.738,234.266 131.281 C 234.253 131.361,234.369 131.474,234.523 131.533 C 234.677 131.592,234.803 131.744,234.803 131.870 C 234.803 132.197,236.529 133.613,237.926 134.432 C 239.386 135.287,239.950 135.311,240.762 134.553 C 241.765 133.615,242.410 133.627,243.168 134.598 C 244.071 135.753,244.202 135.870,244.590 135.870 C 245.078 135.870,245.383 135.509,245.383 134.932 C 245.383 131.955,249.008 132.700,249.351 135.748 C 249.537 137.397,248.514 140.065,248.234 138.663 C 248.093 137.961,247.954 137.864,247.395 138.078 C 247.013 138.226,247.000 138.262,247.285 138.377 C 247.464 138.449,247.610 138.615,247.610 138.744 C 247.610 138.874,247.849 139.079,248.141 139.200 C 248.514 139.355,248.745 139.642,248.917 140.162 C 249.364 141.518,250.371 141.600,252.959 140.495 C 253.936 140.078,255.183 139.569,255.731 139.363 C 256.443 139.097,257.082 138.638,257.969 137.753 C 259.671 136.058,261.333 135.267,263.852 134.955 C 267.047 134.558,268.726 133.591,269.356 131.783 C 269.462 131.479,269.615 131.230,269.697 131.230 C 270.204 131.230,270.008 130.559,269.314 129.919 C 268.300 128.982,267.781 126.795,268.507 126.516 C 269.004 126.325,269.327 126.391,269.327 126.682 C 269.327 126.835,269.397 126.961,269.483 126.961 C 269.569 126.961,269.792 127.483,269.979 128.121 C 270.165 128.759,270.387 129.360,270.472 129.457 C 270.557 129.554,270.626 129.763,270.626 129.921 C 270.626 130.784,273.454 130.194,275.088 128.991 C 275.755 128.500,276.841 127.869,277.501 127.588 C 278.161 127.308,278.925 126.925,279.199 126.737 C 280.687 125.718,282.458 125.636,283.825 126.524 C 286.190 128.060,289.483 126.852,293.461 122.988 C 294.025 122.440,295.139 121.607,295.935 121.136 C 296.732 120.665,297.733 119.997,298.159 119.652 C 299.352 118.686,300.024 118.419,301.758 118.222 C 302.877 118.095,303.911 117.817,305.187 117.303 C 307.738 116.275,308.492 116.403,308.492 117.867 C 308.492 119.668,308.790 120.309,310.403 121.971 C 311.241 122.834,312.385 124.038,312.947 124.648 C 313.508 125.257,314.336 126.088,314.786 126.495 C 315.741 127.357,316.172 128.238,316.568 130.136 C 316.725 130.891,317.099 132.385,317.398 133.457 C 317.698 134.529,318.039 136.158,318.157 137.077 C 318.357 138.629,318.486 139.021,319.341 140.651 C 320.174 142.242,318.391 144.051,315.106 144.948 C 313.161 145.479,313.043 145.552,311.135 147.387 C 309.393 149.062,309.345 149.088,305.986 150.166 C 303.719 150.894,303.199 151.152,302.812 151.743 C 302.395 152.379,302.590 152.797,303.244 152.668 C 303.527 152.612,304.510 152.491,305.429 152.399 C 306.348 152.307,308.077 152.097,309.271 151.931 L 311.442 151.631 313.355 152.103 C 314.780 152.455,315.755 152.575,317.186 152.575 C 319.012 152.575,319.188 152.611,320.806 153.310 C 321.741 153.715,322.841 154.130,323.251 154.234 C 324.008 154.425,324.516 154.731,327.122 156.561 C 328.763 157.713,329.051 157.766,331.079 157.291 C 333.154 156.804,334.771 157.128,335.794 158.235 C 336.040 158.502,336.596 158.970,337.030 159.276 C 337.916 159.901,337.956 160.080,337.495 161.392 C 337.260 162.063,336.823 162.663,335.917 163.559 C 333.951 165.503,334.270 166.315,337.020 166.368 C 338.393 166.394,338.542 166.355,339.867 165.628 C 340.636 165.206,342.014 164.559,342.929 164.190 C 345.005 163.354,346.206 162.547,346.762 161.613 C 346.999 161.215,347.553 160.347,347.993 159.683 C 348.985 158.189,349.071 157.962,349.512 155.688 C 349.923 153.569,350.288 152.882,351.439 152.055 C 352.411 151.357,353.115 150.492,353.961 148.956 C 354.298 148.343,355.194 146.909,355.951 145.768 C 358.693 141.636,359.620 138.426,359.092 134.890 C 358.470 130.724,358.916 126.764,360.643 121.106 C 361.512 118.258,361.783 110.981,361.279 104.037 C 361.090 101.442,359.492 96.163,358.132 93.643 C 357.801 93.030,357.390 92.028,357.217 91.415 C 356.670 89.476,354.332 85.382,353.160 84.310 C 352.906 84.078,352.432 83.409,352.107 82.825 C 351.782 82.241,351.161 81.304,350.726 80.742 C 350.292 80.181,349.766 79.388,349.558 78.979 C 349.123 78.127,347.993 76.858,344.594 73.400 C 343.267 72.050,341.596 70.263,340.882 69.429 C 339.987 68.385,339.262 67.741,338.554 67.362 C 337.989 67.059,336.736 66.079,335.770 65.183 C 332.942 62.561,328.573 59.155,326.424 57.899 C 325.800 57.534,324.664 56.857,323.898 56.394 C 321.169 54.743,319.143 53.665,317.680 53.086 C 316.863 52.763,315.940 52.342,315.629 52.150 C 315.317 51.959,313.897 51.390,312.473 50.885 C 311.049 50.381,309.355 49.745,308.709 49.472 C 307.322 48.886,304.544 48.391,300.348 47.983 C 298.676 47.821,296.796 47.558,296.171 47.400 C 294.863 47.068,288.263 46.905,285.661 47.140 M181.295 53.120 C 180.607 53.807,179.981 58.487,180.454 59.397 C 181.122 60.678,183.963 61.227,185.758 60.422 C 187.185 59.781,189.698 57.307,189.698 56.542 C 189.698 54.748,182.570 51.845,181.295 53.120 M185.277 96.198 C 183.953 96.622,183.266 97.699,183.828 98.468 C 184.406 99.259,187.471 97.874,187.471 96.822 C 187.471 95.987,186.658 95.756,185.277 96.198 M208.845 111.198 C 210.354 112.006,209.957 115.048,208.298 115.380 C 206.690 115.701,206.382 115.095,207.066 112.953 C 207.706 110.950,207.943 110.716,208.845 111.198 M259.157 144.124 C 257.350 144.533,256.180 145.166,254.647 146.563 C 253.847 147.292,252.566 148.206,251.684 148.680 C 250.829 149.138,249.660 149.865,249.086 150.295 C 247.697 151.335,247.329 151.460,244.814 151.743 C 242.234 152.034,241.308 152.433,239.211 154.160 C 238.845 154.462,238.782 155.375,239.088 155.946 C 239.928 157.516,252.003 159.007,257.633 158.237 C 258.705 158.090,260.296 157.967,261.167 157.964 C 263.029 157.957,264.439 157.626,266.135 156.796 C 268.362 155.707,268.675 154.524,267.442 151.854 C 266.458 149.723,266.469 147.530,267.466 146.969 C 268.113 146.605,268.249 145.893,267.672 145.893 C 266.927 145.893,264.916 145.268,263.711 144.662 C 262.206 143.905,260.837 143.743,259.157 144.124 M236.224 144.562 C 235.682 145.161,235.997 145.958,236.856 146.161 C 237.446 146.301,237.728 146.099,237.845 145.454 C 238.039 144.384,236.935 143.776,236.224 144.562 M232.854 150.272 C 231.412 150.667,230.968 150.712,229.606 150.599 C 227.588 150.432,227.002 150.619,223.109 152.672 C 222.854 152.807,222.319 153.391,221.921 153.970 C 221.523 154.549,220.670 155.444,220.027 155.960 C 217.927 157.643,217.666 158.924,218.821 161.878 C 219.303 163.112,219.785 164.023,220.131 164.355 C 221.486 165.652,221.534 166.545,220.342 168.294 C 219.819 169.062,219.380 169.942,219.308 170.371 C 219.204 170.985,219.062 171.178,218.501 171.469 C 218.081 171.687,217.819 171.958,217.819 172.173 C 217.819 172.703,218.407 172.707,218.895 172.181 C 219.133 171.925,219.789 171.542,220.352 171.331 C 221.423 170.930,221.922 170.493,222.375 169.559 C 222.970 168.332,224.417 167.174,226.863 165.969 C 228.965 164.933,229.342 164.672,230.297 163.590 C 230.886 162.921,231.880 161.813,232.505 161.128 C 233.909 159.586,234.019 159.382,234.338 157.714 C 234.716 155.740,234.882 155.419,236.202 154.112 C 237.564 152.763,237.762 151.963,237.029 150.761 C 236.362 149.666,235.452 149.559,232.854 150.272 M299.954 156.615 C 299.419 157.150,299.205 157.559,299.037 158.367 C 298.655 160.209,299.253 160.810,302.318 161.666 C 304.148 162.176,304.202 162.231,304.344 163.737 C 304.472 165.091,304.522 165.213,305.670 166.932 C 306.272 167.834,306.928 168.505,307.923 169.241 C 308.695 169.811,309.431 170.381,309.557 170.507 C 310.056 171.003,315.597 171.491,316.954 171.158 C 320.673 170.246,321.309 168.150,318.570 165.838 C 316.428 164.030,315.715 163.712,313.801 163.712 C 312.580 163.712,312.525 163.692,311.772 162.948 C 310.422 161.615,310.313 161.576,308.131 161.628 C 305.270 161.697,305.118 161.595,304.494 159.175 C 303.739 156.254,301.550 155.019,299.954 156.615 M325.104 166.476 C 323.531 166.716,324.467 168.167,326.194 168.167 C 326.825 168.167,327.610 167.665,327.610 167.261 C 327.610 166.986,326.347 166.268,325.985 166.337 C 325.909 166.352,325.513 166.414,325.104 166.476 M207.483 167.067 C 206.688 167.158,206.199 167.351,205.504 167.850 C 204.997 168.215,204.219 168.608,203.776 168.723 C 200.884 169.478,200.376 169.770,200.496 170.611 C 200.815 172.866,206.032 172.446,206.032 170.166 C 206.032 169.491,206.763 168.952,208.118 168.626 C 211.139 167.899,210.653 166.706,207.483 167.067 " stroke="none" fill="#6d5a2a" fill-rule="evenodd"></path><path id="path2" d="M0.000 91.285 L 0.000 182.571 1.067 182.789 C 2.599 183.102,6.459 183.433,6.717 183.273 C 7.108 183.031,177.285 182.944,182.923 183.183 C 186.713 183.344,188.410 183.343,189.884 183.180 C 190.956 183.062,194.715 182.943,198.237 182.917 C 201.759 182.891,206.353 182.810,208.445 182.738 C 211.516 182.632,212.624 182.664,214.186 182.904 C 216.499 183.260,219.498 183.285,223.710 182.984 C 226.111 182.812,228.262 182.811,233.177 182.980 C 240.023 183.214,240.491 183.217,267.100 183.152 C 279.070 183.123,286.222 183.029,289.125 182.862 C 292.989 182.640,293.694 182.646,296.086 182.927 C 298.793 183.245,324.887 183.194,335.035 182.851 C 337.026 182.783,342.914 182.822,348.121 182.936 C 353.327 183.049,359.717 183.132,362.320 183.118 C 364.923 183.104,374.466 183.076,383.527 183.055 L 400.000 183.016 400.000 91.508 L 400.000 0.000 200.000 0.000 L 0.000 0.000 0.000 91.285 M255.128 9.005 C 255.842 9.158,256.761 9.331,257.169 9.388 C 257.578 9.445,258.204 9.534,258.561 9.585 C 258.919 9.637,260.464 9.697,261.995 9.720 C 267.179 9.798,270.010 11.710,270.825 15.686 C 271.357 18.282,269.694 21.257,266.157 24.038 C 264.167 25.603,263.167 27.008,262.658 28.956 C 260.789 36.102,259.136 38.621,254.173 41.889 C 253.324 42.448,252.231 43.259,251.744 43.691 C 248.436 46.626,247.780 46.979,242.784 48.526 C 236.960 50.329,235.741 51.745,237.191 55.023 C 238.430 57.824,245.007 58.047,249.188 55.430 C 250.991 54.301,252.249 53.646,252.622 53.640 C 252.775 53.637,253.527 53.169,254.292 52.600 C 255.058 52.031,256.074 51.366,256.550 51.124 C 257.026 50.881,257.591 50.436,257.806 50.134 C 258.551 49.088,259.365 48.752,261.316 48.688 C 262.285 48.656,263.586 48.547,264.207 48.446 C 264.828 48.345,266.840 48.261,268.677 48.258 C 270.515 48.255,272.770 48.173,273.689 48.075 C 274.608 47.977,276.445 47.847,277.773 47.787 C 279.100 47.726,280.979 47.597,281.949 47.499 C 288.327 46.857,293.843 46.824,296.216 47.415 C 296.865 47.576,298.828 47.832,300.578 47.983 C 306.340 48.481,306.087 48.450,308.306 48.940 C 309.891 49.290,311.805 50.088,312.410 50.652 C 312.636 50.862,313.245 51.171,313.765 51.338 C 314.285 51.506,315.051 51.837,315.468 52.075 C 315.884 52.313,316.887 52.770,317.695 53.091 C 318.503 53.411,319.875 54.069,320.742 54.552 C 321.610 55.035,323.949 56.228,325.940 57.202 C 328.530 58.470,329.797 59.201,330.394 59.772 C 330.854 60.210,331.952 61.054,332.836 61.647 C 333.719 62.240,335.139 63.391,335.991 64.204 C 336.843 65.017,337.829 65.877,338.182 66.115 C 338.823 66.546,341.331 69.371,341.341 69.672 C 341.360 70.265,346.159 75.077,347.221 75.567 C 347.790 75.830,350.626 78.521,350.626 78.799 C 350.626 79.019,351.889 80.864,352.464 81.485 C 353.265 82.350,353.510 82.849,353.783 84.176 C 353.934 84.910,354.298 85.733,354.852 86.589 C 355.735 87.954,356.796 89.983,357.034 90.761 C 357.111 91.014,357.454 91.627,357.796 92.124 C 358.138 92.621,358.504 93.375,358.611 93.799 C 358.717 94.223,359.089 95.448,359.437 96.520 C 360.947 101.170,361.203 102.388,361.326 105.537 C 361.390 107.162,361.509 108.577,361.590 108.681 C 362.039 109.257,362.689 113.111,362.735 115.475 C 362.791 118.305,362.597 118.978,361.484 119.828 C 361.134 120.095,360.858 120.368,360.871 120.435 C 360.884 120.502,360.831 120.724,360.755 120.928 C 359.770 123.546,359.491 125.529,359.529 129.652 C 359.557 132.800,359.588 133.183,359.991 135.449 C 361.508 143.964,359.688 149.039,354.509 150.739 C 352.918 151.261,352.006 151.743,351.651 152.250 C 350.300 154.178,349.516 155.630,349.353 156.508 C 349.103 157.853,348.861 158.433,348.137 159.428 C 347.796 159.896,347.347 160.617,347.138 161.031 C 346.929 161.444,346.480 162.056,346.140 162.390 C 345.579 162.941,345.010 163.247,341.717 164.770 C 341.155 165.030,340.237 165.473,339.675 165.754 C 339.114 166.036,338.350 166.320,337.977 166.386 C 337.605 166.452,337.103 166.659,336.863 166.846 C 335.432 167.962,332.480 168.716,329.105 168.827 C 326.726 168.906,325.123 169.093,323.434 169.488 C 323.026 169.583,321.937 169.771,321.015 169.904 C 320.093 170.038,319.132 170.279,318.880 170.441 C 318.299 170.813,316.567 171.323,315.883 171.323 C 315.595 171.323,315.360 171.392,315.360 171.478 C 315.360 171.958,312.598 172.918,310.475 173.176 C 309.742 173.265,308.557 173.465,307.842 173.620 C 303.989 174.455,299.878 174.694,296.288 174.292 C 292.518 173.870,288.697 174.479,284.743 176.131 C 279.363 178.380,275.167 178.308,268.956 175.861 C 265.432 174.473,262.144 173.892,258.654 174.042 C 254.599 174.217,252.707 172.581,252.720 168.910 C 252.727 166.882,253.236 165.715,254.742 164.269 C 257.464 161.657,256.521 158.519,253.012 158.513 C 252.338 158.512,250.617 158.384,249.188 158.228 C 246.789 157.966,242.029 157.979,240.557 158.250 C 240.302 158.297,239.926 158.367,239.722 158.406 C 238.853 158.570,236.476 158.878,235.360 158.971 C 234.380 159.054,234.101 159.151,233.875 159.490 C 233.722 159.719,233.300 160.241,232.938 160.650 C 232.576 161.058,232.128 161.633,231.943 161.927 C 231.758 162.221,231.409 162.684,231.167 162.955 C 230.925 163.227,230.094 164.469,229.321 165.715 C 227.572 168.534,226.528 169.428,222.831 171.264 C 218.921 173.207,217.145 174.434,215.508 176.324 C 213.823 178.269,211.602 179.005,207.610 178.942 C 201.298 178.842,200.093 178.849,198.576 178.994 C 195.190 179.319,190.733 178.247,189.290 176.763 C 186.683 174.081,187.898 170.628,192.278 168.273 C 194.801 166.916,196.285 165.194,197.648 162.042 C 198.996 158.924,200.774 155.913,201.689 155.200 C 201.985 154.969,203.116 154.118,204.203 153.310 C 208.950 149.776,209.601 147.252,206.643 143.852 C 206.243 143.392,205.506 142.432,205.005 141.717 C 204.503 141.002,203.311 139.541,202.356 138.469 C 200.630 136.533,200.535 136.378,198.627 132.343 C 198.410 131.884,197.544 130.617,196.703 129.528 C 195.862 128.439,194.923 127.199,194.617 126.771 C 194.311 126.344,193.494 125.491,192.803 124.876 C 192.111 124.261,191.125 123.194,190.612 122.503 C 190.098 121.813,189.310 120.940,188.860 120.564 C 187.683 119.581,186.483 117.802,185.912 116.195 C 185.096 113.898,184.430 112.657,183.132 111.011 C 181.643 109.123,181.066 107.954,180.678 106.041 C 180.517 105.245,180.308 104.218,180.214 103.759 C 179.607 100.798,178.733 99.248,176.319 96.851 C 173.430 93.984,171.999 93.128,168.631 92.254 C 166.229 91.631,164.407 90.820,163.279 89.872 C 162.710 89.394,161.596 88.459,160.804 87.796 C 158.254 85.658,156.995 84.269,156.103 82.606 C 155.644 81.751,155.028 80.752,154.734 80.386 C 153.634 79.020,152.576 76.009,152.575 74.246 C 152.575 73.889,152.442 72.970,152.279 72.204 C 151.938 70.604,152.029 68.143,152.509 65.995 C 152.830 64.561,153.098 64.043,154.361 62.427 C 155.567 60.885,156.048 59.843,156.689 57.392 C 157.658 53.688,158.730 51.938,160.881 50.549 C 161.416 50.203,161.999 49.693,162.176 49.415 C 162.353 49.137,162.547 48.868,162.608 48.817 C 162.669 48.766,162.877 48.452,163.070 48.121 C 163.263 47.789,163.475 47.517,163.540 47.517 C 163.755 47.517,165.568 45.750,165.568 45.540 C 165.568 45.077,166.865 44.006,168.167 43.393 C 169.474 42.779,172.408 40.959,172.629 40.626 C 172.685 40.543,173.064 40.357,173.473 40.213 C 173.882 40.068,174.630 39.700,175.136 39.394 C 176.235 38.730,177.379 38.352,179.457 37.968 C 180.307 37.811,182.103 37.343,183.448 36.929 C 184.793 36.514,186.227 36.081,186.636 35.967 C 187.044 35.852,188.255 35.364,189.327 34.883 C 190.449 34.378,192.042 33.841,193.080 33.616 C 196.623 32.850,200.203 31.709,201.637 30.889 C 202.064 30.645,202.538 30.444,202.691 30.441 C 203.576 30.429,208.776 26.901,210.476 25.159 C 211.669 23.937,212.910 23.320,214.956 22.932 C 216.900 22.563,217.357 22.303,219.098 20.576 C 220.454 19.231,223.036 17.448,223.627 17.448 C 223.765 17.448,224.227 17.248,224.654 17.003 C 225.080 16.759,226.223 16.250,227.193 15.872 C 230.709 14.504,234.111 12.892,235.312 12.025 C 237.114 10.723,238.325 10.301,242.970 9.357 C 247.120 8.514,252.169 8.367,255.128 9.005 M66.686 22.652 C 71.665 22.923,72.962 23.246,74.210 24.522 C 75.369 25.707,75.317 24.285,75.223 52.583 C 75.162 70.902,75.199 79.161,75.350 81.168 C 75.517 83.400,75.512 84.359,75.322 85.754 C 75.060 87.674,75.041 95.618,75.280 103.122 C 75.577 112.470,74.167 113.637,62.914 113.354 C 58.777 113.249,58.281 113.113,56.617 111.616 C 54.734 109.923,54.692 109.509,55.007 95.589 C 55.140 89.695,55.120 88.522,54.850 86.587 C 54.621 84.944,54.571 83.755,54.659 82.042 C 54.878 77.773,55.092 55.902,54.934 53.925 C 54.655 50.435,53.517 49.713,51.492 51.740 C 51.007 52.225,49.938 53.148,49.115 53.792 C 48.148 54.548,47.197 55.523,46.429 56.547 C 42.968 61.158,38.648 61.345,35.499 57.019 C 34.854 56.132,33.582 54.696,32.674 53.828 C 30.370 51.628,29.824 49.404,30.849 46.404 C 31.271 45.170,35.574 40.534,38.341 38.332 C 38.845 37.931,39.842 37.053,40.557 36.382 C 41.271 35.712,42.357 34.748,42.970 34.242 C 45.226 32.377,49.164 28.547,50.264 27.148 C 53.562 22.955,56.667 22.105,66.686 22.652 M92.082 130.462 C 93.098 130.812,97.395 133.571,98.529 134.601 C 99.149 135.165,101.345 139.461,102.119 141.624 C 103.167 144.557,102.684 147.290,100.750 149.369 C 99.187 151.049,99.051 151.460,99.209 154.000 C 99.495 158.578,98.056 159.846,91.970 160.379 C 85.726 160.925,82.272 160.119,79.854 157.550 C 77.236 154.769,75.962 154.668,74.164 157.100 C 72.581 159.240,71.290 159.866,68.477 159.853 C 64.537 159.836,63.964 158.628,63.757 149.908 C 63.605 143.479,63.301 142.574,61.238 142.421 C 58.311 142.203,57.182 145.136,57.864 151.183 C 58.638 158.060,55.751 161.192,50.166 159.534 C 48.926 159.165,48.374 158.696,47.409 157.191 C 46.055 155.079,44.578 155.254,42.067 157.825 C 39.996 159.944,39.349 160.162,34.458 160.386 C 27.419 160.708,23.759 159.984,21.988 157.919 C 16.466 151.482,15.039 144.624,18.078 139.118 C 18.927 137.579,23.314 133.114,25.130 131.940 C 29.317 129.234,36.862 129.887,41.042 133.319 C 44.401 136.076,45.966 136.283,47.355 134.153 C 49.235 131.269,51.642 130.553,55.860 131.624 C 57.413 132.019,57.609 132.001,60.696 131.178 C 66.245 129.698,68.626 130.432,71.090 134.384 C 74.409 139.704,74.205 139.693,78.769 134.773 C 79.958 133.492,85.356 130.810,87.889 130.242 C 88.891 130.018,91.134 130.135,92.082 130.462 M30.936 141.148 C 26.931 142.224,27.252 147.983,31.433 150.067 C 33.583 151.138,35.243 149.874,35.619 146.878 C 36.175 142.446,34.361 140.227,30.936 141.148 " stroke="none" fill="#a5fa08" fill-rule="evenodd"></path><path id="path3" d="M247.053 8.725 C 245.250 8.889,241.767 9.543,239.229 10.192 C 237.766 10.567,236.529 11.145,235.312 12.025 C 234.111 12.892,230.709 14.504,227.193 15.872 C 226.223 16.250,225.080 16.759,224.654 17.003 C 224.227 17.248,223.765 17.448,223.627 17.448 C 222.810 17.448,219.744 19.749,218.190 21.527 L 217.819 21.952 218.283 21.822 C 222.605 20.614,224.748 19.660,226.284 18.262 C 227.141 17.481,227.978 17.040,230.898 15.830 C 232.455 15.185,234.077 14.348,235.007 13.710 C 235.272 13.528,236.108 13.176,236.863 12.929 C 237.619 12.681,239.615 11.894,241.299 11.181 C 245.992 9.192,247.391 8.984,253.383 9.382 C 255.568 9.527,257.515 9.647,257.711 9.649 C 258.298 9.654,257.938 9.478,257.156 9.378 C 256.755 9.327,255.842 9.158,255.128 9.005 C 253.504 8.655,249.382 8.512,247.053 8.725 M258.190 9.652 C 258.190 9.754,258.545 9.829,258.979 9.819 C 259.649 9.803,259.698 9.778,259.304 9.652 C 258.636 9.438,258.190 9.438,258.190 9.652 M263.573 9.837 C 265.249 10.183,265.733 10.232,265.388 10.021 C 265.212 9.913,264.543 9.789,263.903 9.745 C 262.804 9.670,262.785 9.675,263.573 9.837 M269.833 13.972 C 269.943 14.941,269.613 15.659,268.983 15.824 C 268.634 15.915,268.373 15.789,267.205 14.960 C 266.218 14.260,264.246 14.321,262.510 15.105 C 261.644 15.496,260.727 15.777,260.320 15.777 C 259.935 15.777,258.970 15.909,258.176 16.070 C 256.509 16.407,253.066 16.165,248.724 15.404 C 246.677 15.046,242.608 15.309,240.333 15.948 C 239.314 16.233,238.212 16.367,236.404 16.423 C 233.325 16.518,232.743 16.667,231.416 17.698 C 230.841 18.144,229.885 18.700,229.292 18.934 C 227.247 19.741,226.508 20.240,225.491 21.506 C 223.936 23.441,223.415 23.851,220.720 25.265 C 217.436 26.987,217.038 27.297,216.486 28.565 C 216.237 29.137,215.960 29.741,215.871 29.908 C 215.783 30.074,215.651 30.533,215.580 30.928 C 215.204 33.013,213.753 34.368,212.435 33.864 C 211.323 33.440,210.764 33.585,209.072 34.738 C 207.671 35.692,204.537 36.738,203.044 36.748 C 201.373 36.760,200.926 37.437,200.758 40.216 C 200.602 42.772,200.783 43.316,202.105 44.266 C 203.201 45.053,203.434 45.600,203.434 47.394 C 203.434 51.334,199.882 52.244,198.700 48.607 C 198.210 47.101,197.709 46.578,195.610 45.384 L 193.689 44.291 190.751 44.106 C 185.718 43.788,182.395 45.238,180.593 48.538 C 179.612 50.333,179.608 50.336,178.176 50.195 C 175.617 49.942,174.381 50.786,171.362 54.849 C 168.609 58.555,167.796 60.408,167.796 62.979 C 167.796 63.656,167.594 64.639,167.231 65.732 C 166.739 67.212,166.645 67.833,166.507 70.514 C 166.291 74.717,165.156 77.587,163.711 77.587 C 163.185 77.587,162.413 77.045,162.413 76.674 C 162.413 76.581,162.347 76.476,162.267 76.442 C 162.019 76.337,161.299 75.224,161.299 74.946 C 161.299 72.810,158.155 70.190,156.982 71.348 C 156.855 71.473,156.251 71.925,155.638 72.354 C 155.026 72.782,154.299 73.312,154.025 73.532 C 153.549 73.912,153.502 73.916,153.050 73.620 L 152.575 73.309 152.575 74.103 C 152.575 76.005,153.594 78.970,154.734 80.386 C 155.028 80.752,155.644 81.751,156.103 82.606 C 156.995 84.269,158.254 85.658,160.804 87.796 C 161.596 88.459,162.710 89.394,163.279 89.872 C 164.407 90.820,166.229 91.631,168.631 92.254 C 174.476 93.771,179.110 98.373,180.214 103.759 C 180.308 104.218,180.517 105.245,180.678 106.041 C 181.066 107.954,181.643 109.123,183.132 111.011 C 184.430 112.657,185.096 113.898,185.912 116.195 C 186.483 117.802,187.683 119.581,188.860 120.564 C 189.310 120.940,190.098 121.813,190.612 122.503 C 191.125 123.194,192.111 124.261,192.803 124.876 C 193.494 125.491,194.311 126.344,194.617 126.771 C 194.923 127.199,195.862 128.439,196.703 129.528 C 197.544 130.617,198.410 131.884,198.627 132.343 C 200.535 136.378,200.630 136.533,202.356 138.469 C 203.311 139.541,204.503 141.002,205.005 141.717 C 205.506 142.432,206.243 143.392,206.643 143.852 C 209.601 147.252,208.950 149.776,204.203 153.310 C 203.116 154.118,201.985 154.969,201.689 155.200 C 200.774 155.913,198.996 158.924,197.648 162.042 C 196.285 165.194,194.801 166.916,192.278 168.273 C 187.898 170.628,186.683 174.081,189.290 176.763 C 190.733 178.247,195.190 179.319,198.576 178.994 C 200.093 178.849,201.298 178.842,207.610 178.942 C 211.602 179.005,213.823 178.269,215.508 176.324 C 217.145 174.434,218.921 173.207,222.831 171.264 C 226.528 169.428,227.572 168.534,229.321 165.715 C 230.094 164.469,230.925 163.227,231.167 162.955 C 231.409 162.684,231.748 162.221,231.921 161.927 C 232.142 161.551,232.052 161.611,231.617 162.129 C 229.670 164.445,229.222 164.807,226.840 165.980 C 224.418 167.174,222.968 168.336,222.375 169.559 C 221.922 170.493,221.423 170.930,220.352 171.331 C 219.789 171.542,219.133 171.925,218.895 172.181 C 218.407 172.707,217.819 172.703,217.819 172.173 C 217.819 171.958,218.081 171.687,218.501 171.469 C 219.062 171.178,219.204 170.985,219.308 170.371 C 219.380 169.942,219.819 169.062,220.342 168.294 C 221.534 166.545,221.486 165.652,220.131 164.355 C 219.785 164.023,219.303 163.112,218.821 161.878 C 217.666 158.924,217.927 157.643,220.027 155.960 C 220.670 155.444,221.523 154.549,221.921 153.970 C 222.319 153.391,222.854 152.807,223.109 152.672 C 226.985 150.628,227.613 150.426,229.516 150.608 C 230.807 150.731,231.247 150.687,232.848 150.271 C 235.563 149.565,236.357 149.658,237.029 150.761 C 237.762 151.963,237.564 152.763,236.202 154.112 C 234.921 155.381,234.693 155.798,234.407 157.401 C 234.307 157.963,234.181 158.572,234.128 158.755 C 234.017 159.134,237.226 158.941,239.536 158.431 C 240.185 158.288,241.655 158.145,243.341 158.062 C 244.413 158.009,245.457 157.956,245.661 157.944 C 245.865 157.933,244.905 157.723,243.527 157.477 C 239.656 156.789,238.886 156.384,238.886 155.038 C 238.886 154.390,238.965 154.300,240.464 153.230 C 241.893 152.211,242.497 152.004,244.814 151.743 C 247.329 151.460,247.697 151.335,249.086 150.295 C 249.660 149.865,250.829 149.138,251.684 148.680 C 252.566 148.206,253.847 147.292,254.647 146.563 C 257.561 143.907,260.851 143.224,263.736 144.674 C 264.920 145.270,266.933 145.893,267.672 145.893 C 268.249 145.893,268.113 146.605,267.466 146.969 C 266.472 147.528,266.458 149.723,267.433 151.836 C 269.202 155.665,267.189 157.631,261.160 157.965 C 259.782 158.041,257.684 158.213,256.498 158.347 L 254.341 158.590 255.052 159.106 C 256.929 160.465,256.820 162.275,254.742 164.269 C 253.236 165.715,252.727 166.882,252.720 168.910 C 252.707 172.581,254.599 174.217,258.654 174.042 C 262.144 173.892,265.432 174.473,268.956 175.861 C 275.167 178.308,279.363 178.380,284.743 176.131 C 288.697 174.479,292.518 173.870,296.288 174.292 C 299.878 174.694,303.989 174.455,307.842 173.620 C 308.557 173.465,309.742 173.265,310.475 173.176 C 312.547 172.924,315.360 171.960,315.360 171.502 C 315.360 171.360,314.364 171.210,312.297 171.039 C 310.370 170.881,309.829 170.777,309.565 170.515 C 309.434 170.384,308.695 169.811,307.923 169.241 C 306.928 168.505,306.272 167.834,305.670 166.932 C 304.522 165.213,304.472 165.091,304.344 163.737 C 304.202 162.231,304.148 162.176,302.318 161.666 C 299.253 160.810,298.655 160.209,299.037 158.367 C 299.792 154.729,303.487 155.277,304.494 159.175 C 305.118 161.595,305.270 161.697,308.131 161.628 C 310.313 161.576,310.422 161.615,311.772 162.948 C 312.525 163.692,312.580 163.712,313.801 163.712 C 315.715 163.712,316.428 164.030,318.570 165.838 C 320.064 167.099,320.688 168.730,319.995 169.565 C 319.541 170.113,321.027 170.071,323.527 169.467 C 325.043 169.100,326.744 168.905,329.105 168.827 C 332.460 168.716,335.432 167.961,336.844 166.861 C 337.332 166.482,337.096 166.311,336.082 166.311 C 334.300 166.311,334.235 165.222,335.917 163.559 C 336.823 162.663,337.260 162.063,337.495 161.392 C 337.956 160.080,337.916 159.901,337.030 159.276 C 336.596 158.970,336.040 158.502,335.794 158.235 C 334.771 157.128,333.154 156.804,331.079 157.291 C 329.051 157.766,328.763 157.713,327.122 156.561 C 324.516 154.731,324.008 154.425,323.251 154.234 C 322.841 154.130,321.741 153.715,320.806 153.310 C 319.188 152.611,319.012 152.575,317.186 152.575 C 315.755 152.575,314.780 152.455,313.355 152.103 L 311.442 151.631 309.271 151.931 C 308.077 152.097,306.348 152.307,305.429 152.399 C 304.510 152.491,303.527 152.612,303.244 152.668 C 302.590 152.797,302.395 152.379,302.812 151.743 C 303.199 151.152,303.719 150.894,305.986 150.166 C 309.345 149.088,309.393 149.062,311.135 147.387 C 313.043 145.552,313.161 145.479,315.106 144.948 C 318.391 144.051,320.174 142.242,319.341 140.651 C 318.486 139.021,318.357 138.629,318.157 137.077 C 318.039 136.158,317.698 134.529,317.398 133.457 C 317.099 132.385,316.725 130.891,316.568 130.136 C 316.172 128.238,315.741 127.357,314.786 126.495 C 314.336 126.088,313.508 125.257,312.947 124.648 C 312.385 124.038,311.241 122.834,310.403 121.971 C 308.790 120.309,308.492 119.668,308.492 117.867 C 308.492 116.403,307.738 116.275,305.187 117.303 C 303.911 117.817,302.877 118.095,301.758 118.222 C 300.024 118.419,299.352 118.686,298.159 119.652 C 297.733 119.997,296.732 120.665,295.935 121.136 C 295.139 121.607,294.025 122.440,293.461 122.988 C 289.483 126.852,286.190 128.060,283.825 126.524 C 282.458 125.636,280.687 125.718,279.199 126.737 C 278.925 126.925,278.161 127.308,277.501 127.588 C 276.841 127.869,275.755 128.500,275.088 128.991 C 273.454 130.194,270.626 130.784,270.626 129.921 C 270.626 129.763,270.557 129.554,270.472 129.457 C 270.387 129.360,270.165 128.759,269.979 128.121 C 269.792 127.483,269.569 126.961,269.483 126.961 C 269.397 126.961,269.327 126.835,269.327 126.682 C 269.327 126.391,269.004 126.325,268.507 126.516 C 267.781 126.795,268.300 128.982,269.314 129.919 C 270.008 130.559,270.204 131.230,269.697 131.230 C 269.615 131.230,269.462 131.479,269.356 131.783 C 268.726 133.591,267.047 134.558,263.852 134.955 C 261.333 135.267,259.671 136.058,257.969 137.753 C 257.082 138.638,256.443 139.097,255.731 139.363 C 255.183 139.569,253.936 140.078,252.959 140.495 C 250.371 141.600,249.364 141.518,248.917 140.162 C 248.745 139.642,248.514 139.355,248.141 139.200 C 247.849 139.079,247.610 138.874,247.610 138.744 C 247.610 138.615,247.464 138.449,247.285 138.377 C 247.000 138.262,247.013 138.226,247.395 138.078 C 247.954 137.864,248.093 137.961,248.234 138.663 C 248.514 140.065,249.537 137.397,249.351 135.748 C 249.008 132.700,245.383 131.955,245.383 134.932 C 245.383 135.509,245.078 135.870,244.590 135.870 C 244.202 135.870,244.071 135.753,243.168 134.598 C 242.410 133.627,241.765 133.615,240.762 134.553 C 239.950 135.311,239.386 135.287,237.926 134.432 C 236.529 133.613,234.803 132.197,234.803 131.870 C 234.803 131.744,234.677 131.592,234.523 131.533 C 234.369 131.474,234.253 131.361,234.266 131.281 C 234.355 130.738,234.207 130.487,233.797 130.487 C 233.525 130.487,233.207 130.292,232.988 129.992 C 232.790 129.720,232.094 129.239,231.441 128.925 C 229.058 127.775,226.843 123.638,227.112 120.835 C 227.208 119.835,227.148 119.391,226.761 118.237 C 226.504 117.471,226.241 116.315,226.175 115.667 C 225.927 113.201,225.545 113.103,224.574 115.254 C 223.655 117.290,222.914 117.562,221.303 116.452 C 219.963 115.530,219.612 114.885,219.377 112.918 C 218.984 109.626,217.845 108.878,216.597 111.090 C 215.867 112.382,215.733 112.478,214.384 112.668 C 212.382 112.951,211.503 113.908,211.686 115.604 C 211.819 116.832,211.488 117.596,210.546 118.237 C 209.117 119.209,209.038 119.671,210.047 121.137 C 211.170 122.767,211.109 125.207,209.886 127.604 C 208.616 130.094,207.683 128.910,206.872 123.777 C 206.719 122.806,206.339 122.136,205.510 121.375 C 204.680 120.612,204.324 119.506,204.398 117.915 C 204.451 116.767,204.177 116.344,203.670 116.792 C 203.489 116.952,202.687 117.353,201.889 117.683 C 200.909 118.087,200.219 118.517,199.771 119.002 C 197.949 120.971,197.398 118.537,198.971 115.466 C 199.718 114.008,199.678 111.997,198.882 110.998 C 198.760 110.845,198.614 110.552,198.557 110.348 C 198.241 109.206,197.567 107.559,196.836 106.141 C 194.318 101.258,194.565 97.935,197.461 97.753 L 198.144 97.710 198.237 96.419 C 198.320 95.263,198.446 94.924,199.443 93.179 C 200.702 90.975,201.021 90.303,201.021 89.853 C 201.021 89.368,200.583 88.541,200.325 88.540 C 199.994 88.538,200.032 88.408,200.565 87.709 C 201.609 86.340,202.560 82.047,202.076 80.888 C 201.784 80.190,200.523 79.435,198.416 78.695 C 196.905 78.164,196.512 78.253,195.236 79.417 C 193.044 81.416,191.825 80.773,190.531 76.937 C 189.512 73.914,189.126 73.624,187.484 74.644 C 186.315 75.371,185.001 75.545,184.100 75.091 C 182.794 74.433,181.820 74.484,180.679 75.270 C 179.422 76.136,178.189 76.473,176.281 76.473 C 174.643 76.473,174.306 76.603,173.318 77.616 C 172.314 78.646,171.856 78.554,170.893 77.126 C 169.936 75.708,170.249 74.738,171.889 74.034 C 173.221 73.462,173.519 73.222,174.274 72.111 C 176.011 69.558,177.711 68.399,180.861 67.621 C 182.921 67.113,183.813 66.717,184.745 65.899 C 185.856 64.923,186.736 64.850,188.440 65.592 C 189.712 66.147,190.440 65.802,193.198 63.340 C 194.605 62.085,194.877 62.218,195.074 64.253 C 195.295 66.536,195.535 66.821,197.237 66.821 C 198.216 66.821,198.648 66.629,199.536 65.799 C 199.893 65.465,200.394 65.132,200.650 65.059 C 202.573 64.512,202.811 63.307,200.997 63.297 C 199.536 63.290,198.541 62.246,198.644 60.829 C 198.720 59.794,199.123 59.595,200.685 59.824 C 202.786 60.133,203.682 61.034,203.321 62.474 C 203.240 62.794,203.378 63.079,203.867 63.609 C 205.709 65.600,205.875 66.050,205.567 68.230 C 205.405 69.381,205.879 69.885,207.298 70.073 C 207.776 70.136,208.334 70.262,208.538 70.353 C 208.906 70.516,209.437 70.596,209.884 70.555 C 210.012 70.543,210.118 70.346,210.120 70.116 C 210.126 69.541,210.607 69.002,211.648 68.405 C 212.714 67.794,213.153 67.264,213.548 66.115 C 213.713 65.636,214.238 64.476,214.715 63.538 C 215.569 61.859,215.578 61.821,215.338 61.033 C 214.664 58.824,214.940 58.354,217.376 57.557 C 218.674 57.133,220.351 55.855,221.727 54.241 C 222.833 52.944,224.143 52.526,227.951 52.254 C 230.142 52.098,230.604 52.266,232.019 53.730 C 233.447 55.208,237.004 56.732,239.814 57.070 L 240.650 57.171 239.615 56.845 C 237.640 56.224,236.958 55.350,236.730 53.150 C 236.515 51.062,237.825 50.061,242.784 48.526 C 247.780 46.979,248.436 46.626,251.744 43.691 C 252.231 43.259,253.324 42.448,254.173 41.889 C 259.136 38.621,260.789 36.102,262.658 28.956 C 263.167 27.008,264.167 25.603,266.157 24.038 C 270.512 20.614,271.989 16.836,270.158 13.802 L 269.735 13.102 269.833 13.972 M58.741 22.655 C 54.720 23.045,52.612 24.163,50.264 27.148 C 49.164 28.547,45.226 32.377,42.970 34.242 C 42.357 34.748,41.271 35.712,40.557 36.382 C 39.842 37.053,38.845 37.931,38.341 38.332 C 35.574 40.534,31.271 45.170,30.849 46.404 C 29.824 49.404,30.370 51.628,32.674 53.828 C 33.582 54.696,34.854 56.132,35.499 57.019 C 38.648 61.345,42.968 61.158,46.429 56.547 C 47.197 55.523,48.148 54.548,49.115 53.792 C 49.938 53.148,51.007 52.225,51.492 51.740 C 53.517 49.713,54.655 50.435,54.934 53.925 C 55.092 55.902,54.878 77.773,54.659 82.042 C 54.571 83.755,54.621 84.944,54.850 86.587 C 55.120 88.522,55.140 89.695,55.007 95.589 C 54.692 109.509,54.734 109.923,56.617 111.616 C 58.281 113.113,58.777 113.249,62.914 113.354 C 74.167 113.637,75.577 112.470,75.280 103.122 C 75.041 95.618,75.060 87.674,75.322 85.754 C 75.512 84.359,75.517 83.400,75.350 81.168 C 75.199 79.161,75.162 70.902,75.223 52.583 C 75.317 24.285,75.369 25.707,74.210 24.522 C 72.592 22.867,65.440 22.004,58.741 22.655 M214.664 23.000 C 212.610 23.454,211.668 23.938,210.484 25.151 C 208.815 26.861,203.577 30.433,202.730 30.439 C 202.465 30.441,201.021 31.144,201.021 31.272 C 201.021 31.361,202.027 31.012,203.111 30.548 C 203.495 30.383,204.868 30.038,206.161 29.780 C 209.067 29.202,209.546 28.979,210.639 27.694 C 212.132 25.937,213.506 24.501,213.694 24.501 C 213.890 24.501,216.241 22.865,216.241 22.728 C 216.241 22.683,216.220 22.651,216.195 22.659 C 216.169 22.666,215.480 22.820,214.664 23.000 M230.725 23.006 C 230.483 23.458,230.162 23.667,230.162 23.372 C 230.162 23.250,230.309 23.039,230.487 22.903 C 230.923 22.572,230.951 22.584,230.725 23.006 M69.499 23.766 C 72.257 24.082,73.468 24.893,73.842 26.677 C 73.966 27.263,73.991 37.863,73.916 57.912 C 73.854 74.603,73.840 91.309,73.886 95.035 C 74.064 109.745,74.086 109.506,72.390 110.840 C 69.990 112.727,59.180 112.486,57.326 110.504 C 56.124 109.219,56.163 109.654,56.116 96.984 C 56.092 90.654,56.050 84.139,56.023 82.506 C 55.996 80.872,56.039 74.900,56.120 69.234 C 56.377 51.077,56.303 49.271,55.269 48.547 C 54.186 47.788,52.966 48.347,50.832 50.579 C 50.187 51.253,49.113 52.220,48.446 52.727 C 47.779 53.234,46.379 54.560,45.334 55.673 C 41.415 59.850,38.996 59.908,36.058 55.897 C 35.486 55.117,34.383 53.810,33.607 52.993 C 30.268 49.481,30.709 46.711,35.187 43.052 C 35.940 42.437,36.671 41.769,36.812 41.568 C 37.053 41.224,38.708 39.685,40.743 37.912 C 43.802 35.247,48.521 30.875,51.019 28.391 C 54.907 24.527,55.553 24.107,58.130 23.773 C 59.847 23.550,67.572 23.545,69.499 23.766 M248.199 24.911 C 249.984 25.316,249.976 25.910,248.180 26.434 C 246.176 27.019,244.269 26.704,244.269 25.787 C 244.269 24.860,246.138 24.443,248.199 24.911 M225.412 28.558 C 225.567 28.808,224.532 30.301,223.849 30.812 C 223.508 31.067,223.003 31.463,222.727 31.692 C 222.451 31.920,222.069 32.131,221.878 32.161 C 221.688 32.191,221.424 32.282,221.293 32.364 C 220.990 32.552,222.816 29.851,223.250 29.467 C 224.010 28.796,225.240 28.279,225.412 28.558 M247.149 30.273 C 247.862 30.691,248.780 31.164,249.188 31.323 C 249.596 31.483,250.014 31.669,250.116 31.737 C 250.218 31.805,250.845 32.011,251.508 32.194 C 253.976 32.875,254.527 33.094,255.145 33.636 C 256.141 34.511,256.036 35.104,254.650 36.422 C 254.031 37.012,253.442 37.494,253.342 37.494 C 253.082 37.494,252.045 38.024,250.023 39.191 C 245.579 41.756,242.901 42.882,240.593 43.158 C 239.635 43.273,239.121 43.444,237.412 44.216 C 236.126 44.798,234.757 44.922,233.921 44.532 C 233.538 44.353,233.291 44.200,233.371 44.191 C 233.451 44.183,233.427 44.009,233.318 43.805 C 233.183 43.553,233.181 43.434,233.311 43.434 C 233.417 43.434,233.503 43.344,233.503 43.235 C 233.503 42.959,233.883 42.607,234.556 42.259 C 234.870 42.096,235.483 41.539,235.918 41.019 C 236.778 39.991,237.548 39.528,238.977 39.178 C 239.827 38.970,240.545 38.502,242.117 37.129 C 243.633 35.806,243.589 35.887,243.426 34.740 C 242.768 30.126,244.124 28.499,247.149 30.273 M233.056 30.228 C 233.003 30.315,233.282 30.482,233.676 30.601 C 234.286 30.783,234.517 30.997,234.710 31.555 C 234.728 31.606,234.796 31.773,234.862 31.926 C 236.245 35.132,235.571 36.532,231.183 39.565 C 229.176 40.952,225.788 42.717,223.782 43.420 C 222.876 43.737,221.456 44.366,220.626 44.817 C 218.422 46.017,215.955 46.873,215.416 46.627 C 214.526 46.222,214.727 44.621,215.819 43.412 C 216.186 43.006,216.679 42.257,216.916 41.747 C 217.152 41.237,217.707 40.343,218.150 39.760 C 218.593 39.178,219.138 38.400,219.360 38.032 C 219.916 37.112,222.415 34.934,224.567 33.493 C 225.552 32.834,226.731 32.026,227.187 31.699 C 228.638 30.658,233.552 29.426,233.056 30.228 M173.184 40.299 C 172.932 40.400,172.681 40.549,172.627 40.630 C 172.407 40.960,169.466 42.782,168.167 43.393 C 166.865 44.006,165.568 45.077,165.568 45.540 C 165.568 45.756,163.752 47.517,163.530 47.517 C 163.458 47.517,163.242 47.810,163.050 48.167 C 162.857 48.524,162.644 48.817,162.576 48.817 C 162.508 48.817,162.404 48.945,162.344 49.101 C 162.179 49.531,163.510 48.394,164.436 47.315 C 165.028 46.625,165.590 46.213,166.478 45.817 C 167.208 45.491,168.116 44.877,168.724 44.299 C 169.742 43.330,170.156 42.996,172.436 41.299 C 174.196 39.990,174.296 39.855,173.184 40.299 M230.162 45.557 C 230.162 45.705,230.088 45.871,229.996 45.928 C 229.805 46.046,229.575 45.568,229.742 45.401 C 229.941 45.202,230.162 45.284,230.162 45.557 M211.432 47.962 C 212.153 49.548,211.841 50.566,210.352 51.487 C 209.464 52.036,209.253 52.073,208.943 51.733 C 207.851 50.539,208.048 49.298,209.589 47.664 C 210.414 46.790,210.938 46.874,211.432 47.962 M194.191 48.482 C 196.534 49.692,197.138 51.466,195.992 53.771 C 194.807 56.154,194.254 56.340,192.701 54.879 C 192.121 54.334,191.230 53.612,190.719 53.274 C 188.760 51.978,188.506 51.565,189.129 50.691 C 189.326 50.414,189.631 49.816,189.807 49.363 C 190.602 47.309,191.550 47.118,194.191 48.482 M274.710 48.009 L 272.575 48.230 274.803 48.135 C 276.028 48.083,277.096 47.978,277.176 47.902 C 277.352 47.735,277.363 47.735,274.710 48.009 M277.819 47.834 C 278.049 47.878,278.425 47.878,278.654 47.834 C 278.884 47.790,278.696 47.754,278.237 47.754 C 277.777 47.754,277.589 47.790,277.819 47.834 M304.965 48.402 C 304.965 48.492,305.532 48.653,306.224 48.760 C 306.916 48.867,308.023 49.181,308.683 49.456 C 311.675 50.706,312.883 51.098,312.430 50.673 C 311.527 49.826,308.663 48.842,306.190 48.529 C 305.669 48.463,305.181 48.371,305.104 48.324 C 305.028 48.276,304.965 48.312,304.965 48.402 M228.121 49.019 C 228.121 49.301,227.046 49.745,226.361 49.745 C 225.735 49.745,225.295 49.353,225.590 49.058 C 225.935 48.713,228.121 48.678,228.121 49.019 M259.764 48.804 C 258.896 49.012,256.894 50.673,257.511 50.673 C 258.120 50.673,262.459 48.960,262.459 48.720 C 262.459 48.586,260.406 48.650,259.764 48.804 M160.835 50.564 C 158.713 51.969,157.649 53.721,156.689 57.392 C 156.048 59.843,155.567 60.885,154.361 62.427 C 153.095 64.048,152.830 64.560,152.503 66.023 C 152.128 67.699,152.136 68.055,152.527 67.100 C 153.015 65.908,154.612 63.293,155.354 62.473 C 156.166 61.575,157.578 58.943,158.698 56.241 C 159.142 55.169,159.649 54.084,159.823 53.828 C 160.091 53.438,161.875 49.911,161.791 49.940 C 161.776 49.945,161.346 50.226,160.835 50.564 M217.309 50.975 C 218.139 51.198,217.091 52.012,216.195 51.841 C 215.547 51.717,215.547 51.502,216.195 51.150 C 216.791 50.827,216.768 50.831,217.309 50.975 M185.320 53.465 C 187.740 54.245,189.698 55.622,189.698 56.542 C 189.698 58.168,185.550 61.025,183.499 60.810 C 181.025 60.552,180.150 59.691,180.317 57.677 C 180.756 52.377,181.085 52.099,185.320 53.465 M178.205 53.628 C 178.503 53.927,178.753 54.282,178.761 54.417 C 178.769 54.553,178.806 54.827,178.843 55.027 C 178.881 55.227,178.733 56.284,178.516 57.376 C 178.036 59.790,178.178 60.574,179.247 61.390 C 182.417 63.811,181.781 65.107,176.712 66.561 C 173.905 67.366,173.186 66.861,173.041 63.984 C 172.994 63.043,172.799 61.699,172.608 60.996 C 172.122 59.209,172.778 57.136,174.721 54.320 C 175.621 53.016,177.266 52.689,178.205 53.628 M212.390 53.585 C 212.466 53.629,212.529 53.821,212.529 54.013 C 212.529 54.792,210.322 54.393,210.304 53.610 C 210.298 53.319,211.890 53.300,212.390 53.585 M251.508 54.072 C 251.049 54.308,250.004 54.922,249.186 55.437 C 248.368 55.952,247.506 56.435,247.270 56.510 C 247.033 56.585,246.875 56.681,246.918 56.724 C 247.144 56.951,251.153 54.952,252.415 53.983 C 253.038 53.504,252.516 53.556,251.508 54.072 M323.341 55.953 C 323.341 56.016,325.296 57.240,326.796 58.116 C 328.571 59.153,333.183 62.784,335.762 65.175 C 336.723 66.067,337.934 67.020,338.453 67.293 C 338.972 67.567,339.832 68.261,340.364 68.837 C 340.896 69.413,341.332 69.800,341.333 69.698 C 341.337 69.386,338.865 66.575,338.182 66.115 C 337.829 65.877,336.843 65.017,335.991 64.204 C 335.139 63.391,333.719 62.240,332.836 61.647 C 331.952 61.054,330.854 60.212,330.395 59.776 C 329.704 59.119,323.341 55.671,323.341 55.953 M191.521 59.640 C 191.611 60.105,190.712 61.218,189.955 61.579 C 188.694 62.180,188.464 60.978,189.637 59.917 C 190.416 59.211,191.411 59.065,191.521 59.640 M347.004 75.862 C 347.185 76.147,347.735 76.770,348.226 77.247 C 348.717 77.724,349.302 78.475,349.527 78.918 C 349.752 79.360,350.291 80.181,350.726 80.742 C 351.160 81.304,351.780 82.239,352.104 82.820 C 352.621 83.750,353.756 85.099,353.900 84.955 C 353.929 84.927,353.842 84.430,353.707 83.851 C 353.446 82.727,353.200 82.271,352.385 81.400 C 351.882 80.861,350.626 79.006,350.626 78.800 C 350.626 78.547,347.696 75.776,347.212 75.571 L 346.675 75.343 347.004 75.862 M196.768 83.579 C 198.339 84.785,196.960 87.365,193.935 88.881 C 193.289 89.204,192.403 89.758,191.965 90.112 C 191.490 90.495,190.650 90.909,189.878 91.139 C 189.123 91.364,188.066 91.880,187.335 92.380 C 184.789 94.123,183.743 94.284,180.962 93.360 C 179.383 92.835,179.205 92.813,178.219 93.017 C 176.824 93.305,175.997 92.934,174.084 91.162 C 173.306 90.441,172.617 89.904,172.553 89.968 C 172.489 90.032,172.436 89.990,172.436 89.873 C 172.436 89.718,172.299 89.714,171.926 89.856 C 169.478 90.792,165.255 89.556,164.416 87.658 C 163.317 85.173,166.229 84.009,169.436 85.650 C 170.679 86.287,172.663 88.585,172.472 89.168 C 172.351 89.540,174.445 89.064,175.736 88.426 C 177.343 87.632,178.235 87.635,179.990 88.438 C 181.510 89.134,183.649 88.910,184.214 87.995 C 184.459 87.599,186.354 86.696,187.714 86.327 C 188.512 86.111,189.793 85.602,190.561 85.195 C 191.632 84.627,192.166 84.455,192.853 84.455 C 193.463 84.455,194.124 84.277,194.925 83.898 C 196.238 83.277,196.349 83.258,196.768 83.579 M357.309 91.715 C 357.309 91.992,358.261 94.019,358.607 94.478 C 358.907 94.878,358.649 93.627,358.281 92.900 C 357.874 92.098,357.309 91.408,357.309 91.715 M187.248 96.186 C 187.971 96.908,186.807 98.207,185.091 98.591 C 183.998 98.836,183.573 98.605,183.573 97.765 C 183.573 96.701,186.504 95.442,187.248 96.186 M361.582 108.879 C 361.625 110.757,361.341 117.281,361.160 118.554 L 360.917 120.263 361.475 119.833 C 362.946 118.698,363.227 115.336,362.216 110.948 C 361.788 109.090,361.570 108.379,361.582 108.879 M207.736 111.236 C 207.504 111.516,206.595 114.293,206.592 114.734 C 206.585 115.531,208.509 115.621,209.318 114.860 C 210.085 114.140,209.768 111.693,208.845 111.198 C 208.348 110.932,207.978 110.945,207.736 111.236 M359.266 126.543 C 358.764 129.178,358.694 132.103,359.070 134.741 C 359.606 138.499,358.737 141.569,355.951 145.768 C 355.194 146.909,354.298 148.343,353.961 148.956 C 353.115 150.492,352.411 151.357,351.439 152.055 C 350.461 152.757,349.973 153.486,349.718 154.623 L 349.532 155.452 349.881 154.992 C 350.072 154.738,350.501 154.070,350.834 153.507 C 351.869 151.754,352.217 151.491,354.509 150.739 C 359.688 149.039,361.508 143.964,359.991 135.449 C 359.518 132.787,359.332 127.796,359.633 125.792 C 359.858 124.293,359.592 124.838,359.266 126.543 M87.889 130.242 C 85.356 130.810,79.958 133.492,78.769 134.773 C 74.205 139.693,74.409 139.704,71.090 134.384 C 68.626 130.432,66.245 129.698,60.696 131.178 C 57.609 132.001,57.413 132.019,55.860 131.624 C 51.642 130.553,49.235 131.269,47.355 134.153 C 45.966 136.283,44.401 136.076,41.042 133.319 C 36.862 129.887,29.317 129.234,25.130 131.940 C 23.314 133.114,18.927 137.579,18.078 139.118 C 15.039 144.624,16.466 151.482,21.988 157.919 C 23.759 159.984,27.419 160.708,34.458 160.386 C 39.349 160.162,39.996 159.944,42.067 157.825 C 44.578 155.254,46.055 155.079,47.409 157.191 C 48.374 158.696,48.926 159.165,50.166 159.534 C 55.751 161.192,58.638 158.060,57.864 151.183 C 57.182 145.136,58.311 142.203,61.238 142.421 C 63.301 142.574,63.605 143.479,63.757 149.908 C 63.964 158.628,64.537 159.836,68.477 159.853 C 71.290 159.866,72.581 159.240,74.164 157.100 C 75.962 154.668,77.236 154.769,79.854 157.550 C 82.272 160.119,85.726 160.925,91.970 160.379 C 98.056 159.846,99.495 158.578,99.209 154.000 C 99.051 151.460,99.187 151.049,100.750 149.369 C 103.415 146.504,103.348 143.931,100.450 137.883 C 98.954 134.760,98.904 134.705,95.499 132.424 C 92.289 130.274,90.297 129.703,87.889 130.242 M291.185 131.027 C 291.313 131.096,291.905 131.627,292.500 132.207 C 293.579 133.258,294.878 133.828,296.193 133.828 C 296.960 133.828,297.902 134.350,298.986 135.374 C 300.308 136.624,300.664 136.810,301.480 136.678 C 302.023 136.590,302.233 136.664,302.759 137.134 L 303.387 137.696 303.387 139.863 C 303.387 142.446,304.090 143.295,306.226 143.295 C 306.437 143.295,306.782 143.515,306.993 143.784 C 308.165 145.273,306.424 146.799,301.489 148.609 C 298.052 149.870,297.488 150.211,295.937 151.966 C 295.237 152.758,294.580 153.497,294.477 153.608 C 294.087 154.031,290.574 155.731,290.091 155.731 C 289.209 155.731,288.698 155.414,288.195 154.554 C 286.879 152.309,285.800 152.001,284.381 153.466 C 283.907 153.955,283.042 154.628,282.459 154.962 C 281.877 155.295,281.356 155.638,281.303 155.725 C 281.138 155.992,282.837 158.556,283.714 159.361 C 284.497 160.080,284.548 160.185,284.548 161.093 C 284.548 163.968,281.367 165.282,279.165 163.317 C 278.705 162.907,277.615 162.092,276.742 161.504 C 273.400 159.256,272.668 158.608,272.668 157.894 C 272.668 157.316,272.952 157.216,274.586 157.216 C 276.306 157.217,278.952 156.728,279.703 156.272 C 281.280 155.313,278.307 153.982,274.851 154.099 C 271.015 154.230,270.412 149.093,273.699 144.292 C 275.295 141.960,274.646 140.692,272.001 140.971 C 268.302 141.362,266.661 139.574,269.687 138.451 C 270.255 138.241,271.104 137.803,271.574 137.480 C 275.650 134.671,277.095 133.961,279.380 133.641 C 280.896 133.429,282.462 132.952,284.548 132.065 C 285.774 131.544,287.581 131.028,289.002 130.793 C 289.542 130.703,290.846 130.843,291.185 131.027 M36.195 132.447 C 38.792 133.019,40.279 133.898,42.824 136.364 C 45.478 138.937,45.641 139.234,46.323 142.759 C 47.483 148.752,46.808 152.104,44.002 154.286 C 43.332 154.807,42.074 155.964,41.206 156.858 C 39.297 158.824,38.470 159.151,34.556 159.488 C 29.599 159.915,25.756 159.236,23.934 157.613 C 19.631 153.777,17.404 148.796,18.011 144.364 C 18.516 140.673,19.291 139.235,22.552 135.939 C 25.421 133.039,25.695 132.899,30.070 132.083 C 30.968 131.915,34.819 132.144,36.195 132.447 M67.368 132.556 C 69.582 133.510,71.075 135.820,72.973 141.227 C 73.723 143.364,73.883 143.493,74.680 142.606 C 75.837 141.318,76.215 140.806,77.799 138.375 C 79.718 135.429,80.386 134.835,83.042 133.712 C 88.121 131.566,91.158 131.429,94.436 133.198 C 98.037 135.141,98.461 135.588,99.771 138.827 C 102.238 144.928,101.577 147.768,97.177 149.962 L 95.531 150.783 94.587 150.288 C 90.947 148.381,84.295 149.583,86.343 151.778 C 88.042 153.598,90.982 153.568,94.069 151.698 L 95.424 150.878 96.321 151.562 C 98.456 153.191,98.935 155.674,97.428 157.309 C 94.700 160.268,85.275 160.576,82.154 157.809 C 81.614 157.329,80.449 156.311,79.565 155.545 C 78.681 154.780,77.532 153.640,77.011 153.012 C 74.792 150.339,74.299 150.592,72.952 155.099 C 72.007 158.259,71.236 158.956,68.684 158.953 C 65.239 158.949,64.786 157.897,64.777 149.884 C 64.770 143.210,64.457 141.656,62.967 140.911 C 60.799 139.825,58.484 140.507,57.457 142.533 C 56.573 144.279,56.520 144.733,56.520 150.534 L 56.520 156.009 55.963 157.121 C 54.543 159.957,49.948 159.743,48.849 156.790 C 48.046 154.631,47.637 148.005,48.130 145.151 C 48.354 143.854,48.467 142.270,48.467 140.418 C 48.465 133.137,49.845 131.537,54.955 132.896 C 56.808 133.389,57.920 133.364,59.782 132.787 C 62.381 131.982,65.794 131.878,67.368 132.556 M87.240 139.617 C 85.582 140.470,85.687 141.741,87.460 142.267 C 89.251 142.799,90.949 142.508,91.230 141.622 C 91.793 139.849,89.261 138.576,87.240 139.617 M30.974 139.957 C 27.946 140.468,26.821 142.003,26.827 145.615 C 26.833 149.223,28.190 151.081,31.454 151.950 C 34.112 152.659,34.981 152.196,36.462 149.285 C 37.738 146.776,37.759 145.110,36.548 142.542 C 35.407 140.120,33.965 139.451,30.974 139.957 M33.329 141.089 C 36.820 141.968,36.380 150.528,32.844 150.533 C 29.005 150.539,26.554 143.991,29.555 141.750 C 30.506 141.040,32.056 140.769,33.329 141.089 M214.880 144.343 C 215.785 144.772,218.078 147.814,218.091 148.602 C 218.121 150.407,212.619 150.480,211.639 148.688 C 210.167 145.995,212.310 143.123,214.880 144.343 M237.719 144.577 C 237.971 144.981,237.858 145.907,237.529 146.123 C 237.009 146.465,235.937 145.827,235.922 145.165 C 235.904 144.352,237.294 143.897,237.719 144.577 M208.090 158.567 C 209.680 159.638,209.512 162.098,207.789 162.970 C 207.034 163.352,203.428 163.317,202.480 162.918 C 200.929 162.267,201.263 159.629,202.896 159.629 C 202.999 159.629,203.601 159.368,204.233 159.050 C 206.287 158.017,207.119 157.913,208.090 158.567 M269.822 158.435 C 270.240 159.525,267.465 160.981,266.708 160.068 C 266.420 159.721,267.683 158.424,268.456 158.273 C 269.314 158.107,269.714 158.154,269.822 158.435 M262.456 161.483 C 262.826 161.681,263.167 162.621,263.668 164.826 C 264.186 167.106,264.586 167.337,267.083 166.802 C 271.407 165.874,273.348 166.548,272.339 168.626 C 271.512 170.327,272.070 171.646,273.482 171.327 C 274.181 171.170,274.221 171.149,275.596 170.250 L 276.574 169.611 278.057 169.909 C 278.873 170.074,279.685 170.288,279.863 170.385 C 280.040 170.482,280.499 170.701,280.882 170.871 C 282.231 171.469,281.701 172.551,279.285 174.128 C 275.900 176.336,273.255 176.046,271.048 173.222 C 270.406 172.401,264.428 171.727,260.210 171.999 C 255.167 172.325,253.512 169.045,257.034 165.704 C 258.967 163.871,260.154 162.671,260.814 161.883 C 261.316 161.284,261.844 161.156,262.456 161.483 M326.866 166.633 C 328.014 167.130,327.559 168.167,326.194 168.167 C 324.467 168.167,323.531 166.716,325.104 166.476 C 325.513 166.414,325.909 166.352,325.985 166.337 C 326.061 166.323,326.457 166.456,326.866 166.633 M209.909 167.318 C 210.604 167.748,210.031 168.166,208.118 168.626 C 206.763 168.952,206.032 169.491,206.032 170.166 C 206.032 172.446,200.815 172.866,200.496 170.611 C 200.376 169.770,200.884 169.478,203.776 168.723 C 204.219 168.608,204.997 168.215,205.504 167.850 C 206.727 166.972,208.920 166.707,209.909 167.318 M0.000 184.106 L 0.000 185.615 200.000 185.615 L 400.000 185.615 400.000 184.305 L 400.000 182.996 374.896 183.020 C 361.088 183.033,347.369 182.970,344.408 182.881 C 341.448 182.793,337.313 182.778,335.220 182.849 C 324.828 183.201,299.004 183.256,296.172 182.932 C 293.685 182.647,292.987 182.640,289.119 182.862 C 286.222 183.029,279.060 183.123,267.100 183.152 C 240.491 183.217,240.023 183.214,233.177 182.980 C 228.262 182.811,226.111 182.812,223.710 182.984 C 219.498 183.285,216.499 183.260,214.186 182.904 C 212.624 182.664,211.516 182.632,208.445 182.738 C 206.353 182.810,201.759 182.891,198.237 182.917 C 194.715 182.943,190.956 183.062,189.884 183.180 C 188.410 183.343,186.713 183.344,182.923 183.183 C 179.222 183.026,155.538 183.007,92.343 183.108 C -6.531 183.266,3.966 183.311,0.696 182.722 L 0.000 182.596 0.000 184.106 " stroke="none" fill="#a8b968" fill-rule="evenodd"></path></g></svg>