<svg id="svg" xmlns="http://www.w3.org/2000/svg" xmlns:xlink="http://www.w3.org/1999/xlink" width="400" height="171.0843373493976" viewBox="0, 0, 400,171.0843373493976"><g id="svgg"><path id="path0" d="M290.430 22.768 C 288.425 24.528,288.158 26.796,289.597 29.844 C 290.498 31.750,290.575 32.011,290.612 33.259 C 290.665 35.037,290.930 35.358,291.704 34.584 C 292.399 33.889,292.911 33.899,293.922 34.626 C 297.096 36.906,298.253 33.422,295.837 28.861 C 295.453 28.137,295.093 27.256,295.036 26.903 C 294.808 25.490,294.217 23.526,293.884 23.075 C 293.151 22.084,291.388 21.927,290.430 22.768 M270.551 29.042 C 270.276 29.301,269.570 29.926,268.981 30.432 C 267.333 31.848,267.013 32.513,267.161 34.213 C 267.254 35.279,267.220 35.755,267.012 36.316 C 266.111 38.736,266.050 39.776,266.729 41.142 C 267.316 42.324,267.343 42.588,266.948 43.336 C 266.717 43.773,266.635 44.594,266.542 47.391 C 266.332 53.667,264.877 56.629,261.240 58.181 C 258.072 59.535,257.705 60.675,259.602 63.278 C 259.920 63.714,260.391 64.495,260.649 65.013 C 260.907 65.530,261.365 66.262,261.666 66.638 C 261.967 67.015,262.503 67.763,262.857 68.302 C 263.313 68.996,263.794 69.460,264.504 69.892 C 265.563 70.535,266.701 71.836,267.796 73.653 C 268.136 74.217,268.924 75.180,269.547 75.791 C 270.170 76.403,271.227 77.673,271.895 78.614 C 272.564 79.555,273.513 80.749,274.004 81.266 C 274.496 81.784,275.107 82.553,275.364 82.977 C 277.462 86.445,279.253 87.011,282.806 85.330 C 284.877 84.350,286.101 83.913,288.400 83.331 C 289.511 83.050,291.310 82.511,292.400 82.134 C 293.933 81.602,294.821 81.406,296.335 81.265 C 298.367 81.076,301.166 80.430,303.287 79.662 C 303.966 79.416,305.274 79.096,306.195 78.950 C 307.116 78.803,308.332 78.583,308.896 78.461 C 310.699 78.069,312.531 78.611,314.156 80.018 C 315.716 81.370,315.825 81.290,315.825 78.796 C 315.825 77.341,315.861 77.172,316.254 76.748 C 317.675 75.214,317.633 71.277,316.179 69.729 C 315.427 68.929,315.255 68.145,315.177 65.165 C 315.065 60.860,315.338 60.209,317.716 59.124 C 318.929 58.570,319.267 58.278,320.005 57.147 C 320.569 56.281,320.880 54.863,320.488 54.946 C 320.337 54.978,320.104 54.894,318.392 54.192 C 317.204 53.706,316.925 53.662,314.628 53.600 C 311.673 53.521,311.407 53.478,311.439 53.081 C 311.511 52.179,308.607 51.709,304.701 51.992 C 301.437 52.228,300.576 52.096,298.460 51.034 C 297.613 50.609,296.305 50.035,295.552 49.757 C 291.605 48.304,287.791 44.858,285.852 40.993 C 285.376 40.046,284.661 38.897,284.262 38.441 C 283.468 37.535,283.280 37.036,282.962 35.002 C 282.706 33.368,282.429 33.020,281.383 33.020 C 280.976 33.020,280.264 32.907,279.800 32.769 C 279.336 32.632,278.264 32.441,277.418 32.345 C 274.894 32.058,273.430 31.143,272.273 29.127 C 271.866 28.418,271.247 28.388,270.551 29.042 M321.430 40.034 C 321.173 40.111,320.533 40.557,320.010 41.023 C 319.486 41.490,318.657 42.087,318.169 42.350 C 317.680 42.612,316.471 43.341,315.483 43.970 C 314.495 44.598,313.204 45.367,312.614 45.678 C 310.545 46.771,310.925 47.385,314.417 48.592 C 319.401 50.316,320.294 51.034,320.538 53.512 C 320.663 54.775,320.748 54.923,321.635 55.412 C 321.911 55.564,322.957 56.141,323.958 56.694 C 328.818 59.377,333.885 57.371,331.311 53.783 C 330.256 52.312,330.189 52.112,330.100 50.167 C 329.814 43.930,327.989 40.547,324.911 40.547 C 324.283 40.547,323.540 40.414,323.011 40.205 C 322.057 39.829,322.096 39.833,321.430 40.034 M254.684 49.316 C 254.494 50.026,254.574 50.601,254.919 51.008 L 255.262 51.411 255.688 50.898 C 255.923 50.616,256.115 50.229,256.115 50.038 C 256.118 49.109,254.904 48.496,254.684 49.316 M252.888 72.307 C 252.570 72.445,251.569 72.628,250.663 72.712 C 247.155 73.038,245.572 73.911,244.129 76.314 C 243.080 78.062,243.166 78.307,245.276 79.611 C 245.759 79.910,246.529 80.407,246.987 80.717 C 247.444 81.027,248.473 81.472,249.273 81.707 C 250.073 81.943,251.189 82.375,251.754 82.669 C 254.644 84.171,257.182 85.357,258.255 85.706 C 260.718 86.507,261.371 87.167,262.071 89.564 C 263.263 93.643,262.534 95.055,257.413 98.584 C 256.856 98.968,256.071 99.636,255.668 100.069 C 254.760 101.044,253.716 101.171,252.723 100.427 C 251.309 99.368,249.301 100.078,249.848 101.444 C 250.305 102.587,250.227 103.141,249.572 103.413 C 248.734 103.761,246.563 103.916,245.717 103.688 C 243.869 103.191,243.190 103.896,243.945 105.533 C 244.587 106.926,244.739 109.373,244.245 110.363 C 243.901 111.053,242.052 113.082,238.697 116.449 C 236.442 118.713,236.084 119.145,236.131 119.547 C 236.248 120.564,237.613 120.669,238.670 119.743 C 238.997 119.457,239.688 119.034,240.205 118.802 C 240.785 118.543,241.510 118.005,242.092 117.403 C 242.613 116.865,243.357 116.141,243.745 115.795 C 244.134 115.449,244.555 114.978,244.681 114.748 C 244.807 114.518,245.089 114.005,245.307 113.607 C 245.526 113.208,245.778 112.429,245.867 111.876 C 246.248 109.507,247.310 108.978,248.708 110.460 C 249.716 111.530,248.919 113.047,246.292 115.056 C 245.923 115.338,245.476 115.838,245.299 116.168 C 245.123 116.497,244.693 117.017,244.345 117.323 C 242.689 118.780,242.691 118.777,242.448 120.207 C 242.155 121.936,241.552 123.291,240.761 123.998 C 239.453 125.168,235.754 125.927,233.875 125.411 C 232.369 124.998,228.001 125.222,225.606 125.835 C 224.260 126.180,223.383 126.157,222.594 125.754 C 222.232 125.569,221.341 125.258,220.614 125.064 C 219.888 124.869,218.794 124.408,218.183 124.040 C 215.921 122.675,213.862 122.661,211.605 123.995 C 210.808 124.465,210.000 124.900,209.809 124.961 C 209.364 125.102,209.068 125.757,209.068 126.600 C 209.068 130.773,207.551 132.254,205.192 130.387 C 203.550 129.087,203.088 128.993,200.941 129.515 C 199.847 129.781,199.951 129.551,199.889 131.865 C 199.831 134.012,200.051 135.253,200.537 135.513 C 200.692 135.596,201.222 136.008,201.715 136.429 C 202.723 137.289,203.433 137.526,204.038 137.202 C 204.892 136.745,204.586 135.451,203.502 134.933 C 202.451 134.432,203.033 133.560,204.765 133.041 C 206.183 132.617,206.299 132.670,206.822 133.991 C 207.071 134.619,207.331 135.190,207.401 135.259 C 207.828 135.686,207.506 136.535,206.544 137.518 C 206.003 138.071,205.406 138.712,205.218 138.942 C 204.418 139.922,203.660 140.143,202.407 139.763 C 201.557 139.505,199.316 138.377,199.316 138.207 C 199.316 138.130,199.200 138.067,199.059 138.067 C 198.918 138.067,198.802 137.918,198.802 137.736 C 198.802 137.554,198.648 137.357,198.460 137.297 C 198.272 137.237,198.118 137.087,198.118 136.963 C 198.118 136.818,197.702 136.663,196.963 136.533 C 196.328 136.421,195.577 136.227,195.295 136.102 C 195.013 135.976,194.435 135.742,194.012 135.581 C 192.735 135.095,192.406 134.919,192.026 134.517 C 191.826 134.305,191.576 134.132,191.469 134.132 C 191.362 134.132,191.275 134.044,191.275 133.937 C 191.275 133.803,190.942 133.770,190.205 133.832 C 189.079 133.926,188.144 134.253,188.296 134.499 C 188.346 134.579,188.305 134.645,188.205 134.645 C 188.105 134.645,188.024 134.780,188.024 134.945 C 188.024 135.372,187.125 135.718,186.041 135.708 C 185.119 135.700,183.918 135.405,183.918 135.187 C 183.918 134.627,182.607 134.509,179.281 134.771 C 175.063 135.103,174.549 135.775,174.071 141.579 C 173.960 142.915,174.342 145.691,174.881 147.476 C 175.190 148.500,176.543 150.314,177.566 151.076 C 178.643 151.878,185.040 155.063,185.971 155.260 C 187.465 155.577,189.626 156.288,191.273 157.005 C 193.322 157.897,194.959 158.269,199.007 158.763 C 200.578 158.954,202.388 159.220,203.028 159.354 C 203.668 159.487,205.346 159.755,206.758 159.949 C 216.930 161.347,224.643 161.302,230.562 159.812 C 231.679 159.530,233.785 159.102,235.244 158.859 C 239.073 158.223,239.988 157.915,241.182 156.863 C 241.727 156.384,242.731 155.735,243.414 155.422 C 244.645 154.856,245.551 154.071,247.006 152.307 C 247.653 151.522,250.219 149.665,251.676 148.926 C 252.169 148.677,252.945 148.178,253.401 147.818 C 254.254 147.143,254.622 146.993,256.363 146.605 C 257.490 146.355,258.570 145.637,259.110 144.780 C 259.523 144.125,259.464 144.147,262.019 143.712 C 266.406 142.967,266.846 141.776,262.633 142.050 C 260.519 142.188,259.590 142.458,259.141 143.068 C 258.640 143.749,258.000 144.055,257.077 144.055 C 254.899 144.055,254.646 142.724,256.765 142.417 C 258.177 142.213,259.491 140.658,260.225 138.323 C 260.343 137.947,260.740 136.879,261.107 135.951 C 261.800 134.199,261.970 132.902,261.680 131.565 C 261.195 129.329,257.885 123.468,255.880 121.291 C 252.653 117.790,252.186 117.037,252.047 115.106 C 251.778 111.346,255.274 108.938,258.297 110.802 C 259.259 111.396,264.422 118.896,265.417 121.145 C 265.649 121.669,266.140 122.565,266.509 123.136 C 268.428 126.105,268.646 132.879,266.902 135.353 C 265.905 136.767,266.396 137.879,267.555 136.831 C 267.803 136.606,268.337 136.211,268.741 135.954 C 269.674 135.360,269.685 135.324,270.067 131.673 C 270.603 126.544,270.004 122.971,268.205 120.572 C 267.976 120.267,267.519 119.426,267.188 118.704 C 266.857 117.982,266.345 117.040,266.049 116.610 C 265.754 116.180,265.212 115.176,264.844 114.377 C 264.304 113.203,263.898 112.636,262.718 111.412 C 259.710 108.292,259.767 105.533,262.874 103.896 C 265.468 102.528,267.685 103.565,269.729 107.100 C 270.083 107.712,270.716 108.697,271.135 109.289 C 273.554 112.706,276.658 120.557,276.899 123.867 C 277.075 126.298,276.793 128.096,275.962 129.829 C 274.782 132.291,274.870 133.618,276.213 133.618 C 276.780 133.618,281.922 132.362,282.445 132.096 C 282.597 132.019,283.413 131.790,284.260 131.586 C 286.738 130.991,287.074 130.882,287.912 130.395 C 288.350 130.140,288.939 129.807,289.222 129.655 C 289.504 129.502,289.862 129.119,290.018 128.803 C 290.174 128.488,290.813 127.190,291.437 125.920 C 292.505 123.746,292.662 123.523,294.105 122.142 C 295.704 120.611,295.844 120.326,295.475 119.355 C 295.197 118.624,293.726 116.863,292.894 116.266 C 292.458 115.952,291.886 115.321,291.624 114.862 C 291.361 114.404,290.776 113.644,290.322 113.174 C 289.869 112.703,289.224 111.860,288.888 111.299 C 287.848 109.563,286.369 107.601,285.018 106.166 C 284.306 105.409,283.219 104.136,282.602 103.336 C 281.986 102.536,281.054 101.479,280.532 100.987 C 280.009 100.495,279.110 99.514,278.532 98.807 C 277.955 98.100,277.053 97.156,276.529 96.708 C 276.005 96.260,275.066 95.267,274.443 94.500 C 272.907 92.609,270.009 89.376,267.322 86.556 C 263.871 82.933,260.698 79.421,260.171 78.640 C 259.907 78.249,259.320 77.545,258.866 77.074 C 258.411 76.604,257.682 75.669,257.245 74.996 C 255.809 72.785,254.145 71.758,252.888 72.307 M314.321 73.867 C 314.687 74.288,315.200 75.728,315.064 75.949 C 314.705 76.530,313.830 75.863,313.597 74.831 C 313.368 73.817,313.791 73.255,314.321 73.867 M338.238 75.049 C 336.653 75.456,336.553 75.461,334.227 75.254 C 332.098 75.064,331.657 75.073,330.121 75.343 C 329.175 75.509,327.406 75.794,326.190 75.977 C 324.975 76.160,323.551 76.419,323.025 76.553 C 322.500 76.687,321.224 76.955,320.190 77.148 C 318.124 77.535,317.713 77.807,317.717 78.785 C 317.719 79.290,318.235 80.996,318.452 81.212 C 318.819 81.580,318.536 82.116,317.868 82.316 C 317.029 82.567,316.916 82.767,316.864 84.086 C 316.802 85.660,316.523 86.151,314.236 88.718 C 313.229 89.849,312.756 89.998,309.699 90.152 C 307.381 90.268,306.859 90.349,305.876 90.743 C 305.250 90.994,304.134 91.307,303.396 91.438 C 302.657 91.570,301.594 91.799,301.033 91.947 C 300.473 92.095,299.765 92.216,299.462 92.216 C 297.072 92.216,290.433 93.924,288.034 95.157 C 286.894 95.743,286.626 96.588,287.256 97.607 C 287.941 98.717,288.766 98.764,291.702 97.861 C 295.900 96.570,298.083 95.985,299.658 95.728 C 301.762 95.385,302.638 95.133,304.042 94.466 C 304.679 94.164,305.560 93.905,306.159 93.843 C 307.186 93.738,309.621 93.374,311.360 93.065 C 311.869 92.975,312.966 92.587,313.798 92.204 C 316.046 91.168,316.767 91.144,318.461 92.044 L 319.813 92.763 320.533 92.404 C 321.820 91.761,322.404 92.005,323.060 93.460 C 323.366 94.137,323.678 94.322,324.808 94.495 C 325.677 94.628,325.754 94.573,326.505 93.290 C 326.847 92.705,327.447 91.974,327.837 91.665 C 329.356 90.464,329.627 90.077,330.181 88.328 C 330.473 87.408,330.711 86.532,330.710 86.382 C 330.709 85.330,331.801 85.453,332.516 86.585 C 332.754 86.962,333.063 87.314,333.203 87.368 C 333.776 87.588,336.652 86.736,337.756 86.020 C 338.350 85.634,339.307 85.176,339.882 85.002 C 342.353 84.255,342.903 83.186,342.340 80.220 C 342.244 79.713,342.084 78.567,341.985 77.673 C 341.637 74.545,341.250 74.274,338.238 75.049 M228.008 91.530 C 225.848 92.080,225.297 92.639,225.629 93.948 C 225.840 94.779,225.698 95.378,224.898 97.041 C 223.367 100.223,224.402 101.284,228.827 101.071 C 230.626 100.985,232.578 101.293,235.672 102.152 C 237.713 102.719,240.224 102.663,241.823 102.015 C 243.451 101.355,243.680 101.000,243.762 99.014 C 243.873 96.294,243.073 95.387,239.511 94.198 C 238.434 93.838,236.861 93.174,236.014 92.721 C 233.349 91.297,230.557 90.881,228.008 91.530 M325.406 96.493 C 324.539 97.360,325.256 99.263,326.346 98.989 C 327.408 98.723,327.563 97.576,326.664 96.637 C 326.112 96.061,325.866 96.033,325.406 96.493 M322.265 97.103 C 322.207 97.286,322.092 98.101,322.009 98.916 C 321.728 101.694,320.152 102.681,313.858 104.025 C 312.917 104.226,311.493 104.572,310.693 104.793 C 309.893 105.013,308.392 105.355,307.357 105.553 C 306.322 105.750,304.773 106.101,303.916 106.333 C 303.059 106.565,301.481 106.907,300.409 107.092 C 297.019 107.677,294.937 108.636,294.437 109.843 C 293.950 111.020,294.637 113.826,295.722 115.093 C 296.085 115.518,296.412 116.157,296.563 116.736 C 296.879 117.948,297.116 118.384,297.482 118.423 C 297.644 118.440,298.755 118.459,299.951 118.466 C 301.970 118.476,302.154 118.505,302.512 118.862 C 302.725 119.074,302.805 119.247,302.690 119.247 C 302.575 119.247,302.481 119.406,302.481 119.601 C 302.481 119.795,302.222 120.200,301.906 120.499 C 300.876 121.474,301.025 122.337,302.261 122.559 C 302.878 122.670,303.194 122.218,303.414 120.915 C 303.482 120.518,303.617 120.274,303.772 120.274 C 303.909 120.274,304.021 120.188,304.021 120.083 C 304.021 119.976,304.171 119.931,304.363 119.981 C 304.551 120.030,304.705 120.004,304.705 119.924 C 304.705 119.843,304.917 119.879,305.175 120.004 C 305.434 120.129,305.926 120.364,306.269 120.527 C 306.909 120.829,307.313 121.498,307.530 122.614 C 307.656 123.265,307.782 123.380,309.104 124.040 C 311.017 124.996,311.498 126.571,310.337 128.076 C 308.309 130.705,307.101 131.126,305.029 129.925 C 304.973 129.892,304.788 129.966,304.620 130.090 C 304.042 130.512,305.599 133.334,307.699 135.672 C 308.333 136.377,309.087 137.301,309.376 137.725 C 311.022 140.144,313.831 143.289,315.997 145.137 C 316.985 145.981,318.090 147.025,318.454 147.459 C 318.818 147.892,319.643 148.631,320.288 149.102 C 320.932 149.572,321.944 150.392,322.535 150.924 C 323.549 151.836,325.792 153.435,330.111 156.327 C 331.146 157.019,332.802 157.983,333.790 158.468 C 334.778 158.953,336.086 159.655,336.698 160.028 C 343.801 164.359,357.088 165.551,360.094 162.128 C 361.414 160.624,363.021 157.523,364.096 154.405 L 365.158 151.326 365.234 148.928 C 365.388 144.077,363.391 138.292,361.337 137.640 C 360.611 137.409,360.275 136.407,359.900 133.362 C 359.513 130.215,358.432 126.927,356.918 124.294 C 354.591 120.248,354.273 119.551,354.137 118.201 C 353.959 116.433,352.761 113.808,351.719 112.900 C 350.918 112.202,350.868 111.909,351.230 110.009 C 351.976 106.093,349.926 103.075,346.536 103.100 C 345.210 103.110,340.916 104.015,340.235 104.428 C 339.906 104.627,339.272 105.016,338.825 105.293 C 336.408 106.789,328.315 106.476,328.315 104.886 C 328.315 104.802,327.809 104.487,327.191 104.186 C 325.532 103.378,323.639 100.889,323.096 98.802 C 322.677 97.194,322.410 96.647,322.265 97.103 M259.874 102.639 C 260.096 103.055,259.946 103.463,259.522 103.598 C 258.982 103.769,258.512 103.526,258.512 103.077 C 258.512 102.366,259.549 102.033,259.874 102.639 M252.395 104.829 C 252.905 105.290,252.780 106.174,252.107 106.867 C 251.084 107.920,250.526 107.326,250.716 105.387 C 250.838 104.147,251.426 103.952,252.395 104.829 M336.781 109.510 C 337.531 110.276,336.966 111.548,335.876 111.548 C 335.143 111.548,333.628 110.421,333.621 109.872 C 333.614 109.237,336.222 108.938,336.781 109.510 M305.949 113.061 C 306.847 113.653,307.157 114.119,307.157 114.875 C 307.157 116.234,305.759 118.392,304.877 118.392 C 304.686 118.392,304.534 118.505,304.534 118.648 C 304.534 118.990,304.390 118.972,303.678 118.541 C 302.987 118.121,302.821 117.911,302.939 117.604 C 302.986 117.483,302.901 116.963,302.752 116.450 C 301.971 113.764,303.906 111.713,305.949 113.061 M211.833 115.968 C 211.128 116.674,211.857 117.848,213.239 118.232 C 216.558 119.156,219.063 118.480,218.237 116.884 C 217.657 115.762,212.742 115.059,211.833 115.968 M223.695 119.022 C 221.624 119.487,221.489 120.302,223.230 121.825 C 225.814 124.086,229.460 122.301,227.226 119.868 C 226.457 119.029,225.104 118.705,223.695 119.022 M196.746 122.675 C 194.639 123.176,193.095 124.545,193.892 125.207 C 195.093 126.203,198.786 124.793,199.382 123.110 C 199.592 122.519,198.301 122.306,196.746 122.675 M330.667 129.546 C 331.160 129.729,331.969 130.242,332.463 130.686 C 333.703 131.799,333.998 131.965,336.483 132.952 C 338.869 133.899,340.832 134.907,341.952 135.759 C 342.690 136.321,343.342 136.538,345.208 136.844 C 347.242 137.177,348.694 138.398,348.912 139.959 C 349.047 140.928,349.283 141.638,349.779 142.571 C 349.997 142.980,350.225 143.543,350.286 143.822 C 350.354 144.131,350.596 144.448,350.905 144.630 C 351.460 144.958,351.486 145.034,351.255 145.642 C 350.689 147.130,345.090 146.626,341.660 144.778 C 340.860 144.347,337.783 142.776,334.822 141.287 C 328.898 138.306,328.405 137.960,327.604 136.223 C 326.936 134.771,326.842 133.918,327.198 132.501 C 327.464 131.439,327.458 130.325,327.182 129.605 C 326.949 128.999,329.091 128.963,330.667 129.546 M287.772 132.098 C 287.247 132.308,287.089 132.548,287.086 133.139 C 287.081 134.005,288.330 134.083,289.008 133.260 C 289.732 132.381,288.937 131.633,287.772 132.098 " stroke="none" fill="#b34f2b" fill-rule="evenodd"></path><path id="path1" d="M294.150 9.087 C 290.898 9.630,289.649 10.023,288.879 10.743 C 287.637 11.906,286.328 12.840,284.175 14.103 C 281.056 15.931,279.982 16.659,278.871 17.703 C 278.353 18.189,277.408 18.878,276.771 19.234 C 276.133 19.589,275.081 20.392,274.433 21.018 C 273.426 21.989,273.055 22.225,271.894 22.631 C 269.745 23.381,266.800 25.413,265.160 27.275 C 264.818 27.664,263.979 28.442,263.297 29.004 C 261.917 30.140,260.430 31.638,259.394 32.934 C 259.018 33.405,258.153 34.251,257.472 34.816 C 255.298 36.617,254.939 36.969,253.999 38.214 C 252.942 39.614,251.036 41.707,249.458 43.199 C 246.268 46.215,244.996 49.019,244.996 53.032 L 244.996 55.025 245.549 55.443 C 245.854 55.672,246.188 55.898,246.291 55.945 C 247.008 56.271,247.805 57.606,248.330 59.361 C 248.550 60.097,249.037 61.265,249.412 61.958 C 249.787 62.650,250.217 63.652,250.368 64.184 C 250.595 64.988,250.790 65.277,251.516 65.884 C 252.122 66.392,252.551 66.952,252.914 67.713 C 253.313 68.548,253.650 68.966,254.330 69.468 C 254.820 69.831,255.390 70.400,255.596 70.732 C 255.801 71.065,256.330 71.645,256.770 72.021 C 257.210 72.397,257.994 73.316,258.512 74.062 C 259.865 76.013,260.912 77.299,263.049 79.634 C 264.086 80.767,265.237 82.079,265.606 82.549 C 265.976 83.020,267.283 84.445,268.511 85.716 C 271.899 89.222,274.969 92.518,275.996 93.750 C 276.503 94.359,277.544 95.398,278.310 96.060 C 279.076 96.721,280.228 97.870,280.869 98.612 C 281.511 99.355,282.505 100.471,283.079 101.093 C 283.653 101.715,284.434 102.686,284.814 103.251 C 285.194 103.815,285.716 104.470,285.973 104.705 C 286.230 104.940,286.871 105.672,287.396 106.330 C 289.877 109.441,290.736 110.024,291.280 108.972 C 292.267 107.063,293.864 106.188,297.234 105.711 C 298.762 105.494,300.416 105.125,301.711 104.710 C 302.857 104.343,304.481 103.966,305.389 103.857 C 307.831 103.563,308.681 103.370,311.197 102.536 C 312.462 102.116,314.387 101.592,315.474 101.370 C 319.435 100.562,319.544 100.400,318.367 97.084 C 317.443 94.479,317.220 94.222,315.806 94.134 C 314.491 94.052,311.454 94.595,309.215 95.312 C 308.355 95.587,306.776 95.969,305.707 96.161 C 303.063 96.636,299.755 97.437,298.361 97.940 C 297.727 98.169,296.220 98.624,295.011 98.951 C 293.802 99.279,292.010 99.910,291.028 100.354 C 288.046 101.703,287.607 101.632,285.537 99.458 C 284.172 98.026,283.661 96.957,283.661 95.532 C 283.661 94.299,284.075 93.962,286.346 93.344 C 287.175 93.119,288.854 92.660,290.077 92.325 C 291.300 91.990,293.048 91.596,293.962 91.449 C 295.564 91.192,297.136 90.785,299.973 89.895 C 300.711 89.663,302.059 89.359,302.967 89.218 C 303.876 89.077,305.428 88.774,306.416 88.545 C 307.404 88.316,308.963 88.009,309.881 87.864 C 313.932 87.223,314.734 84.300,311.634 81.467 C 310.033 80.004,308.861 79.959,304.876 81.208 C 303.669 81.586,299.369 82.422,296.636 82.810 C 295.922 82.911,294.852 83.235,294.078 83.584 C 293.245 83.961,291.844 84.373,290.329 84.689 C 288.436 85.083,287.588 85.355,286.428 85.943 C 285.612 86.355,284.550 86.822,284.068 86.980 C 283.586 87.138,282.744 87.537,282.196 87.867 C 280.681 88.779,279.686 89.058,278.847 88.807 C 277.827 88.501,275.124 85.995,274.359 84.645 C 274.026 84.057,273.494 83.306,273.177 82.977 C 272.294 82.060,270.085 79.373,269.554 78.571 C 269.294 78.178,268.822 77.659,268.506 77.417 C 268.190 77.176,267.683 76.615,267.381 76.171 C 266.355 74.663,265.102 73.144,263.964 72.028 C 260.533 68.662,257.049 63.698,255.396 59.821 C 255.029 58.960,254.386 57.562,253.967 56.715 C 252.903 54.561,252.002 51.327,251.893 49.273 C 251.807 47.632,251.851 47.320,252.496 44.996 C 252.691 44.290,252.971 43.174,253.116 42.515 C 253.477 40.884,254.055 40.109,255.432 39.405 C 256.765 38.724,258.043 37.429,259.043 35.746 C 260.614 33.102,268.910 24.674,270.896 23.705 C 271.565 23.378,272.322 22.976,272.577 22.812 C 273.510 22.209,273.940 23.013,274.516 26.433 C 275.125 30.056,275.491 30.333,279.820 30.453 C 283.769 30.563,284.085 30.751,284.687 33.362 C 284.933 34.426,285.233 35.080,285.844 35.883 C 286.075 36.188,286.514 37.230,286.818 38.199 C 288.301 42.924,293.466 47.303,298.755 48.320 C 299.910 48.542,301.394 48.877,302.053 49.065 C 303.270 49.412,306.090 49.868,308.151 50.051 C 309.579 50.177,310.693 49.910,310.693 49.441 C 310.693 48.634,309.078 48.191,306.219 48.215 L 304.055 48.233 302.825 47.369 C 301.185 46.217,300.627 46.007,298.783 45.850 C 296.821 45.681,296.612 45.565,295.957 44.266 C 295.272 42.910,292.601 40.222,290.910 39.188 C 289.964 38.609,289.577 38.246,289.183 37.570 C 288.904 37.090,288.421 36.293,288.109 35.797 C 287.562 34.928,287.531 34.782,287.234 31.691 C 286.538 24.445,286.932 22.678,289.861 19.894 C 290.433 19.350,291.450 18.366,292.122 17.707 C 294.276 15.594,295.350 15.047,297.551 14.946 C 299.804 14.842,300.255 15.308,300.258 17.745 C 300.260 19.084,300.430 19.852,301.094 21.520 C 301.523 22.597,301.542 23.231,301.183 24.380 C 300.878 25.355,300.941 27.190,301.390 30.383 C 301.673 32.395,301.672 32.400,300.930 34.474 C 300.276 36.302,300.778 38.123,302.615 40.582 C 303.493 41.759,306.674 45.019,307.239 45.321 C 308.559 46.027,312.051 44.501,314.318 42.229 C 315.159 41.385,315.977 40.747,316.586 40.459 C 317.110 40.211,317.930 39.674,318.408 39.267 C 320.687 37.321,321.568 37.045,323.353 37.719 C 324.020 37.970,324.256 37.981,325.111 37.800 L 326.099 37.591 325.477 37.168 C 324.664 36.615,323.786 36.513,322.651 36.839 C 322.143 36.984,321.177 37.178,320.503 37.269 C 319.730 37.374,318.721 37.687,317.766 38.117 C 314.327 39.665,313.169 39.432,310.491 36.656 C 309.186 35.303,308.944 34.879,308.451 33.078 C 307.926 31.158,306.619 28.497,305.085 26.227 C 303.244 23.502,303.180 23.258,303.157 18.938 C 303.115 11.054,302.442 9.614,298.392 8.745 C 297.333 8.518,297.757 8.484,294.150 9.087 M54.833 16.406 C 54.269 16.570,53.394 16.917,52.889 17.176 C 51.898 17.685,48.535 19.173,46.202 20.135 C 42.189 21.789,39.864 23.552,38.311 26.116 C 37.846 26.882,37.153 27.883,36.770 28.340 C 34.847 30.636,32.506 37.150,32.506 40.209 C 32.506 43.015,34.216 44.030,39.910 44.607 C 45.377 45.160,47.245 44.970,49.103 43.672 C 50.041 43.017,50.371 42.578,52.695 38.898 C 55.071 35.134,57.670 33.826,61.745 34.340 C 69.660 35.339,72.289 46.607,65.988 52.524 C 65.337 53.135,64.076 54.348,63.187 55.220 C 62.297 56.091,61.037 57.228,60.387 57.747 C 59.736 58.266,58.762 59.247,58.222 59.927 C 57.682 60.607,56.930 61.433,56.550 61.762 C 56.170 62.092,54.820 63.367,53.550 64.596 C 52.280 65.825,50.778 67.184,50.214 67.616 C 49.649 68.047,48.587 69.017,47.854 69.771 C 47.120 70.524,45.982 71.550,45.324 72.050 C 44.666 72.550,43.544 73.654,42.830 74.503 C 41.429 76.170,37.891 79.831,35.551 82.036 C 31.653 85.709,30.697 87.602,30.752 91.531 C 30.777 93.278,30.680 95.806,30.518 97.599 C 29.720 106.476,30.682 106.945,48.892 106.565 C 55.096 106.436,59.206 106.436,62.933 106.564 C 66.587 106.690,69.142 106.692,71.270 106.569 C 72.957 106.472,76.993 106.379,80.240 106.362 C 89.444 106.313,90.087 105.669,89.498 97.092 C 88.990 89.701,87.245 88.989,71.586 89.781 C 63.578 90.185,59.057 89.590,58.136 88.010 C 57.232 86.457,60.758 81.764,65.585 78.095 C 69.110 75.416,71.323 73.304,72.659 71.343 C 73.248 70.479,74.877 68.993,76.866 67.508 C 80.283 64.957,85.442 58.494,86.508 55.431 C 87.519 52.522,88.358 45.012,88.101 41.159 C 87.506 32.222,87.285 31.039,85.778 28.730 C 84.945 27.453,82.819 25.345,80.924 23.915 C 80.218 23.383,79.009 22.409,78.237 21.752 C 76.085 19.918,75.082 19.387,71.063 17.952 C 68.505 17.039,67.023 16.776,63.388 16.592 C 61.506 16.497,59.257 16.344,58.390 16.251 C 56.360 16.033,56.066 16.046,54.833 16.406 M330.710 42.952 C 330.710 43.051,330.895 43.802,331.121 44.620 C 331.707 46.738,331.901 47.759,332.084 49.677 C 332.313 52.070,332.920 52.924,335.081 53.895 C 337.425 54.948,337.527 56.958,335.323 58.654 C 333.898 59.749,333.533 60.312,333.692 61.161 C 333.831 61.901,334.162 62.007,334.947 61.564 C 335.613 61.189,337.470 60.975,337.642 61.254 C 337.694 61.337,337.835 61.367,337.958 61.320 C 338.080 61.273,338.558 61.510,339.021 61.846 C 339.484 62.182,340.489 62.762,341.254 63.135 C 342.688 63.833,343.003 64.144,343.350 65.203 C 343.461 65.543,343.824 66.272,344.155 66.822 C 345.212 68.577,345.241 70.699,344.244 73.423 C 343.738 74.806,343.572 76.561,344.002 75.976 C 344.483 75.321,345.263 72.420,345.372 70.875 C 345.508 68.952,344.773 65.460,344.036 64.522 C 343.858 64.296,343.713 64.048,343.713 63.971 C 343.713 63.725,341.689 60.502,341.144 59.880 C 340.856 59.551,340.218 58.824,339.728 58.266 C 339.238 57.707,338.686 57.052,338.502 56.811 C 338.318 56.570,337.772 55.911,337.288 55.346 C 333.976 51.484,333.142 49.960,332.788 47.130 C 332.587 45.527,332.058 44.003,331.451 43.282 C 331.014 42.762,330.710 42.627,330.710 42.952 M246.707 62.373 C 246.707 62.548,247.556 63.887,248.000 64.414 L 248.434 64.927 248.091 64.005 C 247.693 62.936,246.707 61.773,246.707 62.373 M249.021 66.467 C 249.548 68.011,249.542 68.357,248.980 69.103 C 248.149 70.206,247.200 70.719,244.878 71.320 C 241.852 72.102,241.178 72.497,240.299 73.996 C 239.325 75.659,237.828 76.715,235.690 77.249 C 233.809 77.718,233.097 78.121,231.426 79.659 C 230.420 80.586,229.332 81.390,228.400 81.894 C 224.470 84.024,222.437 86.148,221.470 89.136 C 220.952 90.739,220.232 92.081,219.222 93.328 C 218.027 94.803,217.711 95.499,217.265 97.636 C 216.618 100.731,214.756 102.559,211.891 102.912 C 207.379 103.468,204.404 105.001,200.398 108.833 C 199.688 109.512,199.439 109.905,199.146 110.811 C 198.946 111.434,198.551 112.399,198.270 112.956 C 197.923 113.642,197.709 114.393,197.608 115.282 C 197.303 117.945,196.672 118.609,193.283 119.836 C 190.705 120.769,190.118 121.134,188.537 122.788 C 187.297 124.086,186.840 124.433,185.426 125.150 C 184.514 125.612,183.359 126.358,182.859 126.807 C 181.900 127.671,179.845 128.771,178.272 129.265 C 175.887 130.013,174.708 130.987,173.753 133.000 C 173.416 133.711,173.139 134.334,173.139 134.383 C 173.139 134.432,173.505 134.098,173.952 133.640 C 174.525 133.054,175.068 132.698,175.791 132.436 C 179.570 131.066,180.315 130.635,182.666 128.457 C 183.468 127.714,184.743 126.749,185.501 126.312 C 186.258 125.875,187.347 125.079,187.921 124.542 C 189.917 122.676,192.470 121.089,195.054 120.106 C 199.247 118.512,201.801 115.468,200.687 113.391 C 199.539 111.250,203.918 110.442,216.082 110.552 C 222.001 110.606,222.171 110.617,222.754 110.985 C 224.456 112.056,224.697 112.114,228.078 112.250 C 232.322 112.421,232.491 112.472,233.081 113.750 C 234.494 116.811,237.048 115.798,241.018 110.603 C 243.163 107.796,241.385 106.341,233.618 104.547 C 233.148 104.438,231.801 104.049,230.624 103.683 C 229.448 103.316,227.831 102.926,227.032 102.816 C 226.096 102.686,225.107 102.406,224.257 102.027 C 223.322 101.611,222.503 101.391,221.450 101.271 C 219.838 101.088,218.951 100.758,218.557 100.196 C 218.261 99.774,218.228 99.127,218.494 98.963 C 219.333 98.444,219.679 97.312,219.566 95.449 C 219.430 93.210,219.453 93.163,221.846 90.847 C 224.003 88.758,224.567 88.527,227.357 88.586 C 230.479 88.652,232.811 89.232,236.698 90.909 C 237.263 91.153,238.042 91.354,238.429 91.356 C 238.817 91.358,239.818 91.480,240.653 91.626 C 241.489 91.772,242.739 91.963,243.432 92.052 C 244.462 92.183,244.874 92.334,245.700 92.886 C 246.336 93.310,247.075 93.634,247.692 93.757 C 248.846 93.989,250.127 94.557,250.130 94.840 C 250.132 95.010,251.177 95.808,251.397 95.808 C 251.516 95.808,252.010 94.754,252.010 94.499 C 252.010 94.372,252.087 94.269,252.181 94.269 C 252.275 94.269,252.352 94.168,252.352 94.044 C 252.352 93.605,253.329 93.071,254.133 93.071 C 254.868 93.071,255.930 93.713,255.825 94.094 C 255.806 94.164,255.967 94.301,256.182 94.400 C 256.582 94.582,257.656 94.230,257.656 93.917 C 257.656 93.842,257.753 93.678,257.872 93.554 C 258.376 93.026,258.499 92.426,258.325 91.346 C 257.994 89.289,257.651 88.856,255.707 88.042 C 255.009 87.750,254.157 87.280,253.814 86.997 C 252.802 86.165,248.819 83.727,246.837 82.726 C 245.826 82.216,244.672 81.577,244.271 81.307 C 243.870 81.037,243.195 80.617,242.772 80.373 C 240.764 79.217,240.619 78.035,242.201 75.704 C 242.583 75.140,243.140 74.195,243.438 73.604 C 244.080 72.330,244.498 72.036,246.621 71.358 C 249.200 70.535,249.766 70.234,250.062 69.528 C 250.490 68.504,250.095 67.059,249.038 65.783 L 248.613 65.269 249.021 66.467 M319.835 69.386 C 319.437 72.043,320.419 73.653,322.428 73.637 C 325.586 73.612,325.568 71.988,322.391 70.397 C 321.693 70.047,320.859 69.498,320.538 69.178 L 319.954 68.594 319.835 69.386 M345.252 85.275 C 345.252 86.083,345.814 87.819,346.666 89.649 L 347.185 90.761 346.901 91.873 C 346.514 93.396,346.544 93.749,347.118 94.422 C 347.691 95.092,347.896 95.858,347.633 96.349 C 346.327 98.789,346.641 100.041,348.740 100.763 C 349.977 101.189,350.781 101.678,351.227 102.276 L 351.572 102.737 351.575 100.855 C 351.577 99.767,351.442 98.180,351.255 97.092 C 351.076 96.056,350.879 94.751,350.816 94.191 C 350.683 93.001,350.429 92.333,349.715 91.295 C 349.430 90.881,349.037 90.116,348.843 89.596 C 348.648 89.076,348.110 88.137,347.647 87.510 C 347.184 86.882,346.596 86.040,346.342 85.637 C 345.595 84.456,345.252 84.343,345.252 85.275 M332.250 92.684 C 331.289 92.853,330.851 93.600,331.378 94.172 C 331.610 94.424,331.735 94.894,331.811 95.808 C 331.870 96.514,331.929 97.184,331.942 97.298 C 331.954 97.411,332.030 97.464,332.110 97.414 C 332.190 97.365,332.211 97.253,332.157 97.165 C 332.103 97.078,332.135 97.006,332.227 97.006 C 332.320 97.006,332.531 96.871,332.696 96.707 C 332.861 96.542,333.039 96.402,333.093 96.395 C 334.019 96.283,334.611 95.934,334.709 95.444 C 334.924 94.370,334.832 93.659,334.431 93.292 C 333.901 92.806,332.993 92.553,332.250 92.684 M264.422 105.832 C 262.395 106.574,262.257 108.377,264.076 110.355 C 264.583 110.907,265.242 111.844,265.540 112.437 C 265.838 113.030,266.484 114.093,266.975 114.799 C 267.466 115.505,268.142 116.621,268.476 117.280 C 268.810 117.938,269.399 119.015,269.785 119.672 C 270.172 120.329,270.488 120.924,270.488 120.993 C 270.488 121.062,270.873 121.770,271.343 122.567 C 271.814 123.364,272.198 124.062,272.198 124.119 C 272.198 124.176,272.433 124.725,272.720 125.338 C 273.007 125.952,273.313 126.641,273.400 126.871 C 273.641 127.505,273.851 127.379,274.226 126.376 C 274.768 124.929,274.814 124.351,274.532 122.557 C 274.386 121.631,274.186 120.257,274.088 119.504 C 273.900 118.059,273.858 117.963,271.573 113.687 C 270.147 111.018,269.677 110.232,268.100 107.881 C 266.543 105.561,265.996 105.256,264.422 105.832 M255.142 112.728 C 252.911 114.344,253.287 115.977,256.723 119.589 C 257.215 120.107,257.829 120.877,258.087 121.300 C 258.345 121.724,258.810 122.384,259.120 122.767 C 259.765 123.567,261.544 126.544,262.280 128.058 C 262.554 128.623,263.061 130.224,263.406 131.616 C 264.136 134.564,264.234 134.635,265.218 132.942 C 266.931 129.995,266.211 125.222,263.422 121.052 C 262.415 119.545,261.107 117.477,259.901 115.483 C 258.095 112.498,256.630 111.650,255.142 112.728 M355.783 114.010 C 355.835 114.282,355.990 114.744,356.126 115.037 L 356.375 115.569 356.279 115.074 C 356.226 114.803,356.072 114.341,355.935 114.048 L 355.687 113.516 355.783 114.010 M357.079 118.563 C 357.076 118.704,357.179 119.050,357.308 119.333 C 357.437 119.615,357.546 119.731,357.549 119.589 C 357.552 119.448,357.449 119.102,357.320 118.820 C 357.191 118.537,357.082 118.422,357.079 118.563 M27.459 119.943 C 25.497 120.140,24.708 120.868,24.042 123.097 C 23.486 124.956,22.997 125.835,21.870 127.002 C 19.710 129.240,19.734 130.932,21.966 133.857 C 23.771 136.223,23.942 137.016,23.953 143.114 C 23.970 152.037,24.867 153.890,28.938 153.408 C 32.059 153.038,32.794 151.323,32.611 144.835 C 32.420 138.069,33.199 135.854,36.432 133.966 C 40.206 131.762,40.035 128.191,36.063 126.265 C 34.581 125.546,33.709 124.650,32.829 122.938 C 31.510 120.373,30.240 119.664,27.459 119.943 M359.520 123.623 C 359.832 124.463,360.282 125.535,360.519 126.005 C 360.909 126.780,361.116 127.379,361.935 130.111 L 362.192 130.967 362.091 129.940 C 361.735 126.297,361.029 124.141,359.792 122.923 L 358.952 122.096 359.520 123.623 M295.158 126.125 C 294.684 126.599,294.906 127.340,295.488 127.224 C 295.782 127.165,296.136 127.117,296.274 127.117 C 296.451 127.117,296.380 126.941,296.039 126.531 C 295.485 125.864,295.440 125.843,295.158 126.125 M95.979 126.247 C 94.152 126.458,93.029 126.879,91.648 127.870 C 90.938 128.380,89.822 129.142,89.169 129.565 C 87.761 130.475,87.185 131.152,86.486 132.716 C 86.201 133.354,85.602 134.539,85.155 135.350 C 83.274 138.764,83.454 141.394,85.913 146.388 L 87.104 148.807 89.568 151.121 C 92.713 154.074,93.762 154.491,98.055 154.491 C 108.496 154.491,115.010 144.227,111.047 134.021 C 108.957 128.640,102.789 125.457,95.979 126.247 M59.966 126.702 C 58.756 127.331,58.331 128.062,57.484 130.970 C 56.711 133.625,55.785 135.196,54.630 135.814 C 53.391 136.477,52.231 135.300,50.024 131.140 C 47.987 127.302,46.158 126.172,43.664 127.211 C 40.768 128.418,40.831 129.841,44.165 138.494 C 44.934 140.491,45.435 141.910,45.919 143.456 C 46.696 145.940,48.546 151.068,48.775 151.371 C 50.107 153.135,52.211 153.995,54.588 153.747 C 56.807 153.515,57.371 152.834,58.417 149.122 C 59.480 145.350,60.706 143.242,61.708 143.466 C 62.811 143.712,65.012 146.780,66.288 149.854 C 67.751 153.373,68.365 153.887,70.957 153.761 C 74.369 153.594,76.441 151.622,77.336 147.689 C 77.524 146.866,77.799 145.654,77.948 144.996 C 78.228 143.760,79.065 142.070,80.577 139.692 C 81.721 137.894,81.931 137.126,82.148 133.961 C 82.521 128.499,81.964 127.018,79.459 126.810 C 77.518 126.649,76.513 127.668,73.273 133.089 C 71.140 136.657,70.931 136.818,69.863 135.719 C 68.912 134.740,68.507 134.017,67.917 132.250 C 66.790 128.873,66.033 127.916,63.730 126.957 C 62.288 126.357,60.820 126.257,59.966 126.702 M299.014 130.111 C 299.210 130.393,299.662 130.894,300.016 131.223 L 300.661 131.822 300.134 131.138 C 299.844 130.761,299.393 130.261,299.131 130.026 L 298.656 129.598 299.014 130.111 M99.157 134.759 C 102.645 135.937,104.805 139.927,103.520 142.819 C 100.865 148.795,91.855 146.014,92.724 139.486 C 93.133 136.414,94.286 135.104,96.984 134.648 C 98.171 134.447,98.246 134.451,99.157 134.759 M171.958 136.988 C 171.101 138.869,170.619 141.997,170.912 143.786 C 171.189 145.476,171.342 145.174,171.366 142.890 C 171.383 141.282,171.502 140.186,171.825 138.668 C 172.282 136.520,172.306 136.224,171.958 136.988 M306.844 138.580 C 307.372 139.622,308.832 141.710,309.533 142.425 L 310.209 143.114 309.740 142.344 C 308.774 140.759,307.302 138.654,306.927 138.323 L 306.540 137.981 306.844 138.580 M315.488 148.259 C 317.600 150.405,322.789 154.720,324.166 155.474 C 325.651 156.288,325.347 155.961,323.182 154.416 C 322.476 153.913,320.589 152.319,318.987 150.874 C 314.827 147.121,313.093 145.825,315.488 148.259 M174.570 152.399 C 174.705 152.618,175.706 153.359,175.706 153.240 C 175.706 153.198,175.423 152.947,175.078 152.684 C 174.732 152.420,174.504 152.292,174.570 152.399 M175.963 153.466 C 176.107 153.698,177.452 154.321,179.121 154.928 C 180.969 155.600,180.474 155.258,178.497 154.497 C 177.479 154.105,176.464 153.666,176.241 153.521 C 176.004 153.368,175.888 153.345,175.963 153.466 M365.406 157.408 C 365.159 157.968,364.992 158.426,365.037 158.426 C 365.152 158.426,366.002 156.535,365.923 156.456 C 365.886 156.419,365.654 156.848,365.406 157.408 M326.861 157.109 C 327.143 157.353,328.010 157.922,328.788 158.374 C 329.565 158.826,330.839 159.566,331.618 160.018 C 332.397 160.469,333.608 161.297,334.310 161.856 C 336.037 163.232,337.695 164.023,339.714 164.436 C 342.160 164.935,342.622 164.772,340.462 164.171 C 338.540 163.637,335.766 162.294,333.477 160.790 C 332.755 160.316,331.609 159.673,330.931 159.361 C 330.253 159.049,329.137 158.431,328.451 157.987 C 326.483 156.715,326.262 156.592,326.861 157.109 M184.089 157.129 C 184.089 157.955,194.480 160.915,196.996 160.806 C 197.560 160.781,195.851 160.353,192.902 159.779 C 190.204 159.253,189.518 159.044,186.655 157.871 C 185.331 157.329,184.089 156.970,184.089 157.129 M203.935 162.262 C 203.935 162.301,204.493 162.461,205.175 162.617 C 210.938 163.935,224.356 164.202,226.524 163.042 C 227.065 162.753,226.926 162.739,225.235 162.919 C 221.592 163.306,213.973 163.131,207.917 162.521 C 204.506 162.178,203.935 162.140,203.935 162.262 " stroke="none" fill="#d7e3d9" fill-rule="evenodd"></path><path id="path2" d="M0.000 85.543 L 0.000 171.086 200.000 171.086 L 400.000 171.086 400.000 85.543 L 400.000 0.000 200.000 0.000 L 0.000 0.000 0.000 85.543 M298.392 8.745 C 302.442 9.614,303.115 11.054,303.157 18.938 C 303.180 23.258,303.244 23.502,305.085 26.227 C 306.619 28.497,307.926 31.158,308.451 33.078 C 308.944 34.879,309.186 35.303,310.491 36.656 C 313.169 39.432,314.327 39.665,317.766 38.117 C 318.724 37.685,319.728 37.375,320.503 37.270 C 321.177 37.179,322.108 36.994,322.572 36.859 C 323.720 36.524,324.362 36.549,325.067 36.959 C 325.395 37.149,326.076 37.498,326.582 37.735 C 327.855 38.332,329.319 39.850,330.037 41.317 C 330.359 41.976,330.901 42.784,331.241 43.114 C 332.005 43.854,332.557 45.288,332.788 47.130 C 333.068 49.370,333.352 50.104,334.648 51.935 C 335.967 53.800,336.014 53.861,337.288 55.346 C 337.772 55.911,338.318 56.570,338.502 56.811 C 338.686 57.052,339.238 57.707,339.728 58.266 C 340.218 58.824,340.856 59.551,341.144 59.880 C 341.689 60.502,343.713 63.725,343.713 63.971 C 343.713 64.048,343.858 64.296,344.036 64.522 C 344.773 65.460,345.508 68.952,345.372 70.875 C 345.265 72.380,344.502 75.258,344.011 76.009 C 343.566 76.687,343.638 77.996,344.249 80.329 C 344.543 81.456,344.884 82.838,345.005 83.401 C 345.130 83.977,345.366 84.538,345.547 84.684 C 345.723 84.827,346.206 85.445,346.621 86.056 C 347.035 86.668,347.622 87.493,347.924 87.890 C 348.227 88.286,348.637 89.045,348.835 89.576 C 349.034 90.107,349.430 90.881,349.715 91.295 C 350.429 92.333,350.683 93.001,350.816 94.191 C 350.879 94.751,351.076 96.056,351.255 97.092 C 351.444 98.189,351.580 99.794,351.581 100.942 C 351.583 103.055,351.837 104.046,353.074 106.758 C 353.353 107.370,353.758 108.409,353.974 109.068 C 354.191 109.726,354.575 110.689,354.829 111.206 C 355.374 112.319,356.247 114.843,356.545 116.168 C 357.230 119.209,358.198 121.246,359.717 122.840 C 361.117 124.309,361.486 125.397,362.097 129.855 C 362.400 132.074,362.930 133.365,364.654 136.092 C 365.203 136.959,365.764 138.110,365.948 138.744 C 368.081 146.089,368.230 146.898,367.847 149.124 C 366.422 157.421,363.089 163.197,358.747 164.894 C 354.553 166.534,351.736 166.591,344.490 165.186 C 343.270 164.950,342.039 164.755,341.752 164.754 C 339.709 164.745,336.629 163.632,334.868 162.267 C 333.155 160.938,332.011 160.187,330.177 159.186 C 329.200 158.653,327.823 157.811,327.117 157.316 C 326.411 156.820,325.161 156.040,324.339 155.581 C 322.594 154.609,317.564 150.391,314.978 147.733 C 314.063 146.792,312.320 145.082,311.105 143.934 C 309.012 141.955,307.772 140.396,306.844 138.580 C 306.363 137.637,306.087 137.328,302.557 133.773 C 300.439 131.639,298.902 129.931,298.331 129.077 C 297.269 127.488,296.624 127.036,295.654 127.200 L 294.984 127.313 294.621 128.712 C 294.422 129.482,294.169 130.457,294.059 130.880 C 293.780 131.950,291.386 134.245,289.492 135.257 C 288.750 135.653,287.723 136.295,287.210 136.682 C 286.697 137.069,285.787 137.585,285.189 137.828 C 284.591 138.071,283.563 138.541,282.904 138.873 C 282.199 139.228,280.750 139.711,279.380 140.047 C 277.959 140.396,276.325 140.945,275.182 141.457 C 274.153 141.919,272.887 142.433,272.370 142.598 C 271.852 142.764,270.704 143.205,269.818 143.579 C 268.932 143.952,267.354 144.449,266.310 144.683 C 264.101 145.180,262.715 145.624,261.574 146.202 C 261.125 146.430,260.271 146.799,259.677 147.023 C 259.083 147.246,257.904 147.777,257.057 148.201 C 256.210 148.626,255.094 149.151,254.577 149.367 C 253.638 149.760,252.354 150.547,250.358 151.953 C 249.779 152.361,248.533 153.510,247.589 154.506 C 244.526 157.739,242.729 158.828,239.288 159.536 C 238.132 159.775,236.160 160.314,234.907 160.734 C 233.654 161.154,231.353 161.778,229.794 162.120 C 228.235 162.462,226.795 162.851,226.592 162.983 C 224.600 164.289,210.136 163.933,204.588 162.442 C 202.463 161.871,198.732 161.104,195.894 160.654 C 190.975 159.875,186.206 158.574,184.773 157.619 C 183.527 156.787,181.086 155.605,179.387 155.009 C 174.614 153.335,172.212 150.788,171.514 146.659 C 171.366 145.786,171.173 144.881,171.084 144.648 C 170.341 142.692,170.914 139.450,172.746 135.244 C 174.635 130.910,175.292 130.198,178.272 129.264 C 179.845 128.772,181.899 127.671,182.859 126.807 C 183.359 126.358,184.514 125.612,185.426 125.150 C 186.840 124.433,187.297 124.086,188.537 122.788 C 190.118 121.134,190.705 120.769,193.283 119.836 C 196.672 118.609,197.303 117.945,197.608 115.282 C 197.709 114.393,197.923 113.642,198.270 112.956 C 198.551 112.399,198.946 111.434,199.146 110.811 C 199.439 109.905,199.688 109.512,200.398 108.833 C 204.404 105.001,207.379 103.468,211.891 102.912 C 214.756 102.559,216.618 100.731,217.265 97.636 C 217.711 95.499,218.027 94.803,219.222 93.328 C 220.232 92.081,220.952 90.739,221.470 89.136 C 222.437 86.148,224.470 84.024,228.400 81.894 C 229.332 81.390,230.420 80.586,231.426 79.659 C 233.097 78.121,233.809 77.718,235.690 77.249 C 237.828 76.715,239.325 75.659,240.299 73.996 C 241.178 72.497,241.852 72.102,244.878 71.320 C 249.288 70.179,250.258 68.565,248.531 65.240 C 248.393 64.974,248.044 64.460,247.755 64.098 C 244.988 60.625,244.068 52.115,245.985 47.733 C 246.458 46.653,248.172 44.415,249.458 43.199 C 251.036 41.707,252.942 39.614,253.999 38.214 C 254.939 36.969,255.298 36.617,257.472 34.816 C 258.153 34.251,259.018 33.405,259.394 32.934 C 260.430 31.638,261.917 30.140,263.297 29.004 C 263.979 28.442,264.818 27.664,265.160 27.275 C 266.800 25.413,269.745 23.381,271.894 22.631 C 273.055 22.225,273.426 21.989,274.433 21.018 C 275.081 20.392,276.133 19.589,276.771 19.234 C 277.408 18.878,278.353 18.189,278.871 17.703 C 279.982 16.659,281.056 15.931,284.175 14.103 C 286.328 12.840,287.637 11.906,288.879 10.743 C 289.649 10.023,290.898 9.630,294.150 9.087 C 297.757 8.484,297.333 8.518,298.392 8.745 M58.390 16.251 C 59.257 16.344,61.506 16.497,63.388 16.592 C 67.023 16.776,68.505 17.039,71.063 17.952 C 75.082 19.387,76.085 19.918,78.237 21.752 C 79.009 22.409,80.218 23.383,80.924 23.915 C 82.819 25.345,84.945 27.453,85.778 28.730 C 87.285 31.039,87.506 32.222,88.101 41.159 C 88.358 45.012,87.519 52.522,86.508 55.431 C 85.442 58.494,80.283 64.957,76.866 67.508 C 74.877 68.993,73.248 70.479,72.659 71.343 C 71.323 73.304,69.110 75.416,65.585 78.095 C 60.758 81.764,57.232 86.457,58.136 88.010 C 59.057 89.590,63.578 90.185,71.586 89.781 C 87.245 88.989,88.990 89.701,89.498 97.092 C 89.891 102.824,89.315 104.896,87.044 105.923 C 86.155 106.324,86.058 106.331,80.240 106.362 C 76.993 106.379,72.957 106.472,71.270 106.569 C 69.142 106.692,66.587 106.690,62.933 106.564 C 59.206 106.436,55.096 106.436,48.892 106.565 C 30.682 106.945,29.720 106.476,30.518 97.599 C 30.680 95.806,30.777 93.278,30.752 91.531 C 30.697 87.602,31.653 85.709,35.551 82.036 C 37.891 79.831,41.429 76.170,42.830 74.503 C 43.544 73.654,44.666 72.550,45.324 72.050 C 45.982 71.550,47.120 70.524,47.854 69.771 C 48.587 69.017,49.649 68.047,50.214 67.616 C 50.778 67.184,52.280 65.825,53.550 64.596 C 54.820 63.367,56.170 62.092,56.550 61.762 C 56.930 61.433,57.682 60.607,58.222 59.927 C 58.762 59.247,59.736 58.266,60.387 57.747 C 61.037 57.228,62.297 56.091,63.187 55.220 C 64.076 54.348,65.337 53.135,65.988 52.524 C 72.289 46.607,69.660 35.339,61.745 34.340 C 57.670 33.826,55.071 35.134,52.695 38.898 C 50.371 42.578,50.041 43.017,49.103 43.672 C 47.245 44.970,45.377 45.160,39.910 44.607 C 34.216 44.030,32.506 43.015,32.506 40.209 C 32.506 37.150,34.847 30.636,36.770 28.340 C 37.153 27.883,37.846 26.882,38.311 26.116 C 39.864 23.552,42.189 21.789,46.202 20.135 C 48.535 19.173,51.898 17.685,52.889 17.176 C 54.845 16.172,55.937 15.988,58.390 16.251 M30.733 120.415 C 31.627 120.873,31.995 121.316,32.829 122.938 C 33.709 124.650,34.581 125.546,36.063 126.265 C 40.035 128.191,40.206 131.762,36.432 133.966 C 33.199 135.854,32.420 138.069,32.611 144.835 C 32.794 151.323,32.059 153.038,28.938 153.408 C 24.867 153.890,23.970 152.037,23.953 143.114 C 23.942 137.016,23.771 136.223,21.966 133.857 C 19.734 130.932,19.710 129.240,21.870 127.002 C 22.997 125.835,23.486 124.956,24.042 123.097 C 24.945 120.074,27.821 118.921,30.733 120.415 M101.970 126.519 C 105.869 127.338,109.673 130.482,111.047 134.021 C 115.010 144.227,108.496 154.491,98.055 154.491 C 93.762 154.491,92.713 154.074,89.568 151.121 L 87.104 148.807 85.913 146.388 C 83.454 141.394,83.274 138.764,85.155 135.350 C 85.602 134.539,86.201 133.354,86.486 132.716 C 87.185 131.152,87.761 130.475,89.169 129.565 C 89.822 129.142,90.938 128.380,91.648 127.870 C 93.989 126.190,97.942 125.673,101.970 126.519 M63.730 126.957 C 66.033 127.916,66.790 128.873,67.917 132.250 C 68.507 134.017,68.912 134.740,69.863 135.719 C 70.931 136.818,71.140 136.657,73.273 133.089 C 76.513 127.668,77.518 126.649,79.459 126.810 C 81.964 127.018,82.521 128.499,82.148 133.961 C 81.931 137.126,81.721 137.894,80.577 139.692 C 79.065 142.070,78.228 143.760,77.948 144.996 C 77.799 145.654,77.524 146.866,77.336 147.689 C 76.441 151.622,74.369 153.594,70.957 153.761 C 68.365 153.887,67.751 153.373,66.288 149.854 C 65.012 146.780,62.811 143.712,61.708 143.466 C 60.706 143.242,59.480 145.350,58.417 149.122 C 57.371 152.834,56.807 153.515,54.588 153.747 C 52.211 153.995,50.107 153.135,48.775 151.371 C 48.546 151.068,46.696 145.940,45.919 143.456 C 45.435 141.910,44.934 140.491,44.165 138.494 C 40.831 129.841,40.768 128.418,43.664 127.211 C 46.158 126.172,47.987 127.302,50.024 131.140 C 52.231 135.300,53.391 136.477,54.630 135.814 C 55.785 135.196,56.711 133.625,57.484 130.970 C 58.784 126.506,60.303 125.531,63.730 126.957 M96.984 134.648 C 94.286 135.104,93.133 136.414,92.724 139.486 C 91.855 146.014,100.865 148.795,103.520 142.819 C 104.805 139.927,102.645 135.937,99.157 134.759 C 98.246 134.451,98.171 134.447,96.984 134.648 " stroke="none" fill="#35fbfa" fill-rule="evenodd"></path><path id="path3" d="M295.978 15.127 C 294.624 15.503,293.588 16.214,291.869 17.950 C 291.349 18.475,290.450 19.350,289.872 19.894 C 286.936 22.654,286.537 24.437,287.234 31.691 C 287.531 34.782,287.562 34.928,288.109 35.797 C 288.421 36.293,288.904 37.090,289.183 37.570 C 289.577 38.246,289.964 38.609,290.910 39.188 C 292.601 40.222,295.272 42.910,295.957 44.266 C 296.612 45.565,296.821 45.681,298.783 45.850 C 300.627 46.007,301.185 46.217,302.825 47.369 L 304.055 48.233 306.219 48.215 C 309.078 48.191,310.693 48.634,310.693 49.441 C 310.693 49.910,309.579 50.177,308.151 50.051 C 306.090 49.868,303.270 49.412,302.053 49.065 C 301.394 48.877,299.910 48.542,298.755 48.320 C 293.466 47.303,288.301 42.924,286.818 38.199 C 286.514 37.230,286.075 36.188,285.844 35.883 C 285.233 35.080,284.933 34.426,284.687 33.362 C 284.085 30.751,283.769 30.563,279.820 30.453 C 275.491 30.333,275.125 30.056,274.516 26.433 C 273.940 23.013,273.510 22.209,272.577 22.812 C 272.322 22.976,271.565 23.378,270.896 23.705 C 268.910 24.674,260.614 33.102,259.043 35.746 C 258.043 37.429,256.765 38.724,255.432 39.405 C 254.055 40.109,253.477 40.884,253.116 42.515 C 252.971 43.174,252.691 44.290,252.496 44.996 C 251.851 47.320,251.807 47.632,251.893 49.273 C 252.002 51.327,252.903 54.561,253.967 56.715 C 254.386 57.562,255.029 58.960,255.396 59.821 C 257.049 63.698,260.533 68.662,263.964 72.028 C 265.102 73.144,266.355 74.663,267.381 76.171 C 267.683 76.615,268.190 77.176,268.506 77.417 C 268.822 77.659,269.294 78.178,269.554 78.571 C 270.085 79.373,272.294 82.060,273.177 82.977 C 273.494 83.306,274.026 84.057,274.359 84.645 C 275.124 85.995,277.827 88.501,278.847 88.807 C 279.686 89.058,280.681 88.779,282.196 87.867 C 282.744 87.537,283.586 87.138,284.068 86.980 C 284.550 86.822,285.612 86.355,286.428 85.943 C 287.588 85.355,288.436 85.083,290.329 84.689 C 291.844 84.373,293.245 83.961,294.078 83.584 C 294.852 83.235,295.922 82.911,296.636 82.810 C 299.369 82.422,303.669 81.586,304.876 81.208 C 308.861 79.959,310.033 80.004,311.634 81.467 C 314.734 84.300,313.932 87.223,309.881 87.864 C 308.963 88.009,307.404 88.316,306.416 88.545 C 305.428 88.774,303.876 89.077,302.967 89.218 C 302.059 89.359,300.711 89.663,299.973 89.895 C 297.136 90.785,295.564 91.192,293.962 91.449 C 293.048 91.596,291.300 91.990,290.077 92.325 C 288.854 92.660,287.175 93.119,286.346 93.344 C 284.075 93.962,283.661 94.299,283.661 95.532 C 283.661 96.957,284.172 98.026,285.537 99.458 C 287.607 101.632,288.046 101.703,291.028 100.354 C 292.010 99.910,293.802 99.279,295.011 98.951 C 296.220 98.624,297.727 98.169,298.361 97.940 C 299.755 97.437,303.063 96.636,305.707 96.161 C 306.776 95.969,308.355 95.587,309.215 95.312 C 311.454 94.595,314.491 94.052,315.806 94.134 C 317.220 94.222,317.443 94.479,318.367 97.084 C 319.544 100.400,319.435 100.562,315.474 101.370 C 314.387 101.592,312.462 102.116,311.197 102.536 C 308.681 103.370,307.831 103.563,305.389 103.857 C 304.481 103.966,302.857 104.343,301.711 104.710 C 300.416 105.125,298.762 105.494,297.234 105.711 C 293.864 106.188,292.267 107.063,291.280 108.972 C 290.736 110.024,289.877 109.441,287.396 106.330 C 286.871 105.672,286.230 104.940,285.973 104.705 C 285.716 104.470,285.194 103.815,284.814 103.251 C 284.434 102.686,283.653 101.715,283.079 101.093 C 282.505 100.471,281.511 99.355,280.869 98.612 C 280.228 97.870,279.076 96.721,278.310 96.060 C 277.544 95.398,276.503 94.359,275.996 93.750 C 274.969 92.518,271.899 89.222,268.511 85.716 C 267.283 84.445,265.976 83.020,265.606 82.549 C 265.237 82.079,264.086 80.767,263.049 79.634 C 260.912 77.299,259.865 76.013,258.512 74.062 C 257.994 73.316,257.210 72.397,256.770 72.021 C 256.330 71.645,255.801 71.065,255.596 70.732 C 255.390 70.400,254.820 69.831,254.330 69.468 C 253.650 68.966,253.313 68.548,252.914 67.713 C 252.551 66.952,252.122 66.392,251.516 65.884 C 250.790 65.277,250.595 64.988,250.368 64.184 C 250.217 63.652,249.787 62.650,249.412 61.958 C 249.037 61.265,248.550 60.097,248.330 59.361 C 247.813 57.635,246.819 55.959,246.304 55.948 C 246.223 55.947,245.915 55.741,245.619 55.492 C 244.909 54.894,244.900 55.003,245.408 57.947 C 245.888 60.725,246.241 61.657,247.116 62.454 C 247.509 62.811,247.870 63.386,248.103 64.025 C 248.305 64.580,248.717 65.356,249.017 65.750 C 251.313 68.762,250.769 70.035,246.621 71.358 C 244.498 72.036,244.080 72.330,243.438 73.604 C 243.140 74.195,242.583 75.140,242.201 75.704 C 240.619 78.035,240.764 79.217,242.772 80.373 C 243.195 80.617,243.870 81.037,244.271 81.307 C 244.672 81.577,245.826 82.216,246.837 82.726 C 248.819 83.727,252.802 86.165,253.814 86.997 C 254.157 87.280,255.009 87.750,255.707 88.042 C 257.651 88.856,257.994 89.289,258.325 91.346 C 258.499 92.426,258.376 93.026,257.872 93.554 C 257.753 93.678,257.656 93.842,257.656 93.917 C 257.656 94.230,256.582 94.582,256.182 94.400 C 255.967 94.301,255.806 94.164,255.825 94.094 C 255.930 93.713,254.868 93.071,254.133 93.071 C 253.329 93.071,252.352 93.605,252.352 94.044 C 252.352 94.168,252.275 94.269,252.181 94.269 C 252.087 94.269,252.010 94.372,252.010 94.499 C 252.010 94.754,251.516 95.808,251.397 95.808 C 251.177 95.808,250.132 95.010,250.130 94.840 C 250.127 94.557,248.846 93.989,247.692 93.757 C 247.075 93.634,246.336 93.310,245.700 92.886 C 244.874 92.334,244.462 92.183,243.432 92.052 C 242.739 91.963,241.489 91.772,240.653 91.626 C 239.818 91.480,238.817 91.358,238.429 91.356 C 238.042 91.354,237.263 91.153,236.698 90.909 C 232.811 89.232,230.479 88.652,227.357 88.586 C 224.567 88.527,224.003 88.758,221.846 90.847 C 219.453 93.163,219.430 93.210,219.566 95.449 C 219.679 97.312,219.333 98.444,218.494 98.963 C 218.228 99.127,218.261 99.774,218.557 100.196 C 218.951 100.758,219.838 101.088,221.450 101.271 C 222.503 101.391,223.322 101.611,224.257 102.027 C 225.107 102.406,226.096 102.686,227.032 102.816 C 227.831 102.926,229.448 103.316,230.624 103.683 C 231.801 104.049,233.148 104.438,233.618 104.547 C 241.385 106.341,243.163 107.796,241.018 110.603 C 237.048 115.798,234.494 116.811,233.081 113.750 C 232.491 112.472,232.322 112.421,228.078 112.250 C 224.697 112.114,224.456 112.056,222.754 110.985 C 222.171 110.617,222.001 110.606,216.082 110.552 C 203.918 110.442,199.539 111.250,200.687 113.391 C 201.801 115.468,199.247 118.512,195.054 120.106 C 192.470 121.089,189.917 122.676,187.921 124.542 C 187.347 125.079,186.258 125.875,185.501 126.312 C 184.743 126.749,183.468 127.714,182.666 128.457 C 180.315 130.635,179.570 131.066,175.791 132.436 C 173.678 133.202,172.613 134.859,171.844 138.580 C 170.128 146.884,172.177 152.039,178.108 154.339 C 179.037 154.699,180.651 155.422,181.695 155.946 C 182.739 156.469,184.062 157.018,184.636 157.165 C 185.210 157.312,186.303 157.700,187.065 158.028 C 189.315 158.995,190.136 159.244,192.608 159.711 C 193.898 159.955,195.684 160.343,196.578 160.575 C 203.034 162.246,210.645 163.095,219.162 163.096 C 225.659 163.096,229.649 162.497,234.912 160.732 C 236.162 160.313,238.132 159.775,239.288 159.536 C 242.729 158.828,244.526 157.739,247.589 154.506 C 248.533 153.510,249.779 152.361,250.358 151.953 C 252.354 150.547,253.638 149.760,254.577 149.367 C 255.094 149.151,256.210 148.626,257.057 148.201 C 257.904 147.777,259.083 147.246,259.677 147.023 C 260.271 146.799,261.125 146.430,261.574 146.202 C 262.715 145.624,264.101 145.180,266.310 144.683 C 267.354 144.449,268.932 143.952,269.818 143.579 C 270.704 143.205,271.852 142.764,272.370 142.598 C 272.887 142.433,274.153 141.919,275.182 141.457 C 276.325 140.945,277.959 140.396,279.380 140.047 C 280.750 139.711,282.199 139.228,282.904 138.873 C 283.563 138.541,284.591 138.071,285.189 137.828 C 285.787 137.585,286.692 137.073,287.200 136.689 C 287.708 136.306,288.717 135.675,289.443 135.287 C 290.622 134.656,293.103 132.588,293.709 131.730 C 293.986 131.337,294.953 127.545,294.953 126.849 C 294.953 126.274,295.401 125.716,295.608 126.033 C 295.922 126.515,296.643 127.265,296.949 127.429 C 297.138 127.530,297.632 128.060,298.046 128.605 C 299.300 130.257,300.754 131.891,302.812 133.961 C 306.067 137.235,307.538 138.960,309.070 141.302 C 310.584 143.615,311.820 144.884,315.056 147.450 C 315.714 147.973,317.370 149.409,318.734 150.641 C 323.134 154.617,327.426 157.692,330.796 159.284 C 331.548 159.639,332.742 160.308,333.447 160.770 C 337.732 163.572,341.599 164.874,348.833 165.949 C 359.091 167.473,364.578 163.052,367.510 150.898 C 368.196 148.053,368.099 146.119,367.097 142.686 C 366.644 141.133,366.127 139.359,365.948 138.744 C 365.766 138.117,365.199 136.950,364.659 136.092 C 362.910 133.313,362.663 132.723,361.402 128.315 C 361.253 127.797,360.803 126.642,360.400 125.749 C 359.998 124.855,359.538 123.722,359.378 123.231 C 359.218 122.741,358.671 121.649,358.162 120.805 C 357.438 119.605,357.164 118.940,356.906 117.761 C 356.724 116.932,356.410 115.834,356.207 115.321 C 356.004 114.809,355.765 114.006,355.677 113.538 C 355.588 113.070,355.216 112.026,354.850 111.219 C 354.484 110.412,354.050 109.328,353.884 108.811 C 353.719 108.293,353.321 107.293,353.001 106.587 C 352.681 105.881,352.220 104.726,351.978 104.021 C 351.278 101.980,350.759 101.458,348.740 100.763 C 346.641 100.041,346.327 98.789,347.633 96.349 C 347.896 95.858,347.691 95.092,347.118 94.422 C 346.544 93.749,346.514 93.396,346.901 91.873 L 347.185 90.761 346.666 89.649 C 345.807 87.805,345.253 86.082,345.246 85.234 C 345.240 84.338,345.041 83.366,344.228 80.244 C 343.550 77.641,343.546 75.285,344.216 73.482 C 345.241 70.727,345.222 68.593,344.155 66.822 C 343.824 66.272,343.461 65.543,343.350 65.203 C 343.003 64.144,342.688 63.833,341.254 63.135 C 340.489 62.762,339.484 62.182,339.021 61.846 C 338.558 61.510,338.080 61.273,337.958 61.320 C 337.835 61.367,337.694 61.337,337.642 61.254 C 337.470 60.975,335.613 61.189,334.947 61.564 C 334.162 62.007,333.831 61.901,333.692 61.161 C 333.533 60.312,333.898 59.749,335.323 58.654 C 337.527 56.958,337.425 54.948,335.081 53.895 C 332.920 52.925,332.313 52.070,332.084 49.677 C 331.350 42.004,328.455 37.091,325.088 37.805 C 324.259 37.981,324.015 37.968,323.353 37.719 C 321.568 37.045,320.687 37.321,318.408 39.267 C 317.930 39.674,317.110 40.211,316.586 40.459 C 315.977 40.747,315.159 41.385,314.318 42.229 C 312.051 44.501,308.559 46.027,307.239 45.321 C 306.674 45.019,303.493 41.759,302.615 40.582 C 300.778 38.123,300.276 36.302,300.930 34.474 C 301.672 32.400,301.673 32.395,301.390 30.383 C 300.941 27.190,300.878 25.355,301.183 24.380 C 301.542 23.231,301.523 22.597,301.094 21.520 C 300.430 19.852,300.260 19.084,300.258 17.745 C 300.256 16.222,299.947 15.295,299.367 15.076 C 298.780 14.855,296.856 14.884,295.978 15.127 M293.019 22.420 C 293.933 22.738,294.605 24.233,295.036 26.903 C 295.093 27.256,295.453 28.137,295.837 28.861 C 298.253 33.422,297.096 36.906,293.922 34.626 C 292.911 33.899,292.399 33.889,291.704 34.584 C 290.930 35.358,290.665 35.037,290.612 33.259 C 290.575 32.011,290.498 31.750,289.597 29.844 C 287.570 25.552,289.568 21.217,293.019 22.420 M272.273 29.127 C 273.430 31.143,274.894 32.058,277.418 32.345 C 278.264 32.441,279.336 32.632,279.800 32.769 C 280.264 32.907,280.976 33.020,281.383 33.020 C 282.429 33.020,282.706 33.368,282.962 35.002 C 283.280 37.036,283.468 37.535,284.262 38.441 C 284.661 38.897,285.376 40.046,285.852 40.993 C 287.791 44.858,291.605 48.304,295.552 49.757 C 296.305 50.035,297.613 50.609,298.460 51.034 C 300.576 52.096,301.437 52.228,304.701 51.992 C 308.607 51.709,311.511 52.179,311.439 53.081 C 311.407 53.478,311.673 53.521,314.628 53.600 C 316.925 53.662,317.204 53.706,318.392 54.192 C 320.104 54.894,320.337 54.978,320.488 54.946 C 320.880 54.863,320.569 56.281,320.005 57.147 C 319.267 58.278,318.929 58.570,317.716 59.124 C 315.338 60.209,315.065 60.860,315.177 65.165 C 315.255 68.145,315.427 68.929,316.179 69.729 C 317.633 71.277,317.675 75.214,316.254 76.748 C 315.861 77.172,315.825 77.341,315.825 78.796 C 315.825 81.290,315.716 81.370,314.156 80.018 C 312.531 78.611,310.699 78.069,308.896 78.461 C 308.332 78.583,307.116 78.803,306.195 78.950 C 305.274 79.096,303.966 79.416,303.287 79.662 C 301.166 80.430,298.367 81.076,296.335 81.265 C 294.821 81.406,293.933 81.602,292.400 82.134 C 291.310 82.511,289.511 83.050,288.400 83.331 C 286.101 83.913,284.877 84.350,282.806 85.330 C 279.253 87.011,277.462 86.445,275.364 82.977 C 275.107 82.553,274.496 81.784,274.004 81.266 C 273.513 80.749,272.564 79.555,271.895 78.614 C 271.227 77.673,270.170 76.403,269.547 75.791 C 268.924 75.180,268.136 74.217,267.796 73.653 C 266.701 71.836,265.563 70.535,264.504 69.892 C 263.794 69.460,263.313 68.996,262.857 68.302 C 262.503 67.763,261.967 67.015,261.666 66.638 C 261.365 66.262,260.907 65.530,260.649 65.013 C 260.391 64.495,259.920 63.714,259.602 63.278 C 257.705 60.675,258.072 59.535,261.240 58.181 C 264.877 56.629,266.332 53.667,266.542 47.391 C 266.635 44.594,266.717 43.773,266.948 43.336 C 267.343 42.588,267.316 42.324,266.729 41.142 C 266.050 39.776,266.111 38.736,267.012 36.316 C 267.220 35.755,267.254 35.279,267.161 34.213 C 267.013 32.513,267.333 31.848,268.981 30.432 C 269.570 29.926,270.276 29.301,270.551 29.042 C 271.247 28.388,271.866 28.418,272.273 29.127 M323.011 40.205 C 323.540 40.414,324.283 40.547,324.911 40.547 C 327.989 40.547,329.814 43.930,330.100 50.167 C 330.189 52.112,330.256 52.312,331.311 53.783 C 333.885 57.371,328.818 59.377,323.958 56.694 C 322.957 56.141,321.911 55.564,321.635 55.412 C 320.748 54.923,320.663 54.775,320.538 53.512 C 320.294 51.034,319.401 50.316,314.417 48.592 C 310.925 47.385,310.545 46.771,312.614 45.678 C 313.204 45.367,314.495 44.598,315.483 43.970 C 316.471 43.341,317.680 42.612,318.169 42.350 C 318.657 42.087,319.486 41.490,320.010 41.023 C 320.817 40.304,321.442 39.948,322.021 39.878 C 322.088 39.870,322.534 40.017,323.011 40.205 M255.850 49.311 C 256.227 49.849,256.180 50.306,255.688 50.898 L 255.262 51.411 254.919 51.008 C 254.574 50.601,254.494 50.026,254.684 49.316 C 254.821 48.807,255.495 48.805,255.850 49.311 M322.391 70.397 C 325.568 71.988,325.586 73.612,322.428 73.637 C 320.419 73.653,319.437 72.043,319.835 69.386 L 319.954 68.594 320.538 69.178 C 320.859 69.498,321.693 70.047,322.391 70.397 M255.320 72.900 C 256.075 73.483,256.714 74.179,257.245 74.996 C 257.682 75.669,258.411 76.604,258.866 77.074 C 259.320 77.545,259.907 78.249,260.171 78.640 C 260.698 79.421,263.871 82.933,267.322 86.556 C 270.009 89.376,272.907 92.609,274.443 94.500 C 275.066 95.267,276.005 96.260,276.529 96.708 C 277.053 97.156,277.955 98.100,278.532 98.807 C 279.110 99.514,280.009 100.495,280.532 100.987 C 281.054 101.479,281.986 102.536,282.602 103.336 C 283.219 104.136,284.306 105.409,285.018 106.166 C 286.369 107.601,287.848 109.563,288.888 111.299 C 289.224 111.860,289.869 112.703,290.322 113.174 C 290.776 113.644,291.361 114.404,291.624 114.862 C 291.886 115.321,292.458 115.952,292.894 116.266 C 293.726 116.863,295.197 118.624,295.475 119.355 C 295.844 120.326,295.704 120.611,294.105 122.142 C 292.662 123.523,292.505 123.746,291.437 125.920 C 290.813 127.190,290.174 128.488,290.018 128.803 C 289.862 129.119,289.504 129.502,289.222 129.655 C 288.939 129.807,288.350 130.140,287.912 130.395 C 287.074 130.882,286.738 130.991,284.260 131.586 C 283.413 131.790,282.597 132.019,282.445 132.096 C 281.922 132.362,276.780 133.618,276.213 133.618 C 274.870 133.618,274.782 132.291,275.962 129.829 C 276.793 128.096,277.075 126.298,276.899 123.867 C 276.658 120.557,273.554 112.706,271.135 109.289 C 270.716 108.697,270.083 107.712,269.729 107.100 C 267.685 103.565,265.468 102.528,262.874 103.896 C 259.767 105.533,259.710 108.292,262.718 111.412 C 263.898 112.636,264.304 113.203,264.844 114.377 C 265.212 115.176,265.754 116.180,266.049 116.610 C 266.345 117.040,266.857 117.982,267.188 118.704 C 267.519 119.426,267.976 120.267,268.205 120.572 C 270.004 122.971,270.603 126.544,270.067 131.673 C 269.685 135.324,269.674 135.360,268.741 135.954 C 268.337 136.211,267.803 136.606,267.555 136.831 C 266.396 137.879,265.905 136.767,266.902 135.353 C 268.646 132.879,268.428 126.105,266.509 123.136 C 266.140 122.565,265.649 121.669,265.417 121.145 C 264.422 118.896,259.259 111.396,258.297 110.802 C 255.274 108.938,251.778 111.346,252.047 115.106 C 252.186 117.037,252.653 117.790,255.880 121.291 C 257.885 123.468,261.195 129.329,261.680 131.565 C 261.970 132.902,261.800 134.199,261.107 135.951 C 260.740 136.879,260.343 137.947,260.225 138.323 C 259.491 140.658,258.177 142.213,256.765 142.417 C 254.646 142.724,254.899 144.055,257.077 144.055 C 258.000 144.055,258.640 143.749,259.141 143.068 C 259.590 142.458,260.519 142.188,262.633 142.050 C 266.846 141.776,266.406 142.967,262.019 143.712 C 259.464 144.147,259.523 144.125,259.110 144.780 C 258.570 145.637,257.490 146.355,256.363 146.605 C 254.622 146.993,254.254 147.143,253.401 147.818 C 252.945 148.178,252.169 148.677,251.676 148.926 C 250.219 149.665,247.653 151.522,247.006 152.307 C 245.551 154.071,244.645 154.856,243.414 155.422 C 242.731 155.735,241.727 156.384,241.182 156.863 C 239.988 157.915,239.073 158.223,235.244 158.859 C 233.785 159.102,231.679 159.530,230.562 159.812 C 225.657 161.047,217.958 161.304,210.778 160.470 C 208.088 160.158,204.201 159.598,203.028 159.354 C 202.388 159.220,200.578 158.954,199.007 158.763 C 194.959 158.269,193.322 157.897,191.273 157.005 C 189.626 156.288,187.465 155.577,185.971 155.260 C 185.040 155.063,178.643 151.878,177.566 151.076 C 176.543 150.314,175.190 148.500,174.881 147.476 C 174.342 145.691,173.960 142.915,174.071 141.579 C 174.549 135.775,175.063 135.103,179.281 134.771 C 182.607 134.509,183.918 134.627,183.918 135.187 C 183.918 135.405,185.119 135.700,186.041 135.708 C 187.125 135.718,188.024 135.372,188.024 134.945 C 188.024 134.780,188.105 134.645,188.205 134.645 C 188.305 134.645,188.346 134.579,188.296 134.499 C 188.144 134.253,189.079 133.926,190.205 133.832 C 190.942 133.770,191.275 133.803,191.275 133.937 C 191.275 134.044,191.362 134.132,191.469 134.132 C 191.576 134.132,191.826 134.305,192.026 134.517 C 192.406 134.919,192.735 135.095,194.012 135.581 C 194.435 135.742,195.013 135.976,195.295 136.102 C 195.577 136.227,196.328 136.421,196.963 136.533 C 197.702 136.663,198.118 136.818,198.118 136.963 C 198.118 137.087,198.272 137.237,198.460 137.297 C 198.648 137.357,198.802 137.554,198.802 137.736 C 198.802 137.918,198.918 138.067,199.059 138.067 C 199.200 138.067,199.316 138.130,199.316 138.207 C 199.316 138.377,201.557 139.505,202.407 139.763 C 203.660 140.143,204.418 139.922,205.218 138.942 C 205.406 138.712,206.003 138.071,206.544 137.518 C 207.506 136.535,207.828 135.686,207.401 135.259 C 207.331 135.190,207.071 134.619,206.822 133.991 C 206.299 132.670,206.183 132.617,204.765 133.041 C 203.033 133.560,202.451 134.432,203.502 134.933 C 204.586 135.451,204.892 136.745,204.038 137.202 C 203.433 137.526,202.723 137.289,201.715 136.429 C 201.222 136.008,200.692 135.596,200.537 135.513 C 200.051 135.253,199.831 134.012,199.889 131.865 C 199.951 129.551,199.847 129.781,200.941 129.515 C 203.088 128.993,203.550 129.087,205.192 130.387 C 207.551 132.254,209.068 130.773,209.068 126.600 C 209.068 125.757,209.364 125.102,209.809 124.961 C 210.000 124.900,210.808 124.465,211.605 123.995 C 213.862 122.661,215.921 122.675,218.183 124.040 C 218.794 124.408,219.888 124.869,220.614 125.064 C 221.341 125.258,222.232 125.569,222.594 125.754 C 223.383 126.157,224.260 126.180,225.606 125.835 C 228.001 125.222,232.369 124.998,233.875 125.411 C 235.754 125.927,239.453 125.168,240.761 123.998 C 241.552 123.291,242.155 121.936,242.448 120.207 C 242.691 118.777,242.689 118.780,244.345 117.323 C 244.693 117.017,245.123 116.497,245.299 116.168 C 245.476 115.838,245.923 115.338,246.292 115.056 C 248.919 113.047,249.716 111.530,248.708 110.460 C 247.310 108.978,246.248 109.507,245.867 111.876 C 245.778 112.429,245.526 113.208,245.307 113.607 C 245.089 114.005,244.807 114.518,244.681 114.748 C 244.555 114.978,244.134 115.449,243.745 115.795 C 243.357 116.141,242.613 116.865,242.092 117.403 C 241.510 118.005,240.785 118.543,240.205 118.802 C 239.688 119.034,238.997 119.457,238.670 119.743 C 237.613 120.669,236.248 120.564,236.131 119.547 C 236.084 119.145,236.442 118.713,238.697 116.449 C 242.052 113.082,243.901 111.053,244.245 110.363 C 244.739 109.373,244.587 106.926,243.945 105.533 C 243.190 103.896,243.869 103.191,245.717 103.688 C 246.563 103.916,248.734 103.761,249.572 103.413 C 250.227 103.141,250.305 102.587,249.848 101.444 C 249.301 100.078,251.309 99.368,252.723 100.427 C 253.716 101.171,254.760 101.044,255.668 100.069 C 256.071 99.636,256.856 98.968,257.413 98.584 C 262.534 95.055,263.263 93.643,262.071 89.564 C 261.371 87.167,260.718 86.507,258.255 85.706 C 257.182 85.357,254.644 84.171,251.754 82.669 C 251.189 82.375,250.073 81.943,249.273 81.707 C 248.473 81.472,247.444 81.027,246.987 80.717 C 246.529 80.407,245.759 79.910,245.276 79.611 C 243.166 78.307,243.080 78.062,244.129 76.314 C 245.572 73.911,247.155 73.038,250.663 72.712 C 251.569 72.628,252.570 72.445,252.888 72.307 C 253.815 71.902,254.125 71.978,255.320 72.900 M313.618 73.878 C 313.251 74.564,313.965 76.133,314.644 76.133 C 315.135 76.133,315.198 75.819,314.879 74.965 C 314.400 73.682,313.937 73.282,313.618 73.878 M340.873 74.788 C 341.488 75.069,341.779 75.824,341.985 77.673 C 342.084 78.567,342.244 79.713,342.340 80.220 C 342.903 83.186,342.353 84.255,339.882 85.002 C 339.307 85.176,338.350 85.634,337.756 86.020 C 336.652 86.736,333.776 87.588,333.203 87.368 C 333.063 87.314,332.754 86.962,332.516 86.585 C 331.801 85.453,330.709 85.330,330.710 86.382 C 330.711 86.532,330.473 87.408,330.181 88.328 C 329.627 90.077,329.356 90.464,327.837 91.665 C 327.447 91.974,326.847 92.705,326.505 93.290 C 325.754 94.573,325.677 94.628,324.808 94.495 C 323.678 94.322,323.366 94.137,323.060 93.460 C 322.404 92.005,321.820 91.761,320.533 92.404 L 319.813 92.763 318.461 92.044 C 316.767 91.144,316.046 91.168,313.798 92.204 C 312.966 92.587,311.869 92.975,311.360 93.065 C 309.621 93.374,307.186 93.738,306.159 93.843 C 305.560 93.905,304.679 94.164,304.042 94.466 C 302.638 95.133,301.762 95.385,299.658 95.728 C 298.083 95.985,295.900 96.570,291.702 97.861 C 288.766 98.764,287.941 98.717,287.256 97.607 C 286.626 96.588,286.894 95.743,288.034 95.157 C 290.433 93.924,297.072 92.216,299.462 92.216 C 299.765 92.216,300.473 92.095,301.033 91.947 C 301.594 91.799,302.657 91.570,303.396 91.438 C 304.134 91.307,305.250 90.994,305.876 90.743 C 306.859 90.349,307.381 90.268,309.699 90.152 C 312.756 89.998,313.229 89.849,314.236 88.718 C 316.523 86.151,316.802 85.660,316.864 84.086 C 316.916 82.767,317.029 82.567,317.868 82.316 C 318.536 82.116,318.819 81.580,318.452 81.212 C 318.235 80.996,317.719 79.290,317.717 78.785 C 317.713 77.807,318.124 77.535,320.190 77.148 C 321.224 76.955,322.500 76.687,323.025 76.553 C 323.551 76.419,324.975 76.160,326.190 75.977 C 327.406 75.794,329.175 75.509,330.121 75.343 C 331.657 75.073,332.098 75.064,334.227 75.254 C 336.553 75.461,336.653 75.456,338.238 75.049 C 340.172 74.551,340.320 74.537,340.873 74.788 M233.372 91.616 C 233.978 91.771,235.167 92.268,236.014 92.721 C 236.861 93.174,238.434 93.838,239.511 94.198 C 243.073 95.387,243.873 96.294,243.762 99.014 C 243.680 101.000,243.451 101.355,241.823 102.015 C 240.224 102.663,237.713 102.719,235.672 102.152 C 232.578 101.293,230.626 100.985,228.827 101.071 C 224.402 101.284,223.367 100.223,224.898 97.041 C 225.698 95.378,225.840 94.779,225.629 93.948 C 225.438 93.195,225.750 92.364,226.342 92.047 C 227.872 91.229,231.088 91.031,233.372 91.616 M333.618 92.820 C 334.677 93.114,335.013 93.923,334.709 95.444 C 334.611 95.934,334.019 96.283,333.093 96.395 C 333.039 96.402,332.861 96.542,332.696 96.707 C 332.531 96.871,332.320 97.006,332.227 97.006 C 332.135 97.006,332.103 97.078,332.157 97.165 C 332.211 97.253,332.190 97.365,332.110 97.414 C 332.030 97.464,331.954 97.411,331.942 97.298 C 331.929 97.184,331.870 96.514,331.811 95.808 C 331.735 94.894,331.610 94.424,331.378 94.172 C 330.958 93.717,330.968 93.551,331.437 93.116 C 331.990 92.603,332.559 92.526,333.618 92.820 M326.664 96.637 C 327.563 97.576,327.408 98.723,326.346 98.989 C 325.256 99.263,324.539 97.360,325.406 96.493 C 325.866 96.033,326.112 96.061,326.664 96.637 M323.096 98.802 C 323.639 100.889,325.532 103.378,327.191 104.186 C 327.809 104.487,328.315 104.802,328.315 104.886 C 328.315 106.476,336.408 106.789,338.825 105.293 C 339.272 105.016,339.906 104.627,340.235 104.428 C 340.916 104.015,345.210 103.110,346.536 103.100 C 349.926 103.075,351.976 106.093,351.230 110.009 C 350.868 111.909,350.918 112.202,351.719 112.900 C 352.761 113.808,353.959 116.433,354.137 118.201 C 354.273 119.551,354.591 120.248,356.918 124.294 C 358.432 126.927,359.513 130.215,359.900 133.362 C 360.275 136.407,360.611 137.409,361.337 137.640 C 363.391 138.292,365.388 144.077,365.234 148.928 L 365.158 151.326 364.096 154.405 C 363.021 157.523,361.414 160.624,360.094 162.128 C 357.088 165.551,343.801 164.359,336.698 160.028 C 336.086 159.655,334.778 158.953,333.790 158.468 C 332.802 157.983,331.146 157.019,330.111 156.327 C 325.792 153.435,323.549 151.836,322.535 150.924 C 321.944 150.392,320.932 149.572,320.288 149.102 C 319.643 148.631,318.818 147.892,318.454 147.459 C 318.090 147.025,316.985 145.981,315.997 145.137 C 313.831 143.289,311.022 140.144,309.376 137.725 C 309.087 137.301,308.333 136.377,307.699 135.672 C 305.599 133.334,304.042 130.512,304.620 130.090 C 304.788 129.966,304.973 129.892,305.029 129.925 C 307.101 131.126,308.309 130.705,310.337 128.076 C 311.498 126.571,311.017 124.996,309.104 124.040 C 307.782 123.380,307.656 123.265,307.530 122.614 C 307.313 121.498,306.909 120.829,306.269 120.527 C 305.926 120.364,305.434 120.129,305.175 120.004 C 304.917 119.879,304.705 119.843,304.705 119.924 C 304.705 120.004,304.551 120.030,304.363 119.981 C 304.171 119.931,304.021 119.976,304.021 120.083 C 304.021 120.188,303.909 120.274,303.772 120.274 C 303.617 120.274,303.482 120.518,303.414 120.915 C 303.194 122.218,302.878 122.670,302.261 122.559 C 301.025 122.337,300.876 121.474,301.906 120.499 C 302.222 120.200,302.481 119.795,302.481 119.601 C 302.481 119.406,302.575 119.247,302.690 119.247 C 302.805 119.247,302.725 119.074,302.512 118.862 C 302.154 118.505,301.970 118.476,299.951 118.466 C 298.755 118.459,297.644 118.440,297.482 118.423 C 297.116 118.384,296.879 117.948,296.563 116.736 C 296.412 116.157,296.085 115.518,295.722 115.093 C 294.637 113.826,293.950 111.020,294.437 109.843 C 294.937 108.636,297.019 107.677,300.409 107.092 C 301.481 106.907,303.059 106.565,303.916 106.333 C 304.773 106.101,306.322 105.750,307.357 105.553 C 308.392 105.355,309.893 105.013,310.693 104.793 C 311.493 104.572,312.917 104.226,313.858 104.025 C 320.152 102.681,321.728 101.694,322.009 98.916 C 322.270 96.347,322.452 96.328,323.096 98.802 M258.811 102.494 C 258.395 102.737,258.423 103.456,258.854 103.593 C 259.620 103.836,260.216 103.279,259.874 102.639 C 259.680 102.278,259.276 102.223,258.811 102.494 M251.009 104.347 C 250.767 104.497,250.583 106.104,250.732 106.778 C 250.987 107.942,252.695 106.987,252.695 105.681 C 252.695 104.881,251.577 103.996,251.009 104.347 M266.389 105.821 C 267.151 106.215,269.423 109.662,271.573 113.687 C 273.858 117.963,273.900 118.059,274.088 119.504 C 274.186 120.257,274.386 121.631,274.532 122.557 C 274.814 124.351,274.768 124.929,274.226 126.376 C 273.851 127.379,273.641 127.505,273.400 126.871 C 273.313 126.641,273.007 125.952,272.720 125.338 C 272.433 124.725,272.198 124.176,272.198 124.119 C 272.198 124.062,271.814 123.364,271.343 122.567 C 270.873 121.770,270.488 121.062,270.488 120.993 C 270.488 120.924,270.172 120.329,269.785 119.672 C 269.399 119.015,268.810 117.938,268.476 117.280 C 268.142 116.621,267.466 115.505,266.975 114.799 C 266.484 114.093,265.838 113.030,265.540 112.437 C 265.242 111.844,264.583 110.907,264.076 110.355 C 262.257 108.377,262.395 106.574,264.422 105.832 C 265.310 105.507,265.777 105.504,266.389 105.821 M334.175 109.399 C 333.320 109.785,333.420 110.140,334.628 111.008 C 335.553 111.672,336.216 111.704,336.808 111.112 C 338.004 109.915,335.966 108.589,334.175 109.399 M258.147 113.216 C 258.685 113.757,259.474 114.778,259.901 115.483 C 261.107 117.477,262.415 119.545,263.422 121.052 C 266.211 125.222,266.931 129.995,265.218 132.942 C 264.234 134.635,264.136 134.564,263.406 131.616 C 263.061 130.224,262.554 128.623,262.280 128.058 C 261.544 126.544,259.765 123.567,259.120 122.767 C 258.810 122.384,258.345 121.724,258.087 121.300 C 257.829 120.877,257.215 120.107,256.723 119.589 C 253.287 115.977,252.911 114.344,255.142 112.728 C 256.276 111.906,256.956 112.017,258.147 113.216 M303.208 113.407 C 302.367 114.165,302.272 114.799,302.752 116.450 C 302.901 116.963,302.986 117.483,302.939 117.604 C 302.821 117.911,302.987 118.121,303.678 118.541 C 304.390 118.972,304.534 118.990,304.534 118.648 C 304.534 118.505,304.686 118.392,304.877 118.392 C 306.282 118.392,307.763 114.812,306.790 113.767 C 305.621 112.512,304.342 112.384,303.208 113.407 M217.330 116.071 C 219.745 117.239,217.928 119.085,214.864 118.577 C 212.109 118.119,210.805 116.997,211.833 115.968 C 212.314 115.487,216.277 115.561,217.330 116.071 M226.224 119.141 C 228.748 120.220,228.358 122.840,225.674 122.840 C 224.031 122.840,221.545 120.743,222.055 119.788 C 222.446 119.057,225.075 118.649,226.224 119.141 M199.279 122.642 C 199.613 122.855,199.357 123.349,198.463 124.221 C 196.506 126.129,192.340 125.896,194.118 123.978 C 195.076 122.945,198.400 122.085,199.279 122.642 M327.482 129.231 C 327.274 129.324,327.139 129.492,327.182 129.605 C 327.458 130.325,327.464 131.439,327.198 132.501 C 326.842 133.918,326.936 134.771,327.604 136.223 C 328.405 137.960,328.898 138.306,334.822 141.287 C 337.783 142.776,340.860 144.347,341.660 144.778 C 345.090 146.626,350.689 147.130,351.255 145.642 C 351.486 145.034,351.460 144.958,350.905 144.630 C 350.596 144.448,350.354 144.131,350.286 143.822 C 350.225 143.543,349.997 142.980,349.779 142.571 C 349.283 141.638,349.047 140.928,348.912 139.959 C 348.694 138.398,347.242 137.177,345.208 136.844 C 343.342 136.538,342.690 136.321,341.952 135.759 C 340.832 134.907,338.869 133.899,336.483 132.952 C 333.998 131.965,333.703 131.799,332.463 130.686 C 331.118 129.478,328.586 128.738,327.482 129.231 M289.038 132.176 C 289.559 132.697,289.124 133.506,288.181 133.772 C 286.936 134.123,286.560 132.582,287.772 132.098 C 288.389 131.852,288.735 131.873,289.038 132.176 " stroke="none" fill="#b38560" fill-rule="evenodd"></path></g></svg>