<svg id="svg" xmlns="http://www.w3.org/2000/svg" xmlns:xlink="http://www.w3.org/1999/xlink" width="400" height="179.88165680473372" viewBox="0, 0, 400,179.88165680473372"><g id="svgg"><path id="path0" d="M311.587 27.998 C 310.967 28.418,310.211 30.128,310.211 31.108 C 310.211 32.278,309.063 32.495,307.280 31.660 C 304.384 30.305,303.967 30.778,304.338 34.998 C 304.442 36.181,304.403 37.174,304.191 38.686 C 304.032 39.825,303.822 42.132,303.725 43.815 C 303.558 46.689,303.453 47.364,302.783 49.843 C 300.506 58.265,297.387 61.046,295.618 56.230 C 294.711 53.761,293.292 50.611,292.956 50.320 C 291.956 49.453,290.260 50.199,289.949 51.642 C 289.596 53.283,288.988 53.999,287.195 54.884 C 284.202 56.362,282.685 55.405,282.126 51.687 C 281.652 48.529,280.666 48.275,277.373 50.463 C 276.581 50.988,275.326 51.672,274.584 51.982 C 272.762 52.743,269.623 55.280,266.670 58.377 C 264.547 60.603,259.245 65.794,257.940 66.923 C 257.346 67.437,256.728 68.157,256.567 68.522 C 256.190 69.377,255.708 69.799,254.161 70.629 C 252.496 71.522,251.797 72.041,250.881 73.063 C 250.330 73.679,249.936 73.947,249.448 74.039 C 249.078 74.108,248.557 74.320,248.290 74.510 C 248.023 74.700,247.124 75.169,246.291 75.552 C 245.458 75.935,244.266 76.624,243.643 77.083 C 243.019 77.542,242.318 77.965,242.084 78.024 C 241.766 78.104,241.698 78.200,241.814 78.407 C 242.446 79.538,240.930 80.664,237.982 81.253 C 236.212 81.607,235.017 82.317,234.491 83.327 C 233.649 84.947,232.609 85.616,229.587 86.483 C 227.664 87.034,224.859 87.026,223.232 86.463 L 222.352 86.159 220.962 86.708 C 220.197 87.010,219.234 87.312,218.820 87.378 L 218.068 87.498 218.571 87.804 C 220.206 88.801,219.697 89.263,215.697 90.410 C 213.255 91.110,211.527 91.388,209.447 91.414 C 208.704 91.423,207.287 91.576,206.298 91.752 C 205.082 91.969,204.354 92.020,204.052 91.909 C 203.766 91.804,203.585 91.810,203.546 91.927 C 203.505 92.048,203.345 92.046,203.067 91.919 C 202.769 91.783,202.552 91.785,202.314 91.926 C 202.010 92.105,202.018 92.119,202.408 92.080 C 203.073 92.014,203.030 92.591,202.318 93.283 C 201.523 94.055,199.515 94.715,196.491 95.197 C 195.254 95.395,193.392 95.721,192.353 95.923 C 187.993 96.769,184.708 96.697,182.818 95.713 L 181.716 95.140 179.702 95.877 C 178.594 96.282,177.460 96.667,177.182 96.732 L 176.677 96.850 177.047 97.245 C 177.892 98.143,177.228 99.197,175.670 99.430 C 175.218 99.498,174.359 99.702,173.762 99.882 C 172.969 100.123,172.277 100.192,171.187 100.141 C 169.759 100.075,169.666 100.095,168.936 100.623 C 168.517 100.927,167.744 101.372,167.218 101.613 C 166.692 101.854,166.262 102.113,166.262 102.190 C 166.262 102.570,164.925 103.641,164.114 103.910 C 162.664 104.391,162.587 104.966,163.612 107.654 C 164.753 110.647,164.892 110.811,167.285 111.993 C 168.400 112.543,169.536 113.035,169.811 113.086 C 172.831 113.648,173.729 114.530,172.937 116.159 C 172.599 116.855,172.599 116.869,172.956 117.370 C 173.314 117.873,177.050 119.868,177.482 119.787 C 177.872 119.713,177.575 121.111,176.685 123.527 C 175.718 126.154,176.893 129.702,179.268 131.323 C 180.400 132.096,184.142 133.167,184.646 132.863 C 184.935 132.688,188.118 132.775,188.179 132.958 C 188.215 133.066,188.359 133.153,188.499 133.153 C 188.727 133.153,188.786 133.270,188.739 133.628 C 188.730 133.691,188.791 133.792,188.874 133.853 C 189.977 134.661,189.682 136.093,188.203 137.102 C 186.866 138.014,187.232 138.525,189.999 139.603 C 196.362 142.084,198.637 142.076,203.599 139.553 C 204.481 139.105,205.101 138.911,205.668 138.909 C 207.238 138.902,209.337 138.205,210.901 137.171 C 211.642 136.681,212.149 136.518,214.405 136.042 C 215.301 135.854,216.515 135.483,217.104 135.219 C 220.943 133.497,224.831 132.434,227.286 132.434 C 228.336 132.434,227.890 133.150,226.333 133.963 C 225.576 134.359,224.478 135.140,223.893 135.698 C 223.309 136.256,222.338 136.961,221.736 137.265 C 221.134 137.569,220.248 138.159,219.767 138.576 C 219.287 138.993,218.332 139.697,217.647 140.142 C 216.961 140.586,216.111 141.206,215.757 141.519 C 215.404 141.833,214.750 142.339,214.305 142.645 C 213.860 142.950,212.888 143.820,212.146 144.578 C 211.404 145.335,210.181 146.391,209.429 146.925 C 208.141 147.838,207.067 148.940,206.596 149.831 C 205.532 151.841,208.834 156.009,210.590 154.873 C 212.209 153.825,212.966 154.930,212.538 157.715 C 211.987 161.301,215.506 163.322,223.752 164.154 C 229.817 164.767,238.261 163.919,244.804 162.039 C 251.357 160.157,255.133 158.697,257.301 157.208 C 258.363 156.479,260.193 155.448,262.636 154.203 C 265.122 152.936,265.203 152.878,266.328 151.580 C 266.835 150.996,267.624 150.086,268.082 149.559 C 268.922 148.594,270.291 147.575,271.617 146.928 C 272.012 146.736,272.537 146.405,272.785 146.194 C 273.032 145.982,273.599 145.706,274.044 145.579 C 274.489 145.453,275.372 145.075,276.006 144.740 C 276.639 144.404,277.291 144.130,277.455 144.130 C 277.844 144.130,279.117 143.311,280.285 142.309 C 280.919 141.766,281.615 141.381,282.454 141.111 C 283.296 140.840,283.993 140.454,284.642 139.900 C 285.166 139.453,286.133 138.762,286.792 138.365 C 287.450 137.968,288.795 137.086,289.781 136.405 C 290.766 135.723,291.889 135.061,292.276 134.934 C 292.759 134.774,293.128 134.476,293.453 133.985 C 293.813 133.441,294.239 133.124,295.221 132.671 C 295.932 132.342,296.742 131.824,297.020 131.520 C 298.084 130.356,298.323 130.175,299.203 129.867 C 299.893 129.625,300.204 129.389,300.509 128.877 C 300.729 128.508,301.322 127.800,301.827 127.304 C 303.663 125.502,306.743 122.241,307.606 121.188 C 308.092 120.594,308.898 119.663,309.397 119.118 C 309.896 118.574,310.502 117.833,310.744 117.471 C 311.531 116.296,312.910 115.794,312.910 116.682 C 312.910 117.413,312.202 119.079,311.546 119.889 C 311.209 120.306,310.639 121.093,310.282 121.637 C 309.924 122.182,309.296 122.958,308.887 123.362 C 308.477 123.767,307.535 124.810,306.793 125.681 C 305.266 127.471,305.156 127.584,303.357 129.195 C 302.639 129.838,301.508 130.891,300.844 131.534 C 298.621 133.687,297.536 134.540,296.086 135.272 C 295.295 135.672,294.121 136.458,293.477 137.020 C 292.834 137.581,291.700 138.445,290.958 138.939 C 290.216 139.434,289.204 140.272,288.709 140.803 C 288.003 141.559,287.614 141.819,286.910 142.004 C 286.295 142.166,285.832 142.439,285.443 142.870 C 285.130 143.216,284.111 144.314,283.179 145.310 C 281.373 147.238,280.370 148.524,279.540 149.978 C 279.258 150.472,278.796 151.172,278.515 151.533 C 277.592 152.715,277.944 153.500,280.725 156.455 C 281.190 156.950,282.104 158.036,282.756 158.869 L 283.941 160.383 283.941 162.038 C 283.941 164.213,284.077 164.382,286.923 165.735 C 292.241 168.264,298.106 167.904,304.094 164.682 C 306.156 163.572,307.317 162.984,308.061 162.674 C 308.780 162.374,312.466 160.074,312.862 159.679 C 313.009 159.532,313.586 159.100,314.144 158.720 C 314.703 158.340,315.427 157.695,315.753 157.287 C 316.079 156.879,316.456 156.545,316.589 156.545 C 316.952 156.545,319.568 154.038,319.568 153.691 C 319.568 152.951,320.461 151.766,321.749 150.796 C 322.762 150.034,323.207 149.552,323.624 148.766 C 324.319 147.460,324.993 146.757,326.065 146.223 C 327.275 145.620,327.714 145.229,328.215 144.310 C 328.457 143.866,328.776 143.366,328.925 143.200 C 329.073 143.034,329.438 142.431,329.735 141.860 C 330.031 141.289,330.688 140.411,331.193 139.908 C 332.304 138.803,332.673 138.127,332.898 136.784 C 332.992 136.222,333.115 135.488,333.172 135.152 C 333.410 133.725,335.449 129.915,335.973 129.915 C 336.310 129.915,336.545 129.017,336.507 127.873 C 336.462 126.492,336.826 125.002,337.454 124.000 C 337.679 123.641,338.249 122.598,338.720 121.684 C 339.540 120.090,340.365 119.118,340.898 119.118 C 341.281 119.118,341.685 117.476,341.896 115.071 C 341.999 113.883,342.202 112.222,342.346 111.381 C 342.490 110.540,342.691 108.394,342.793 106.613 C 342.895 104.831,343.096 101.471,343.240 99.145 C 343.600 93.334,343.422 87.014,342.854 85.470 C 342.800 85.322,342.681 83.014,342.591 80.342 C 342.430 75.545,342.172 73.248,341.574 71.255 C 341.410 70.711,341.270 70.225,341.261 70.175 C 341.161 69.575,340.635 68.883,339.950 68.451 C 337.836 67.117,336.122 64.110,336.122 61.734 C 336.122 60.083,336.110 60.067,334.443 59.623 C 329.795 58.386,326.362 54.848,326.339 51.271 C 326.334 50.464,326.249 49.821,326.143 49.780 C 325.021 49.346,322.489 46.850,322.036 45.730 C 321.859 45.293,321.517 44.780,321.275 44.590 C 321.016 44.386,320.689 43.789,320.476 43.130 C 319.477 40.043,318.875 38.616,318.227 37.798 C 317.846 37.317,317.281 36.284,316.970 35.501 C 316.659 34.719,316.186 33.706,315.919 33.250 C 315.652 32.795,315.181 31.665,314.872 30.741 C 313.836 27.643,313.061 26.996,311.587 27.998 M312.209 35.938 C 312.501 36.589,313.030 37.516,313.384 37.999 C 313.738 38.482,314.187 39.421,314.380 40.086 C 314.574 40.751,314.921 41.903,315.153 42.645 C 315.384 43.387,315.709 44.583,315.874 45.302 C 316.039 46.021,316.403 47.114,316.682 47.731 C 317.474 49.483,318.019 54.954,317.502 55.955 C 316.711 57.483,315.238 56.526,314.654 54.105 C 314.492 53.431,314.205 52.662,314.018 52.396 C 313.266 51.328,312.862 50.236,312.286 47.715 C 311.954 46.262,311.516 44.629,311.313 44.085 C 310.480 41.860,310.132 39.176,310.385 36.938 C 310.717 34.016,311.222 33.739,312.209 35.938 " stroke="none" fill="#e4c730" fill-rule="evenodd"></path><path id="path1" d="M65.677 21.050 C 61.750 21.215,61.030 21.647,60.370 24.228 C 60.028 25.569,60.019 26.132,60.059 44.023 C 60.093 59.499,60.113 59.216,58.930 60.254 C 57.844 61.208,55.342 61.527,51.493 61.203 C 46.933 60.819,47.176 61.866,47.129 42.375 C 47.083 22.971,47.063 22.763,45.147 21.812 C 43.718 21.102,32.803 20.932,30.693 21.587 C 28.252 22.345,28.300 21.746,28.327 51.282 C 28.350 77.259,28.236 75.211,29.721 76.305 C 31.668 77.739,30.586 77.643,44.714 77.643 L 57.310 77.643 58.200 78.093 C 60.122 79.063,60.115 79.006,60.156 93.747 L 60.189 105.533 60.695 106.563 C 61.678 108.565,62.398 108.732,69.671 108.648 C 75.296 108.584,75.501 108.547,76.639 107.409 C 77.841 106.207,77.786 106.817,77.950 92.848 C 78.136 76.872,77.940 77.734,81.390 77.731 C 87.594 77.727,88.040 77.143,88.054 69.004 C 88.067 61.490,88.026 61.428,82.786 61.185 C 77.519 60.940,77.897 62.489,77.917 41.238 C 77.932 25.004,77.866 23.206,77.224 22.312 C 76.248 20.956,73.924 20.702,65.677 21.050 M320.288 42.393 C 320.288 42.855,320.882 44.258,321.199 44.545 C 321.744 45.038,321.761 44.776,321.248 43.804 C 320.663 42.699,320.288 42.147,320.288 42.393 M326.366 50.162 C 325.461 53.701,329.362 58.271,334.443 59.623 C 336.110 60.067,336.122 60.083,336.122 61.734 C 336.122 64.110,337.836 67.117,339.950 68.451 C 340.635 68.883,341.161 69.575,341.261 70.175 C 341.270 70.225,341.410 70.711,341.574 71.255 C 342.172 73.248,342.430 75.545,342.591 80.342 C 342.681 83.014,342.800 85.322,342.854 85.470 C 343.422 87.014,343.600 93.334,343.240 99.145 C 343.096 101.471,342.895 104.831,342.793 106.613 C 342.691 108.394,342.490 110.540,342.346 111.381 C 342.202 112.222,341.999 113.883,341.896 115.071 C 341.685 117.476,341.281 119.118,340.898 119.118 C 340.365 119.118,339.540 120.090,338.720 121.684 C 338.249 122.598,337.679 123.641,337.454 124.000 C 336.826 125.002,336.462 126.492,336.507 127.873 C 336.545 129.017,336.310 129.915,335.973 129.915 C 335.429 129.915,333.408 133.737,333.157 135.242 C 332.638 138.339,332.628 138.303,333.545 136.561 C 333.924 135.842,334.745 134.484,335.372 133.542 C 336.761 131.453,337.703 129.606,338.429 127.549 C 338.731 126.693,339.273 125.407,339.634 124.691 C 339.994 123.975,340.599 122.611,340.978 121.659 C 341.357 120.707,341.953 119.240,342.302 118.399 C 342.792 117.218,343.066 116.089,343.500 113.450 C 343.809 111.570,344.335 108.938,344.668 107.602 C 346.797 99.062,346.588 83.986,344.220 75.304 C 343.843 73.918,343.359 72.032,343.146 71.113 C 342.925 70.158,342.370 68.617,341.851 67.515 C 337.241 57.730,337.195 57.662,332.828 54.179 C 329.356 51.410,326.501 49.635,326.366 50.162 M255.414 69.115 C 253.203 71.054,253.084 71.210,254.341 70.533 C 255.651 69.827,256.334 69.215,256.572 68.531 C 256.802 67.871,256.871 67.837,255.414 69.115 M249.960 73.339 C 249.434 73.694,249.030 74.011,249.063 74.043 C 249.264 74.241,250.164 73.828,250.669 73.307 C 251.436 72.516,251.164 72.528,249.960 73.339 M239.033 79.495 C 236.066 81.018,232.861 82.493,231.578 82.926 C 231.033 83.110,230.070 83.522,229.438 83.841 C 228.806 84.160,227.211 84.700,225.894 85.041 C 224.577 85.381,223.246 85.767,222.936 85.897 L 222.372 86.134 222.882 86.341 C 225.352 87.346,229.278 86.983,232.334 85.467 C 233.506 84.885,233.867 84.528,234.491 83.327 C 235.017 82.317,236.212 81.607,237.982 81.253 C 240.936 80.663,241.987 79.916,241.856 78.498 C 241.821 78.119,241.473 78.242,239.033 79.495 M216.464 87.798 C 215.821 87.979,214.728 88.328,214.035 88.574 C 212.713 89.044,210.432 89.516,206.411 90.154 C 205.087 90.364,203.225 90.781,202.272 91.080 C 199.948 91.811,199.750 91.856,196.179 92.486 C 194.473 92.786,192.008 93.279,190.701 93.581 C 189.394 93.883,186.863 94.334,185.077 94.582 C 183.290 94.831,181.804 95.059,181.775 95.088 C 181.745 95.118,182.216 95.400,182.820 95.714 C 184.707 96.696,187.995 96.768,192.353 95.923 C 193.392 95.721,195.254 95.395,196.491 95.197 C 199.515 94.715,201.523 94.055,202.318 93.283 C 203.030 92.591,203.073 92.014,202.408 92.080 C 202.018 92.119,202.010 92.105,202.314 91.926 C 202.552 91.785,202.769 91.783,203.067 91.919 C 203.345 92.046,203.505 92.048,203.546 91.927 C 203.585 91.810,203.766 91.804,204.052 91.909 C 204.354 92.020,205.082 91.969,206.298 91.752 C 207.287 91.576,208.704 91.423,209.447 91.414 C 211.527 91.388,213.255 91.110,215.697 90.410 C 219.745 89.249,220.310 88.684,218.408 87.701 C 217.821 87.397,217.908 87.393,216.464 87.798 M174.166 98.019 C 172.837 98.688,171.348 99.392,170.857 99.584 L 169.963 99.933 170.497 100.083 C 171.267 100.299,172.676 100.204,173.838 99.856 C 174.393 99.690,175.218 99.498,175.670 99.430 C 177.261 99.192,177.929 98.069,177.000 97.196 L 176.582 96.804 174.166 98.019 M165.341 102.430 C 164.600 102.890,163.700 103.636,163.505 103.952 C 163.214 104.422,165.052 103.575,165.644 102.965 C 166.598 101.983,166.459 101.736,165.341 102.430 M27.817 113.288 C 23.890 114.157,21.233 118.332,21.233 123.631 C 21.233 125.999,20.624 127.051,18.713 127.990 C 15.811 129.417,15.894 133.409,18.858 134.904 C 21.165 136.068,21.043 135.434,21.330 147.728 C 21.466 153.530,21.890 154.262,25.261 154.513 C 29.562 154.832,30.027 153.694,30.044 142.780 C 30.048 139.830,30.129 137.642,30.249 137.210 C 30.762 135.363,33.503 134.252,34.670 135.419 L 35.136 135.885 35.013 139.062 C 34.724 146.515,35.772 149.088,40.559 152.677 C 44.645 155.740,50.494 156.304,54.971 154.066 C 56.320 153.392,58.897 151.404,59.282 150.741 C 59.468 150.420,59.991 149.682,60.444 149.100 C 60.897 148.518,61.635 147.344,62.084 146.491 C 63.392 144.004,63.857 144.299,65.312 148.535 C 67.337 154.433,71.934 156.682,77.501 154.497 C 79.430 153.740,80.258 153.689,82.231 154.206 C 88.063 155.735,89.810 153.593,89.130 145.749 C 88.903 143.127,88.892 141.968,89.062 138.821 C 89.518 130.409,88.613 127.934,85.083 127.936 C 80.980 127.939,80.610 128.689,80.541 137.153 C 80.487 143.827,80.350 144.713,79.187 145.935 C 77.605 147.596,75.046 147.207,74.063 145.155 C 73.463 143.902,73.404 143.235,73.265 136.122 C 73.111 128.317,73.028 128.130,69.647 127.970 C 66.028 127.797,64.802 129.019,64.421 133.173 C 63.952 138.288,63.325 138.971,61.877 135.944 C 59.870 131.749,56.186 128.638,52.294 127.850 C 46.534 126.683,42.076 127.833,38.327 131.452 C 36.646 133.073,36.008 132.858,35.449 130.480 C 35.121 129.085,34.433 128.384,32.957 127.941 C 30.613 127.236,29.906 126.395,30.121 124.568 C 30.387 122.304,31.308 120.927,32.802 120.562 C 35.009 120.023,35.712 119.036,35.716 116.478 C 35.718 114.574,35.472 114.062,34.266 113.452 C 33.321 112.974,29.658 112.880,27.817 113.288 M104.933 127.777 C 104.405 127.865,103.352 128.145,102.594 128.400 C 101.065 128.914,100.518 128.901,98.965 128.318 C 97.076 127.609,93.976 127.859,92.978 128.799 C 91.921 129.797,91.877 130.213,91.810 139.951 C 91.711 154.313,91.729 154.373,96.086 154.382 C 99.963 154.389,100.159 154.019,100.383 146.289 C 100.546 140.688,100.609 140.328,101.889 137.742 C 102.860 135.779,103.388 135.423,105.881 135.049 C 108.814 134.609,109.408 133.952,109.533 131.008 C 109.662 127.951,108.557 127.174,104.933 127.777 M50.454 135.681 C 54.941 137.360,55.660 144.833,51.505 146.611 C 49.217 147.591,46.215 147.101,44.888 145.532 C 40.934 140.856,45.009 133.644,50.454 135.681 M330.865 140.225 C 330.540 140.552,330.031 141.287,329.735 141.858 C 329.438 142.430,329.073 143.034,328.925 143.200 C 328.538 143.632,327.754 145.107,327.987 144.963 C 328.095 144.896,328.561 144.219,329.023 143.458 C 329.485 142.696,330.127 141.746,330.449 141.347 C 331.712 139.779,331.952 139.132,330.865 140.225 M327.320 145.462 C 327.205 145.601,326.686 145.922,326.168 146.175 C 325.008 146.743,324.336 147.427,323.624 148.766 C 323.206 149.553,322.762 150.034,321.744 150.800 C 320.472 151.758,319.427 153.151,319.597 153.663 C 319.631 153.765,320.456 153.106,321.429 152.198 C 322.948 150.782,323.925 149.700,327.188 145.819 C 327.470 145.483,327.662 145.209,327.615 145.209 C 327.568 145.209,327.435 145.323,327.320 145.462 " stroke="none" fill="#fad5f7" fill-rule="evenodd"></path><path id="path2" d="M0.000 89.969 L 0.000 179.937 200.000 179.937 L 400.000 179.937 400.000 89.969 L 400.000 0.000 200.000 0.000 L 0.000 0.000 0.000 89.969 M298.066 8.728 C 298.956 8.876,300.555 9.115,301.618 9.258 C 304.043 9.585,304.702 9.879,306.649 11.502 C 308.788 13.285,309.207 13.994,310.833 18.579 C 311.105 19.347,311.632 20.445,312.004 21.020 C 312.851 22.331,313.350 23.656,313.829 25.866 C 314.783 30.267,315.669 32.547,317.136 34.368 C 318.620 36.212,319.049 37.201,320.022 41.022 C 320.186 41.663,320.596 42.660,320.933 43.236 C 321.271 43.812,321.547 44.353,321.547 44.437 C 321.547 44.522,321.948 44.878,322.437 45.230 C 322.927 45.582,323.595 46.265,323.922 46.748 C 325.110 48.503,326.617 49.936,328.390 50.996 C 329.901 51.899,334.403 55.321,335.827 56.650 C 336.748 57.509,338.082 59.677,339.527 62.661 C 342.355 68.506,342.762 69.454,343.146 71.113 C 343.359 72.032,343.843 73.918,344.220 75.304 C 346.588 83.986,346.797 99.062,344.668 107.602 C 344.335 108.938,343.809 111.570,343.500 113.450 C 343.066 116.089,342.792 117.218,342.302 118.399 C 341.953 119.240,341.357 120.707,340.978 121.659 C 340.599 122.611,339.994 123.975,339.634 124.691 C 339.273 125.407,338.731 126.693,338.429 127.549 C 337.727 129.540,336.650 131.681,335.638 133.102 C 335.199 133.717,334.432 134.972,333.933 135.891 C 332.916 137.765,331.326 140.255,330.453 141.341 C 330.135 141.736,329.530 142.627,329.107 143.320 C 328.685 144.013,327.758 145.227,327.047 146.019 C 326.336 146.811,325.327 147.985,324.804 148.628 C 323.500 150.232,318.280 155.355,316.830 156.454 C 316.179 156.949,315.303 157.821,314.885 158.392 C 313.826 159.838,313.392 160.157,311.266 161.054 C 309.617 161.750,309.236 162.002,307.958 163.238 C 305.763 165.362,305.238 165.642,299.298 167.854 C 294.657 169.582,293.604 169.642,290.977 168.332 C 289.420 167.556,288.511 167.262,286.550 166.899 C 277.369 165.202,273.815 162.332,274.313 157.015 C 274.388 156.212,274.446 155.234,274.442 154.841 C 274.424 153.003,272.470 153.122,268.567 155.199 C 267.769 155.624,266.023 156.310,264.687 156.724 C 263.054 157.230,261.669 157.806,260.459 158.481 C 256.903 160.466,254.277 161.439,248.673 162.843 C 247.832 163.054,246.131 163.660,244.894 164.189 C 240.027 166.271,234.025 166.903,224.291 166.358 C 215.153 165.845,213.170 165.443,210.659 163.592 C 209.943 163.064,208.487 162.187,207.424 161.643 C 201.182 158.450,200.546 150.773,206.173 146.556 C 208.392 144.894,207.715 143.525,204.402 142.974 C 204.052 142.916,202.028 142.789,199.903 142.693 C 193.483 142.401,189.604 141.656,187.224 140.259 C 185.462 139.225,184.689 138.908,183.220 138.621 C 177.469 137.495,175.865 136.602,173.531 133.225 C 172.382 131.563,172.341 128.487,173.398 123.407 C 173.997 120.529,173.382 119.772,169.400 118.481 C 165.061 117.075,161.158 114.320,160.036 111.873 C 158.742 109.049,159.718 105.935,162.335 104.542 C 162.961 104.209,163.716 103.704,164.013 103.420 C 164.309 103.136,164.917 102.693,165.362 102.435 C 165.807 102.177,166.415 101.746,166.712 101.477 C 167.381 100.870,167.876 100.612,169.140 100.210 C 171.437 99.479,176.031 97.248,177.112 96.338 C 178.035 95.561,178.709 95.323,180.379 95.181 C 183.107 94.949,188.199 94.160,190.705 93.581 C 192.009 93.279,194.473 92.787,196.179 92.488 C 197.884 92.188,200.090 91.701,201.080 91.406 C 203.751 90.608,204.740 90.391,208.007 89.883 C 211.171 89.391,213.435 88.851,215.475 88.100 C 216.167 87.846,216.904 87.635,217.111 87.633 C 217.318 87.631,217.642 87.459,217.830 87.251 C 218.429 86.589,219.150 86.347,220.934 86.208 C 221.890 86.134,222.834 85.986,223.032 85.880 C 223.230 85.774,224.493 85.402,225.839 85.055 C 227.185 84.707,228.845 84.143,229.528 83.801 C 230.211 83.460,231.093 83.081,231.489 82.959 C 233.589 82.312,241.386 78.432,241.903 77.777 C 242.405 77.139,243.322 76.616,246.180 75.333 C 248.522 74.282,250.572 73.064,252.542 71.553 C 254.161 70.312,257.398 67.343,258.154 66.407 C 258.911 65.470,260.081 64.344,263.822 60.952 C 264.669 60.184,265.957 58.748,266.684 57.761 C 268.131 55.796,270.619 53.726,272.942 52.553 C 274.414 51.810,275.687 50.619,276.706 49.033 C 277.151 48.340,278.090 47.160,278.793 46.411 C 280.419 44.680,280.845 43.790,281.876 39.968 C 282.337 38.259,282.996 36.240,283.342 35.482 C 285.395 30.977,285.859 22.679,284.264 19.003 C 282.963 16.006,284.472 11.722,287.443 9.981 C 289.528 8.759,294.633 8.157,298.066 8.728 M74.494 21.063 C 78.097 21.641,77.936 20.697,77.917 41.238 C 77.897 62.489,77.519 60.940,82.786 61.185 C 88.026 61.428,88.067 61.490,88.054 69.004 C 88.040 77.143,87.594 77.727,81.390 77.731 C 77.940 77.734,78.136 76.872,77.950 92.848 C 77.786 106.817,77.841 106.207,76.639 107.409 C 75.501 108.547,75.296 108.584,69.671 108.648 C 62.398 108.732,61.678 108.565,60.695 106.563 L 60.189 105.533 60.156 93.747 C 60.115 79.006,60.122 79.063,58.200 78.093 L 57.310 77.643 44.714 77.643 C 30.586 77.643,31.668 77.739,29.721 76.305 C 28.236 75.211,28.350 77.259,28.327 51.282 C 28.300 21.746,28.252 22.345,30.693 21.587 C 32.803 20.932,43.718 21.102,45.147 21.812 C 47.063 22.763,47.083 22.971,47.129 42.375 C 47.176 61.866,46.933 60.819,51.493 61.203 C 55.342 61.527,57.844 61.208,58.930 60.254 C 60.113 59.216,60.093 59.499,60.059 44.023 C 60.042 36.387,60.041 29.058,60.058 27.737 C 60.104 24.019,60.727 22.202,62.197 21.498 C 63.246 20.996,72.121 20.682,74.494 21.063 M34.266 113.452 C 35.472 114.062,35.718 114.574,35.716 116.478 C 35.712 119.036,35.009 120.023,32.802 120.562 C 31.308 120.927,30.387 122.304,30.121 124.568 C 29.906 126.395,30.613 127.236,32.957 127.941 C 34.433 128.384,35.121 129.085,35.449 130.480 C 36.008 132.858,36.646 133.073,38.327 131.452 C 40.594 129.264,43.294 127.887,45.974 127.554 C 53.111 126.666,58.899 129.719,61.877 135.944 C 63.325 138.971,63.952 138.288,64.421 133.173 C 64.802 129.019,66.028 127.797,69.647 127.970 C 73.028 128.130,73.111 128.317,73.265 136.122 C 73.404 143.235,73.463 143.902,74.063 145.155 C 75.046 147.207,77.605 147.596,79.187 145.935 C 80.350 144.713,80.487 143.827,80.541 137.153 C 80.610 128.689,80.980 127.939,85.083 127.936 C 88.613 127.934,89.518 130.409,89.062 138.821 C 88.892 141.968,88.903 143.127,89.130 145.749 C 89.810 153.593,88.063 155.735,82.231 154.206 C 80.258 153.689,79.430 153.740,77.501 154.497 C 71.934 156.682,67.337 154.433,65.312 148.535 C 63.857 144.299,63.392 144.004,62.084 146.491 C 61.635 147.344,60.897 148.518,60.444 149.100 C 59.991 149.682,59.468 150.420,59.282 150.741 C 58.897 151.404,56.320 153.392,54.971 154.066 C 50.494 156.304,44.645 155.740,40.559 152.677 C 35.772 149.088,34.724 146.515,35.013 139.062 L 35.136 135.885 34.670 135.419 C 33.503 134.252,30.762 135.363,30.249 137.210 C 30.129 137.642,30.048 139.830,30.044 142.780 C 30.027 153.694,29.562 154.832,25.261 154.513 C 21.890 154.262,21.466 153.530,21.330 147.728 C 21.043 135.434,21.165 136.068,18.858 134.904 C 15.894 133.409,15.811 129.417,18.713 127.990 C 20.624 127.051,21.233 125.999,21.233 123.631 C 21.233 119.666,23.310 115.217,25.737 113.987 C 27.742 112.971,32.700 112.660,34.266 113.452 M108.234 127.834 C 109.323 128.290,109.617 129.008,109.533 131.008 C 109.408 133.952,108.814 134.609,105.881 135.049 C 103.388 135.423,102.860 135.779,101.889 137.742 C 100.609 140.328,100.546 140.688,100.383 146.289 C 100.159 154.019,99.963 154.389,96.086 154.382 C 91.729 154.373,91.711 154.313,91.810 139.951 C 91.877 130.213,91.921 129.797,92.978 128.799 C 93.976 127.859,97.076 127.609,98.965 128.318 C 100.518 128.901,101.065 128.914,102.594 128.400 C 104.979 127.598,107.149 127.381,108.234 127.834 M46.671 135.658 C 44.903 136.460,43.282 139.089,43.278 141.161 C 43.268 145.678,47.357 148.387,51.505 146.611 C 53.774 145.640,54.826 142.296,53.873 139.087 C 53.070 136.382,49.167 134.524,46.671 135.658 " stroke="none" fill="#fa05f9" fill-rule="evenodd"></path><path id="path3" d="M290.426 9.016 C 287.043 9.816,285.934 10.633,284.605 13.301 C 283.559 15.403,283.455 17.140,284.264 19.003 C 285.859 22.679,285.395 30.977,283.342 35.482 C 282.996 36.240,282.337 38.259,281.876 39.968 C 280.845 43.790,280.419 44.680,278.793 46.411 C 278.090 47.160,277.151 48.340,276.706 49.033 C 275.687 50.619,274.414 51.810,272.942 52.553 C 270.619 53.726,268.131 55.796,266.684 57.761 C 265.957 58.748,264.669 60.184,263.822 60.952 C 260.026 64.394,258.906 65.477,258.099 66.487 L 257.236 67.566 258.128 66.770 C 259.438 65.600,264.898 60.235,266.670 58.377 C 269.623 55.280,272.762 52.743,274.584 51.982 C 275.326 51.672,276.581 50.988,277.373 50.463 C 280.666 48.275,281.652 48.529,282.126 51.687 C 282.685 55.405,284.202 56.362,287.195 54.884 C 288.988 53.999,289.596 53.283,289.949 51.642 C 290.260 50.199,291.956 49.453,292.956 50.320 C 293.292 50.611,294.711 53.761,295.618 56.230 C 297.387 61.046,300.506 58.265,302.783 49.843 C 303.453 47.364,303.558 46.689,303.725 43.815 C 303.822 42.132,304.032 39.825,304.191 38.686 C 304.403 37.174,304.442 36.181,304.338 34.998 C 303.967 30.778,304.384 30.305,307.280 31.660 C 309.063 32.495,310.211 32.278,310.211 31.108 C 310.211 29.393,311.602 27.447,312.688 27.644 C 313.790 27.844,314.003 28.143,314.852 30.679 C 315.150 31.570,315.716 32.906,316.109 33.648 C 316.503 34.390,316.972 35.423,317.152 35.942 C 317.332 36.461,317.817 37.297,318.230 37.800 C 318.642 38.303,319.081 39.053,319.204 39.465 C 319.891 41.764,320.499 42.884,319.999 40.928 C 319.041 37.185,318.612 36.201,317.136 34.368 C 315.669 32.547,314.783 30.267,313.829 25.866 C 313.350 23.656,312.851 22.331,312.004 21.020 C 311.632 20.445,311.105 19.347,310.833 18.579 C 309.207 13.994,308.788 13.285,306.649 11.502 C 304.702 9.879,304.043 9.585,301.618 9.258 C 300.555 9.115,298.956 8.876,298.066 8.728 C 295.501 8.301,293.058 8.393,290.426 9.016 M310.778 34.831 C 309.970 36.605,310.236 41.208,311.313 44.085 C 311.516 44.629,311.954 46.262,312.286 47.715 C 312.862 50.236,313.266 51.328,314.018 52.396 C 314.205 52.662,314.492 53.431,314.654 54.105 C 315.238 56.526,316.711 57.483,317.502 55.955 C 318.019 54.954,317.474 49.483,316.682 47.731 C 316.403 47.114,316.039 46.021,315.874 45.302 C 315.709 44.583,315.384 43.387,315.153 42.645 C 314.921 41.903,314.574 40.751,314.380 40.086 C 314.187 39.421,313.738 38.482,313.384 37.999 C 313.030 37.516,312.501 36.589,312.209 35.938 C 311.578 34.532,311.087 34.152,310.778 34.831 M321.820 45.171 C 322.328 46.772,322.821 47.308,326.005 49.720 C 326.656 50.213,326.326 49.551,325.466 48.637 C 324.926 48.063,324.226 47.211,323.911 46.744 C 323.112 45.561,321.577 44.407,321.820 45.171 M246.964 74.949 C 246.469 75.188,245.288 75.751,244.341 76.201 C 243.393 76.651,242.386 77.260,242.103 77.556 C 241.305 78.388,241.971 78.237,243.308 77.281 C 243.933 76.835,245.274 76.070,246.289 75.581 C 247.303 75.092,248.133 74.647,248.133 74.593 C 248.133 74.427,247.901 74.498,246.964 74.949 M219.433 86.357 C 218.751 86.521,218.210 86.811,217.912 87.170 C 217.427 87.754,219.539 87.374,221.355 86.550 L 222.132 86.198 221.053 86.212 C 220.459 86.220,219.730 86.285,219.433 86.357 M178.632 95.443 C 177.989 95.673,176.698 96.538,176.698 96.740 C 176.698 96.913,177.820 96.592,179.655 95.893 L 181.466 95.203 180.387 95.203 C 179.793 95.203,179.003 95.311,178.632 95.443 M167.971 100.653 C 167.476 100.886,166.870 101.295,166.624 101.562 L 166.177 102.048 166.663 101.863 C 167.939 101.378,169.674 100.235,169.141 100.231 C 168.992 100.229,168.466 100.419,167.971 100.653 M162.303 104.546 C 158.962 106.357,158.492 111.121,161.394 113.762 C 164.120 116.243,166.103 117.412,169.400 118.481 C 173.382 119.772,173.997 120.529,173.398 123.407 C 172.341 128.487,172.382 131.563,173.531 133.225 C 175.865 136.602,177.469 137.495,183.220 138.621 C 184.689 138.908,185.462 139.225,187.224 140.259 C 189.604 141.656,193.483 142.401,199.903 142.693 C 202.028 142.789,204.052 142.916,204.402 142.974 C 207.715 143.525,208.392 144.894,206.173 146.556 C 200.546 150.773,201.182 158.450,207.424 161.643 C 208.487 162.187,209.943 163.064,210.659 163.592 C 213.170 165.443,215.153 165.845,224.291 166.358 C 234.025 166.903,240.027 166.271,244.894 164.189 C 246.131 163.660,247.832 163.054,248.673 162.843 C 254.277 161.439,256.903 160.466,260.459 158.481 C 261.669 157.806,263.054 157.230,264.687 156.724 C 266.023 156.310,267.769 155.624,268.567 155.199 C 272.470 153.122,274.424 153.003,274.442 154.841 C 274.446 155.234,274.388 156.212,274.313 157.015 C 273.815 162.332,277.369 165.202,286.550 166.899 C 288.515 167.262,289.420 167.556,290.990 168.338 C 293.608 169.644,294.656 169.582,299.322 167.845 C 305.049 165.713,305.856 165.298,307.555 163.619 C 309.116 162.076,308.695 162.205,304.094 164.682 C 298.106 167.904,292.241 168.264,286.923 165.735 C 284.077 164.382,283.941 164.213,283.941 162.038 L 283.941 160.383 282.756 158.869 C 282.104 158.036,281.190 156.950,280.725 156.455 C 277.944 153.500,277.592 152.715,278.515 151.533 C 278.796 151.172,279.258 150.472,279.540 149.978 C 280.370 148.524,281.373 147.238,283.179 145.310 C 284.111 144.314,285.130 143.216,285.443 142.870 C 285.832 142.439,286.295 142.166,286.910 142.004 C 287.614 141.819,288.003 141.559,288.709 140.803 C 289.204 140.272,290.216 139.434,290.958 138.939 C 291.700 138.445,292.834 137.581,293.477 137.020 C 294.121 136.458,295.295 135.672,296.086 135.272 C 297.536 134.540,298.621 133.687,300.844 131.534 C 301.508 130.891,302.639 129.838,303.357 129.195 C 305.156 127.584,305.266 127.471,306.793 125.681 C 307.535 124.810,308.477 123.767,308.887 123.362 C 309.296 122.958,309.924 122.182,310.282 121.637 C 310.639 121.093,311.209 120.306,311.546 119.889 C 312.202 119.079,312.910 117.413,312.910 116.682 C 312.910 115.794,311.531 116.296,310.744 117.471 C 310.502 117.833,309.896 118.574,309.397 119.118 C 308.898 119.663,308.092 120.594,307.606 121.188 C 306.743 122.241,303.663 125.502,301.827 127.304 C 301.322 127.800,300.729 128.508,300.509 128.877 C 300.202 129.392,299.895 129.623,299.194 129.867 C 298.691 130.041,298.069 130.413,297.812 130.693 C 296.731 131.873,296.393 132.129,295.191 132.685 C 294.239 133.125,293.810 133.445,293.453 133.985 C 293.128 134.476,292.759 134.774,292.276 134.934 C 291.889 135.061,290.766 135.723,289.781 136.405 C 288.795 137.086,287.450 137.968,286.792 138.365 C 286.133 138.762,285.166 139.453,284.642 139.900 C 283.993 140.454,283.296 140.840,282.454 141.111 C 281.615 141.381,280.919 141.766,280.285 142.309 C 279.117 143.311,277.844 144.130,277.455 144.130 C 277.291 144.130,276.639 144.404,276.006 144.740 C 275.372 145.075,274.489 145.453,274.044 145.579 C 273.599 145.706,273.032 145.982,272.785 146.194 C 272.537 146.405,272.012 146.736,271.617 146.928 C 270.291 147.575,268.922 148.594,268.082 149.559 C 267.624 150.086,266.835 150.996,266.328 151.580 C 265.203 152.878,265.122 152.936,262.636 154.203 C 260.193 155.448,258.363 156.479,257.301 157.208 C 255.881 158.183,252.608 159.642,250.022 160.451 C 240.742 163.355,237.001 164.078,230.319 164.255 C 219.631 164.539,213.038 162.596,212.404 158.974 C 212.386 158.875,212.447 158.309,212.538 157.715 C 212.966 154.930,212.209 153.825,210.590 154.873 C 208.834 156.009,205.532 151.841,206.596 149.831 C 207.067 148.940,208.141 147.838,209.429 146.925 C 210.181 146.391,211.404 145.335,212.146 144.578 C 212.888 143.820,213.860 142.950,214.305 142.645 C 214.750 142.339,215.404 141.833,215.757 141.519 C 216.111 141.206,216.961 140.586,217.647 140.142 C 218.332 139.697,219.287 138.993,219.767 138.576 C 220.248 138.159,221.134 137.569,221.736 137.265 C 222.338 136.961,223.309 136.256,223.893 135.698 C 224.478 135.140,225.576 134.359,226.333 133.963 C 227.890 133.150,228.336 132.434,227.286 132.434 C 224.831 132.434,220.943 133.497,217.104 135.219 C 216.515 135.483,215.301 135.854,214.405 136.042 C 212.149 136.518,211.642 136.681,210.901 137.171 C 209.337 138.205,207.238 138.902,205.668 138.909 C 205.101 138.911,204.481 139.105,203.599 139.553 C 199.536 141.619,196.439 141.960,192.982 140.721 C 187.240 138.664,186.611 138.188,188.203 137.102 C 189.682 136.093,189.977 134.661,188.874 133.853 C 188.791 133.792,188.730 133.691,188.739 133.628 C 188.786 133.270,188.727 133.153,188.499 133.153 C 188.359 133.153,188.215 133.066,188.179 132.958 C 188.118 132.775,184.935 132.688,184.646 132.863 C 184.142 133.167,180.400 132.096,179.268 131.323 C 176.893 129.702,175.718 126.154,176.685 123.527 C 177.575 121.111,177.872 119.713,177.482 119.787 C 177.050 119.868,173.314 117.873,172.956 117.370 C 172.599 116.869,172.599 116.855,172.937 116.159 C 173.729 114.530,172.831 113.648,169.811 113.086 C 168.570 112.856,165.246 110.996,164.774 110.268 C 163.712 108.629,162.757 105.522,163.071 104.723 C 163.227 104.328,163.340 104.005,163.323 104.007 C 163.307 104.009,162.848 104.251,162.303 104.546 M318.387 155.151 L 317.859 155.735 318.444 155.207 C 318.989 154.714,319.111 154.566,318.972 154.566 C 318.941 154.566,318.678 154.829,318.387 155.151 M313.720 159.012 C 313.225 159.375,312.714 159.777,312.583 159.907 C 312.452 160.037,311.983 160.356,311.540 160.616 C 310.377 161.297,310.692 161.336,312.123 160.687 C 313.395 160.110,313.952 159.688,314.560 158.839 C 315.037 158.174,314.798 158.223,313.720 159.012 " stroke="none" fill="#935b29" fill-rule="evenodd"></path></g></svg>