<svg id="svg" xmlns="http://www.w3.org/2000/svg" xmlns:xlink="http://www.w3.org/1999/xlink" width="400" height="179.64071856287427" viewBox="0, 0, 400,179.64071856287427"><g id="svgg"><path id="path0" d="M237.535 9.885 C 236.979 9.972,235.928 10.258,235.199 10.519 C 232.278 11.565,231.089 11.895,229.111 12.208 C 224.629 12.918,223.958 12.980,223.018 12.779 C 221.683 12.492,220.666 12.761,217.840 14.144 C 216.469 14.815,214.906 15.548,214.367 15.772 C 212.761 16.442,211.521 17.094,210.869 17.612 C 210.532 17.880,209.653 18.488,208.916 18.962 C 206.827 20.306,206.396 21.959,207.632 23.877 C 207.922 24.327,208.117 25.027,208.263 26.146 C 208.379 27.035,208.510 27.945,208.553 28.167 C 208.653 28.679,210.576 30.575,211.812 31.380 C 212.909 32.095,213.175 32.540,213.582 34.343 C 214.002 36.204,214.356 36.804,215.790 38.075 C 217.883 39.930,218.376 41.491,217.670 44.028 C 217.340 45.216,216.606 45.523,215.865 44.782 C 215.317 44.235,214.315 43.565,213.657 43.307 C 213.311 43.172,212.829 42.910,212.586 42.724 C 212.316 42.518,211.990 42.427,211.744 42.488 C 211.523 42.544,211.293 42.508,211.231 42.409 C 211.170 42.309,210.966 42.228,210.779 42.228 C 210.258 42.228,209.238 41.459,208.354 40.399 C 207.916 39.873,207.103 39.040,206.549 38.547 C 204.255 36.510,204.855 33.216,207.188 35.040 C 207.793 35.514,207.931 35.488,207.723 34.940 C 207.575 34.551,207.443 31.189,207.554 30.636 C 207.683 29.993,207.576 29.843,205.788 28.153 C 204.384 26.827,204.038 26.114,203.497 23.433 C 203.155 21.737,200.837 21.550,199.114 23.080 C 198.629 23.510,197.772 24.035,197.209 24.245 C 194.978 25.080,193.406 26.005,190.272 28.325 C 189.221 29.103,188.010 29.942,187.582 30.189 C 187.153 30.436,186.068 31.366,185.170 32.255 C 183.447 33.962,183.082 34.282,182.267 34.798 C 181.023 35.586,180.311 36.612,179.535 38.736 C 179.027 40.126,177.874 41.594,176.497 42.604 C 175.575 43.280,173.585 45.769,173.585 46.247 C 173.585 46.306,173.269 46.871,172.883 47.502 C 172.497 48.133,171.966 49.125,171.704 49.707 C 171.441 50.288,171.151 50.904,171.058 51.076 C 170.965 51.247,170.889 51.905,170.889 52.536 C 170.889 53.322,170.807 53.753,170.628 53.902 C 170.484 54.021,170.046 54.779,169.654 55.586 C 168.752 57.442,168.304 57.953,167.296 58.276 C 166.443 58.548,166.188 58.945,164.504 62.624 C 164.278 63.118,163.481 64.788,162.734 66.336 C 161.380 69.140,160.852 70.735,160.124 74.214 C 159.928 75.153,159.558 76.770,159.303 77.808 C 158.333 81.753,158.543 82.966,160.553 85.041 C 162.029 86.565,162.051 86.568,170.979 86.685 C 175.130 86.739,178.777 86.857,179.083 86.947 C 179.389 87.037,180.076 87.089,180.610 87.062 C 185.037 86.838,188.481 86.596,189.805 86.415 C 190.838 86.274,191.889 86.252,192.860 86.349 C 194.429 86.507,203.837 86.694,208.356 86.657 C 209.838 86.645,212.385 86.500,214.016 86.335 C 216.535 86.080,217.218 86.069,218.558 86.261 C 219.644 86.416,220.707 86.440,221.972 86.338 C 223.642 86.204,226.044 86.206,227.673 86.343 C 237.141 87.142,238.500 86.032,236.975 78.743 C 236.793 77.871,236.132 76.985,235.456 76.705 C 234.218 76.194,233.102 72.179,233.651 70.216 C 233.819 69.614,234.273 69.571,234.488 70.135 C 234.574 70.362,235.125 70.972,235.711 71.491 C 236.772 72.429,236.778 72.439,237.079 73.985 C 237.368 75.471,237.862 76.583,238.575 77.358 C 238.758 77.556,238.996 77.920,239.106 78.167 C 239.216 78.414,239.579 78.951,239.913 79.360 C 240.886 80.551,241.279 81.075,241.908 82.017 C 243.082 83.779,245.413 83.698,246.612 81.854 C 247.284 80.820,247.536 80.558,249.192 79.172 C 251.363 77.354,251.550 77.056,251.821 74.976 C 252.076 73.014,252.255 72.609,253.266 71.702 C 255.744 69.479,256.014 69.117,256.231 67.713 C 256.683 64.793,256.821 64.200,257.275 63.252 C 257.535 62.709,258.112 61.909,258.556 61.476 L 259.364 60.687 259.681 61.079 C 260.360 61.918,260.346 64.816,259.649 67.539 C 259.437 68.364,259.304 69.245,259.352 69.496 C 259.480 70.168,259.003 71.142,258.375 71.486 C 257.270 72.094,256.975 72.452,256.391 73.903 C 255.854 75.237,255.626 75.550,254.074 77.089 C 251.605 79.539,251.676 79.388,251.825 81.889 C 252.036 85.410,252.576 86.119,255.615 86.862 C 256.726 87.133,256.930 87.131,261.186 86.792 C 264.186 86.553,265.937 86.674,265.969 87.121 C 266.068 88.513,265.435 88.653,258.940 88.676 C 252.668 88.698,250.792 89.442,250.102 92.183 C 250.015 92.529,249.889 93.014,249.822 93.261 C 249.594 94.100,249.724 95.145,250.226 96.496 C 251.879 100.953,251.880 100.950,249.674 100.257 C 249.067 100.066,247.169 98.159,246.847 97.417 C 246.090 95.670,244.861 94.886,243.294 95.150 C 242.421 95.298,242.049 96.174,241.619 99.100 C 241.250 101.613,240.748 102.635,239.017 104.400 C 237.251 106.200,237.262 106.179,237.022 108.446 C 236.596 112.478,235.993 114.208,234.760 114.930 C 233.639 115.587,233.219 116.444,232.522 119.497 C 232.152 121.120,229.288 124.888,228.425 124.888 C 228.183 124.888,227.889 125.730,227.766 126.774 C 227.599 128.196,227.313 128.866,226.465 129.829 C 226.030 130.323,225.447 131.267,225.169 131.925 C 224.892 132.584,224.472 133.392,224.237 133.721 C 223.503 134.748,222.997 135.885,222.609 137.376 C 221.647 141.076,219.551 143.487,218.865 141.682 C 218.048 139.533,219.006 135.632,220.834 133.666 C 221.723 132.709,222.164 131.802,222.830 129.561 C 223.744 126.484,224.673 124.553,225.901 123.181 C 226.902 122.063,227.193 121.207,227.278 119.135 L 227.358 117.211 226.886 117.093 C 226.345 116.957,226.293 116.767,226.704 116.426 C 226.950 116.222,227.031 116.237,227.243 116.528 C 227.381 116.716,227.493 116.783,227.493 116.676 C 227.493 116.569,228.080 115.885,228.796 115.156 C 230.352 113.573,231.447 112.260,231.447 111.976 C 231.447 111.863,231.515 111.770,231.600 111.770 C 231.684 111.770,232.020 111.184,232.347 110.467 C 232.675 109.751,233.180 108.679,233.470 108.086 C 233.832 107.348,234.028 106.623,234.095 105.788 C 234.190 104.581,234.204 104.555,235.290 103.441 C 236.458 102.242,237.000 101.325,237.479 99.730 C 237.642 99.187,237.976 98.144,238.220 97.412 C 238.981 95.130,238.611 92.960,237.376 92.462 C 237.228 92.402,236.824 92.198,236.478 92.007 C 236.132 91.817,235.687 91.657,235.490 91.652 C 235.292 91.646,234.907 91.526,234.634 91.383 C 234.362 91.241,233.403 91.043,232.504 90.942 C 231.479 90.828,230.559 90.607,230.035 90.348 C 229.276 89.975,228.947 89.937,226.415 89.931 C 222.869 89.922,219.869 89.718,218.133 89.366 C 216.641 89.063,213.153 89.508,210.153 90.383 C 209.110 90.687,208.478 90.742,206.453 90.703 C 204.812 90.671,203.928 90.724,203.758 90.863 C 202.751 91.684,201.360 91.554,197.930 90.317 C 197.267 90.079,188.528 89.927,183.648 90.069 C 183.005 90.087,181.873 89.959,181.132 89.784 C 179.181 89.323,175.126 89.296,173.675 89.735 C 171.433 90.413,171.160 90.423,168.284 89.940 C 165.788 89.520,162.024 89.291,161.366 89.519 C 160.006 89.990,157.537 91.162,157.234 91.480 C 156.391 92.365,156.212 93.819,156.550 97.035 C 156.679 98.270,156.731 99.686,156.665 100.180 C 156.283 103.042,156.501 104.469,157.956 108.625 C 159.771 113.811,159.966 114.380,160.110 114.915 C 160.190 115.211,160.460 116.213,160.709 117.142 C 161.208 119.001,162.274 121.339,163.629 123.543 C 164.114 124.332,164.742 125.463,165.024 126.056 C 165.307 126.649,165.685 127.417,165.864 127.763 C 167.253 130.442,168.194 132.353,168.194 132.494 C 168.194 133.120,170.783 137.847,171.607 138.724 C 172.810 140.005,174.430 141.872,175.112 142.762 C 175.409 143.149,176.622 144.445,177.808 145.642 C 179.972 147.827,180.773 148.703,180.773 148.890 C 180.773 149.328,183.772 152.499,185.265 153.640 C 185.710 153.980,186.114 154.301,186.164 154.354 C 186.213 154.407,186.575 154.690,186.968 154.983 C 187.362 155.277,188.188 155.974,188.805 156.533 C 189.734 157.376,190.134 157.605,191.144 157.874 C 193.242 158.432,193.769 158.761,194.971 160.261 C 196.203 161.799,200.092 164.054,201.569 164.086 C 203.708 164.133,206.068 162.334,207.658 159.446 C 207.920 158.970,208.193 158.500,208.265 158.401 C 208.336 158.302,208.543 157.817,208.725 157.323 C 208.906 156.828,209.226 156.141,209.436 155.795 C 209.646 155.449,210.199 154.184,210.666 152.983 C 211.377 151.151,212.257 149.533,212.751 149.146 C 212.814 149.097,213.245 148.491,213.709 147.799 C 215.232 145.527,216.041 144.867,216.694 145.360 C 217.346 145.851,217.252 147.177,216.436 149.017 C 216.075 149.829,215.610 150.979,215.402 151.572 C 215.194 152.165,214.972 152.691,214.909 152.740 C 214.721 152.887,213.578 154.763,213.321 155.346 C 213.190 155.642,212.935 156.746,212.754 157.799 C 212.431 159.679,211.550 162.252,211.034 162.822 C 209.590 164.418,210.931 166.257,214.730 167.890 C 215.375 168.167,216.307 168.578,216.801 168.803 C 218.298 169.485,222.448 170.506,225.247 170.879 C 226.137 170.998,227.754 171.290,228.841 171.529 C 231.634 172.142,237.631 172.756,239.109 172.580 C 239.617 172.520,242.164 172.450,244.769 172.425 C 249.402 172.381,253.187 172.153,255.166 171.801 C 255.710 171.704,256.923 171.493,257.862 171.332 C 258.801 171.172,260.377 170.853,261.366 170.625 C 262.354 170.397,263.729 170.118,264.420 170.005 C 268.289 169.377,269.710 169.026,270.821 168.425 C 271.602 168.002,272.679 167.642,275.530 166.850 C 280.429 165.488,281.472 164.710,281.710 162.239 C 281.781 161.499,281.728 161.075,281.515 160.667 C 281.354 160.359,281.106 159.885,280.964 159.614 C 280.822 159.342,280.588 158.267,280.444 157.226 C 280.138 155.021,279.668 153.895,278.809 153.310 C 276.320 151.618,275.298 150.019,275.294 147.814 C 275.292 146.647,274.333 144.268,273.780 144.056 C 273.623 143.996,273.495 143.858,273.495 143.749 C 273.495 143.640,273.232 143.172,272.911 142.710 C 271.636 140.874,271.236 140.007,270.990 138.544 C 270.612 136.294,269.806 134.232,269.306 134.232 C 269.115 134.232,268.644 133.764,268.640 133.571 C 268.638 133.490,268.347 133.100,267.992 132.704 C 267.081 131.688,266.468 130.270,266.293 128.777 C 266.055 126.753,265.462 125.244,264.646 124.590 C 263.850 123.953,262.701 121.981,262.421 120.773 C 262.272 120.133,262.086 119.483,262.007 119.328 C 260.977 117.325,262.248 117.139,264.069 119.026 C 265.211 120.209,265.383 120.485,265.744 121.701 C 265.965 122.447,266.344 123.287,266.586 123.568 C 266.828 123.849,267.026 124.136,267.026 124.207 C 267.026 124.277,267.214 124.519,267.444 124.746 C 268.698 125.981,269.831 128.624,270.317 131.449 C 270.706 133.712,270.880 134.101,271.999 135.197 C 272.837 136.018,273.864 137.584,274.131 138.447 C 274.285 138.945,274.621 140.040,274.876 140.881 C 275.667 143.475,275.844 143.874,276.522 144.587 C 277.777 145.908,279.798 148.693,280.303 149.798 C 280.461 150.145,280.927 150.679,283.082 152.988 C 283.940 153.907,284.592 155.163,284.741 156.185 C 285.076 158.476,285.468 159.165,287.152 160.415 C 289.941 162.487,293.114 162.447,294.666 160.320 C 295.964 158.542,297.651 156.796,298.802 156.039 C 299.362 155.671,299.865 155.304,299.920 155.224 C 299.975 155.145,300.902 154.627,301.981 154.073 C 304.882 152.586,306.989 150.350,309.657 145.927 C 310.348 144.782,310.974 143.805,311.048 143.756 C 311.556 143.418,312.328 141.746,312.180 141.303 C 311.854 140.324,312.904 138.911,313.989 138.870 C 314.597 138.847,316.060 137.573,317.071 136.186 C 317.454 135.659,318.891 133.954,319.342 133.490 C 321.369 131.404,323.016 128.087,323.550 125.014 C 323.822 123.443,323.950 123.114,324.734 121.959 C 326.085 119.969,326.833 117.434,326.858 114.767 C 326.866 113.952,325.995 112.559,325.318 112.302 C 324.947 112.161,324.889 112.034,324.932 111.459 L 324.983 110.782 326.148 110.692 L 327.314 110.602 328.145 108.176 C 328.603 106.842,329.194 105.184,329.460 104.492 C 331.359 99.546,331.553 95.111,329.944 93.386 C 328.791 92.151,326.346 91.428,322.552 91.202 C 320.443 91.075,319.275 90.906,316.262 90.289 C 312.440 89.507,311.643 89.431,309.576 89.654 C 307.274 89.902,301.747 89.904,300.629 89.657 C 298.221 89.127,297.164 89.065,294.352 89.291 C 291.358 89.531,290.975 89.496,289.578 88.854 C 288.926 88.555,288.186 88.409,286.882 88.323 C 285.375 88.224,284.181 87.929,284.960 87.848 C 285.078 87.836,285.236 87.809,285.310 87.789 C 285.910 87.623,286.437 87.511,286.972 87.434 C 287.318 87.384,288.005 87.250,288.500 87.136 C 290.196 86.747,290.839 86.703,292.722 86.847 C 293.760 86.927,296.267 86.945,298.293 86.888 C 302.070 86.781,307.337 87.007,309.046 87.351 C 310.558 87.654,313.647 87.576,315.827 87.179 C 317.879 86.805,319.887 86.632,322.685 86.589 C 328.561 86.498,330.400 85.009,329.312 81.222 C 329.156 80.678,328.990 79.678,328.945 78.999 C 328.870 77.896,328.666 76.601,328.119 73.765 C 328.023 73.270,327.865 72.284,327.766 71.573 C 327.548 70.000,326.942 68.069,326.381 67.164 C 326.153 66.796,325.965 66.432,325.965 66.356 C 325.964 66.280,325.590 65.571,325.133 64.780 C 323.483 61.923,323.285 61.417,323.082 59.536 C 322.785 56.797,322.407 55.421,321.354 53.252 C 320.340 51.164,320.196 50.994,317.508 48.700 C 315.564 47.041,314.401 45.754,313.839 44.640 C 313.204 43.381,312.023 41.983,309.134 39.070 C 307.965 37.892,306.262 36.159,305.351 35.220 C 303.539 33.353,303.338 33.165,301.896 31.981 C 301.357 31.539,299.457 29.715,297.673 27.928 C 294.615 24.865,293.683 24.120,292.183 23.535 C 291.518 23.276,290.453 22.505,288.679 21.000 C 285.611 18.395,282.773 18.183,280.364 20.378 C 279.699 20.983,278.792 21.771,278.347 22.129 C 275.744 24.224,275.390 24.860,274.664 28.763 C 274.204 31.239,273.567 32.962,272.821 33.750 C 272.698 33.881,272.594 34.083,272.591 34.200 C 272.584 34.439,271.322 35.085,271.169 34.928 C 271.114 34.873,271.080 33.682,271.093 32.283 C 271.117 29.621,271.188 29.221,272.428 24.708 C 272.726 23.621,273.095 22.044,273.246 21.204 C 273.398 20.364,273.604 19.272,273.705 18.778 C 274.562 14.572,272.887 12.612,267.026 10.964 C 266.581 10.839,265.756 10.586,265.191 10.402 C 263.253 9.771,261.762 9.649,257.682 9.787 C 253.608 9.924,247.648 9.930,241.959 9.802 C 240.081 9.760,238.090 9.797,237.535 9.885 M246.035 22.822 C 249.145 24.174,249.308 24.505,248.906 28.661 C 248.576 32.073,248.546 32.198,247.929 32.697 L 247.383 33.138 247.097 32.700 C 246.939 32.460,246.668 32.119,246.494 31.942 C 245.733 31.172,245.483 29.899,245.726 28.032 C 245.850 27.074,245.830 27.006,245.041 25.790 C 244.566 25.056,244.291 24.460,244.378 24.353 C 244.460 24.252,244.629 23.825,244.754 23.405 C 244.994 22.596,245.249 22.481,246.035 22.822 M270.092 38.173 C 270.524 38.644,270.045 42.455,269.458 43.225 C 267.639 45.609,266.619 44.305,267.562 40.801 C 268.022 39.092,269.515 37.542,270.092 38.173 M275.103 44.822 C 275.362 45.135,275.063 45.822,274.668 45.822 C 273.830 45.822,273.179 45.119,273.615 44.684 C 273.835 44.464,274.886 44.561,275.103 44.822 M220.532 48.084 C 222.045 49.719,222.776 52.018,221.982 52.643 C 221.276 53.197,218.822 52.527,218.225 51.616 C 217.813 50.987,217.836 47.410,218.256 46.763 L 218.520 46.356 219.103 46.763 C 219.424 46.987,220.067 47.581,220.532 48.084 M265.511 50.012 C 265.449 51.179,265.324 52.271,265.235 52.437 C 265.145 52.604,264.870 53.188,264.624 53.736 C 264.026 55.066,263.038 56.170,262.319 56.314 C 261.557 56.467,261.461 56.266,261.462 54.537 C 261.464 50.389,262.314 48.518,264.690 47.427 C 265.558 47.029,265.654 47.332,265.511 50.012 M215.175 50.839 C 215.353 51.126,214.711 51.594,214.218 51.537 C 213.348 51.436,213.466 50.674,214.352 50.674 C 214.749 50.674,215.119 50.748,215.175 50.839 M225.741 56.118 C 226.088 56.517,226.137 56.916,225.886 57.313 C 225.712 57.588,225.392 56.765,225.487 56.289 C 225.514 56.158,225.347 56.065,225.086 56.065 C 224.626 56.065,224.358 55.845,224.565 55.639 C 224.748 55.456,225.394 55.720,225.741 56.118 M229.955 62.668 C 231.228 63.853,231.753 65.354,231.063 65.837 C 230.691 66.097,230.633 66.095,230.358 65.810 C 230.192 65.639,229.887 65.381,229.679 65.238 C 228.773 64.614,228.449 62.350,229.215 62.001 C 229.224 61.998,229.556 62.298,229.955 62.668 M238.472 62.893 C 239.362 62.893,239.804 64.536,239.263 65.832 L 238.992 66.479 238.379 66.168 C 238.042 65.998,237.624 65.615,237.449 65.319 C 237.275 65.022,236.978 64.643,236.788 64.475 C 236.361 64.096,236.094 62.981,236.300 62.439 L 236.455 62.032 237.306 62.462 C 237.773 62.699,238.298 62.893,238.472 62.893 M303.022 63.459 C 303.238 63.572,303.680 63.895,304.004 64.177 C 304.871 64.930,305.783 64.890,306.637 64.061 C 307.499 63.224,308.175 63.214,308.890 64.029 C 309.217 64.400,309.784 64.751,310.396 64.959 C 311.238 65.245,311.394 65.370,311.486 65.833 C 311.648 66.640,311.543 66.656,306.555 66.615 L 301.968 66.577 301.048 65.986 L 300.127 65.395 300.502 64.712 C 301.048 63.715,302.312 63.086,303.022 63.459 M280.410 70.081 C 281.015 70.081,281.664 71.206,281.375 71.754 C 281.045 72.382,280.904 72.393,279.545 71.892 C 277.523 71.147,277.705 69.522,279.754 70.022 C 279.886 70.055,280.181 70.081,280.410 70.081 M275.258 70.755 C 275.200 71.450,274.048 71.826,273.358 71.374 C 272.739 70.968,273.469 70.081,274.422 70.081 L 275.314 70.081 275.258 70.755 M266.779 71.258 C 267.444 71.391,267.676 72.296,267.212 72.948 C 266.728 73.627,266.478 73.761,265.207 74.022 C 264.548 74.158,263.955 74.430,263.500 74.808 C 262.577 75.573,261.959 75.513,261.382 74.600 C 260.454 73.130,260.768 71.529,262.063 71.132 C 262.441 71.016,266.048 71.112,266.779 71.258 M287.332 75.584 C 287.332 76.071,287.261 76.190,286.972 76.190 C 286.711 76.190,286.613 76.071,286.613 75.752 C 286.613 75.511,286.520 75.256,286.406 75.185 C 286.262 75.097,286.299 74.984,286.526 74.818 C 286.982 74.485,287.332 74.816,287.332 75.584 M290.004 79.358 C 290.517 79.460,290.566 79.530,290.566 80.166 C 290.566 81.150,289.352 81.247,288.992 80.292 C 288.660 79.413,288.949 79.146,290.004 79.358 M282.300 87.842 C 282.779 87.868,282.865 87.918,282.659 88.050 C 282.350 88.250,280.453 88.285,279.784 88.103 L 279.335 87.981 279.784 87.864 C 280.201 87.755,280.656 87.751,282.300 87.842 M252.561 100.809 C 252.622 100.907,252.786 100.988,252.925 100.988 C 253.632 100.988,255.705 103.373,256.073 104.609 C 256.451 105.881,257.309 107.654,257.840 108.266 C 258.012 108.464,258.238 108.827,258.343 109.075 C 258.447 109.322,258.820 109.867,259.170 110.287 C 260.472 111.843,261.374 116.499,260.154 115.362 C 259.943 115.165,259.667 115.004,259.539 115.004 C 259.412 115.004,259.176 114.742,259.013 114.420 C 258.851 114.099,258.572 113.675,258.394 113.477 C 257.941 112.976,256.424 109.957,256.424 109.558 C 256.424 109.378,255.919 108.730,255.301 108.119 C 252.732 105.577,251.609 103.466,251.579 101.123 C 251.572 100.613,252.296 100.381,252.561 100.809 M269.946 106.147 C 269.724 106.189,269.360 106.189,269.137 106.147 C 268.915 106.104,269.097 106.069,269.542 106.069 C 269.987 106.069,270.168 106.104,269.946 106.147 M298.460 128.709 C 298.990 128.978,299.288 129.899,298.954 130.233 C 298.117 131.071,296.855 130.643,296.855 129.522 C 296.855 128.532,297.484 128.213,298.460 128.709 " stroke="none" fill="#cf3a1c" fill-rule="evenodd"></path><path id="path1" d="M244.754 23.405 C 244.629 23.825,244.460 24.252,244.378 24.353 C 244.291 24.460,244.566 25.056,245.041 25.790 C 245.830 27.006,245.850 27.074,245.726 28.032 C 245.483 29.899,245.733 31.172,246.494 31.942 C 246.668 32.119,246.939 32.460,247.097 32.700 L 247.383 33.138 247.929 32.697 C 248.546 32.198,248.576 32.073,248.906 28.661 C 249.279 24.798,249.212 24.551,247.529 23.608 C 245.324 22.371,245.066 22.353,244.754 23.405 M50.846 23.626 C 49.573 23.840,47.986 24.465,47.972 24.757 C 47.969 24.829,47.561 25.332,47.067 25.876 C 46.143 26.890,45.514 27.957,45.102 29.205 C 44.816 30.071,43.833 31.697,42.225 33.962 C 41.558 34.901,40.831 36.033,40.610 36.478 C 40.388 36.923,39.773 37.940,39.244 38.739 C 38.715 39.538,38.153 40.500,37.996 40.876 C 37.839 41.252,37.412 41.973,37.047 42.478 C 36.682 42.983,36.142 43.922,35.847 44.564 C 35.552 45.207,34.926 46.278,34.457 46.946 C 33.987 47.613,33.603 48.227,33.603 48.309 C 33.603 48.391,33.186 49.139,32.676 49.970 C 32.167 50.802,31.430 52.129,31.040 52.919 C 30.316 54.386,28.933 56.466,27.529 58.201 C 27.099 58.733,26.581 59.541,26.379 59.997 C 26.178 60.453,25.699 61.514,25.315 62.354 C 24.931 63.194,24.302 64.771,23.916 65.858 C 23.531 66.945,22.996 68.401,22.726 69.093 C 21.391 72.523,21.114 74.727,21.114 81.941 C 21.114 88.492,21.182 89.040,22.480 92.965 C 24.108 97.886,25.780 100.677,28.960 103.782 C 33.556 108.270,36.207 110.071,38.994 110.598 C 39.340 110.663,40.512 110.959,41.599 111.255 C 42.686 111.551,43.980 111.904,44.474 112.039 C 48.895 113.243,55.826 113.370,58.849 112.304 C 59.344 112.129,60.355 111.771,61.096 111.507 C 61.837 111.244,63.172 110.877,64.061 110.692 C 66.064 110.275,66.778 109.980,68.374 108.905 C 69.066 108.439,70.076 107.761,70.620 107.399 C 73.357 105.575,77.455 100.833,79.228 97.439 C 83.024 90.174,83.835 84.008,82.135 75.339 C 81.528 72.243,79.861 68.168,78.006 65.251 C 77.716 64.794,77.249 64.004,76.969 63.496 C 75.511 60.848,72.447 58.381,67.916 56.208 C 63.953 54.307,62.878 53.973,60.198 53.812 C 57.069 53.624,55.045 52.796,54.750 51.585 C 54.443 50.323,56.498 45.912,58.440 43.663 C 59.006 43.008,59.614 42.051,60.208 40.882 C 60.559 40.189,61.187 39.057,61.603 38.365 C 62.660 36.608,62.790 36.400,62.898 36.298 C 63.359 35.860,64.285 34.462,64.882 33.304 C 65.281 32.530,65.860 31.491,66.168 30.997 C 66.797 29.989,68.104 26.881,68.104 26.394 C 68.104 26.220,68.182 26.029,68.277 25.970 C 68.826 25.631,67.766 24.424,66.577 24.033 C 64.510 23.354,54.063 23.083,50.846 23.626 M205.254 35.038 C 204.668 35.977,205.162 37.316,206.549 38.547 C 207.103 39.040,207.916 39.873,208.354 40.399 C 209.222 41.440,210.256 42.228,210.754 42.228 C 210.927 42.228,211.153 42.312,211.255 42.414 C 211.357 42.516,211.575 42.548,211.740 42.484 C 212.705 42.114,211.340 39.384,209.704 38.411 C 208.795 37.871,208.682 37.729,208.304 36.656 C 207.701 34.942,205.908 33.991,205.254 35.038 M273.615 44.684 C 273.179 45.119,273.830 45.822,274.668 45.822 C 275.063 45.822,275.362 45.135,275.103 44.822 C 274.886 44.561,273.835 44.464,273.615 44.684 M213.689 51.078 C 213.761 51.587,214.559 51.722,214.984 51.298 C 215.399 50.882,215.188 50.674,214.352 50.674 C 213.708 50.674,213.638 50.717,213.689 51.078 M169.858 52.248 C 169.538 52.618,169.013 53.241,168.690 53.634 C 168.368 54.026,167.812 54.673,167.455 55.071 C 166.532 56.101,166.059 57.991,166.635 58.347 C 167.399 58.819,168.714 57.595,169.721 55.473 C 170.074 54.730,170.481 54.024,170.626 53.903 C 170.967 53.620,171.002 51.571,170.665 51.574 C 170.541 51.575,170.178 51.878,169.858 52.248 M236.300 62.439 C 236.094 62.981,236.361 64.096,236.788 64.475 C 236.978 64.643,237.275 65.022,237.449 65.319 C 237.624 65.615,238.042 65.998,238.379 66.168 L 238.992 66.479 239.263 65.832 C 239.804 64.536,239.362 62.893,238.472 62.893 C 238.298 62.893,237.773 62.699,237.306 62.462 L 236.455 62.032 236.300 62.439 M301.606 63.657 C 301.157 63.885,300.731 64.292,300.502 64.712 L 300.127 65.395 301.048 65.986 L 301.968 66.577 306.555 66.615 C 311.543 66.656,311.648 66.640,311.486 65.833 C 311.394 65.370,311.238 65.245,310.396 64.959 C 309.784 64.751,309.217 64.400,308.890 64.029 C 308.175 63.214,307.499 63.224,306.637 64.061 C 305.783 64.890,304.871 64.930,304.004 64.177 C 302.843 63.168,302.648 63.126,301.606 63.657 M55.048 69.176 C 58.074 69.980,58.724 70.367,61.069 72.761 C 64.247 76.004,64.540 76.790,64.564 82.120 C 64.586 87.157,64.198 88.298,61.723 90.476 C 61.049 91.069,60.168 91.864,59.764 92.241 C 56.645 95.161,50.040 96.049,46.900 93.972 C 46.653 93.808,45.991 93.369,45.428 92.996 C 41.653 90.492,39.086 85.608,39.535 81.783 C 40.390 74.493,43.309 70.401,48.518 69.188 C 49.456 68.969,50.305 68.764,50.404 68.731 C 51.120 68.495,53.253 68.699,55.048 69.176 M278.831 70.034 C 277.483 70.172,277.913 71.291,279.545 71.892 C 280.904 72.393,281.045 72.382,281.375 71.754 C 281.664 71.206,281.015 70.081,280.410 70.081 C 280.181 70.081,279.886 70.055,279.754 70.022 C 279.623 69.990,279.207 69.995,278.831 70.034 M273.331 70.653 C 273.079 71.377,273.289 71.539,274.394 71.475 C 275.189 71.429,275.203 71.417,275.258 70.755 L 275.314 70.081 274.422 70.081 C 273.581 70.081,273.519 70.114,273.331 70.653 M262.063 71.132 C 260.768 71.529,260.454 73.130,261.382 74.600 C 261.959 75.513,262.577 75.573,263.500 74.808 C 263.955 74.430,264.548 74.158,265.207 74.022 C 266.478 73.761,266.728 73.627,267.212 72.948 C 267.676 72.296,267.444 71.391,266.779 71.258 C 266.048 71.112,262.441 71.016,262.063 71.132 M286.526 74.818 C 286.299 74.984,286.262 75.097,286.406 75.185 C 286.520 75.256,286.613 75.511,286.613 75.752 C 286.613 76.071,286.711 76.190,286.972 76.190 C 287.261 76.190,287.332 76.071,287.332 75.584 C 287.332 74.816,286.982 74.485,286.526 74.818 M288.975 79.484 C 288.548 79.998,289.120 80.863,289.887 80.863 C 290.855 80.863,290.957 79.548,290.004 79.358 C 289.244 79.205,289.201 79.211,288.975 79.484 M269.137 106.147 C 269.360 106.189,269.724 106.189,269.946 106.147 C 270.168 106.104,269.987 106.069,269.542 106.069 C 269.097 106.069,268.915 106.104,269.137 106.147 M325.019 110.827 C 324.749 111.355,324.909 112.146,325.318 112.302 C 325.558 112.393,326.008 112.836,326.318 113.287 C 326.628 113.737,326.957 114.106,327.049 114.106 C 327.673 114.106,328.113 111.600,327.598 110.979 C 327.349 110.679,325.162 110.550,325.019 110.827 M226.588 116.540 C 226.387 116.782,226.390 116.855,226.606 116.992 C 227.056 117.277,227.342 117.183,227.281 116.771 C 227.208 116.272,226.896 116.169,226.588 116.540 M40.584 119.555 C 36.878 120.604,37.044 126.131,40.838 128.022 C 43.651 129.424,45.827 127.354,45.818 123.283 C 45.810 119.918,43.959 118.599,40.584 119.555 M297.071 128.697 C 296.704 129.064,296.810 130.094,297.251 130.451 C 298.029 131.081,299.286 130.390,299.040 129.468 C 298.823 128.656,297.594 128.175,297.071 128.697 M22.731 130.756 C 18.095 131.501,14.403 134.195,13.312 137.628 C 12.010 141.723,16.715 148.719,21.117 149.236 C 22.657 149.417,23.540 150.043,23.540 150.952 C 23.540 151.931,22.543 152.115,21.271 151.370 C 17.179 148.972,11.834 153.712,14.911 157.009 C 16.536 158.749,25.736 159.237,29.200 157.766 C 30.328 157.287,34.139 153.318,34.143 152.618 C 34.143 152.537,34.345 152.073,34.592 151.587 C 35.259 150.272,35.185 149.599,34.138 147.475 C 33.081 145.329,32.772 145.037,30.068 143.634 C 26.918 142.000,26.382 141.744,25.247 141.331 C 23.101 140.551,23.346 138.369,25.532 138.794 C 28.544 139.380,30.021 138.851,30.971 136.843 C 31.714 135.275,31.440 133.882,30.155 132.693 C 28.840 131.477,24.803 130.423,22.731 130.756 M41.240 131.525 C 38.525 132.189,37.909 133.621,37.835 139.449 C 37.808 141.600,37.713 143.104,37.590 143.333 C 37.322 143.834,36.771 146.534,36.358 149.374 C 36.295 149.807,36.364 150.269,36.549 150.659 C 36.707 150.993,36.837 151.347,36.837 151.444 C 36.837 151.542,37.029 152.217,37.263 152.945 C 37.497 153.672,37.835 154.777,38.013 155.400 C 38.548 157.268,40.016 158.131,42.657 158.131 C 45.605 158.131,46.064 157.221,46.004 151.482 C 45.986 149.753,45.957 145.225,45.940 141.420 C 45.906 133.961,45.811 133.132,44.875 132.120 C 44.248 131.442,42.650 131.181,41.240 131.525 M52.449 131.805 C 50.409 132.463,50.917 134.895,53.894 138.724 C 54.574 139.598,54.933 140.356,55.558 142.228 C 56.187 144.112,56.169 144.359,55.253 146.566 C 53.929 149.754,53.373 150.677,51.662 152.529 C 49.616 154.743,49.215 157.115,50.763 157.849 C 51.431 158.166,55.883 158.260,56.637 157.973 C 57.166 157.771,59.441 155.452,59.970 154.576 C 61.378 152.243,63.375 151.737,64.390 153.456 C 64.857 154.246,68.155 157.516,68.728 157.756 C 69.698 158.163,72.280 158.222,73.592 157.866 C 75.486 157.354,75.707 156.243,74.464 153.499 C 74.228 152.977,74.032 152.492,74.030 152.421 C 74.027 152.349,73.643 151.831,73.176 151.269 C 72.709 150.707,72.167 149.938,71.972 149.562 C 71.776 149.185,71.361 148.498,71.049 148.034 C 69.010 145.001,69.019 142.427,71.078 139.173 C 74.456 133.837,74.419 131.927,70.930 131.576 C 68.683 131.350,65.328 133.003,64.353 134.817 C 63.490 136.422,61.153 135.889,60.095 133.847 C 59.184 132.088,55.020 130.977,52.449 131.805 M313.720 138.863 C 312.856 138.974,311.903 140.472,312.176 141.290 C 312.433 142.061,313.118 141.588,313.850 140.135 C 314.493 138.858,314.483 138.764,313.720 138.863 " stroke="none" fill="#e8fad8" fill-rule="evenodd"></path><path id="path2" d="M0.000 89.847 L 0.000 179.695 200.000 179.695 L 400.000 179.695 400.000 89.847 L 400.000 0.000 200.000 0.000 L 0.000 0.000 0.000 89.847 M249.596 9.898 C 251.918 9.909,255.557 9.859,257.682 9.787 C 261.762 9.649,263.253 9.771,265.191 10.402 C 265.756 10.586,266.581 10.839,267.026 10.964 C 272.887 12.612,274.562 14.572,273.705 18.778 C 273.604 19.272,273.398 20.364,273.246 21.204 C 273.095 22.044,272.726 23.621,272.428 24.708 C 271.188 29.221,271.117 29.621,271.093 32.283 C 271.080 33.682,271.114 34.873,271.169 34.928 C 271.322 35.085,272.584 34.439,272.591 34.200 C 272.594 34.083,272.698 33.881,272.821 33.750 C 273.567 32.962,274.204 31.239,274.664 28.763 C 275.390 24.860,275.744 24.224,278.347 22.129 C 278.792 21.771,279.699 20.983,280.364 20.378 C 282.773 18.183,285.611 18.395,288.679 21.000 C 290.453 22.505,291.518 23.276,292.183 23.535 C 293.683 24.120,294.615 24.865,297.673 27.928 C 299.457 29.715,301.357 31.539,301.896 31.981 C 303.338 33.165,303.539 33.353,305.351 35.220 C 306.262 36.159,307.965 37.892,309.134 39.070 C 312.023 41.983,313.204 43.381,313.839 44.640 C 314.401 45.754,315.564 47.041,317.508 48.700 C 320.196 50.994,320.340 51.164,321.354 53.252 C 322.407 55.421,322.785 56.797,323.082 59.536 C 323.285 61.417,323.483 61.923,325.133 64.780 C 325.590 65.571,325.964 66.280,325.965 66.356 C 325.965 66.432,326.153 66.796,326.381 67.164 C 326.942 68.069,327.548 70.000,327.766 71.573 C 327.865 72.284,328.023 73.270,328.119 73.765 C 328.666 76.601,328.870 77.896,328.945 78.999 C 328.990 79.678,329.156 80.678,329.312 81.222 C 330.400 85.009,328.561 86.498,322.685 86.589 C 319.887 86.632,317.879 86.805,315.827 87.179 C 313.647 87.576,310.558 87.654,309.046 87.351 C 307.337 87.007,302.070 86.781,298.293 86.888 C 296.267 86.945,293.760 86.927,292.722 86.847 C 290.839 86.703,290.196 86.747,288.500 87.136 C 288.005 87.250,287.318 87.384,286.972 87.434 C 286.437 87.511,285.910 87.623,285.310 87.789 C 285.236 87.809,285.078 87.836,284.960 87.848 C 284.181 87.929,285.375 88.224,286.882 88.323 C 288.186 88.409,288.926 88.555,289.578 88.854 C 290.975 89.496,291.358 89.531,294.352 89.291 C 297.164 89.065,298.221 89.127,300.629 89.657 C 301.747 89.904,307.274 89.902,309.576 89.654 C 311.643 89.431,312.440 89.507,316.262 90.289 C 319.275 90.906,320.443 91.075,322.552 91.202 C 326.346 91.428,328.791 92.151,329.944 93.386 C 331.552 95.110,331.360 99.541,329.460 104.492 C 328.013 108.267,327.283 110.674,327.516 110.908 C 328.029 111.421,327.903 113.264,327.314 113.853 C 327.026 114.140,326.862 114.509,326.858 114.878 C 326.830 117.445,326.063 120.000,324.734 121.959 C 323.950 123.114,323.822 123.443,323.550 125.014 C 323.016 128.087,321.369 131.404,319.342 133.490 C 318.886 133.959,317.444 135.672,317.071 136.187 C 316.972 136.324,316.314 137.051,315.609 137.804 C 314.899 138.562,314.078 139.669,313.771 140.283 C 313.440 140.945,313.064 141.441,312.840 141.512 C 312.633 141.578,312.173 142.089,311.818 142.649 C 311.463 143.208,311.114 143.706,311.043 143.756 C 310.971 143.805,310.348 144.782,309.657 145.927 C 306.989 150.350,304.882 152.586,301.981 154.073 C 300.902 154.627,299.975 155.145,299.920 155.224 C 299.865 155.304,299.362 155.671,298.802 156.039 C 297.651 156.796,295.964 158.542,294.666 160.320 C 293.114 162.447,289.941 162.487,287.152 160.415 C 285.468 159.165,285.076 158.476,284.741 156.185 C 284.592 155.163,283.940 153.907,283.082 152.988 C 280.927 150.679,280.461 150.145,280.303 149.798 C 279.798 148.693,277.777 145.908,276.522 144.587 C 275.844 143.874,275.667 143.475,274.876 140.881 C 274.621 140.040,274.285 138.945,274.131 138.447 C 273.864 137.584,272.837 136.018,271.999 135.197 C 270.880 134.101,270.706 133.712,270.317 131.449 C 269.831 128.624,268.698 125.981,267.444 124.746 C 267.214 124.519,267.026 124.277,267.026 124.207 C 267.026 124.136,266.828 123.849,266.586 123.568 C 266.344 123.287,265.965 122.447,265.744 121.701 C 265.383 120.485,265.211 120.209,264.069 119.026 C 262.248 117.139,260.977 117.325,262.007 119.328 C 262.086 119.483,262.272 120.133,262.421 120.773 C 262.701 121.981,263.850 123.953,264.646 124.590 C 265.462 125.244,266.055 126.753,266.293 128.777 C 266.468 130.270,267.081 131.688,267.992 132.704 C 268.347 133.100,268.638 133.490,268.640 133.571 C 268.644 133.764,269.115 134.232,269.306 134.232 C 269.806 134.232,270.612 136.294,270.990 138.544 C 271.236 140.007,271.636 140.874,272.911 142.710 C 273.232 143.172,273.495 143.640,273.495 143.749 C 273.495 143.858,273.623 143.996,273.780 144.056 C 274.333 144.268,275.292 146.647,275.294 147.814 C 275.298 150.019,276.320 151.618,278.809 153.310 C 279.668 153.895,280.138 155.021,280.444 157.226 C 280.588 158.267,280.822 159.342,280.964 159.614 C 281.106 159.885,281.354 160.359,281.515 160.667 C 281.728 161.075,281.781 161.499,281.710 162.239 C 281.472 164.710,280.429 165.488,275.530 166.850 C 272.679 167.642,271.602 168.002,270.821 168.425 C 269.710 169.026,268.289 169.377,264.420 170.005 C 263.729 170.118,262.354 170.397,261.366 170.625 C 260.377 170.853,258.801 171.172,257.862 171.332 C 256.923 171.493,255.710 171.704,255.166 171.801 C 253.187 172.153,249.402 172.381,244.769 172.425 C 242.164 172.450,239.617 172.520,239.109 172.580 C 237.631 172.756,231.634 172.142,228.841 171.529 C 227.754 171.290,226.137 170.998,225.247 170.879 C 222.448 170.506,218.298 169.485,216.801 168.803 C 216.307 168.578,215.375 168.167,214.730 167.890 C 210.931 166.257,209.590 164.418,211.034 162.822 C 211.550 162.252,212.431 159.679,212.754 157.799 C 212.935 156.746,213.190 155.642,213.321 155.346 C 213.578 154.763,214.721 152.887,214.909 152.740 C 214.972 152.691,215.194 152.165,215.402 151.572 C 215.610 150.979,216.075 149.829,216.436 149.017 C 217.252 147.177,217.346 145.851,216.694 145.360 C 216.041 144.867,215.232 145.527,213.709 147.799 C 213.245 148.491,212.814 149.097,212.751 149.146 C 212.257 149.533,211.377 151.151,210.666 152.983 C 210.199 154.184,209.646 155.449,209.436 155.795 C 209.226 156.141,208.906 156.828,208.725 157.323 C 208.543 157.817,208.336 158.302,208.265 158.401 C 208.193 158.500,207.920 158.970,207.658 159.446 C 206.068 162.334,203.708 164.133,201.569 164.086 C 200.092 164.054,196.203 161.799,194.971 160.261 C 193.769 158.761,193.242 158.432,191.144 157.874 C 190.134 157.605,189.734 157.376,188.805 156.533 C 188.188 155.974,187.362 155.277,186.968 154.983 C 186.575 154.690,186.213 154.407,186.164 154.354 C 186.114 154.301,185.710 153.980,185.265 153.640 C 183.772 152.499,180.773 149.328,180.773 148.890 C 180.773 148.703,179.972 147.827,177.808 145.642 C 176.622 144.445,175.409 143.149,175.112 142.762 C 174.430 141.872,172.810 140.005,171.607 138.724 C 170.783 137.847,168.194 133.120,168.194 132.494 C 168.194 132.353,167.253 130.442,165.864 127.763 C 165.685 127.417,165.307 126.649,165.024 126.056 C 164.742 125.463,164.114 124.332,163.629 123.543 C 162.274 121.339,161.208 119.001,160.709 117.142 C 160.460 116.213,160.190 115.211,160.110 114.915 C 159.966 114.380,159.771 113.811,157.956 108.625 C 156.501 104.469,156.283 103.042,156.665 100.180 C 156.731 99.686,156.679 98.270,156.550 97.035 C 156.212 93.819,156.391 92.365,157.234 91.480 C 157.537 91.162,160.006 89.990,161.366 89.519 C 162.024 89.291,165.788 89.520,168.284 89.940 C 171.160 90.423,171.433 90.413,173.675 89.735 C 175.126 89.296,179.181 89.323,181.132 89.784 C 181.873 89.959,183.005 90.087,183.648 90.069 C 188.528 89.927,197.267 90.079,197.930 90.317 C 201.360 91.554,202.751 91.684,203.758 90.863 C 203.928 90.724,204.812 90.671,206.453 90.703 C 208.478 90.742,209.110 90.687,210.153 90.383 C 213.153 89.508,216.641 89.063,218.133 89.366 C 219.869 89.718,222.869 89.922,226.415 89.931 C 228.947 89.937,229.276 89.975,230.035 90.348 C 230.559 90.607,231.479 90.828,232.504 90.942 C 233.403 91.043,234.362 91.241,234.634 91.383 C 234.907 91.526,235.292 91.646,235.490 91.652 C 235.687 91.657,236.132 91.817,236.478 92.007 C 236.824 92.198,237.228 92.402,237.376 92.462 C 238.611 92.960,238.981 95.130,238.220 97.412 C 237.976 98.144,237.642 99.187,237.479 99.730 C 237.000 101.325,236.458 102.242,235.290 103.441 C 234.204 104.555,234.190 104.581,234.095 105.788 C 234.028 106.623,233.832 107.348,233.470 108.086 C 233.180 108.679,232.675 109.751,232.347 110.467 C 232.020 111.184,231.684 111.770,231.600 111.770 C 231.515 111.770,231.447 111.863,231.447 111.976 C 231.447 112.260,230.352 113.573,228.794 115.158 C 227.322 116.656,227.356 116.566,227.263 119.159 C 227.190 121.216,226.903 122.061,225.901 123.181 C 224.673 124.553,223.744 126.484,222.830 129.561 C 222.164 131.802,221.723 132.709,220.834 133.666 C 219.006 135.632,218.048 139.533,218.865 141.682 C 219.551 143.487,221.647 141.076,222.609 137.376 C 222.997 135.885,223.503 134.748,224.237 133.721 C 224.472 133.392,224.892 132.584,225.169 131.925 C 225.447 131.267,226.030 130.323,226.465 129.829 C 227.313 128.866,227.599 128.196,227.766 126.774 C 227.889 125.730,228.183 124.888,228.425 124.888 C 229.288 124.888,232.152 121.120,232.522 119.497 C 233.219 116.444,233.639 115.587,234.760 114.930 C 235.993 114.208,236.596 112.478,237.022 108.446 C 237.262 106.179,237.251 106.200,239.017 104.400 C 240.748 102.635,241.250 101.613,241.619 99.100 C 242.049 96.174,242.421 95.298,243.294 95.150 C 244.861 94.886,246.090 95.670,246.847 97.417 C 247.169 98.159,249.067 100.066,249.674 100.257 C 251.880 100.950,251.879 100.953,250.226 96.496 C 249.724 95.145,249.594 94.100,249.822 93.261 C 249.889 93.014,250.015 92.529,250.102 92.183 C 250.792 89.442,252.668 88.698,258.940 88.676 C 265.435 88.653,266.068 88.513,265.969 87.121 C 265.937 86.674,264.186 86.553,261.186 86.792 C 256.930 87.131,256.726 87.133,255.615 86.862 C 252.576 86.119,252.036 85.410,251.825 81.889 C 251.676 79.388,251.605 79.539,254.074 77.089 C 255.626 75.550,255.854 75.237,256.391 73.903 C 256.975 72.452,257.270 72.094,258.375 71.486 C 259.003 71.142,259.480 70.168,259.352 69.496 C 259.304 69.245,259.437 68.364,259.649 67.539 C 260.346 64.816,260.360 61.918,259.681 61.079 L 259.364 60.687 258.556 61.476 C 258.112 61.909,257.535 62.709,257.275 63.252 C 256.821 64.200,256.683 64.793,256.231 67.713 C 256.014 69.117,255.744 69.479,253.266 71.702 C 252.255 72.609,252.076 73.014,251.821 74.976 C 251.550 77.056,251.363 77.354,249.192 79.172 C 247.536 80.558,247.284 80.820,246.612 81.854 C 245.413 83.698,243.082 83.779,241.908 82.017 C 241.279 81.075,240.886 80.551,239.913 79.360 C 239.579 78.951,239.216 78.414,239.106 78.167 C 238.996 77.920,238.758 77.556,238.575 77.358 C 237.862 76.583,237.368 75.471,237.079 73.985 C 236.778 72.439,236.772 72.429,235.711 71.491 C 235.125 70.972,234.574 70.362,234.488 70.135 C 234.273 69.571,233.819 69.614,233.651 70.216 C 233.102 72.179,234.218 76.194,235.456 76.705 C 236.132 76.985,236.793 77.871,236.975 78.743 C 238.500 86.032,237.141 87.142,227.673 86.343 C 226.044 86.206,223.642 86.204,221.972 86.338 C 220.707 86.440,219.644 86.416,218.558 86.261 C 217.218 86.069,216.535 86.080,214.016 86.335 C 212.385 86.500,209.838 86.645,208.356 86.657 C 203.837 86.694,194.429 86.507,192.860 86.349 C 191.889 86.252,190.838 86.274,189.805 86.415 C 188.481 86.596,185.037 86.838,180.610 87.062 C 180.076 87.089,179.389 87.037,179.083 86.947 C 178.777 86.857,175.130 86.739,170.979 86.685 C 162.051 86.568,162.029 86.565,160.553 85.041 C 158.543 82.966,158.333 81.753,159.303 77.808 C 159.558 76.770,159.928 75.153,160.124 74.214 C 160.852 70.735,161.380 69.140,162.734 66.336 C 163.481 64.788,164.277 63.118,164.503 62.624 C 164.729 62.129,165.279 60.977,165.726 60.064 C 166.357 58.771,166.519 58.263,166.453 57.774 C 166.334 56.892,166.696 55.917,167.455 55.075 C 167.812 54.680,168.387 54.002,168.733 53.571 C 169.690 52.376,170.464 51.572,170.656 51.572 C 170.837 51.572,170.919 51.425,171.700 49.707 C 171.964 49.125,172.497 48.133,172.883 47.502 C 173.269 46.871,173.585 46.306,173.585 46.247 C 173.585 45.769,175.575 43.280,176.497 42.604 C 177.874 41.594,179.027 40.126,179.535 38.736 C 180.311 36.612,181.023 35.586,182.267 34.798 C 183.082 34.282,183.447 33.962,185.170 32.255 C 186.068 31.366,187.153 30.436,187.582 30.189 C 188.010 29.942,189.221 29.103,190.272 28.325 C 193.406 26.005,194.978 25.080,197.209 24.245 C 197.772 24.035,198.629 23.510,199.114 23.080 C 200.837 21.550,203.155 21.737,203.497 23.433 C 204.038 26.114,204.384 26.827,205.788 28.153 C 207.576 29.843,207.683 29.993,207.554 30.636 C 207.009 33.350,208.154 37.492,209.704 38.412 C 210.846 39.090,212.040 40.810,212.040 41.778 C 212.040 42.395,212.532 42.861,213.657 43.305 C 214.316 43.566,215.320 44.237,215.865 44.782 C 216.606 45.523,217.340 45.216,217.670 44.028 C 218.376 41.491,217.883 39.930,215.790 38.075 C 214.356 36.804,214.002 36.204,213.582 34.343 C 213.175 32.540,212.909 32.095,211.812 31.380 C 210.576 30.575,208.653 28.679,208.553 28.167 C 208.510 27.945,208.379 27.035,208.263 26.146 C 208.117 25.027,207.922 24.327,207.632 23.877 C 206.396 21.959,206.827 20.306,208.916 18.962 C 209.653 18.488,210.532 17.880,210.869 17.612 C 211.521 17.094,212.761 16.442,214.367 15.772 C 214.906 15.548,216.469 14.815,217.840 14.144 C 220.666 12.761,221.683 12.492,223.018 12.779 C 223.958 12.980,224.629 12.918,229.111 12.208 C 231.089 11.895,232.278 11.565,235.199 10.519 C 237.136 9.825,238.162 9.716,241.959 9.802 C 243.836 9.844,247.273 9.887,249.596 9.898 M64.061 23.550 C 65.852 23.758,67.326 24.180,67.757 24.608 C 68.170 25.018,68.485 25.842,68.277 25.970 C 68.182 26.029,68.104 26.220,68.104 26.394 C 68.104 26.881,66.797 29.989,66.168 30.997 C 65.860 31.491,65.281 32.530,64.882 33.304 C 64.285 34.462,63.359 35.860,62.898 36.298 C 62.790 36.400,62.660 36.608,61.603 38.365 C 61.187 39.057,60.559 40.189,60.208 40.882 C 59.614 42.051,59.006 43.008,58.440 43.663 C 56.498 45.912,54.443 50.323,54.750 51.585 C 55.045 52.796,57.069 53.624,60.198 53.812 C 62.878 53.973,63.953 54.307,67.916 56.208 C 72.447 58.381,75.511 60.848,76.969 63.496 C 77.249 64.004,77.716 64.794,78.006 65.251 C 79.101 66.974,81.261 71.626,81.602 72.998 C 84.003 82.642,83.328 89.593,79.228 97.439 C 77.455 100.833,73.357 105.575,70.620 107.399 C 70.076 107.761,69.066 108.439,68.374 108.905 C 66.778 109.980,66.064 110.275,64.061 110.692 C 63.172 110.877,61.837 111.244,61.096 111.507 C 60.355 111.771,59.344 112.129,58.849 112.304 C 55.826 113.370,48.895 113.243,44.474 112.039 C 43.980 111.904,42.686 111.551,41.599 111.255 C 40.512 110.959,39.340 110.663,38.994 110.598 C 34.351 109.720,26.948 103.012,24.168 97.163 C 21.598 91.757,21.114 89.344,21.114 81.941 C 21.114 74.727,21.391 72.523,22.726 69.093 C 22.996 68.401,23.531 66.945,23.916 65.858 C 24.302 64.771,24.931 63.194,25.315 62.354 C 25.699 61.514,26.178 60.453,26.379 59.997 C 26.581 59.541,27.099 58.733,27.529 58.201 C 28.933 56.466,30.316 54.386,31.040 52.919 C 31.430 52.129,32.167 50.802,32.676 49.970 C 33.186 49.139,33.603 48.391,33.603 48.309 C 33.603 48.227,33.987 47.613,34.457 46.946 C 34.926 46.278,35.552 45.207,35.847 44.564 C 36.142 43.922,36.682 42.983,37.047 42.478 C 37.412 41.973,37.839 41.252,37.996 40.876 C 38.153 40.500,38.715 39.538,39.244 38.739 C 39.773 37.940,40.388 36.923,40.610 36.478 C 40.831 36.033,41.558 34.901,42.225 33.962 C 43.833 31.697,44.816 30.071,45.102 29.205 C 45.514 27.957,46.143 26.890,47.067 25.876 C 47.561 25.332,47.969 24.829,47.972 24.757 C 48.025 23.631,58.204 22.867,64.061 23.550 M268.367 39.083 C 267.376 40.631,266.736 43.983,267.357 44.367 C 267.694 44.575,268.948 43.893,269.458 43.225 C 270.045 42.455,270.524 38.644,270.092 38.173 C 269.765 37.815,268.879 38.282,268.367 39.083 M218.256 46.763 C 217.836 47.410,217.813 50.987,218.225 51.616 C 218.822 52.527,221.276 53.197,221.982 52.643 C 223.062 51.793,221.376 48.349,219.103 46.763 L 218.520 46.356 218.256 46.763 M264.690 47.427 C 262.314 48.518,261.464 50.389,261.462 54.537 C 261.461 56.266,261.557 56.467,262.319 56.314 C 263.038 56.170,264.026 55.066,264.624 53.736 C 264.870 53.188,265.145 52.604,265.235 52.437 C 265.463 52.013,265.657 47.969,265.472 47.514 C 265.325 47.153,265.295 47.149,264.690 47.427 M224.565 55.639 C 224.358 55.845,224.626 56.065,225.086 56.065 C 225.347 56.065,225.514 56.158,225.487 56.289 C 225.392 56.765,225.712 57.588,225.886 57.313 C 226.342 56.591,225.139 55.065,224.565 55.639 M228.976 62.263 C 228.482 62.824,228.931 64.723,229.679 65.238 C 229.887 65.381,230.192 65.639,230.358 65.810 C 230.845 66.315,231.512 65.760,231.345 64.987 C 231.141 64.035,229.573 61.839,229.215 62.001 C 229.207 62.005,229.099 62.123,228.976 62.263 M50.404 68.731 C 50.305 68.764,49.456 68.969,48.518 69.188 C 43.309 70.401,40.390 74.493,39.535 81.783 C 39.086 85.608,41.653 90.492,45.428 92.996 C 45.991 93.369,46.653 93.808,46.900 93.972 C 50.040 96.049,56.645 95.161,59.764 92.241 C 60.168 91.864,61.049 91.069,61.723 90.476 C 64.198 88.298,64.586 87.157,64.564 82.120 C 64.540 76.790,64.247 76.004,61.069 72.761 C 58.124 69.755,53.079 67.849,50.404 68.731 M279.784 87.864 L 279.335 87.981 279.784 88.103 C 280.453 88.285,282.350 88.250,282.659 88.050 C 282.936 87.871,282.840 87.856,280.952 87.777 C 280.557 87.760,280.031 87.799,279.784 87.864 M251.579 101.123 C 251.609 103.466,252.732 105.577,255.301 108.119 C 255.919 108.730,256.424 109.378,256.424 109.558 C 256.424 109.957,257.941 112.976,258.394 113.477 C 258.572 113.675,258.851 114.099,259.013 114.420 C 259.176 114.742,259.412 115.004,259.539 115.004 C 259.667 115.004,259.943 115.165,260.154 115.362 C 261.374 116.499,260.472 111.843,259.170 110.287 C 258.820 109.867,258.447 109.322,258.343 109.075 C 258.238 108.827,258.012 108.464,257.840 108.266 C 257.309 107.654,256.451 105.881,256.073 104.609 C 255.705 103.373,253.632 100.988,252.925 100.988 C 252.786 100.988,252.622 100.907,252.561 100.809 C 252.296 100.381,251.572 100.613,251.579 101.123 M44.538 119.776 C 46.200 120.618,46.349 125.551,44.765 127.291 C 41.570 130.802,36.248 125.533,38.482 121.072 C 39.266 119.508,42.602 118.794,44.538 119.776 M27.044 131.243 C 30.903 132.404,32.198 134.251,30.971 136.843 C 30.021 138.851,28.544 139.380,25.532 138.794 C 23.346 138.369,23.101 140.551,25.247 141.331 C 26.382 141.744,26.918 142.000,30.068 143.634 C 33.972 145.659,35.889 149.030,34.592 151.587 C 34.345 152.073,34.143 152.537,34.143 152.618 C 34.139 153.318,30.328 157.287,29.200 157.766 C 25.736 159.237,16.536 158.749,14.911 157.009 C 11.834 153.712,17.179 148.972,21.271 151.370 C 22.543 152.115,23.540 151.931,23.540 150.952 C 23.540 150.043,22.657 149.417,21.117 149.236 C 19.660 149.065,18.647 148.511,17.029 147.000 C 10.604 141.000,12.324 133.736,20.755 131.264 C 23.266 130.528,24.653 130.523,27.044 131.243 M43.859 131.537 C 45.715 132.053,45.901 132.937,45.940 141.420 C 45.957 145.225,45.986 149.753,46.004 151.482 C 46.064 157.221,45.605 158.131,42.657 158.131 C 40.016 158.131,38.548 157.268,38.013 155.400 C 37.835 154.777,37.497 153.672,37.263 152.945 C 37.029 152.217,36.837 151.542,36.837 151.444 C 36.837 151.347,36.707 150.993,36.549 150.659 C 36.364 150.269,36.295 149.807,36.358 149.374 C 36.771 146.534,37.322 143.834,37.590 143.333 C 37.713 143.104,37.808 141.600,37.835 139.449 C 37.884 135.564,38.057 134.366,38.733 133.212 C 39.576 131.774,41.935 131.003,43.859 131.537 M57.524 132.003 C 58.815 132.297,59.574 132.841,60.095 133.847 C 61.153 135.889,63.490 136.422,64.353 134.817 C 65.328 133.003,68.683 131.350,70.930 131.576 C 74.419 131.927,74.456 133.837,71.078 139.173 C 69.019 142.427,69.010 145.001,71.049 148.034 C 71.361 148.498,71.776 149.185,71.972 149.562 C 72.167 149.938,72.709 150.707,73.176 151.269 C 73.643 151.831,74.027 152.349,74.030 152.421 C 74.032 152.492,74.228 152.977,74.464 153.499 C 75.707 156.243,75.486 157.354,73.592 157.866 C 72.280 158.222,69.698 158.163,68.728 157.756 C 68.155 157.516,64.857 154.246,64.390 153.456 C 63.375 151.737,61.378 152.243,59.970 154.576 C 59.441 155.452,57.166 157.771,56.637 157.973 C 55.883 158.260,51.431 158.166,50.763 157.849 C 49.215 157.115,49.616 154.743,51.662 152.529 C 53.373 150.677,53.929 149.754,55.253 146.566 C 56.169 144.359,56.187 144.112,55.558 142.228 C 54.933 140.356,54.574 139.598,53.894 138.724 C 52.588 137.044,50.879 133.692,51.041 133.128 C 51.484 131.580,53.857 131.169,57.524 132.003 " stroke="none" fill="#66fb07" fill-rule="evenodd"></path></g></svg>