<svg id="svg" xmlns="http://www.w3.org/2000/svg" xmlns:xlink="http://www.w3.org/1999/xlink" width="400" height="173.09941520467834" viewBox="0, 0, 400,173.09941520467834"><g id="svgg"><path id="path0" d="M62.684 21.985 C 58.636 22.056,54.658 22.172,53.844 22.243 C 53.030 22.314,50.108 22.285,47.351 22.178 C 41.291 21.943,29.424 22.163,28.328 22.532 C 26.598 23.113,26.218 23.978,25.936 27.972 C 25.361 36.148,26.224 38.684,29.697 39.020 C 31.106 39.156,52.273 39.215,55.411 39.091 C 61.078 38.868,63.723 39.573,63.723 41.306 C 63.723 41.915,62.421 45.703,61.732 47.100 C 61.332 47.909,60.902 48.844,60.775 49.177 C 60.648 49.511,60.335 50.095,60.079 50.476 C 59.450 51.414,59.024 52.275,58.298 54.076 C 57.960 54.912,57.442 55.990,57.146 56.472 C 56.850 56.953,56.371 57.944,56.082 58.674 C 55.793 59.403,55.325 60.406,55.042 60.903 C 54.759 61.399,54.232 62.529,53.870 63.414 C 53.509 64.298,52.975 65.396,52.683 65.853 C 52.392 66.310,51.897 67.323,51.584 68.104 C 51.270 68.885,50.763 69.955,50.455 70.483 C 50.148 71.010,49.587 72.218,49.208 73.167 C 48.830 74.115,48.205 75.476,47.821 76.190 C 47.437 76.905,46.963 77.899,46.767 78.399 C 46.572 78.899,46.098 79.805,45.715 80.412 C 45.331 81.019,44.861 81.972,44.669 82.529 C 44.349 83.460,43.681 84.884,40.860 90.649 C 39.132 94.182,37.400 97.913,37.402 98.103 C 37.402 98.202,37.001 98.981,36.510 99.834 C 32.368 107.037,32.891 107.801,42.078 107.963 C 51.886 108.137,53.083 107.859,54.203 105.149 C 54.507 104.412,55.011 103.381,55.323 102.857 C 55.635 102.333,55.947 101.710,56.016 101.472 C 56.085 101.234,56.590 100.143,57.138 99.048 C 57.686 97.952,58.310 96.511,58.525 95.844 C 58.740 95.177,59.289 93.970,59.745 93.160 C 60.201 92.351,60.780 91.192,61.034 90.585 C 61.287 89.979,61.697 89.161,61.945 88.768 C 62.192 88.375,62.697 87.313,63.065 86.408 C 63.433 85.503,64.033 84.256,64.398 83.636 C 64.763 83.017,65.158 82.199,65.277 81.818 C 65.395 81.437,65.882 80.346,66.359 79.394 C 66.836 78.442,67.526 76.796,67.892 75.736 C 68.516 73.929,70.240 70.319,71.602 67.965 C 71.933 67.394,72.372 66.420,72.577 65.801 C 72.782 65.182,73.830 62.915,74.904 60.762 C 75.979 58.610,76.989 56.390,77.149 55.827 C 77.309 55.265,77.893 53.948,78.447 52.900 C 79.000 51.853,79.612 50.575,79.806 50.062 C 80.000 49.548,80.544 48.457,81.016 47.638 C 81.487 46.818,81.965 45.797,82.077 45.368 C 82.189 44.939,82.657 43.693,83.117 42.597 C 84.751 38.707,85.022 36.932,85.022 30.086 C 85.022 22.150,85.018 22.146,77.323 22.083 C 74.938 22.064,72.325 22.005,71.515 21.953 C 70.706 21.900,66.732 21.915,62.684 21.985 M101.299 127.343 C 99.659 127.962,96.654 129.406,96.110 129.837 C 95.773 130.105,95.030 130.606,94.459 130.951 C 92.156 132.344,91.436 133.510,90.741 136.970 C 89.584 142.727,90.641 147.493,93.645 150.063 C 98.243 153.996,99.642 154.563,104.412 154.431 C 109.783 154.283,113.591 150.247,111.004 147.446 C 108.978 145.253,109.116 144.463,111.602 144.035 C 114.459 143.542,114.896 142.865,114.881 138.961 C 114.870 135.865,114.722 135.121,113.894 133.973 C 110.920 129.855,108.411 128.122,104.416 127.427 C 102.258 127.051,102.085 127.047,101.299 127.343 M130.823 127.346 C 130.346 127.466,129.299 127.903,128.496 128.319 C 126.677 129.259,125.571 129.393,124.181 128.843 C 121.779 127.892,119.686 128.313,118.852 129.916 C 118.715 130.179,118.454 131.738,118.271 133.379 C 118.089 135.021,117.847 137.109,117.734 138.020 C 117.569 139.346,117.575 140.175,117.765 142.176 C 117.895 143.551,118.008 145.922,118.014 147.446 C 118.037 152.390,118.957 154.026,121.717 154.026 C 124.787 154.026,125.275 152.974,125.454 145.974 C 125.579 141.066,125.964 138.103,126.632 136.897 C 127.700 134.970,131.191 134.722,132.517 136.479 C 133.325 137.550,133.380 138.039,133.490 145.195 C 133.619 153.654,133.653 153.745,136.721 153.906 C 139.118 154.032,140.700 152.990,141.279 150.906 C 141.774 149.123,141.338 137.313,140.666 134.286 C 139.573 129.367,135.162 126.257,130.823 127.346 M25.887 127.550 C 23.565 128.105,19.330 130.719,18.669 132.006 C 17.780 133.737,17.755 137.367,18.616 139.520 C 19.301 141.231,22.081 143.109,26.926 145.131 C 30.053 146.437,28.512 148.102,24.773 147.457 C 22.187 147.011,21.150 147.149,20.005 148.093 C 17.456 150.194,18.846 153.269,22.776 154.219 C 25.225 154.810,30.937 154.456,32.557 153.612 C 33.351 153.198,35.150 151.881,35.154 151.711 C 35.155 151.651,35.582 151.101,36.103 150.489 C 37.164 149.240,37.473 148.465,37.763 146.320 C 37.873 145.511,37.999 144.610,38.044 144.318 C 38.167 143.515,37.800 142.389,37.300 142.038 C 37.059 141.870,36.458 141.422,35.964 141.044 C 34.030 139.563,32.159 138.528,30.486 138.012 C 29.207 137.617,28.690 137.363,28.257 136.916 C 26.592 135.198,28.313 133.358,30.390 134.637 C 32.847 136.150,36.342 132.257,34.799 129.726 C 34.422 129.109,32.491 128.095,30.650 127.549 C 29.510 127.210,27.307 127.211,25.887 127.550 M51.515 127.441 C 49.101 127.807,45.941 128.982,44.755 129.953 C 44.359 130.278,43.653 130.833,43.186 131.187 C 42.325 131.841,42.015 132.152,40.928 133.454 C 39.407 135.273,37.875 142.966,38.786 144.206 C 38.976 144.464,39.277 145.233,39.455 145.915 C 40.099 148.380,41.489 149.775,46.962 153.453 C 48.695 154.617,55.220 154.847,57.217 153.814 C 58.606 153.096,60.283 151.027,60.505 149.756 C 60.845 147.811,57.800 145.518,56.229 146.536 C 52.839 148.734,48.411 148.017,49.073 145.378 C 49.341 144.311,51.739 143.740,54.872 143.997 C 58.507 144.295,59.665 144.212,61.126 143.549 C 63.396 142.518,63.892 141.890,63.900 140.040 C 63.904 139.141,64.362 137.823,64.755 137.580 C 65.393 137.186,67.073 139.896,67.720 142.364 C 68.037 143.574,68.440 144.626,68.824 145.251 C 69.157 145.791,69.731 146.974,70.100 147.879 C 70.899 149.838,72.790 152.980,73.476 153.490 C 74.308 154.107,78.397 154.032,79.507 153.379 C 80.526 152.780,81.278 151.836,81.617 150.732 C 81.763 150.258,82.049 149.325,82.253 148.658 C 83.044 146.074,84.667 142.154,85.802 140.087 C 86.037 139.658,86.389 138.762,86.584 138.095 C 87.217 135.926,87.833 134.126,88.174 133.448 C 88.545 132.709,88.767 130.766,88.589 129.816 C 88.415 128.888,87.619 128.468,85.820 128.356 C 83.395 128.205,82.494 128.701,81.892 130.521 C 81.563 131.516,80.428 134.354,78.911 137.969 C 77.960 140.238,76.412 141.639,75.601 140.966 C 75.059 140.516,73.229 136.476,72.889 134.978 C 72.162 131.774,71.990 131.250,71.366 130.357 C 69.432 127.589,64.941 127.519,63.267 130.231 C 62.465 131.530,61.996 131.591,60.644 130.576 C 57.332 128.087,54.246 127.027,51.515 127.441 M103.849 133.776 C 104.929 134.219,105.592 135.951,104.991 136.757 C 104.115 137.930,100.384 138.047,99.800 136.918 C 98.764 134.915,101.483 132.804,103.849 133.776 M52.918 133.864 C 55.582 134.841,54.812 137.835,51.896 137.835 C 48.377 137.835,47.645 137.082,49.287 135.147 C 50.535 133.676,51.487 133.339,52.918 133.864 M107.100 144.163 C 107.576 144.329,107.987 144.483,108.014 144.504 C 108.367 144.780,106.138 146.745,104.872 147.274 C 102.864 148.113,99.913 147.017,99.913 145.431 C 99.913 144.594,100.528 144.189,102.338 143.834 C 103.245 143.656,106.242 143.863,107.100 144.163 " stroke="none" fill="#c3d5cc" fill-rule="evenodd"></path><path id="path1" d="M259.200 5.109 C 258.475 5.246,257.345 5.562,256.689 5.812 C 256.034 6.062,254.700 6.560,253.724 6.919 C 252.749 7.278,251.651 7.770,251.285 8.012 C 250.918 8.255,249.980 8.774,249.199 9.166 C 247.017 10.264,243.081 14.224,241.014 17.403 C 240.580 18.069,240.050 18.771,239.835 18.961 C 239.378 19.365,239.004 20.084,238.435 21.645 C 238.209 22.264,237.773 23.199,237.466 23.723 C 235.581 26.941,235.466 37.343,237.255 42.914 C 237.643 44.121,238.190 45.926,238.472 46.926 C 238.904 48.460,239.128 48.934,239.905 49.957 C 240.411 50.623,241.037 51.591,241.296 52.108 C 241.959 53.428,246.267 57.793,247.545 58.440 C 248.059 58.700,248.813 59.205,249.219 59.561 C 250.113 60.346,250.723 60.663,251.861 60.936 C 252.338 61.050,253.545 61.527,254.545 61.997 C 256.152 62.751,256.575 62.873,258.182 63.043 C 259.182 63.149,260.865 63.331,261.923 63.447 C 266.195 63.914,271.967 63.228,274.662 61.931 C 275.550 61.504,276.715 61.028,277.250 60.874 C 278.316 60.568,280.032 59.384,283.850 56.319 C 285.277 55.174,289.079 50.881,289.677 49.741 C 289.813 49.480,290.332 48.720,290.829 48.053 C 291.834 46.703,292.058 46.114,292.800 42.857 C 293.964 37.747,294.119 33.795,293.254 31.264 C 292.924 30.300,292.501 28.851,292.313 28.043 C 292.124 27.236,291.726 25.964,291.427 25.217 C 291.128 24.471,290.661 22.991,290.389 21.930 C 289.725 19.338,289.698 19.277,288.449 17.604 C 287.850 16.801,287.165 15.813,286.926 15.408 C 285.974 13.790,281.878 9.963,280.470 9.377 C 279.763 9.083,278.630 8.500,277.951 8.081 C 277.272 7.663,276.228 7.185,275.631 7.020 C 275.034 6.854,274.000 6.481,273.333 6.190 C 270.822 5.093,270.134 4.987,265.108 4.921 C 261.644 4.876,260.196 4.922,259.200 5.109 M187.856 23.908 C 187.320 23.987,186.463 24.206,185.952 24.394 C 185.440 24.583,184.129 25.058,183.038 25.451 C 181.936 25.848,180.667 26.445,180.181 26.795 C 179.701 27.141,178.705 27.674,177.969 27.981 C 177.064 28.358,176.258 28.865,175.479 29.550 C 173.643 31.164,171.048 33.791,170.390 34.703 C 169.108 36.475,167.987 38.139,166.722 40.145 C 166.562 40.398,166.301 41.268,166.141 42.078 C 165.982 42.887,165.558 44.212,165.199 45.022 C 163.327 49.240,163.378 56.564,165.308 60.838 C 165.723 61.757,166.057 62.921,166.328 64.392 C 166.827 67.102,167.771 69.091,169.478 71.025 C 170.093 71.723,170.870 72.704,171.203 73.204 C 171.536 73.704,172.055 74.288,172.355 74.502 C 172.655 74.715,173.387 75.331,173.981 75.869 C 174.575 76.407,175.479 77.084,175.990 77.372 C 176.501 77.660,177.277 78.206,177.715 78.585 C 178.152 78.964,178.923 79.409,179.428 79.575 C 179.933 79.740,180.967 80.186,181.727 80.565 C 183.738 81.570,184.238 81.716,187.013 82.106 C 193.470 83.015,199.905 82.406,203.636 80.532 C 204.541 80.077,205.671 79.564,206.147 79.391 C 209.105 78.319,216.204 72.046,217.502 69.360 C 217.821 68.699,218.438 67.567,218.872 66.844 C 220.766 63.692,221.987 58.768,221.984 54.286 C 221.982 51.707,221.362 49.465,217.720 38.874 C 216.159 34.336,212.496 30.243,207.976 27.984 C 207.267 27.630,206.254 27.073,205.725 26.747 C 201.895 24.391,193.573 23.069,187.856 23.908 M353.111 27.361 C 352.703 27.446,351.604 27.601,350.668 27.704 C 348.358 27.958,345.952 28.628,344.768 29.347 C 344.230 29.674,343.281 30.169,342.660 30.448 C 342.039 30.727,341.264 31.185,340.938 31.466 C 340.613 31.747,339.873 32.295,339.295 32.684 C 338.104 33.485,335.317 36.144,334.714 37.056 C 334.493 37.390,333.901 38.173,333.399 38.797 C 332.896 39.420,332.320 40.316,332.118 40.788 C 331.915 41.259,331.430 42.060,331.038 42.568 C 330.460 43.317,330.236 43.840,329.849 45.339 C 329.587 46.355,329.099 47.972,328.765 48.934 C 327.564 52.393,327.372 58.771,328.389 61.472 C 328.884 62.785,329.462 64.880,330.264 68.258 C 330.727 70.207,331.783 72.275,333.281 74.165 C 333.643 74.622,334.156 75.279,334.420 75.625 C 335.282 76.754,337.738 79.323,338.182 79.560 C 338.420 79.688,339.121 80.198,339.740 80.695 C 340.359 81.191,341.489 81.898,342.251 82.265 C 343.013 82.632,344.026 83.165,344.502 83.448 C 345.139 83.827,345.826 84.036,347.100 84.238 C 348.923 84.527,350.136 84.798,352.554 85.458 C 355.415 86.239,358.126 86.159,361.558 85.194 C 362.558 84.913,364.195 84.523,365.195 84.327 C 368.488 83.684,375.084 79.637,377.445 76.811 C 377.564 76.669,378.286 75.751,379.051 74.770 C 379.815 73.789,380.794 72.558,381.226 72.035 C 381.657 71.511,382.504 70.108,383.107 68.918 C 383.710 67.727,384.504 66.174,384.872 65.465 L 385.541 64.177 385.536 59.578 C 385.531 54.730,385.362 53.259,384.569 51.169 C 384.388 50.693,384.042 49.563,383.800 48.658 C 383.167 46.295,382.536 44.409,381.947 43.117 C 381.665 42.498,381.282 41.602,381.095 41.126 C 380.529 39.683,379.945 38.824,378.404 37.167 C 377.594 36.297,376.754 35.308,376.538 34.971 C 376.016 34.157,375.114 33.382,374.103 32.878 C 373.649 32.652,372.916 32.143,372.475 31.747 C 372.034 31.351,371.209 30.797,370.642 30.516 C 370.074 30.235,369.057 29.680,368.382 29.281 C 367.436 28.725,366.817 28.500,365.698 28.309 C 364.897 28.173,363.268 27.893,362.078 27.688 C 359.697 27.277,354.428 27.085,353.111 27.361 M129.524 54.369 C 128.905 54.444,127.640 54.514,126.714 54.525 C 125.364 54.541,124.797 54.633,123.857 54.987 C 123.212 55.230,121.593 55.720,120.260 56.075 C 117.547 56.798,114.749 58.213,112.988 59.754 C 112.484 60.195,111.810 60.738,111.490 60.960 C 109.293 62.486,105.920 66.065,105.183 67.654 C 104.776 68.531,104.214 69.583,103.935 69.992 C 103.454 70.696,102.289 73.369,101.382 75.845 C 99.996 79.633,100.256 88.078,101.885 92.192 C 102.847 94.619,102.831 94.571,103.131 96.017 C 103.286 96.765,103.820 98.126,104.523 99.567 L 105.664 101.905 108.482 104.675 C 111.835 107.972,113.378 109.205,115.634 110.389 C 116.559 110.875,117.511 111.396,117.749 111.547 C 118.324 111.913,119.406 112.129,122.424 112.482 C 123.805 112.643,125.540 112.955,126.280 113.176 C 128.593 113.865,129.320 113.874,132.583 113.254 C 134.186 112.949,136.316 112.545,137.316 112.357 C 139.628 111.921,141.471 111.063,144.847 108.847 C 149.174 106.007,150.273 104.967,153.100 101.039 C 153.785 100.087,154.561 99.057,154.824 98.751 C 156.182 97.172,158.022 92.311,158.425 89.238 C 158.724 86.959,158.422 82.628,157.854 81.039 C 157.599 80.325,157.155 78.805,156.869 77.662 C 154.129 66.715,151.058 62.499,141.953 57.184 C 141.584 56.968,140.136 56.476,138.736 56.090 C 137.336 55.704,135.426 55.161,134.493 54.884 C 132.578 54.316,131.170 54.170,129.524 54.369 M287.706 71.331 C 285.666 71.497,279.451 72.820,278.544 73.281 C 278.155 73.479,277.428 73.901,276.929 74.219 C 276.430 74.537,275.573 75.026,275.024 75.306 C 273.084 76.294,268.386 80.530,266.880 82.648 C 266.528 83.144,265.917 83.949,265.524 84.437 C 265.131 84.924,264.591 85.895,264.324 86.594 C 264.057 87.293,263.576 88.305,263.255 88.843 C 262.868 89.493,262.499 90.529,262.155 91.929 C 261.871 93.088,261.443 94.635,261.204 95.367 C 260.220 98.380,260.250 103.122,261.273 106.234 C 261.554 107.091,261.978 108.455,262.215 109.264 C 262.452 110.074,262.895 111.359,263.201 112.121 C 263.506 112.883,264.009 114.211,264.317 115.071 C 264.669 116.055,265.201 117.084,265.749 117.842 C 266.229 118.505,266.752 119.304,266.912 119.618 C 267.214 120.211,270.759 123.815,271.515 124.298 C 271.753 124.451,272.409 124.924,272.973 125.350 C 273.573 125.805,274.551 126.319,275.333 126.593 C 276.067 126.850,277.186 127.415,277.818 127.848 C 278.799 128.520,280.381 129.177,281.014 129.177 C 281.114 129.177,282.193 129.497,283.412 129.888 L 285.628 130.599 289.957 130.430 L 294.286 130.260 297.316 129.233 C 299.262 128.573,300.718 127.965,301.385 127.535 C 301.957 127.167,303.203 126.545,304.156 126.154 C 305.555 125.580,306.207 125.178,307.552 124.063 C 308.467 123.305,309.584 122.383,310.033 122.014 C 310.483 121.646,311.196 120.827,311.617 120.196 C 312.038 119.564,313.001 118.235,313.757 117.242 C 315.644 114.760,317.439 111.161,317.909 108.918 C 318.098 108.013,318.463 106.416,318.719 105.368 C 319.643 101.588,319.081 97.979,316.910 93.766 C 316.347 92.673,316.088 91.847,315.681 89.851 C 314.961 86.324,314.124 84.376,312.637 82.771 C 312.416 82.532,311.891 81.809,311.469 81.164 C 310.945 80.363,310.431 79.821,309.853 79.459 C 309.386 79.167,308.732 78.670,308.398 78.355 C 307.226 77.249,305.555 76.007,304.687 75.598 C 304.204 75.371,303.381 74.982,302.857 74.735 C 302.333 74.487,301.470 74.011,300.938 73.676 C 300.176 73.198,299.423 72.945,297.388 72.484 C 292.132 71.294,290.513 71.101,287.706 71.331 M219.048 99.848 C 218.810 99.891,217.874 100.045,216.970 100.191 C 214.115 100.651,212.947 100.965,211.255 101.725 C 210.351 102.132,208.973 102.674,208.195 102.931 C 207.244 103.244,206.534 103.610,206.031 104.048 C 205.619 104.406,204.917 104.947,204.472 105.249 C 204.027 105.552,203.558 105.897,203.430 106.017 C 203.302 106.136,202.358 107.004,201.333 107.945 C 200.307 108.886,199.261 110.016,199.009 110.456 C 198.756 110.896,198.223 111.723,197.823 112.294 C 197.424 112.866,196.806 113.918,196.450 114.632 C 196.094 115.346,195.550 116.281,195.240 116.710 C 194.586 117.617,194.402 118.148,194.020 120.233 C 193.865 121.076,193.623 122.089,193.482 122.484 C 191.902 126.907,191.941 131.213,193.601 135.719 C 193.787 136.222,194.101 137.547,194.300 138.663 C 195.028 142.739,197.072 146.570,200.083 149.499 C 203.571 152.893,204.635 153.770,206.082 154.446 C 206.880 154.819,207.903 155.436,208.357 155.817 C 209.042 156.392,209.452 156.572,210.781 156.880 C 211.661 157.085,213.043 157.475,213.853 157.747 C 218.144 159.191,224.450 159.322,227.320 158.027 C 228.056 157.695,229.551 157.181,230.642 156.884 C 232.011 156.513,233.005 156.117,233.846 155.610 C 234.516 155.205,235.585 154.654,236.221 154.386 C 239.854 152.854,245.428 146.520,248.479 140.459 C 250.722 136.001,250.888 127.629,248.825 122.930 C 248.537 122.273,248.033 120.653,247.706 119.331 C 246.801 115.678,244.974 111.965,243.137 110.050 C 242.403 109.284,241.456 108.199,241.034 107.638 C 240.612 107.077,240.031 106.437,239.744 106.216 C 236.478 103.706,235.967 103.388,234.314 102.844 C 233.394 102.541,232.061 102.029,231.353 101.706 C 228.960 100.614,221.250 99.450,219.048 99.848 M345.529 110.203 C 344.571 110.429,343.129 110.887,342.326 111.220 C 341.523 111.552,340.189 112.030,339.363 112.282 C 335.646 113.416,329.055 119.088,327.194 122.754 C 326.972 123.192,326.515 123.958,326.179 124.456 C 325.843 124.955,325.402 125.806,325.200 126.347 C 324.997 126.888,324.489 128.039,324.071 128.905 C 321.903 133.392,321.850 144.001,323.975 148.211 C 324.270 148.794,324.774 150.194,325.095 151.321 C 326.427 155.993,331.631 162.508,335.182 163.950 C 335.866 164.227,336.817 164.742,337.296 165.094 C 337.775 165.445,338.796 165.963,339.565 166.243 C 340.333 166.524,341.437 166.993,342.018 167.286 C 344.008 168.291,352.796 168.933,356.261 168.328 C 358.681 167.905,366.190 164.523,367.619 163.213 C 367.857 162.994,368.598 162.424,369.264 161.945 C 369.931 161.466,370.739 160.748,371.059 160.349 C 371.379 159.951,372.021 159.352,372.486 159.018 C 373.443 158.330,375.802 155.204,376.710 153.420 C 377.025 152.801,377.566 151.827,377.912 151.255 C 379.796 148.142,381.113 140.781,380.360 137.576 C 380.067 136.330,378.687 132.387,377.844 130.390 C 377.583 129.771,377.191 128.641,376.974 127.879 C 376.757 127.117,376.425 125.948,376.236 125.281 C 375.636 123.169,375.080 122.260,372.743 119.567 C 369.804 116.180,365.978 113.462,362.406 112.220 C 361.606 111.943,360.311 111.440,359.527 111.103 C 356.415 109.769,349.300 109.311,345.529 110.203 " stroke="none" fill="#6d3a34" fill-rule="evenodd"></path><path id="path2" d="M0.000 86.580 L 0.000 173.160 200.000 173.160 L 400.000 173.160 400.000 168.580 C 400.000 164.517,399.968 163.982,399.716 163.841 C 399.184 163.543,399.135 161.108,399.584 157.316 C 399.721 156.162,399.733 156.137,399.839 156.797 C 399.901 157.177,399.952 153.788,399.953 149.264 C 399.954 144.740,399.904 141.312,399.842 141.645 L 399.729 142.251 399.605 141.404 C 399.311 139.405,399.489 135.565,399.848 136.133 C 399.930 136.262,399.995 134.105,399.995 131.255 C 399.995 128.405,399.930 126.249,399.848 126.378 C 399.591 126.785,399.481 126.145,399.481 124.242 C 399.481 122.340,399.591 121.700,399.848 122.107 C 399.930 122.236,399.986 120.780,399.975 118.788 C 399.963 116.835,399.901 115.511,399.836 115.844 C 399.729 116.394,399.705 116.341,399.579 115.278 C 399.406 113.824,399.524 111.991,399.797 111.900 C 399.945 111.851,399.997 110.785,399.988 107.994 C 399.981 105.852,399.914 104.309,399.835 104.502 C 399.582 105.128,399.394 103.635,399.394 100.989 C 399.394 98.977,399.442 98.485,399.654 98.355 C 399.875 98.219,399.917 97.379,399.938 92.690 C 399.951 89.663,399.910 87.459,399.846 87.792 C 399.747 88.312,399.698 88.172,399.506 86.818 C 399.280 85.218,399.433 83.810,399.834 83.810 C 400.075 83.810,400.051 80.219,399.808 80.138 C 399.554 80.053,399.388 75.941,399.576 74.361 C 399.704 73.279,399.730 73.220,399.836 73.766 C 399.901 74.100,399.963 67.788,399.975 59.740 C 399.987 50.822,399.933 45.206,399.836 45.359 C 399.712 45.554,399.651 45.502,399.555 45.122 C 399.394 44.480,399.614 41.661,399.831 41.587 C 399.938 41.551,399.991 38.729,399.975 33.882 C 399.962 29.675,399.902 26.545,399.841 26.926 L 399.732 27.619 399.607 26.642 C 399.538 26.105,399.538 25.287,399.606 24.824 L 399.729 23.983 399.842 24.589 C 399.904 24.922,399.965 22.298,399.977 18.757 C 399.995 13.820,399.950 12.265,399.784 12.086 C 399.445 11.722,399.439 11.630,399.395 6.407 C 399.373 3.693,399.295 1.141,399.222 0.736 L 399.090 0.000 199.545 0.000 L 0.000 0.000 0.000 86.580 M271.255 3.308 C 274.759 3.672,276.090 4.110,278.138 5.572 C 278.806 6.048,279.869 6.719,280.499 7.061 C 281.129 7.404,281.879 7.852,282.165 8.058 C 282.450 8.263,283.200 8.714,283.832 9.060 C 285.375 9.908,288.613 13.176,290.225 15.515 C 290.363 15.715,290.922 16.367,291.467 16.964 C 292.688 18.301,293.400 19.540,293.832 21.075 C 294.014 21.722,294.316 22.602,294.503 23.030 C 295.025 24.229,295.785 26.963,296.475 30.127 C 296.997 32.520,296.868 36.089,296.197 37.835 C 295.756 38.983,295.646 39.403,295.243 41.472 C 295.053 42.445,294.972 42.963,294.799 44.310 C 294.458 46.969,292.786 50.676,291.332 52.000 C 290.725 52.552,289.804 53.604,289.285 54.337 C 288.166 55.919,287.597 56.476,285.958 57.600 C 285.282 58.063,284.315 58.909,283.809 59.481 C 283.031 60.358,280.578 62.143,280.127 62.160 C 279.860 62.169,277.779 63.129,275.519 64.285 C 272.155 66.004,272.129 66.009,265.108 66.103 C 257.897 66.200,256.232 65.996,254.199 64.769 C 253.771 64.511,252.973 64.132,252.426 63.928 C 251.880 63.723,250.880 63.278,250.205 62.938 C 249.530 62.598,248.518 62.177,247.958 62.002 C 246.561 61.568,245.547 60.941,244.652 59.958 C 244.236 59.502,243.305 58.687,242.582 58.147 C 241.029 56.987,240.422 56.328,239.569 54.872 C 239.058 54.000,237.675 52.178,237.218 51.775 C 237.164 51.727,236.801 51.260,236.411 50.736 C 235.682 49.755,235.646 49.655,233.943 43.810 C 233.540 42.429,232.989 40.558,232.718 39.654 C 231.760 36.460,231.612 33.880,232.224 31.036 C 232.701 28.816,234.286 23.025,234.984 20.955 C 235.565 19.229,235.633 19.116,237.053 17.509 C 237.541 16.957,238.268 16.033,238.667 15.457 C 240.193 13.258,243.188 9.994,244.718 8.864 C 245.252 8.469,245.737 8.069,245.795 7.975 C 245.853 7.881,246.696 7.362,247.669 6.820 C 248.641 6.279,249.935 5.485,250.544 5.056 C 252.232 3.867,253.647 3.502,257.399 3.287 C 263.445 2.942,267.792 2.948,271.255 3.308 M38.009 20.175 C 42.199 20.206,46.991 20.325,48.658 20.441 C 51.672 20.650,54.164 20.569,59.307 20.098 C 60.399 19.997,63.216 20.007,66.926 20.123 C 70.165 20.225,73.827 20.285,75.065 20.258 C 83.631 20.065,84.603 20.344,86.542 23.550 L 87.013 24.329 86.965 29.610 C 86.893 37.511,86.052 41.816,83.648 46.580 C 83.192 47.485,82.245 49.394,81.545 50.823 C 80.844 52.251,80.007 53.838,79.685 54.348 C 79.020 55.401,78.665 56.252,78.015 58.345 C 77.515 59.955,75.873 63.590,75.154 64.675 C 74.902 65.056,74.278 66.303,73.768 67.446 C 73.258 68.589,72.469 70.120,72.014 70.849 C 71.560 71.578,71.069 72.457,70.925 72.803 C 70.780 73.150,70.419 73.770,70.123 74.182 C 69.742 74.713,69.365 75.710,68.831 77.596 C 67.998 80.537,66.720 83.467,65.654 84.882 C 64.936 85.833,64.429 87.004,63.971 88.761 C 63.825 89.322,63.526 90.094,63.307 90.475 C 63.088 90.857,62.574 91.753,62.165 92.468 C 61.755 93.182,61.163 94.081,60.850 94.465 C 60.303 95.134,59.786 96.378,59.124 98.615 C 58.955 99.186,58.629 100.034,58.399 100.498 C 58.169 100.963,57.717 102.034,57.394 102.879 C 57.072 103.723,56.615 104.761,56.378 105.185 C 54.095 109.275,52.935 109.794,46.902 109.424 C 44.963 109.305,41.857 109.192,40.000 109.174 C 36.418 109.139,35.893 109.050,33.897 108.136 C 32.579 107.533,31.766 106.428,31.941 105.478 C 31.970 105.322,32.048 104.871,32.113 104.476 C 32.185 104.044,32.458 103.490,32.796 103.090 C 33.625 102.110,33.932 101.501,36.092 96.537 C 36.590 95.394,37.222 94.108,37.497 93.680 C 37.772 93.251,38.434 91.810,38.968 90.476 C 40.185 87.440,41.394 85.018,42.251 83.896 C 42.692 83.319,43.100 82.452,43.473 81.299 C 44.055 79.501,45.933 75.703,46.781 74.610 C 47.306 73.933,47.710 72.918,48.322 70.736 C 48.536 69.974,49.119 68.571,49.617 67.619 C 50.900 65.168,51.111 64.804,51.632 64.132 C 51.887 63.803,52.485 62.543,52.961 61.331 C 53.438 60.119,54.021 58.739,54.259 58.265 C 54.496 57.791,54.972 56.783,55.317 56.026 C 55.661 55.268,56.140 54.391,56.380 54.075 C 56.621 53.760,57.158 52.719,57.572 51.763 C 57.987 50.807,58.468 49.815,58.641 49.558 C 59.065 48.927,59.498 47.977,60.113 46.323 C 61.820 41.734,59.406 39.740,53.411 40.786 C 50.349 41.320,28.487 41.000,27.186 40.403 C 24.186 39.025,23.389 32.707,25.126 24.069 C 25.655 21.438,27.823 19.629,29.957 20.037 C 30.195 20.083,33.818 20.145,38.009 20.175 M193.853 21.828 C 194.519 21.924,196.545 22.034,198.355 22.071 C 201.693 22.139,202.986 22.346,204.675 23.083 C 205.233 23.326,205.516 23.538,207.013 24.837 C 207.573 25.323,208.964 26.176,211.169 27.387 C 212.383 28.053,212.691 28.329,213.660 29.615 C 214.386 30.577,215.101 31.304,215.738 31.726 C 216.273 32.080,216.883 32.491,217.094 32.639 C 217.661 33.036,218.488 34.313,219.032 35.633 C 219.523 36.820,220.517 38.421,221.894 40.237 C 223.031 41.738,223.479 43.200,223.892 46.753 C 224.086 48.420,224.369 50.198,224.523 50.704 C 224.920 52.018,224.791 54.683,224.275 55.790 C 223.420 57.627,223.209 59.299,223.561 61.464 C 223.915 63.648,223.430 64.901,221.269 67.387 C 220.824 67.898,220.172 68.900,219.821 69.613 C 219.469 70.326,218.859 71.569,218.465 72.376 C 217.735 73.872,217.605 74.022,214.682 76.730 C 213.948 77.411,213.170 78.226,212.954 78.541 C 212.583 79.083,210.906 80.000,209.004 80.702 C 208.144 81.020,203.984 83.097,203.446 83.478 C 202.782 83.948,200.134 84.666,198.721 84.759 C 198.044 84.804,196.689 84.932,195.711 85.043 C 190.100 85.683,182.140 84.670,180.457 83.102 C 179.874 82.559,177.963 81.603,176.342 81.042 C 173.935 80.210,173.946 80.220,167.147 72.879 C 165.706 71.322,165.074 70.316,164.163 68.128 C 163.675 66.957,162.996 65.533,161.680 62.923 C 160.424 60.431,159.867 55.407,160.406 51.424 C 160.554 50.331,160.765 48.546,160.875 47.456 C 161.193 44.313,162.284 41.125,163.752 39.048 C 164.155 38.476,164.931 37.268,165.475 36.364 C 166.582 34.520,167.326 33.484,168.518 32.118 C 168.965 31.606,169.467 30.980,169.633 30.726 C 170.738 29.039,172.086 27.842,173.819 27.009 C 176.772 25.590,177.650 25.126,178.624 24.472 C 181.078 22.824,181.770 22.543,184.745 21.988 C 186.661 21.630,191.861 21.539,193.853 21.828 M358.640 24.565 C 359.245 24.743,360.247 25.028,360.866 25.198 C 361.485 25.369,362.433 25.650,362.972 25.824 C 363.512 25.998,365.148 26.250,366.609 26.383 C 370.501 26.737,371.627 27.290,373.103 29.569 C 373.427 30.070,374.021 30.693,374.422 30.953 C 377.427 32.900,381.557 36.765,382.609 38.615 C 383.367 39.947,384.361 41.193,385.475 42.207 C 387.100 43.686,387.641 46.122,387.486 51.256 C 387.433 53.025,387.462 55.326,387.551 56.370 C 388.143 63.303,387.194 67.618,384.424 70.589 C 383.488 71.592,383.207 72.030,382.944 72.900 C 382.198 75.363,378.959 79.115,375.657 81.341 C 375.078 81.732,373.967 82.636,373.188 83.351 C 371.579 84.828,370.965 85.113,367.706 85.895 C 364.884 86.573,363.456 87.092,361.818 88.038 C 358.634 89.876,355.302 89.994,352.155 88.380 C 351.306 87.945,350.094 87.391,349.462 87.148 C 348.267 86.690,347.942 86.606,344.069 85.746 C 340.495 84.952,340.018 84.726,337.667 82.711 C 336.539 81.744,335.308 80.703,334.931 80.399 C 334.553 80.095,333.735 79.072,333.112 78.127 C 332.488 77.182,331.718 76.231,331.401 76.012 C 330.080 75.107,328.658 73.213,328.658 72.360 C 328.658 72.248,328.268 71.548,327.792 70.806 C 327.316 70.064,326.926 69.412,326.926 69.358 C 326.926 69.304,326.494 68.283,325.966 67.089 C 324.327 63.385,324.238 62.872,324.270 57.316 C 324.311 50.314,324.519 48.864,325.810 46.564 C 326.884 44.651,327.717 42.788,328.434 40.695 C 329.010 39.014,329.386 38.454,330.995 36.883 C 331.726 36.169,332.762 35.039,333.297 34.372 C 334.494 32.880,334.654 32.735,336.600 31.370 C 337.462 30.766,338.465 29.948,338.830 29.552 C 339.974 28.311,340.827 27.751,342.258 27.300 C 344.228 26.680,344.000 26.730,347.879 26.074 C 349.986 25.718,351.921 25.287,352.641 25.014 C 354.802 24.192,356.847 24.039,358.640 24.565 M132.294 51.696 C 134.360 52.005,135.439 52.343,138.091 53.512 C 139.141 53.974,140.429 54.467,140.952 54.606 C 141.775 54.825,146.102 56.363,146.255 56.491 C 146.285 56.516,147.037 57.238,147.926 58.095 C 148.815 58.952,150.044 60.048,150.658 60.529 C 151.486 61.179,152.007 61.783,152.673 62.870 C 153.328 63.939,153.875 64.580,154.697 65.238 C 156.542 66.717,157.913 69.299,159.132 73.593 C 160.165 77.235,160.546 78.520,160.878 79.481 C 161.464 81.182,161.601 82.653,161.386 84.935 C 161.046 88.534,160.893 89.379,160.166 91.688 C 159.776 92.926,159.277 94.602,159.057 95.411 C 158.334 98.065,157.082 100.415,155.318 102.424 C 154.733 103.091,153.746 104.398,153.124 105.329 C 151.902 107.158,151.116 107.930,149.619 108.771 C 148.564 109.365,148.113 109.715,146.616 111.106 C 144.955 112.647,143.295 113.341,139.623 114.027 C 136.942 114.528,133.957 115.218,133.247 115.500 C 130.379 116.640,126.277 116.571,123.836 115.342 C 123.488 115.167,122.814 114.969,122.338 114.902 C 113.875 113.713,112.971 113.321,109.590 109.371 C 109.274 109.001,108.272 108.205,107.364 107.603 C 103.265 104.879,100.986 101.507,99.402 95.822 C 99.114 94.786,98.718 93.520,98.522 93.008 C 96.548 87.841,96.549 80.669,98.525 74.896 C 98.884 73.846,99.308 72.519,99.466 71.948 C 99.958 70.177,100.451 69.261,102.259 66.753 C 103.220 65.420,104.288 63.861,104.632 63.290 C 105.391 62.031,106.192 61.249,107.792 60.205 C 108.459 59.770,109.339 59.101,109.747 58.719 C 110.627 57.894,112.863 56.315,113.883 55.797 C 114.281 55.595,114.749 55.352,114.922 55.256 C 115.505 54.935,118.348 53.730,119.048 53.507 C 119.429 53.386,120.013 53.150,120.346 52.984 C 123.084 51.616,128.125 51.073,132.294 51.696 M293.506 69.159 C 294.506 69.294,295.948 69.456,296.710 69.520 C 299.084 69.719,300.059 70.139,301.717 71.675 C 302.513 72.412,303.426 73.116,303.746 73.238 C 308.461 75.044,309.088 75.456,312.821 79.202 C 316.279 82.673,316.480 82.973,317.930 86.840 C 318.322 87.887,319.100 89.680,319.657 90.823 C 321.052 93.685,321.178 94.152,321.390 97.267 C 321.878 104.415,321.164 108.857,318.820 113.247 C 318.541 113.771,317.953 114.939,317.514 115.844 C 317.076 116.749,316.639 117.606,316.544 117.749 C 316.449 117.892,315.982 118.682,315.506 119.506 C 314.896 120.559,314.216 121.411,313.208 122.383 C 310.132 125.346,309.932 125.487,306.252 127.277 C 304.337 128.208,302.363 129.295,301.865 129.692 C 300.678 130.638,299.750 131.119,297.798 131.802 L 296.190 132.364 292.208 132.376 C 290.017 132.382,287.290 132.486,286.147 132.606 C 282.384 133.001,279.135 132.354,277.101 130.802 C 275.211 129.361,273.928 128.637,270.066 126.834 C 268.985 126.329,264.164 121.474,263.711 120.432 C 263.504 119.957,263.180 119.224,262.993 118.806 C 262.805 118.387,262.172 117.425,261.586 116.668 C 259.410 113.860,259.087 113.218,258.548 110.632 C 257.440 105.322,257.782 94.410,259.211 89.460 C 259.596 88.128,259.661 88.015,261.373 85.718 C 262.047 84.815,262.922 83.529,263.320 82.860 C 264.468 80.928,265.086 80.135,266.023 79.394 C 267.244 78.428,267.657 78.011,268.769 76.623 C 270.200 74.838,272.858 72.988,275.357 72.038 C 275.816 71.864,276.601 71.451,277.100 71.122 C 278.712 70.059,280.505 69.497,284.125 68.918 C 285.452 68.706,291.257 68.855,293.506 69.159 M222.630 97.414 C 223.343 97.551,224.679 97.665,225.600 97.668 C 228.304 97.678,229.704 98.006,231.389 99.024 C 232.184 99.504,233.843 100.303,235.075 100.800 C 236.308 101.297,237.589 101.869,237.922 102.070 C 238.255 102.272,238.725 102.522,238.966 102.626 C 239.722 102.952,240.526 103.741,241.216 104.834 C 241.678 105.565,242.270 106.178,243.149 106.831 C 244.976 108.189,245.625 108.843,246.321 110.030 C 246.894 111.005,247.810 112.280,249.658 114.670 C 251.496 117.047,252.554 122.540,252.554 129.697 C 252.553 135.121,250.791 142.012,248.699 144.770 C 247.728 146.050,246.234 148.481,246.234 148.780 C 246.234 148.879,245.357 149.827,244.286 150.887 C 243.214 151.947,242.065 153.201,241.732 153.675 C 241.207 154.420,240.833 154.690,238.961 155.674 C 237.771 156.299,236.251 157.224,235.584 157.729 C 233.796 159.083,233.093 159.356,229.957 159.913 C 229.242 160.040,227.957 160.274,227.100 160.434 C 225.757 160.685,224.654 160.714,219.134 160.640 C 210.783 160.528,209.668 160.300,207.278 158.214 C 206.565 157.592,205.338 156.817,203.901 156.082 C 200.950 154.572,200.215 154.018,198.662 152.134 C 197.949 151.270,196.693 149.931,195.869 149.159 C 194.054 147.456,193.207 146.060,192.143 143.016 C 191.730 141.833,191.266 140.593,191.112 140.260 C 189.093 135.895,187.931 129.216,188.728 126.555 C 188.909 125.950,189.228 124.519,189.437 123.377 C 189.933 120.660,190.882 117.789,191.783 116.277 C 192.180 115.610,192.808 114.454,193.179 113.708 C 193.549 112.961,194.213 111.980,194.653 111.528 C 195.093 111.076,195.598 110.479,195.775 110.202 C 197.363 107.715,198.943 106.078,202.450 103.286 C 202.864 102.956,204.122 102.297,205.244 101.821 C 206.366 101.346,207.808 100.616,208.447 100.200 C 210.583 98.809,211.547 98.349,213.269 97.899 C 216.849 96.965,219.550 96.825,222.630 97.414 M354.418 107.186 C 355.847 107.425,358.505 108.323,359.290 108.831 C 359.633 109.053,360.926 109.560,362.165 109.956 C 367.305 111.603,368.425 112.117,369.870 113.491 C 370.597 114.183,372.163 115.402,373.160 116.054 C 373.966 116.581,375.012 117.657,375.903 118.874 C 376.390 119.541,376.955 120.304,377.159 120.571 C 377.362 120.837,377.678 121.448,377.861 121.930 C 378.323 123.145,378.951 124.354,379.576 125.231 C 381.065 127.320,381.451 128.031,381.789 129.303 C 382.358 131.445,382.533 133.283,382.438 136.141 C 382.390 137.597,382.305 140.463,382.249 142.511 C 382.069 149.172,381.675 150.616,379.226 153.595 C 378.707 154.227,378.213 155.135,377.766 156.279 C 376.903 158.489,376.389 159.192,374.854 160.260 C 373.960 160.882,373.282 161.557,372.447 162.658 C 371.206 164.295,370.385 164.956,368.055 166.191 C 365.538 167.525,362.391 169.000,361.665 169.186 C 361.273 169.286,360.669 169.477,360.323 169.610 C 358.221 170.416,344.930 170.835,341.645 170.199 C 338.950 169.676,337.702 169.116,335.990 167.662 C 334.322 166.245,333.101 165.460,331.618 164.852 C 330.059 164.213,330.008 164.172,329.137 162.864 C 328.754 162.289,327.573 160.961,326.513 159.913 C 325.262 158.677,324.437 157.705,324.163 157.143 C 323.930 156.667,323.479 155.911,323.161 155.464 C 321.354 152.926,320.039 149.985,319.654 147.619 C 319.185 144.738,318.933 138.115,319.222 136.277 C 319.365 135.372,319.531 133.502,319.592 132.121 C 319.723 129.134,319.976 128.297,321.260 126.609 C 321.744 125.974,322.711 124.333,323.410 122.962 C 324.960 119.925,325.421 119.284,327.479 117.306 C 328.366 116.455,329.332 115.463,329.626 115.102 C 330.996 113.422,333.009 112.044,335.362 111.176 C 336.103 110.902,337.684 110.320,338.874 109.883 C 340.065 109.445,341.666 108.779,342.432 108.402 C 345.254 107.015,350.327 106.500,354.418 107.186 M31.453 125.699 C 35.832 126.603,37.671 129.876,36.274 134.280 C 36.033 135.036,35.752 135.707,35.649 135.771 C 34.914 136.225,35.442 138.247,36.244 138.051 C 37.008 137.865,37.389 137.221,38.214 134.719 C 38.990 132.366,39.819 131.351,41.869 130.241 C 42.413 129.947,43.354 129.237,43.961 128.664 C 46.367 126.390,48.201 125.832,53.333 125.814 C 57.455 125.799,57.981 125.911,59.324 127.091 C 60.375 128.014,61.597 128.103,63.030 127.360 C 64.800 126.442,68.616 126.123,70.297 126.751 C 72.211 127.467,73.068 128.845,73.769 132.333 C 74.397 135.465,75.028 136.431,76.228 136.099 C 76.877 135.919,78.017 134.757,78.528 133.754 C 78.719 133.380,79.152 132.645,79.490 132.121 C 79.829 131.597,80.368 130.558,80.689 129.811 C 81.916 126.955,82.628 126.494,85.801 126.494 C 88.037 126.494,88.620 126.700,90.375 128.111 C 92.059 129.465,93.257 129.309,96.104 127.361 C 98.430 125.771,99.502 125.492,103.185 125.522 C 107.116 125.554,108.167 125.932,110.579 128.177 C 114.311 131.652,115.929 132.080,116.732 129.802 C 117.100 128.758,118.147 127.701,119.443 127.063 L 120.600 126.494 123.720 126.494 C 126.536 126.494,126.958 126.454,128.052 126.086 C 131.437 124.950,136.652 125.598,138.451 127.380 C 142.541 131.429,143.480 135.069,143.347 146.361 L 143.290 151.255 142.731 152.406 C 141.675 154.579,139.060 155.770,136.104 155.424 C 132.890 155.047,132.338 154.099,132.190 148.708 C 131.920 138.828,131.742 138.009,129.866 138.009 C 128.000 138.009,127.297 140.492,126.949 148.312 C 126.695 154.017,125.791 155.293,121.880 155.464 C 117.898 155.638,116.212 153.905,115.929 149.351 C 115.752 146.510,115.611 146.057,115.017 146.427 C 114.429 146.793,113.988 147.873,113.867 149.236 C 113.690 151.236,113.512 151.701,112.490 152.826 C 110.504 155.010,109.105 155.499,104.502 155.620 C 98.017 155.791,96.799 155.346,91.726 150.947 C 90.666 150.028,89.512 147.947,88.551 145.224 C 88.137 144.050,87.392 143.768,86.550 144.465 C 85.899 145.003,83.873 149.022,83.550 150.416 C 83.216 151.856,82.353 153.498,81.646 154.037 C 79.753 155.481,74.550 156.105,72.980 155.077 C 72.418 154.708,70.335 152.052,69.307 150.395 C 69.069 150.011,68.579 149.307,68.218 148.831 C 67.857 148.355,67.302 147.459,66.985 146.840 C 66.215 145.341,65.958 144.999,65.412 144.751 C 64.224 144.209,62.297 146.198,62.465 147.792 C 62.591 148.986,62.063 151.475,61.538 152.164 C 59.084 155.381,57.476 155.926,50.805 155.803 C 45.983 155.714,45.954 155.704,43.325 153.235 C 42.078 152.063,40.909 151.133,40.264 150.799 L 39.221 150.259 38.535 150.584 C 38.104 150.789,37.259 151.582,36.252 152.727 C 33.867 155.442,33.022 155.713,26.926 155.719 C 23.093 155.724,21.138 155.519,19.630 154.954 C 17.006 153.973,16.035 151.945,17.114 149.697 C 17.297 149.316,17.649 148.573,17.896 148.045 C 18.143 147.518,18.620 146.765,18.956 146.373 C 19.991 145.164,19.736 143.783,18.069 141.581 C 15.641 138.373,15.031 133.035,16.856 130.954 C 17.457 130.268,20.384 128.047,21.104 127.731 C 21.354 127.621,22.085 127.232,22.729 126.867 C 25.066 125.540,28.472 125.084,31.453 125.699 " stroke="none" fill="#0bf999" fill-rule="evenodd"></path><path id="path3" d="M399.222 0.736 C 399.295 1.141,399.383 3.732,399.418 6.494 C 399.490 12.190,399.466 11.809,399.761 12.085 C 399.943 12.254,399.986 11.151,399.996 6.147 L 400.007 0.000 399.549 0.000 C 399.104 0.000,399.094 0.022,399.222 0.736 M262.251 3.052 C 254.402 3.312,252.576 3.625,250.544 5.056 C 249.935 5.485,248.641 6.279,247.669 6.820 C 246.696 7.362,245.853 7.881,245.795 7.975 C 245.737 8.069,245.252 8.469,244.718 8.864 C 243.188 9.994,240.193 13.258,238.667 15.457 C 238.268 16.033,237.541 16.957,237.053 17.509 C 235.633 19.116,235.565 19.229,234.984 20.955 C 234.286 23.025,232.701 28.816,232.224 31.036 C 231.612 33.880,231.760 36.460,232.718 39.654 C 232.989 40.558,233.540 42.429,233.943 43.810 C 235.646 49.655,235.682 49.755,236.411 50.736 C 236.801 51.260,237.164 51.727,237.218 51.775 C 237.675 52.178,239.058 54.000,239.569 54.872 C 240.422 56.328,241.029 56.987,242.582 58.147 C 243.305 58.687,244.236 59.502,244.652 59.958 C 245.547 60.941,246.561 61.568,247.958 62.002 C 248.518 62.177,249.530 62.598,250.205 62.938 C 250.880 63.278,251.880 63.723,252.426 63.928 C 252.973 64.132,253.771 64.511,254.199 64.769 C 256.232 65.996,257.897 66.200,265.108 66.103 C 272.129 66.009,272.155 66.004,275.519 64.285 C 277.779 63.129,279.860 62.169,280.127 62.160 C 280.578 62.143,283.031 60.358,283.809 59.481 C 284.315 58.909,285.282 58.063,285.958 57.600 C 287.597 56.476,288.166 55.919,289.285 54.337 C 289.804 53.604,290.725 52.552,291.332 52.000 C 292.786 50.676,294.458 46.969,294.799 44.310 C 294.972 42.963,295.053 42.445,295.243 41.472 C 295.646 39.403,295.756 38.983,296.197 37.835 C 296.868 36.089,296.997 32.520,296.475 30.127 C 295.785 26.963,295.025 24.229,294.503 23.030 C 294.316 22.602,294.014 21.722,293.832 21.075 C 293.400 19.540,292.688 18.301,291.467 16.964 C 290.922 16.367,290.363 15.715,290.225 15.515 C 288.613 13.176,285.375 9.908,283.832 9.060 C 283.200 8.714,282.450 8.263,282.165 8.058 C 281.879 7.852,281.129 7.404,280.499 7.061 C 279.869 6.719,278.806 6.048,278.138 5.572 C 276.495 4.399,276.096 4.211,274.426 3.823 C 271.847 3.223,266.771 2.902,262.251 3.052 M270.909 5.321 C 271.576 5.508,272.667 5.899,273.333 6.190 C 274.000 6.481,275.034 6.854,275.631 7.020 C 276.228 7.185,277.272 7.663,277.951 8.081 C 278.630 8.500,279.763 9.083,280.470 9.377 C 281.878 9.963,285.974 13.790,286.926 15.408 C 287.165 15.813,287.850 16.801,288.449 17.604 C 289.698 19.277,289.725 19.338,290.389 21.930 C 290.661 22.991,291.128 24.471,291.427 25.217 C 291.726 25.964,292.124 27.236,292.313 28.043 C 292.501 28.851,292.924 30.300,293.254 31.264 C 294.119 33.795,293.964 37.747,292.800 42.857 C 292.058 46.114,291.834 46.703,290.829 48.053 C 290.332 48.720,289.813 49.480,289.677 49.741 C 289.079 50.881,285.277 55.174,283.850 56.319 C 280.032 59.384,278.316 60.568,277.250 60.874 C 276.715 61.028,275.550 61.504,274.662 61.931 C 271.967 63.228,266.195 63.914,261.923 63.447 C 260.865 63.331,259.182 63.149,258.182 63.043 C 256.575 62.873,256.152 62.751,254.545 61.997 C 253.545 61.527,252.338 61.050,251.861 60.936 C 250.723 60.663,250.113 60.346,249.219 59.561 C 248.813 59.205,248.059 58.700,247.545 58.440 C 246.267 57.793,241.959 53.428,241.296 52.108 C 241.037 51.591,240.411 50.623,239.905 49.957 C 239.128 48.934,238.904 48.460,238.472 46.926 C 238.190 45.926,237.643 44.121,237.255 42.914 C 235.466 37.343,235.581 26.941,237.466 23.723 C 237.773 23.199,238.209 22.264,238.435 21.645 C 239.004 20.084,239.378 19.365,239.835 18.961 C 240.050 18.771,240.580 18.069,241.014 17.403 C 243.081 14.224,247.017 10.264,249.199 9.166 C 249.980 8.774,250.918 8.255,251.285 8.012 C 251.651 7.770,252.749 7.278,253.724 6.919 C 254.700 6.560,256.034 6.062,256.689 5.812 C 259.405 4.775,267.913 4.482,270.909 5.321 M29.004 20.028 C 27.021 20.306,25.580 21.808,25.126 24.069 C 23.389 32.707,24.186 39.025,27.186 40.403 C 28.487 41.000,50.349 41.320,53.411 40.786 C 59.406 39.740,61.820 41.734,60.113 46.323 C 59.498 47.977,59.065 48.927,58.641 49.558 C 58.468 49.815,57.987 50.807,57.572 51.763 C 57.158 52.719,56.621 53.760,56.380 54.075 C 56.140 54.391,55.661 55.268,55.317 56.026 C 54.972 56.783,54.496 57.791,54.259 58.265 C 54.021 58.739,53.438 60.119,52.961 61.331 C 52.485 62.543,51.887 63.803,51.632 64.132 C 51.111 64.804,50.900 65.168,49.617 67.619 C 49.119 68.571,48.536 69.974,48.322 70.736 C 47.710 72.918,47.306 73.933,46.781 74.610 C 45.933 75.703,44.055 79.501,43.473 81.299 C 43.100 82.452,42.692 83.319,42.251 83.896 C 41.394 85.018,40.185 87.440,38.968 90.476 C 38.434 91.810,37.772 93.251,37.497 93.680 C 37.222 94.108,36.590 95.394,36.092 96.537 C 33.932 101.501,33.625 102.110,32.796 103.090 C 32.458 103.490,32.185 104.044,32.113 104.476 C 32.048 104.871,31.970 105.322,31.941 105.478 C 31.766 106.428,32.579 107.533,33.897 108.136 C 35.893 109.050,36.418 109.139,40.000 109.174 C 41.857 109.192,44.963 109.305,46.902 109.424 C 52.935 109.794,54.095 109.275,56.378 105.185 C 56.615 104.761,57.072 103.723,57.394 102.879 C 57.717 102.034,58.169 100.963,58.399 100.498 C 58.629 100.034,58.955 99.186,59.124 98.615 C 59.786 96.378,60.303 95.134,60.850 94.465 C 61.163 94.081,61.755 93.182,62.165 92.468 C 62.574 91.753,63.088 90.857,63.307 90.475 C 63.526 90.094,63.825 89.322,63.971 88.761 C 64.429 87.004,64.936 85.833,65.654 84.882 C 66.720 83.467,67.998 80.537,68.831 77.596 C 69.365 75.710,69.742 74.713,70.123 74.182 C 70.419 73.770,70.780 73.150,70.925 72.803 C 71.069 72.457,71.560 71.578,72.014 70.849 C 72.469 70.120,73.258 68.589,73.768 67.446 C 74.278 66.303,74.902 65.056,75.154 64.675 C 75.873 63.590,77.515 59.955,78.015 58.345 C 78.665 56.252,79.020 55.401,79.685 54.348 C 80.007 53.838,80.844 52.251,81.545 50.823 C 82.245 49.394,83.192 47.485,83.648 46.580 C 86.052 41.816,86.893 37.511,86.965 29.610 L 87.013 24.329 86.542 23.550 C 84.603 20.344,83.631 20.065,75.065 20.258 C 73.827 20.285,70.165 20.225,66.926 20.123 C 63.216 20.007,60.399 19.997,59.307 20.098 C 54.164 20.569,51.672 20.650,48.658 20.441 C 46.991 20.325,42.199 20.206,38.009 20.175 C 33.818 20.145,30.195 20.083,29.957 20.037 C 29.719 19.992,29.290 19.987,29.004 20.028 M184.745 21.988 C 181.770 22.543,181.078 22.824,178.624 24.472 C 177.650 25.126,176.772 25.590,173.819 27.009 C 172.086 27.842,170.738 29.039,169.633 30.726 C 169.467 30.980,168.965 31.606,168.518 32.118 C 167.326 33.484,166.582 34.520,165.475 36.364 C 164.931 37.268,164.155 38.476,163.752 39.048 C 162.284 41.125,161.193 44.313,160.875 47.456 C 160.765 48.546,160.554 50.331,160.406 51.424 C 159.867 55.407,160.424 60.431,161.680 62.923 C 162.996 65.533,163.675 66.957,164.163 68.128 C 165.074 70.316,165.706 71.322,167.147 72.879 C 173.946 80.220,173.935 80.210,176.342 81.042 C 177.963 81.603,179.874 82.559,180.457 83.102 C 182.140 84.670,190.100 85.683,195.711 85.043 C 196.689 84.932,198.044 84.804,198.721 84.759 C 200.134 84.666,202.782 83.948,203.446 83.478 C 203.984 83.097,208.144 81.020,209.004 80.702 C 210.906 80.000,212.583 79.083,212.954 78.541 C 213.170 78.226,213.948 77.411,214.682 76.730 C 217.605 74.022,217.735 73.872,218.465 72.376 C 218.859 71.569,219.469 70.326,219.821 69.613 C 220.172 68.900,220.824 67.898,221.269 67.387 C 223.430 64.901,223.915 63.648,223.561 61.464 C 223.209 59.299,223.420 57.627,224.275 55.790 C 224.791 54.683,224.920 52.018,224.523 50.704 C 224.369 50.198,224.086 48.420,223.892 46.753 C 223.479 43.200,223.031 41.738,221.894 40.237 C 220.517 38.421,219.523 36.820,219.032 35.633 C 218.488 34.313,217.661 33.036,217.094 32.639 C 216.883 32.491,216.273 32.080,215.738 31.726 C 215.101 31.304,214.386 30.577,213.660 29.615 C 212.691 28.329,212.383 28.053,211.169 27.387 C 208.964 26.176,207.573 25.323,207.013 24.837 C 205.516 23.538,205.233 23.326,204.675 23.083 C 202.986 22.346,201.693 22.139,198.355 22.071 C 196.545 22.034,194.519 21.924,193.853 21.828 C 191.861 21.539,186.661 21.630,184.745 21.988 M77.323 22.083 C 85.018 22.146,85.022 22.150,85.022 30.086 C 85.022 36.932,84.751 38.707,83.117 42.597 C 82.657 43.693,82.189 44.939,82.077 45.368 C 81.965 45.797,81.487 46.818,81.016 47.638 C 80.544 48.457,80.000 49.548,79.806 50.062 C 79.612 50.575,79.000 51.853,78.447 52.900 C 77.893 53.948,77.309 55.265,77.149 55.827 C 76.989 56.390,75.979 58.610,74.904 60.762 C 73.830 62.915,72.782 65.182,72.577 65.801 C 72.372 66.420,71.933 67.394,71.602 67.965 C 70.240 70.319,68.516 73.929,67.892 75.736 C 67.526 76.796,66.836 78.442,66.359 79.394 C 65.882 80.346,65.395 81.437,65.277 81.818 C 65.158 82.199,64.763 83.017,64.398 83.636 C 64.033 84.256,63.433 85.503,63.065 86.408 C 62.697 87.313,62.192 88.375,61.945 88.768 C 61.697 89.161,61.287 89.979,61.034 90.585 C 60.780 91.192,60.201 92.351,59.745 93.160 C 59.289 93.970,58.740 95.177,58.525 95.844 C 58.310 96.511,57.686 97.952,57.138 99.048 C 56.590 100.143,56.085 101.234,56.016 101.472 C 55.947 101.710,55.635 102.333,55.323 102.857 C 55.011 103.381,54.507 104.412,54.203 105.149 C 53.083 107.859,51.886 108.137,42.078 107.963 C 32.891 107.801,32.368 107.037,36.510 99.834 C 37.001 98.981,37.402 98.202,37.402 98.103 C 37.400 97.913,39.132 94.182,40.860 90.649 C 43.681 84.884,44.349 83.460,44.669 82.529 C 44.861 81.972,45.331 81.019,45.715 80.412 C 46.098 79.805,46.572 78.899,46.767 78.399 C 46.963 77.899,47.437 76.905,47.821 76.190 C 48.205 75.476,48.830 74.115,49.208 73.167 C 49.587 72.218,50.148 71.010,50.455 70.483 C 50.763 69.955,51.270 68.885,51.584 68.104 C 51.897 67.323,52.392 66.310,52.683 65.853 C 52.975 65.396,53.509 64.298,53.870 63.414 C 54.232 62.529,54.759 61.399,55.042 60.903 C 55.325 60.406,55.793 59.403,56.082 58.674 C 56.371 57.944,56.850 56.953,57.146 56.472 C 57.442 55.990,57.960 54.912,58.298 54.076 C 59.024 52.275,59.450 51.414,60.079 50.476 C 60.335 50.095,60.648 49.511,60.775 49.177 C 60.902 48.844,61.332 47.909,61.732 47.100 C 62.421 45.703,63.723 41.915,63.723 41.306 C 63.723 39.573,61.078 38.868,55.411 39.091 C 52.273 39.215,31.106 39.156,29.697 39.020 C 26.224 38.684,25.361 36.148,25.936 27.972 C 26.218 23.978,26.598 23.113,28.328 22.532 C 29.424 22.163,41.291 21.943,47.351 22.178 C 50.108 22.285,53.030 22.314,53.844 22.243 C 55.896 22.063,69.716 21.836,71.515 21.953 C 72.325 22.005,74.938 22.064,77.323 22.083 M195.671 23.892 C 199.338 24.106,203.227 25.210,205.725 26.747 C 206.254 27.073,207.267 27.630,207.976 27.984 C 212.496 30.243,216.159 34.336,217.720 38.874 C 221.362 49.465,221.982 51.707,221.984 54.286 C 221.987 58.768,220.766 63.692,218.872 66.844 C 218.438 67.567,217.821 68.699,217.502 69.360 C 216.204 72.046,209.105 78.319,206.147 79.391 C 205.671 79.564,204.541 80.077,203.636 80.532 C 198.301 83.211,187.058 83.228,181.727 80.565 C 180.967 80.186,179.933 79.740,179.428 79.575 C 178.923 79.409,178.152 78.964,177.715 78.585 C 177.277 78.206,176.501 77.660,175.990 77.372 C 175.479 77.084,174.575 76.407,173.981 75.869 C 173.387 75.331,172.655 74.715,172.355 74.502 C 172.055 74.288,171.536 73.704,171.203 73.204 C 170.870 72.704,170.093 71.723,169.478 71.025 C 167.771 69.091,166.827 67.102,166.328 64.392 C 166.057 62.921,165.723 61.757,165.308 60.838 C 163.378 56.564,163.327 49.240,165.199 45.022 C 165.558 44.212,165.982 42.887,166.141 42.078 C 166.301 41.268,166.562 40.398,166.722 40.145 C 167.987 38.139,169.108 36.475,170.390 34.703 C 171.048 33.791,173.643 31.164,175.479 29.550 C 176.258 28.865,177.064 28.358,177.969 27.981 C 178.705 27.674,179.701 27.141,180.181 26.795 C 180.667 26.445,181.936 25.848,183.038 25.451 C 184.129 25.058,185.440 24.583,185.952 24.394 C 187.742 23.734,190.508 23.592,195.671 23.892 M399.600 24.935 C 399.535 25.459,399.544 26.277,399.621 26.753 L 399.761 27.619 399.875 26.494 C 399.938 25.874,399.928 25.056,399.854 24.675 L 399.719 23.983 399.600 24.935 M354.632 24.418 C 354.203 24.492,353.307 24.760,352.641 25.014 C 351.921 25.287,349.986 25.718,347.879 26.074 C 344.000 26.730,344.228 26.680,342.258 27.300 C 340.827 27.751,339.974 28.311,338.830 29.552 C 338.465 29.948,337.462 30.766,336.600 31.370 C 334.654 32.735,334.494 32.880,333.297 34.372 C 332.762 35.039,331.726 36.169,330.995 36.883 C 329.386 38.454,329.010 39.014,328.434 40.695 C 327.717 42.788,326.884 44.651,325.810 46.564 C 324.519 48.864,324.311 50.314,324.270 57.316 C 324.238 62.872,324.327 63.385,325.966 67.089 C 326.494 68.283,326.926 69.304,326.926 69.358 C 326.926 69.412,327.316 70.064,327.792 70.806 C 328.268 71.548,328.658 72.248,328.658 72.360 C 328.658 73.213,330.080 75.107,331.401 76.012 C 331.718 76.231,332.488 77.182,333.112 78.127 C 333.735 79.072,334.553 80.095,334.931 80.399 C 335.308 80.703,336.539 81.744,337.667 82.711 C 340.018 84.726,340.495 84.952,344.069 85.746 C 347.942 86.606,348.267 86.690,349.462 87.148 C 350.094 87.391,351.306 87.945,352.155 88.380 C 355.302 89.994,358.634 89.876,361.818 88.038 C 363.456 87.092,364.884 86.573,367.706 85.895 C 370.965 85.113,371.579 84.828,373.188 83.351 C 373.967 82.636,375.078 81.732,375.657 81.341 C 378.959 79.115,382.198 75.363,382.944 72.900 C 383.207 72.030,383.488 71.592,384.424 70.589 C 387.194 67.618,388.143 63.303,387.551 56.370 C 387.462 55.326,387.433 53.025,387.486 51.256 C 387.641 46.122,387.100 43.686,385.475 42.207 C 384.361 41.193,383.367 39.947,382.609 38.615 C 381.557 36.765,377.427 32.900,374.422 30.953 C 374.021 30.693,373.427 30.070,373.103 29.569 C 371.627 27.290,370.501 26.737,366.609 26.383 C 365.148 26.250,363.512 25.998,362.972 25.824 C 362.433 25.650,361.485 25.369,360.866 25.198 C 360.247 25.028,359.245 24.743,358.640 24.565 C 357.510 24.234,356.014 24.179,354.632 24.418 M362.078 27.688 C 363.268 27.893,364.897 28.173,365.698 28.309 C 366.817 28.500,367.436 28.725,368.382 29.281 C 369.057 29.680,370.074 30.235,370.642 30.516 C 371.209 30.797,372.034 31.351,372.475 31.747 C 372.916 32.143,373.649 32.652,374.103 32.878 C 375.114 33.382,376.016 34.157,376.538 34.971 C 376.754 35.308,377.594 36.297,378.404 37.167 C 379.945 38.824,380.529 39.683,381.095 41.126 C 381.282 41.602,381.665 42.498,381.947 43.117 C 382.536 44.409,383.167 46.295,383.800 48.658 C 384.042 49.563,384.388 50.693,384.569 51.169 C 385.362 53.259,385.531 54.730,385.536 59.578 L 385.541 64.177 384.872 65.465 C 384.504 66.174,383.710 67.727,383.107 68.918 C 382.504 70.108,381.657 71.511,381.226 72.035 C 380.794 72.558,379.815 73.789,379.051 74.770 C 378.286 75.751,377.564 76.669,377.445 76.811 C 375.084 79.637,368.488 83.684,365.195 84.327 C 364.195 84.523,362.558 84.913,361.558 85.194 C 358.126 86.159,355.415 86.239,352.554 85.458 C 350.136 84.798,348.923 84.527,347.100 84.238 C 345.826 84.036,345.139 83.827,344.502 83.448 C 344.026 83.165,343.013 82.632,342.251 82.265 C 341.489 81.898,340.359 81.191,339.740 80.695 C 339.121 80.198,338.420 79.688,338.182 79.560 C 337.738 79.323,335.282 76.754,334.420 75.625 C 334.156 75.279,333.643 74.622,333.281 74.165 C 331.783 72.275,330.727 70.207,330.264 68.258 C 329.462 64.880,328.884 62.785,328.389 61.472 C 327.372 58.771,327.564 52.393,328.765 48.934 C 329.099 47.972,329.587 46.355,329.849 45.339 C 330.236 43.840,330.460 43.317,331.038 42.568 C 331.430 42.060,331.915 41.259,332.118 40.788 C 332.320 40.316,332.896 39.420,333.399 38.797 C 333.901 38.173,334.493 37.390,334.714 37.056 C 335.317 36.144,338.104 33.485,339.295 32.684 C 339.873 32.295,340.613 31.747,340.938 31.466 C 341.264 31.185,342.039 30.727,342.660 30.448 C 343.281 30.169,344.230 29.674,344.768 29.347 C 345.952 28.628,348.358 27.958,350.668 27.704 C 351.604 27.601,352.703 27.446,353.111 27.361 C 354.428 27.085,359.697 27.277,362.078 27.688 M399.593 42.468 C 399.440 43.737,399.459 45.065,399.632 45.339 C 399.888 45.742,400.000 45.112,400.000 43.276 C 400.000 41.433,399.771 40.979,399.593 42.468 M124.416 51.769 C 122.629 52.091,121.399 52.458,120.346 52.984 C 120.013 53.150,119.429 53.386,119.048 53.507 C 118.348 53.730,115.505 54.935,114.922 55.256 C 114.749 55.352,114.281 55.595,113.883 55.797 C 112.863 56.315,110.627 57.894,109.747 58.719 C 109.339 59.101,108.459 59.770,107.792 60.205 C 106.192 61.249,105.391 62.031,104.632 63.290 C 104.288 63.861,103.220 65.420,102.259 66.753 C 100.451 69.261,99.958 70.177,99.466 71.948 C 99.308 72.519,98.884 73.846,98.525 74.896 C 96.549 80.669,96.548 87.841,98.522 93.008 C 98.718 93.520,99.114 94.786,99.402 95.822 C 100.986 101.507,103.265 104.879,107.364 107.603 C 108.272 108.205,109.274 109.001,109.590 109.371 C 112.971 113.321,113.875 113.713,122.338 114.902 C 122.814 114.969,123.488 115.167,123.836 115.342 C 126.277 116.571,130.379 116.640,133.247 115.500 C 133.957 115.218,136.942 114.528,139.623 114.027 C 143.295 113.341,144.955 112.647,146.616 111.106 C 148.113 109.715,148.564 109.365,149.619 108.771 C 151.116 107.930,151.902 107.158,153.124 105.329 C 153.746 104.398,154.733 103.091,155.318 102.424 C 157.082 100.415,158.334 98.065,159.057 95.411 C 159.277 94.602,159.776 92.926,160.166 91.688 C 160.893 89.379,161.046 88.534,161.386 84.935 C 161.601 82.653,161.464 81.182,160.878 79.481 C 160.546 78.520,160.165 77.235,159.132 73.593 C 157.913 69.299,156.542 66.717,154.697 65.238 C 153.875 64.580,153.328 63.939,152.673 62.870 C 152.007 61.783,151.486 61.179,150.658 60.529 C 150.044 60.048,148.815 58.952,147.926 58.095 C 147.037 57.238,146.285 56.516,146.255 56.491 C 146.102 56.363,141.775 54.825,140.952 54.606 C 140.429 54.467,139.141 53.974,138.091 53.512 C 133.493 51.486,129.096 50.926,124.416 51.769 M134.493 54.884 C 135.426 55.161,137.336 55.704,138.736 56.090 C 140.136 56.476,141.584 56.968,141.953 57.184 C 147.635 60.501,151.872 64.461,153.761 68.218 C 154.377 69.446,156.194 74.966,156.869 77.662 C 157.155 78.805,157.599 80.325,157.854 81.039 C 158.422 82.628,158.724 86.959,158.425 89.238 C 158.022 92.311,156.182 97.172,154.824 98.751 C 154.561 99.057,153.785 100.087,153.100 101.039 C 150.273 104.967,149.174 106.007,144.847 108.847 C 141.471 111.063,139.628 111.921,137.316 112.357 C 136.316 112.545,134.186 112.949,132.583 113.254 C 129.320 113.874,128.593 113.865,126.280 113.176 C 125.540 112.955,123.805 112.643,122.424 112.482 C 119.406 112.129,118.324 111.913,117.749 111.547 C 117.511 111.396,116.559 110.875,115.634 110.389 C 113.378 109.205,111.835 107.972,108.482 104.675 L 105.664 101.905 104.523 99.567 C 103.820 98.126,103.286 96.765,103.131 96.017 C 102.831 94.571,102.847 94.619,101.885 92.192 C 100.256 88.078,99.996 79.633,101.382 75.845 C 102.289 73.369,103.454 70.696,103.935 69.992 C 104.214 69.583,104.776 68.531,105.183 67.654 C 105.920 66.065,109.293 62.486,111.490 60.960 C 111.810 60.738,112.484 60.195,112.988 59.754 C 114.749 58.213,117.547 56.798,120.260 56.075 C 121.593 55.720,123.212 55.230,123.857 54.987 C 124.797 54.633,125.364 54.541,126.714 54.525 C 127.640 54.514,128.905 54.444,129.524 54.369 C 131.170 54.170,132.578 54.316,134.493 54.884 M284.125 68.918 C 280.505 69.497,278.712 70.059,277.100 71.122 C 276.601 71.451,275.816 71.864,275.357 72.038 C 272.858 72.988,270.200 74.838,268.769 76.623 C 267.657 78.011,267.244 78.428,266.023 79.394 C 265.086 80.135,264.468 80.928,263.320 82.860 C 262.922 83.529,262.047 84.815,261.373 85.718 C 259.661 88.015,259.596 88.128,259.211 89.460 C 257.782 94.410,257.440 105.322,258.548 110.632 C 259.087 113.218,259.410 113.860,261.586 116.668 C 262.172 117.425,262.805 118.387,262.993 118.806 C 263.180 119.224,263.504 119.957,263.711 120.432 C 264.164 121.474,268.985 126.329,270.066 126.834 C 273.928 128.637,275.211 129.361,277.101 130.802 C 279.135 132.354,282.384 133.001,286.147 132.606 C 287.290 132.486,290.017 132.382,292.208 132.376 L 296.190 132.364 297.798 131.802 C 299.750 131.119,300.678 130.638,301.865 129.692 C 302.363 129.295,304.337 128.208,306.252 127.277 C 309.932 125.487,310.132 125.346,313.208 122.383 C 314.216 121.411,314.896 120.559,315.506 119.506 C 315.982 118.682,316.449 117.892,316.544 117.749 C 316.639 117.606,317.076 116.749,317.514 115.844 C 317.953 114.939,318.541 113.771,318.820 113.247 C 321.164 108.857,321.878 104.415,321.390 97.267 C 321.178 94.152,321.052 93.685,319.657 90.823 C 319.100 89.680,318.322 87.887,317.930 86.840 C 316.480 82.973,316.279 82.673,312.821 79.202 C 309.088 75.456,308.461 75.044,303.746 73.238 C 303.426 73.116,302.513 72.412,301.717 71.675 C 300.059 70.139,299.084 69.719,296.710 69.520 C 295.948 69.456,294.506 69.294,293.506 69.159 C 291.257 68.855,285.452 68.706,284.125 68.918 M293.292 71.619 C 297.469 72.394,299.966 73.066,300.938 73.676 C 301.470 74.011,302.333 74.487,302.857 74.735 C 303.381 74.982,304.204 75.371,304.687 75.598 C 305.555 76.007,307.226 77.249,308.398 78.355 C 308.732 78.670,309.386 79.167,309.853 79.459 C 310.431 79.821,310.945 80.363,311.469 81.164 C 311.891 81.809,312.416 82.532,312.637 82.771 C 314.124 84.376,314.961 86.324,315.681 89.851 C 316.088 91.847,316.347 92.673,316.910 93.766 C 319.081 97.979,319.643 101.588,318.719 105.368 C 318.463 106.416,318.098 108.013,317.909 108.918 C 317.439 111.161,315.644 114.760,313.757 117.242 C 313.001 118.235,312.038 119.564,311.617 120.196 C 311.196 120.827,310.483 121.646,310.033 122.014 C 309.584 122.383,308.467 123.305,307.552 124.063 C 306.207 125.178,305.555 125.580,304.156 126.154 C 303.203 126.545,301.957 127.167,301.385 127.535 C 300.718 127.965,299.262 128.573,297.316 129.233 L 294.286 130.260 289.957 130.430 L 285.628 130.599 283.412 129.888 C 282.193 129.497,281.114 129.177,281.014 129.177 C 280.381 129.177,278.799 128.520,277.818 127.848 C 277.186 127.415,276.067 126.850,275.333 126.593 C 274.551 126.319,273.573 125.805,272.973 125.350 C 272.409 124.924,271.753 124.451,271.515 124.298 C 270.759 123.815,267.214 120.211,266.912 119.618 C 266.752 119.304,266.229 118.505,265.749 117.842 C 265.201 117.084,264.669 116.055,264.317 115.071 C 264.009 114.211,263.506 112.883,263.201 112.121 C 262.895 111.359,262.452 110.074,262.215 109.264 C 261.978 108.455,261.554 107.091,261.273 106.234 C 260.250 103.122,260.220 98.380,261.204 95.367 C 261.443 94.635,261.871 93.088,262.155 91.929 C 262.499 90.529,262.868 89.493,263.255 88.843 C 263.576 88.305,264.057 87.293,264.324 86.594 C 264.591 85.895,265.131 84.924,265.524 84.437 C 265.917 83.949,266.528 83.144,266.880 82.648 C 268.386 80.530,273.084 76.294,275.024 75.306 C 275.573 75.026,276.430 74.537,276.929 74.219 C 278.614 73.145,279.245 72.923,282.700 72.189 C 287.692 71.130,289.991 71.006,293.292 71.619 M399.602 74.007 C 399.343 75.815,399.519 80.173,399.851 80.173 C 400.032 80.173,400.032 74.827,399.852 73.853 L 399.723 73.160 399.602 74.007 M399.475 84.523 C 399.330 85.060,399.337 85.629,399.504 86.818 C 399.771 88.731,399.973 88.148,399.990 85.411 C 400.001 83.698,399.793 83.340,399.475 84.523 M216.537 97.220 C 212.938 97.759,211.228 98.389,208.447 100.200 C 207.808 100.616,206.366 101.346,205.244 101.821 C 204.122 102.297,202.864 102.956,202.450 103.286 C 198.943 106.078,197.363 107.715,195.775 110.202 C 195.598 110.479,195.093 111.076,194.653 111.528 C 194.213 111.980,193.549 112.961,193.179 113.708 C 192.808 114.454,192.180 115.610,191.783 116.277 C 190.882 117.789,189.933 120.660,189.437 123.377 C 189.228 124.519,188.909 125.950,188.728 126.555 C 187.931 129.216,189.093 135.895,191.112 140.260 C 191.266 140.593,191.730 141.833,192.143 143.016 C 193.207 146.060,194.054 147.456,195.869 149.159 C 196.693 149.931,197.949 151.270,198.662 152.134 C 200.215 154.018,200.950 154.572,203.901 156.082 C 205.338 156.817,206.565 157.592,207.278 158.214 C 209.668 160.300,210.783 160.528,219.134 160.640 C 224.654 160.714,225.757 160.685,227.100 160.434 C 227.957 160.274,229.242 160.040,229.957 159.913 C 233.093 159.356,233.796 159.083,235.584 157.729 C 236.251 157.224,237.771 156.299,238.961 155.674 C 240.833 154.690,241.207 154.420,241.732 153.675 C 242.065 153.201,243.214 151.947,244.286 150.887 C 245.357 149.827,246.234 148.879,246.234 148.780 C 246.234 148.481,247.728 146.050,248.699 144.770 C 250.791 142.012,252.553 135.121,252.554 129.697 C 252.554 122.540,251.496 117.047,249.658 114.670 C 247.810 112.280,246.894 111.005,246.321 110.030 C 245.625 108.843,244.976 108.189,243.149 106.831 C 242.270 106.178,241.678 105.565,241.216 104.834 C 240.526 103.741,239.722 102.952,238.966 102.626 C 238.725 102.522,238.255 102.272,237.922 102.070 C 237.589 101.869,236.308 101.297,235.075 100.800 C 233.843 100.303,232.184 99.504,231.389 99.024 C 229.704 98.006,228.304 97.678,225.600 97.668 C 224.679 97.665,223.343 97.551,222.630 97.414 C 220.632 97.032,218.287 96.957,216.537 97.220 M399.866 98.038 C 399.844 98.196,399.729 98.359,399.610 98.398 C 399.335 98.491,399.329 103.769,399.604 104.416 C 399.914 105.145,400.022 104.007,399.960 100.693 C 399.929 99.074,399.887 97.879,399.866 98.038 M225.524 100.282 C 228.713 100.734,229.811 101.002,231.353 101.706 C 232.061 102.029,233.394 102.541,234.314 102.844 C 235.967 103.388,236.478 103.706,239.744 106.216 C 240.031 106.437,240.612 107.077,241.034 107.638 C 241.456 108.199,242.403 109.284,243.137 110.050 C 244.974 111.965,246.801 115.678,247.706 119.331 C 248.033 120.653,248.537 122.273,248.825 122.930 C 250.241 126.156,250.652 132.338,249.762 137.029 C 248.768 142.269,240.833 152.440,236.221 154.386 C 235.585 154.654,234.516 155.205,233.846 155.610 C 233.005 156.117,232.011 156.513,230.642 156.884 C 229.551 157.181,228.056 157.695,227.320 158.027 C 224.450 159.322,218.144 159.191,213.853 157.747 C 213.043 157.475,211.661 157.085,210.781 156.880 C 209.452 156.572,209.042 156.392,208.357 155.817 C 207.903 155.436,206.880 154.819,206.082 154.446 C 204.635 153.770,203.571 152.893,200.083 149.499 C 197.072 146.570,195.028 142.739,194.300 138.663 C 194.101 137.547,193.787 136.222,193.601 135.719 C 191.941 131.213,191.902 126.907,193.482 122.484 C 193.623 122.089,193.865 121.076,194.020 120.233 C 194.402 118.148,194.586 117.617,195.240 116.710 C 195.550 116.281,196.094 115.346,196.450 114.632 C 196.806 113.918,197.424 112.866,197.823 112.294 C 198.223 111.723,198.756 110.896,199.009 110.456 C 199.261 110.016,200.307 108.886,201.333 107.945 C 202.358 107.004,203.302 106.136,203.430 106.017 C 203.558 105.897,204.027 105.552,204.472 105.249 C 204.917 104.947,205.619 104.406,206.031 104.048 C 206.534 103.610,207.244 103.244,208.195 102.931 C 208.973 102.674,210.351 102.132,211.255 101.725 C 212.947 100.965,214.115 100.651,216.970 100.191 C 217.874 100.045,218.810 99.891,219.048 99.848 C 219.801 99.712,223.029 99.928,225.524 100.282 M347.186 107.081 C 344.679 107.470,343.874 107.693,342.432 108.402 C 341.666 108.779,340.065 109.445,338.874 109.883 C 337.684 110.320,336.103 110.902,335.362 111.176 C 333.009 112.044,330.996 113.422,329.626 115.102 C 329.332 115.463,328.366 116.455,327.479 117.306 C 325.421 119.284,324.960 119.925,323.410 122.962 C 322.711 124.333,321.744 125.974,321.260 126.609 C 319.976 128.297,319.723 129.134,319.592 132.121 C 319.531 133.502,319.365 135.372,319.222 136.277 C 318.933 138.115,319.185 144.738,319.654 147.619 C 320.039 149.985,321.354 152.926,323.161 155.464 C 323.479 155.911,323.930 156.667,324.163 157.143 C 324.437 157.705,325.262 158.677,326.513 159.913 C 327.573 160.961,328.754 162.289,329.137 162.864 C 330.008 164.172,330.059 164.213,331.618 164.852 C 333.101 165.460,334.322 166.245,335.990 167.662 C 337.702 169.116,338.950 169.676,341.645 170.199 C 344.930 170.835,358.221 170.416,360.323 169.610 C 360.669 169.477,361.273 169.286,361.665 169.186 C 362.391 169.000,365.538 167.525,368.055 166.191 C 370.385 164.956,371.206 164.295,372.447 162.658 C 373.282 161.557,373.960 160.882,374.854 160.260 C 376.389 159.192,376.903 158.489,377.766 156.279 C 378.213 155.135,378.707 154.227,379.226 153.595 C 381.675 150.616,382.069 149.172,382.249 142.511 C 382.305 140.463,382.390 137.597,382.438 136.141 C 382.533 133.283,382.358 131.445,381.789 129.303 C 381.451 128.031,381.065 127.320,379.576 125.231 C 378.951 124.354,378.323 123.145,377.861 121.930 C 377.678 121.448,377.362 120.837,377.159 120.571 C 376.955 120.304,376.390 119.541,375.903 118.874 C 375.012 117.657,373.966 116.581,373.160 116.054 C 372.163 115.402,370.597 114.183,369.870 113.491 C 368.425 112.117,367.305 111.603,362.165 109.956 C 360.926 109.560,359.633 109.053,359.290 108.831 C 356.974 107.331,351.075 106.478,347.186 107.081 M356.843 110.204 C 357.535 110.362,358.742 110.767,359.527 111.103 C 360.311 111.440,361.606 111.943,362.406 112.220 C 365.978 113.462,369.804 116.180,372.743 119.567 C 375.080 122.260,375.636 123.169,376.236 125.281 C 376.425 125.948,376.757 127.117,376.974 127.879 C 377.191 128.641,377.583 129.771,377.844 130.390 C 378.687 132.387,380.067 136.330,380.360 137.576 C 381.113 140.781,379.796 148.142,377.912 151.255 C 377.566 151.827,377.025 152.801,376.710 153.420 C 375.802 155.204,373.443 158.330,372.486 159.018 C 372.021 159.352,371.379 159.951,371.059 160.349 C 370.739 160.748,369.931 161.466,369.264 161.945 C 368.598 162.424,367.857 162.994,367.619 163.213 C 366.190 164.523,358.681 167.905,356.261 168.328 C 352.796 168.933,344.008 168.291,342.018 167.286 C 341.437 166.993,340.333 166.524,339.565 166.243 C 338.796 165.963,337.775 165.445,337.296 165.094 C 336.817 164.742,335.866 164.227,335.182 163.950 C 333.578 163.298,333.185 163.005,331.515 161.214 C 327.631 157.047,326.020 154.564,325.095 151.321 C 324.774 150.194,324.270 148.794,323.975 148.211 C 321.850 144.001,321.903 133.392,324.071 128.905 C 324.489 128.039,324.997 126.888,325.200 126.347 C 325.402 125.806,325.843 124.955,326.179 124.456 C 326.515 123.958,326.972 123.192,327.194 122.754 C 329.055 119.088,335.646 113.416,339.363 112.282 C 340.189 112.030,341.523 111.552,342.326 111.220 C 345.792 109.785,352.850 109.291,356.843 110.204 M399.590 112.251 C 399.448 112.781,399.471 114.908,399.629 115.758 L 399.757 116.450 399.879 115.604 C 400.167 113.590,399.940 110.945,399.590 112.251 M399.591 122.164 C 399.428 122.590,399.462 126.109,399.632 126.378 C 399.892 126.788,400.000 126.139,399.997 124.185 C 399.995 122.370,399.829 121.545,399.591 122.164 M27.100 125.545 C 25.292 125.772,23.935 126.182,22.729 126.867 C 22.085 127.232,21.354 127.621,21.104 127.731 C 20.384 128.047,17.457 130.268,16.856 130.954 C 15.031 133.035,15.641 138.373,18.069 141.581 C 19.736 143.783,19.991 145.164,18.956 146.373 C 18.620 146.765,18.143 147.518,17.896 148.045 C 17.649 148.573,17.297 149.316,17.114 149.697 C 16.035 151.945,17.006 153.973,19.630 154.954 C 21.138 155.519,23.093 155.724,26.926 155.719 C 33.022 155.713,33.867 155.442,36.252 152.727 C 37.259 151.582,38.104 150.789,38.535 150.584 L 39.221 150.259 40.264 150.799 C 40.909 151.133,42.078 152.063,43.325 153.235 C 45.954 155.704,45.983 155.714,50.805 155.803 C 57.476 155.926,59.084 155.381,61.538 152.164 C 62.063 151.475,62.591 148.986,62.465 147.792 C 62.297 146.198,64.224 144.209,65.412 144.751 C 65.958 144.999,66.215 145.341,66.985 146.840 C 67.302 147.459,67.857 148.355,68.218 148.831 C 68.579 149.307,69.069 150.011,69.307 150.395 C 70.335 152.052,72.418 154.708,72.980 155.077 C 74.550 156.105,79.753 155.481,81.646 154.037 C 82.353 153.498,83.216 151.856,83.550 150.416 C 83.873 149.022,85.899 145.003,86.550 144.465 C 87.392 143.768,88.137 144.050,88.551 145.224 C 89.512 147.947,90.666 150.028,91.726 150.947 C 96.799 155.346,98.017 155.791,104.502 155.620 C 109.105 155.499,110.504 155.010,112.490 152.826 C 113.512 151.701,113.690 151.236,113.867 149.236 C 113.988 147.873,114.429 146.793,115.017 146.427 C 115.611 146.057,115.752 146.510,115.929 149.351 C 116.212 153.905,117.898 155.638,121.880 155.464 C 125.791 155.293,126.695 154.017,126.949 148.312 C 127.297 140.492,128.000 138.009,129.866 138.009 C 131.742 138.009,131.920 138.828,132.190 148.708 C 132.338 154.099,132.890 155.047,136.104 155.424 C 139.060 155.770,141.675 154.579,142.731 152.406 L 143.290 151.255 143.347 146.361 C 143.480 135.069,142.541 131.429,138.451 127.380 C 136.652 125.598,131.437 124.950,128.052 126.086 C 126.958 126.454,126.536 126.494,123.720 126.494 L 120.600 126.494 119.443 127.063 C 118.147 127.701,117.100 128.758,116.732 129.802 C 115.929 132.080,114.311 131.652,110.579 128.177 C 108.167 125.932,107.116 125.554,103.185 125.522 C 99.502 125.492,98.430 125.771,96.104 127.361 C 93.257 129.309,92.059 129.465,90.375 128.111 C 88.620 126.700,88.037 126.494,85.801 126.494 C 82.628 126.494,81.916 126.955,80.689 129.811 C 80.368 130.558,79.829 131.597,79.490 132.121 C 79.152 132.645,78.719 133.380,78.528 133.754 C 78.017 134.757,76.877 135.919,76.228 136.099 C 75.028 136.431,74.397 135.465,73.769 132.333 C 73.068 128.845,72.211 127.467,70.297 126.751 C 68.616 126.123,64.800 126.442,63.030 127.360 C 61.597 128.103,60.375 128.014,59.324 127.091 C 57.981 125.911,57.455 125.799,53.333 125.814 C 48.201 125.832,46.367 126.390,43.961 128.664 C 43.354 129.237,42.413 129.947,41.869 130.241 C 39.819 131.351,38.990 132.366,38.214 134.719 C 37.389 137.221,37.008 137.865,36.244 138.051 C 35.442 138.247,34.914 136.225,35.649 135.771 C 35.752 135.707,36.033 135.036,36.274 134.280 C 38.116 128.473,34.119 124.667,27.100 125.545 M104.416 127.427 C 108.411 128.122,110.920 129.855,113.894 133.973 C 114.722 135.121,114.870 135.865,114.881 138.961 C 114.896 142.865,114.459 143.542,111.602 144.035 C 109.116 144.463,108.978 145.253,111.004 147.446 C 113.591 150.247,109.783 154.283,104.412 154.431 C 99.642 154.563,98.243 153.996,93.645 150.063 C 90.641 147.493,89.584 142.727,90.741 136.970 C 91.436 133.510,92.156 132.344,94.459 130.951 C 95.030 130.606,95.773 130.105,96.110 129.837 C 96.654 129.406,99.659 127.962,101.299 127.343 C 102.085 127.047,102.258 127.051,104.416 127.427 M134.506 127.504 C 139.922 128.911,141.474 133.045,141.471 146.058 C 141.469 152.616,140.567 154.108,136.721 153.906 C 133.653 153.745,133.619 153.654,133.490 145.195 C 133.380 138.039,133.325 137.550,132.517 136.479 C 131.191 134.722,127.700 134.970,126.632 136.897 C 125.964 138.103,125.579 141.066,125.454 145.974 C 125.275 152.974,124.787 154.026,121.717 154.026 C 118.957 154.026,118.037 152.390,118.014 147.446 C 118.008 145.922,117.895 143.551,117.765 142.176 C 117.575 140.175,117.569 139.346,117.734 138.020 C 117.847 137.109,118.089 135.021,118.271 133.379 C 118.454 131.738,118.715 130.179,118.852 129.916 C 119.686 128.313,121.779 127.892,124.181 128.843 C 125.571 129.393,126.677 129.259,128.496 128.319 C 130.990 127.030,132.101 126.879,134.506 127.504 M30.650 127.549 C 32.491 128.095,34.422 129.109,34.799 129.726 C 36.342 132.257,32.847 136.150,30.390 134.637 C 28.313 133.358,26.592 135.198,28.257 136.916 C 28.690 137.363,29.207 137.617,30.486 138.012 C 32.159 138.528,34.030 139.563,35.964 141.044 C 36.458 141.422,37.059 141.870,37.300 142.038 C 37.800 142.389,38.167 143.515,38.044 144.318 C 37.999 144.610,37.873 145.511,37.763 146.320 C 37.473 148.465,37.164 149.240,36.103 150.489 C 35.582 151.101,35.155 151.651,35.154 151.711 C 35.150 151.881,33.351 153.198,32.557 153.612 C 31.586 154.118,28.613 154.534,26.061 154.521 C 20.705 154.494,17.582 152.137,19.061 149.239 C 19.992 147.414,21.605 146.910,24.773 147.457 C 28.512 148.102,30.053 146.437,26.926 145.131 C 20.095 142.279,18.585 140.864,18.087 136.843 C 17.557 132.576,18.550 131.003,23.299 128.586 C 25.807 127.310,28.546 126.924,30.650 127.549 M55.714 127.799 C 56.798 128.173,59.383 129.628,60.644 130.576 C 61.996 131.591,62.465 131.530,63.267 130.231 C 64.941 127.519,69.432 127.589,71.366 130.357 C 71.990 131.250,72.162 131.774,72.889 134.978 C 73.229 136.476,75.059 140.516,75.601 140.966 C 76.412 141.639,77.960 140.238,78.911 137.969 C 80.428 134.354,81.563 131.516,81.892 130.521 C 82.494 128.701,83.395 128.205,85.820 128.356 C 87.619 128.468,88.415 128.888,88.589 129.816 C 88.767 130.766,88.545 132.709,88.174 133.448 C 87.833 134.126,87.217 135.926,86.584 138.095 C 86.389 138.762,86.037 139.658,85.802 140.087 C 84.667 142.154,83.044 146.074,82.253 148.658 C 82.049 149.325,81.763 150.258,81.617 150.732 C 81.278 151.836,80.526 152.780,79.507 153.379 C 78.397 154.032,74.308 154.107,73.476 153.490 C 72.790 152.980,70.899 149.838,70.100 147.879 C 69.731 146.974,69.157 145.791,68.824 145.251 C 68.440 144.626,68.037 143.574,67.720 142.364 C 67.073 139.896,65.393 137.186,64.755 137.580 C 64.362 137.823,63.904 139.141,63.900 140.040 C 63.886 143.268,61.064 144.505,54.872 143.997 C 51.739 143.740,49.341 144.311,49.073 145.378 C 48.411 148.017,52.839 148.734,56.229 146.536 C 57.800 145.518,60.845 147.811,60.505 149.756 C 60.283 151.027,58.606 153.096,57.217 153.814 C 55.220 154.847,48.695 154.617,46.962 153.453 C 41.489 149.775,40.099 148.380,39.455 145.915 C 39.277 145.233,38.976 144.464,38.786 144.206 C 37.875 142.966,39.407 135.273,40.928 133.454 C 42.015 132.152,42.325 131.841,43.186 131.187 C 43.653 130.833,44.359 130.278,44.755 129.953 C 47.250 127.909,52.839 126.811,55.714 127.799 M101.588 133.543 C 99.724 134.042,98.957 137.220,100.620 137.553 C 101.498 137.728,103.411 137.655,104.060 137.420 C 106.779 136.438,104.446 132.778,101.588 133.543 M50.629 133.850 C 50.191 134.027,48.312 136.198,48.312 136.527 C 48.312 137.537,52.013 138.349,53.388 137.641 C 56.041 136.274,53.448 132.711,50.629 133.850 M399.591 136.190 C 399.442 136.578,399.450 140.346,399.602 141.404 L 399.723 142.251 399.852 141.558 C 400.177 139.804,399.955 135.241,399.591 136.190 M102.338 143.834 C 100.528 144.189,99.913 144.594,99.913 145.431 C 99.913 147.017,102.864 148.113,104.872 147.274 C 106.138 146.745,108.367 144.780,108.014 144.504 C 107.389 144.016,103.656 143.575,102.338 143.834 M399.580 157.316 C 399.151 161.050,399.186 163.520,399.672 163.821 C 399.961 164.000,400.111 158.674,399.864 157.050 L 399.719 156.104 399.580 157.316 " stroke="none" fill="#5dcf9a" fill-rule="evenodd"></path></g></svg>