<svg id="svg" xmlns="http://www.w3.org/2000/svg" xmlns:xlink="http://www.w3.org/1999/xlink" width="400" height="178.57142857142856" viewBox="0, 0, 400,178.57142857142856"><g id="svgg"><path id="path0" d="M301.339 53.514 C 300.946 53.553,299.179 53.821,297.411 54.110 C 295.643 54.399,293.112 54.721,291.786 54.826 C 290.460 54.930,288.813 55.147,288.125 55.307 C 286.454 55.695,284.854 55.659,283.125 55.193 C 281.747 54.822,281.480 54.812,275.536 54.926 C 269.138 55.048,265.927 54.899,263.605 54.371 C 262.482 54.115,262.303 54.121,260.713 54.463 C 259.464 54.732,257.586 54.895,253.571 55.085 C 247.372 55.378,246.615 55.519,245.709 56.551 C 244.809 57.577,244.599 58.222,244.893 59.058 C 245.181 59.873,245.261 81.421,244.988 84.596 C 244.821 86.542,244.523 87.364,243.599 88.433 C 243.320 88.754,243.009 89.339,242.907 89.732 C 242.805 90.125,242.667 90.575,242.602 90.732 C 242.338 91.363,249.441 92.330,252.411 92.067 C 255.701 91.775,257.106 91.786,261.161 92.135 C 268.096 92.731,270.447 93.154,273.535 94.361 C 275.743 95.223,277.724 94.922,278.722 93.571 C 279.259 92.844,280.032 92.480,281.607 92.211 C 282.344 92.085,283.681 91.829,284.578 91.642 C 286.079 91.329,286.300 91.323,287.346 91.567 C 288.122 91.748,289.671 91.844,292.232 91.871 C 294.295 91.892,296.424 91.968,296.964 92.040 C 297.504 92.112,299.393 92.079,301.161 91.967 C 307.162 91.585,317.305 91.720,321.187 92.233 L 324.529 92.675 325.434 92.241 C 326.646 91.660,326.777 91.538,327.744 90.089 C 328.741 88.595,329.364 87.728,329.824 87.194 C 330.909 85.935,331.394 83.320,330.885 81.479 C 330.631 80.563,329.503 78.198,329.232 78.013 C 328.713 77.659,329.073 74.097,330.097 69.464 C 330.633 67.037,330.167 59.607,329.410 58.510 C 328.628 57.379,326.263 56.815,321.490 56.624 C 317.559 56.467,316.940 56.274,315.031 54.616 L 314.018 53.736 309.821 53.656 C 307.513 53.613,304.821 53.547,303.839 53.510 C 302.857 53.473,301.732 53.475,301.339 53.514 M274.463 123.541 C 274.120 123.724,273.478 124.079,273.036 124.330 C 271.683 125.099,268.209 126.382,265.693 127.042 C 264.379 127.386,262.902 127.797,262.411 127.955 C 259.443 128.909,258.420 129.176,256.273 129.560 C 254.960 129.795,253.013 130.243,251.946 130.557 C 249.678 131.224,249.934 130.716,249.656 135.089 C 249.556 136.666,249.264 139.027,249.005 140.357 C 248.622 142.328,248.528 143.371,248.490 146.071 C 248.465 147.888,248.382 151.022,248.305 153.036 C 247.978 161.673,248.980 163.584,254.911 165.640 C 256.175 166.078,256.606 166.137,258.661 166.148 C 263.426 166.174,272.678 165.866,275.233 165.596 C 277.334 165.373,278.874 165.342,282.733 165.442 C 285.404 165.512,288.071 165.577,288.661 165.588 C 290.431 165.621,292.238 164.279,292.966 162.393 C 293.316 161.485,293.337 161.024,293.217 156.875 C 293.183 155.696,293.264 152.924,293.397 150.714 C 293.531 148.504,293.646 143.884,293.654 140.446 C 293.663 136.228,293.733 134.051,293.869 133.750 C 293.979 133.504,294.404 132.595,294.813 131.729 C 295.606 130.052,295.660 129.623,295.089 129.527 C 294.893 129.494,294.210 129.380,293.571 129.274 C 292.933 129.168,290.000 129.010,287.054 128.923 C 279.526 128.700,279.533 128.703,278.650 126.172 C 278.160 124.769,277.595 123.948,277.110 123.933 C 277.043 123.930,276.761 123.836,276.485 123.723 C 276.208 123.609,275.902 123.496,275.804 123.472 C 275.705 123.447,275.504 123.378,275.355 123.318 C 275.207 123.258,274.805 123.359,274.463 123.541 M325.179 127.750 C 323.943 128.401,318.303 129.053,312.609 129.202 C 308.639 129.306,308.325 129.365,306.035 130.435 L 305.017 130.911 305.655 132.286 C 306.521 134.155,306.717 134.849,306.848 136.518 C 306.909 137.304,307.095 139.131,307.262 140.579 C 307.518 142.817,307.531 143.460,307.345 144.865 C 306.923 148.051,307.204 161.106,307.715 162.054 C 308.655 163.796,309.287 163.980,313.839 163.836 C 316.220 163.761,318.437 163.793,319.911 163.925 C 321.188 164.038,323.558 164.200,325.179 164.284 C 326.903 164.373,328.903 164.596,330.000 164.822 C 333.420 165.527,333.665 165.544,336.529 165.270 C 340.456 164.893,341.188 164.460,341.960 162.054 C 342.086 161.661,342.513 160.496,342.909 159.464 C 343.717 157.358,343.780 156.579,343.509 152.054 C 343.433 150.777,343.334 146.558,343.289 142.679 C 343.158 131.143,342.931 130.600,338.036 130.103 C 337.397 130.038,336.353 129.902,335.714 129.801 C 334.836 129.661,334.053 129.679,332.500 129.874 C 329.884 130.203,329.342 130.071,327.289 128.606 C 326.436 127.998,325.713 127.503,325.682 127.507 C 325.651 127.511,325.424 127.620,325.179 127.750 " stroke="none" fill="#1e5f3f" fill-rule="evenodd"></path><path id="path1" d="M2.232 0.117 C 2.036 0.162,1.674 0.268,1.429 0.353 C 1.183 0.437,0.761 0.555,0.491 0.614 L 0.000 0.721 0.000 89.646 L 0.000 178.571 200.000 178.571 L 400.000 178.571 399.956 89.598 L 399.911 0.625 399.375 0.655 C 396.530 0.814,394.643 0.619,394.643 0.165 C 394.643 0.064,369.492 0.000,330.357 0.000 C 285.455 0.000,266.071 0.057,266.071 0.188 C 266.071 0.317,264.798 0.345,262.009 0.277 C 257.112 0.158,2.742 0.001,2.232 0.117 M289.732 13.928 C 294.592 14.071,295.540 14.147,297.500 14.553 C 299.390 14.944,300.484 15.040,304.643 15.179 C 313.667 15.481,315.237 16.469,316.598 22.700 C 317.291 25.870,317.438 27.409,317.477 31.875 C 317.496 33.938,317.630 37.393,317.775 39.554 C 317.921 41.714,318.033 45.385,318.024 47.710 C 318.000 53.961,318.327 54.455,322.500 54.467 C 329.371 54.487,332.822 55.137,333.836 56.603 C 334.964 58.234,335.455 64.772,334.740 68.661 C 334.125 72.006,334.007 74.278,334.353 76.107 C 336.025 84.959,335.628 88.505,332.634 91.473 C 332.064 92.038,331.511 92.500,331.405 92.500 C 330.931 92.500,329.843 93.623,329.463 94.505 C 329.072 95.411,329.063 95.555,329.206 98.304 C 329.430 102.592,329.403 105.983,329.133 107.679 C 328.952 108.813,328.929 109.827,329.043 111.696 C 329.126 113.071,329.195 116.326,329.195 118.929 C 329.197 125.527,329.269 125.641,333.560 125.807 C 334.696 125.850,336.684 125.928,337.979 125.979 C 341.617 126.122,343.993 126.501,345.982 127.257 C 347.383 127.789,351.084 130.846,351.357 131.696 C 351.420 131.893,351.635 132.415,351.836 132.857 C 352.081 133.399,352.250 134.301,352.353 135.625 C 352.437 136.705,352.585 138.230,352.682 139.013 C 352.778 139.796,352.857 141.429,352.857 142.641 C 352.857 143.853,352.931 144.984,353.022 145.153 C 353.113 145.322,353.223 145.940,353.268 146.525 C 353.313 147.110,353.449 148.261,353.570 149.082 C 353.840 150.914,353.731 152.459,353.194 154.375 C 352.824 155.698,352.609 156.138,351.543 157.760 C 350.561 159.252,348.283 163.536,348.021 164.383 C 347.740 165.289,346.930 166.270,346.200 166.589 C 345.222 167.016,342.325 168.000,341.071 168.331 C 339.268 168.808,334.019 168.854,331.518 168.415 C 329.279 168.022,328.014 167.825,325.625 167.496 C 324.839 167.387,323.232 167.064,322.054 166.778 C 318.436 165.899,317.211 165.820,313.964 166.261 C 309.214 166.905,308.171 166.680,306.036 164.546 C 304.244 162.754,304.234 162.710,304.151 156.607 C 304.040 148.448,304.039 147.977,304.115 144.554 C 304.172 142.012,304.128 141.134,303.908 140.357 C 303.699 139.622,303.646 138.786,303.697 137.032 C 303.764 134.731,303.757 134.679,303.307 134.144 C 301.344 131.811,296.897 132.829,297.225 135.536 C 297.537 138.115,297.518 139.850,297.146 142.946 C 296.934 144.714,296.688 147.004,296.599 148.036 C 296.511 149.067,296.352 150.674,296.247 151.607 C 295.836 155.258,295.833 156.762,296.233 158.563 C 296.874 161.453,296.682 162.160,294.674 164.300 C 293.920 165.103,293.007 166.227,292.644 166.799 C 291.531 168.555,289.900 169.290,287.884 168.943 C 285.822 168.588,284.463 168.549,280.893 168.741 C 273.509 169.137,265.149 169.378,259.018 169.371 C 253.894 169.364,252.697 168.936,249.806 166.073 C 249.061 165.336,248.010 164.330,247.471 163.839 C 245.218 161.786,244.904 159.949,244.922 148.929 L 244.933 142.232 245.493 140.000 C 246.879 134.485,246.079 132.726,241.830 131.941 C 238.905 131.400,237.146 134.978,237.843 140.051 C 238.262 143.106,238.024 161.403,237.541 163.232 C 236.996 165.296,235.134 167.601,233.327 168.451 C 230.125 169.957,228.321 170.083,210.000 170.087 L 194.375 170.089 193.393 169.627 C 191.985 168.964,191.318 168.332,190.208 166.610 C 189.669 165.773,189.014 164.808,188.751 164.464 C 187.774 163.184,187.609 162.513,187.775 160.491 C 187.857 159.485,187.918 157.978,187.910 157.143 C 187.902 156.308,187.847 150.736,187.787 144.760 C 187.666 132.574,187.655 132.713,188.906 130.227 C 189.291 129.464,189.658 128.663,189.722 128.447 C 189.883 127.909,191.656 126.321,192.659 125.817 C 195.213 124.532,196.673 124.390,207.589 124.360 C 221.905 124.321,222.891 124.252,223.936 123.207 L 224.620 122.523 224.621 118.270 C 224.621 115.931,224.712 111.487,224.824 108.393 C 224.935 105.299,225.085 101.000,225.157 98.839 C 225.298 94.595,225.382 94.216,226.401 93.253 C 227.478 92.236,230.687 91.180,234.375 90.630 C 237.594 90.149,238.067 89.738,238.481 87.054 C 238.747 85.326,238.981 62.787,238.757 60.420 C 238.211 54.641,240.261 53.394,250.893 53.039 C 257.404 52.822,258.686 52.480,259.400 50.772 C 259.853 49.686,259.938 41.159,259.557 34.925 C 258.977 25.435,259.220 23.759,261.501 21.518 C 262.201 20.830,263.279 19.645,263.897 18.885 C 265.837 16.498,266.410 16.215,271.214 15.259 C 275.880 14.331,277.523 14.084,280.000 13.937 C 283.193 13.748,283.599 13.748,289.732 13.928 M55.714 21.955 C 56.647 22.054,58.938 22.177,60.804 22.228 C 65.933 22.368,67.493 22.620,69.597 23.649 C 70.112 23.901,70.801 24.107,71.127 24.107 C 73.350 24.107,75.935 26.209,76.622 28.575 C 76.898 29.525,79.596 32.520,80.758 33.167 C 82.084 33.905,82.105 33.940,82.763 36.429 C 82.983 37.263,83.381 38.629,83.646 39.464 C 84.197 41.197,84.207 41.463,84.021 48.750 C 83.955 51.353,83.831 53.723,83.745 54.018 C 83.659 54.313,83.425 55.028,83.223 55.608 C 83.022 56.188,82.857 56.919,82.857 57.233 C 82.857 58.099,82.178 58.946,81.029 59.515 C 80.340 59.856,79.684 60.396,78.981 61.200 C 78.412 61.850,77.677 62.670,77.347 63.022 C 75.001 65.524,75.548 67.956,79.035 70.524 C 81.053 72.011,81.529 72.553,82.067 73.981 C 82.334 74.689,82.779 75.581,83.056 75.964 C 83.373 76.403,83.665 77.162,83.847 78.018 C 84.379 80.520,85.240 82.856,85.768 83.233 C 87.069 84.162,87.091 90.673,85.798 92.251 C 85.087 93.119,84.112 95.673,83.683 97.795 C 83.521 98.596,83.184 99.721,82.932 100.295 C 82.681 100.869,82.304 101.727,82.094 102.202 C 81.883 102.676,81.467 103.231,81.168 103.434 C 80.869 103.638,79.701 104.741,78.571 105.886 C 77.442 107.032,76.207 108.124,75.826 108.315 C 75.152 108.652,74.650 109.081,73.758 110.081 C 73.249 110.652,72.781 110.855,71.429 111.091 C 70.888 111.186,69.804 111.417,69.018 111.605 C 67.821 111.891,64.326 112.501,59.643 113.240 C 58.539 113.414,53.934 113.282,52.102 113.024 C 51.441 112.931,50.196 112.810,49.334 112.755 C 47.183 112.618,46.177 112.397,44.858 111.774 C 44.237 111.481,43.192 111.078,42.535 110.878 C 41.877 110.678,41.058 110.428,40.714 110.321 C 39.447 109.926,36.870 108.296,35.693 107.143 C 35.041 106.504,33.686 105.225,32.682 104.299 C 30.431 102.223,30.051 101.668,29.924 100.268 C 29.804 98.956,29.561 98.082,29.208 97.691 C 28.988 97.449,28.057 95.546,27.322 93.839 C 26.276 91.409,26.035 89.510,26.562 87.837 C 26.989 86.484,27.098 85.801,27.232 83.661 C 27.447 80.231,27.707 79.139,28.535 78.189 C 29.248 77.371,29.643 76.554,29.643 75.896 C 29.643 74.665,31.364 72.530,33.929 70.578 C 34.272 70.316,35.225 69.501,36.046 68.767 L 37.539 67.431 37.430 66.632 C 37.212 65.044,36.553 64.011,34.376 61.841 C 33.246 60.716,32.321 59.729,32.321 59.649 C 32.321 59.569,31.998 58.953,31.603 58.279 C 31.208 57.605,30.693 56.451,30.458 55.714 C 29.830 53.740,29.299 52.457,28.945 52.054 C 27.450 50.355,27.516 46.581,29.124 41.733 C 29.868 39.494,29.998 38.896,29.984 37.805 C 29.962 36.179,30.085 35.709,30.829 34.580 C 31.159 34.079,31.429 33.577,31.429 33.464 C 31.429 32.826,32.259 31.567,33.383 30.503 C 34.076 29.846,34.643 29.242,34.643 29.161 C 34.643 27.182,37.908 25.263,41.607 25.068 C 43.941 24.945,43.965 24.937,45.163 23.867 C 46.157 22.981,46.331 22.897,47.801 22.605 C 48.667 22.433,49.997 22.156,50.757 21.989 C 52.214 21.668,52.966 21.663,55.714 21.955 M53.750 41.983 C 51.661 42.536,50.380 44.256,48.710 48.750 C 48.510 49.290,48.284 49.813,48.208 49.911 C 48.064 50.098,47.980 50.608,48.015 51.083 C 48.034 51.339,49.632 53.812,51.580 56.600 C 52.515 57.937,53.220 58.306,54.552 58.153 C 59.327 57.605,59.487 57.553,61.513 55.851 C 62.182 55.289,63.818 52.987,64.203 52.065 C 64.936 50.311,64.459 46.513,63.354 45.311 C 62.972 44.894,62.444 44.272,62.182 43.929 C 61.076 42.477,60.809 42.307,58.983 41.896 C 57.289 41.515,55.400 41.547,53.750 41.983 M52.679 74.905 C 52.040 75.144,51.374 75.525,51.198 75.751 C 51.022 75.976,50.554 76.589,50.157 77.111 C 49.760 77.634,49.060 78.290,48.602 78.569 C 46.145 80.063,45.556 81.347,46.177 83.852 C 46.379 84.666,46.490 85.864,46.501 87.356 L 46.518 89.623 47.111 90.235 C 49.790 92.999,59.899 95.047,62.469 93.346 C 63.343 92.767,64.403 91.388,64.560 90.625 C 64.621 90.330,64.865 89.433,65.104 88.632 C 66.372 84.370,65.463 79.760,62.818 77.034 C 60.937 75.095,60.462 74.896,57.411 74.762 C 56.036 74.702,54.670 74.611,54.375 74.561 C 54.044 74.504,53.396 74.636,52.679 74.905 M92.321 116.683 C 94.383 117.192,94.781 117.423,95.261 118.389 C 95.483 118.833,96.001 119.769,96.414 120.469 C 97.372 122.096,97.674 123.254,97.676 125.320 C 97.680 128.389,99.377 129.987,103.393 130.703 C 104.756 130.946,106.714 131.558,107.257 131.910 C 107.585 132.123,109.184 132.406,112.275 132.797 C 113.463 132.947,114.401 132.257,115.282 130.581 C 115.667 129.850,116.388 128.781,116.885 128.206 C 117.792 127.155,117.918 126.950,118.475 125.608 C 118.903 124.579,120.067 123.437,120.923 123.206 C 123.469 122.521,124.573 123.044,125.698 125.474 C 126.867 127.996,127.173 128.519,128.317 129.953 C 129.202 131.061,129.695 131.514,130.319 131.790 C 131.822 132.455,132.489 133.459,132.635 135.274 C 132.744 136.639,132.557 137.015,130.935 138.686 C 126.651 143.100,126.229 144.082,126.157 149.821 C 126.103 154.211,125.916 155.962,125.409 156.829 C 124.287 158.751,119.799 158.843,118.691 156.968 C 117.191 154.429,116.670 152.178,117.042 149.841 C 117.703 145.680,115.728 141.977,113.698 143.574 C 112.925 144.182,112.258 147.399,112.534 149.186 C 112.970 152.007,112.929 152.465,111.944 155.712 C 111.270 157.936,110.762 158.279,108.125 158.294 C 105.703 158.307,104.532 157.638,104.083 155.982 C 103.976 155.589,103.680 154.786,103.424 154.196 C 102.910 153.010,102.856 152.022,103.118 148.571 C 103.397 144.879,101.990 142.006,99.856 141.913 C 98.227 141.841,97.482 142.827,96.997 145.696 C 96.732 147.268,96.707 148.028,96.811 151.429 C 96.844 152.495,96.348 154.471,95.892 155.089 C 95.820 155.188,95.659 155.589,95.534 155.982 C 94.957 157.800,94.201 158.253,91.692 158.282 C 87.749 158.329,86.424 156.137,86.930 150.399 C 87.186 147.488,86.818 145.714,85.957 145.714 C 85.687 145.714,84.846 146.907,84.745 147.433 C 84.504 148.682,84.470 149.898,84.646 150.982 C 85.135 154.004,84.998 155.610,83.892 159.821 C 83.177 162.544,82.771 164.164,82.503 165.357 C 82.264 166.418,81.530 167.857,81.226 167.857 C 81.123 167.857,80.520 168.287,79.887 168.813 C 78.629 169.858,77.832 170.179,76.497 170.179 C 76.017 170.179,75.183 170.348,74.643 170.555 C 70.838 172.011,66.408 171.891,61.696 170.203 C 61.107 169.992,60.166 169.698,59.604 169.549 C 58.037 169.135,57.624 168.685,57.541 167.301 C 57.460 165.951,58.764 163.000,60.185 161.322 L 60.955 160.411 60.983 158.464 C 61.013 156.375,60.893 155.927,60.103 155.189 C 59.846 154.949,59.396 154.379,59.103 153.923 C 57.918 152.076,56.339 152.715,54.457 155.804 C 53.612 157.192,52.922 157.831,51.960 158.118 C 51.717 158.191,51.089 158.488,50.565 158.778 C 47.448 160.505,44.137 158.377,44.995 155.198 C 45.801 152.209,44.658 148.036,43.033 148.036 C 41.218 148.036,40.753 148.836,40.683 152.086 C 40.627 154.650,40.606 154.787,40.160 155.372 C 39.701 155.974,39.522 156.377,39.373 157.153 C 39.258 157.752,38.825 158.136,37.988 158.382 C 37.572 158.504,36.631 158.843,35.897 159.134 C 33.566 160.060,31.050 160.160,27.768 159.459 C 27.375 159.375,26.652 159.253,26.161 159.189 C 24.787 159.009,23.659 158.318,23.222 157.387 C 22.784 156.456,20.092 153.496,19.108 152.863 C 17.195 151.634,16.316 147.784,17.191 144.464 C 17.436 143.531,17.731 142.004,17.845 141.071 C 18.149 138.581,18.327 138.122,19.324 137.264 C 20.354 136.378,21.872 134.539,22.571 133.330 C 23.129 132.366,23.777 131.993,25.734 131.509 C 26.362 131.354,27.388 131.062,28.016 130.859 C 28.906 130.571,29.397 130.516,30.248 130.606 C 30.848 130.670,32.083 130.800,32.992 130.896 C 34.803 131.086,37.634 132.319,38.639 133.356 C 39.292 134.030,40.806 135.959,41.183 136.597 C 42.380 138.623,44.662 137.093,46.847 132.800 L 47.881 130.768 47.709 129.205 C 47.551 127.761,47.473 127.546,46.692 126.404 C 44.858 123.719,44.941 122.693,47.186 120.336 C 49.178 118.245,51.362 118.093,52.936 119.937 C 55.271 122.672,55.477 124.778,53.579 126.490 C 52.490 127.473,51.747 129.643,52.500 129.643 C 52.598 129.643,52.665 129.703,52.647 129.777 C 52.430 130.711,54.454 133.970,56.502 135.982 C 57.823 137.280,58.434 137.244,59.171 135.823 C 59.830 134.553,61.069 133.422,63.077 132.258 C 65.736 130.716,66.740 130.531,69.911 131.002 C 71.317 131.210,72.848 131.191,74.307 130.946 C 75.219 130.793,75.748 130.801,76.628 130.980 C 77.805 131.219,78.250 131.220,78.806 130.983 C 80.451 130.285,82.974 132.028,83.381 134.145 C 84.278 138.802,85.771 140.930,86.844 139.078 C 87.751 137.511,87.768 137.311,87.768 128.036 C 87.768 116.178,87.993 115.616,92.321 116.683 M67.334 140.808 C 65.327 141.372,64.906 142.679,65.738 145.761 C 66.198 147.469,66.528 147.826,68.525 148.778 C 72.071 150.469,73.970 149.475,73.960 145.931 C 73.947 141.712,71.328 139.687,67.334 140.808 M68.542 160.607 C 68.182 160.735,67.619 161.124,67.292 161.470 C 66.964 161.816,66.543 162.180,66.355 162.278 C 66.026 162.451,66.027 162.464,66.400 162.663 C 66.665 162.805,66.786 162.810,66.786 162.679 C 66.786 162.549,66.891 162.544,67.109 162.660 C 67.421 162.828,70.051 162.879,70.478 162.726 C 70.941 162.560,69.758 160.288,69.249 160.365 C 69.220 160.369,68.902 160.478,68.542 160.607 " stroke="none" fill="#9806f8" fill-rule="evenodd"></path><path id="path2" d="M53.661 22.979 C 48.545 23.309,45.632 24.102,40.625 26.528 C 36.813 28.375,31.839 33.558,30.951 36.607 C 30.794 37.147,30.315 38.487,29.887 39.583 C 28.277 43.706,28.356 50.465,30.060 54.392 C 30.397 55.169,30.773 56.125,30.896 56.518 C 31.633 58.876,35.360 62.941,38.005 64.270 C 39.555 65.050,39.955 65.514,39.757 66.303 C 39.579 67.012,38.032 68.490,36.850 69.081 C 33.400 70.804,29.220 76.482,28.632 80.244 C 28.491 81.141,28.220 82.766,28.028 83.856 C 27.551 86.560,27.587 88.105,28.229 92.539 L 28.779 96.339 30.025 98.997 C 31.548 102.247,32.150 103.007,35.733 106.205 C 36.310 106.721,36.851 107.143,36.935 107.143 C 37.019 107.143,37.537 107.536,38.086 108.017 C 39.534 109.284,44.094 111.508,45.982 111.867 C 46.768 112.017,48.375 112.341,49.554 112.588 C 52.214 113.145,57.745 113.505,59.582 113.239 C 64.845 112.479,68.154 111.769,69.375 111.136 C 70.063 110.780,71.469 110.064,72.500 109.545 C 75.599 107.986,79.758 104.485,80.828 102.535 C 81.188 101.877,81.778 100.938,82.137 100.446 C 83.044 99.207,82.939 99.442,84.112 96.044 C 86.140 90.167,86.120 85.389,84.043 79.182 C 82.941 75.889,82.866 75.725,81.973 74.643 C 81.608 74.201,81.082 73.494,80.804 73.072 C 80.043 71.916,77.527 69.832,75.693 68.838 C 72.518 67.116,72.244 65.624,74.874 64.375 C 77.181 63.280,80.097 60.423,81.048 58.327 C 81.350 57.660,81.873 56.739,82.210 56.280 C 84.639 52.969,84.518 41.033,82.012 36.898 C 81.662 36.321,81.155 35.257,80.885 34.533 C 80.225 32.763,77.331 29.494,75.666 28.637 C 75.349 28.474,74.527 27.962,73.839 27.500 C 70.767 25.436,68.178 24.318,65.357 23.837 C 60.403 22.993,57.147 22.754,53.661 22.979 M58.727 40.544 C 62.971 41.233,66.902 46.196,66.549 50.419 C 66.288 53.541,63.919 56.493,60.268 58.246 L 58.661 59.018 56.512 59.018 L 54.363 59.018 52.494 58.109 C 49.308 56.559,48.160 55.276,47.399 52.416 C 45.818 46.478,49.199 40.996,54.721 40.541 C 57.132 40.343,57.486 40.343,58.727 40.544 M241.554 70.203 C 241.139 73.282,241.305 77.995,241.797 77.116 C 242.500 75.859,242.616 72.606,242.076 69.286 L 241.858 67.946 241.554 70.203 M61.076 75.455 C 66.213 77.948,68.158 81.818,67.134 87.505 C 66.574 90.614,66.250 91.096,63.125 93.475 C 60.778 95.261,60.213 95.431,56.607 95.440 C 52.036 95.451,50.946 95.036,48.140 92.214 C 43.294 87.342,44.838 78.782,51.130 75.637 C 53.445 74.480,54.330 74.278,56.809 74.341 L 58.887 74.393 61.076 75.455 M325.059 94.388 C 325.000 94.543,325.063 95.005,325.199 95.415 C 325.363 95.909,325.449 97.036,325.453 98.750 C 325.457 100.762,325.524 101.479,325.750 101.964 C 326.031 102.565,326.043 102.440,326.057 98.694 C 326.066 96.321,325.999 94.663,325.887 94.453 C 325.663 94.036,325.208 94.000,325.059 94.388 M325.698 107.813 C 325.373 109.140,325.405 111.608,325.765 112.857 C 326.047 113.838,326.048 113.833,326.060 110.313 C 326.073 106.422,326.060 106.336,325.698 107.813 M90.089 117.075 C 87.750 117.651,87.817 116.991,87.890 138.758 C 87.954 157.744,87.913 157.017,88.954 157.749 C 90.074 158.535,93.184 158.563,94.312 157.797 C 95.588 156.929,95.616 156.753,95.635 149.375 C 95.654 141.907,95.616 142.153,97.049 140.281 C 98.932 137.822,101.156 137.838,102.753 140.322 C 104.005 142.270,103.994 142.185,104.006 149.566 L 104.018 156.185 104.461 156.833 C 105.853 158.867,110.343 158.947,111.512 156.958 C 111.866 156.355,111.874 156.094,111.854 146.625 L 111.833 136.910 111.121 136.319 C 110.729 135.993,110.110 135.262,109.745 134.694 C 108.196 132.281,106.095 131.176,103.036 131.167 L 100.804 131.161 98.924 132.109 C 95.622 133.774,95.652 133.836,95.533 125.268 C 95.434 118.168,95.411 117.994,94.481 117.375 C 94.020 117.067,90.966 116.859,90.089 117.075 M48.656 119.086 C 48.191 119.290,46.241 121.301,45.899 121.930 C 44.295 124.878,48.709 129.491,51.661 127.951 C 54.894 126.265,55.640 123.033,53.389 120.469 C 52.351 119.287,49.860 118.559,48.656 119.086 M120.268 124.086 C 118.768 124.473,118.214 125.412,118.042 127.857 C 117.882 130.133,117.515 130.693,115.526 131.701 C 114.349 132.298,112.857 134.956,112.857 136.455 C 112.857 136.950,114.186 137.812,115.596 138.232 C 118.164 138.997,118.014 138.418,118.007 147.540 C 118.001 155.939,118.031 156.213,119.100 157.335 C 120.741 159.058,124.661 158.537,125.573 156.476 C 125.896 155.746,125.929 155.123,126.014 148.156 C 126.133 138.447,126.099 138.564,128.866 138.324 C 131.715 138.076,132.678 137.417,132.677 135.714 C 132.676 133.228,131.254 131.616,129.055 131.610 C 126.969 131.604,126.083 130.637,126.061 128.345 C 126.037 125.832,125.603 124.767,124.437 124.364 C 123.624 124.082,120.967 123.905,120.268 124.086 M345.850 129.299 C 344.090 130.324,346.485 132.364,348.474 131.533 C 350.207 130.809,349.208 129.108,347.054 129.115 C 346.563 129.117,346.021 129.199,345.850 129.299 M28.433 131.343 C 27.817 131.477,26.853 131.866,26.290 132.207 C 25.728 132.548,24.663 133.102,23.924 133.439 C 19.543 135.432,16.189 143.350,17.853 147.768 C 18.075 148.357,18.592 149.813,19.003 151.004 C 20.049 154.036,21.723 155.982,23.974 156.782 C 24.587 157.000,25.893 157.574,26.875 158.057 C 30.409 159.797,32.964 159.606,37.631 157.256 C 40.537 155.793,41.492 153.935,40.134 152.386 C 38.124 150.095,37.099 149.868,34.932 151.237 C 32.254 152.928,29.470 152.856,27.404 151.042 C 26.535 150.279,26.191 149.566,26.331 148.818 C 26.551 147.647,26.706 147.624,34.561 147.606 C 43.456 147.585,43.191 147.715,42.970 143.482 C 42.794 140.099,42.536 139.145,41.177 136.851 C 38.418 132.193,33.770 130.184,28.433 131.343 M65.166 131.316 C 61.123 132.406,57.818 136.574,57.142 141.436 C 56.123 148.763,58.036 154.691,62.088 156.758 C 66.073 158.791,68.697 159.210,70.982 158.178 C 75.147 156.299,77.083 157.627,74.805 160.800 C 72.702 163.728,69.115 164.665,65.714 163.174 C 61.225 161.205,60.537 161.196,59.398 163.096 C 59.035 163.701,58.485 164.538,58.175 164.954 C 57.394 166.006,57.257 167.558,57.883 168.275 C 60.096 170.811,70.307 172.284,74.375 170.655 C 78.818 168.876,79.859 168.006,81.692 164.542 C 83.500 161.125,83.435 161.742,83.507 147.411 C 83.575 133.872,83.545 133.392,82.577 132.335 L 81.991 131.696 80.237 131.696 C 78.517 131.696,78.452 131.712,76.968 132.473 C 75.130 133.417,74.696 133.401,72.889 132.328 C 70.842 131.112,67.531 130.678,65.166 131.316 M48.078 131.892 C 46.560 132.668,45.962 134.039,46.251 136.080 C 46.352 136.792,46.384 137.644,46.323 137.973 C 46.261 138.302,46.191 140.239,46.168 142.277 C 46.145 144.315,46.063 147.107,45.986 148.482 C 45.874 150.471,45.902 151.256,46.122 152.321 C 46.295 153.159,46.362 154.100,46.302 154.833 C 46.137 156.851,46.601 157.350,49.281 158.045 C 50.957 158.480,51.819 158.373,53.008 157.586 C 54.262 156.756,54.314 156.542,54.415 151.814 C 54.637 141.307,54.431 134.467,53.856 133.329 C 53.113 131.858,49.770 131.027,48.078 131.892 M32.564 137.969 C 34.092 138.508,34.879 139.803,34.390 140.973 C 33.998 141.913,33.348 142.115,30.288 142.254 C 27.308 142.389,26.947 142.277,26.598 141.110 C 25.823 138.525,29.160 136.768,32.564 137.969 M72.120 138.788 C 75.087 139.690,77.098 144.678,75.630 147.496 C 73.742 151.119,69.104 151.962,66.314 149.189 C 62.016 144.917,66.407 137.051,72.120 138.788 " stroke="none" fill="#eedaf6" fill-rule="evenodd"></path><path id="path3" d="M279.454 16.671 C 279.411 16.711,278.330 16.920,277.054 17.135 C 274.600 17.547,268.637 19.353,267.588 20.001 C 266.476 20.688,264.534 22.934,263.862 24.310 C 262.714 26.661,262.661 28.539,263.503 37.093 C 263.705 39.144,263.751 41.306,263.690 45.902 L 263.609 51.993 263.084 53.051 L 262.560 54.109 263.200 54.279 C 265.302 54.836,266.523 54.906,274.464 54.920 C 281.862 54.933,282.677 54.964,283.571 55.264 C 284.790 55.673,286.482 55.689,288.125 55.307 C 288.813 55.147,290.460 54.930,291.786 54.826 C 293.112 54.721,295.683 54.381,297.500 54.070 C 300.521 53.552,301.071 53.509,303.929 53.565 C 314.600 53.775,314.176 53.829,314.375 52.241 C 314.438 51.745,314.688 50.427,314.932 49.311 C 315.529 46.584,315.666 42.789,315.292 39.375 C 315.141 38.000,314.967 36.272,314.905 35.536 C 314.483 30.536,313.767 26.066,312.920 23.151 C 311.398 17.907,311.060 17.713,302.768 17.315 C 300.705 17.216,298.496 17.054,297.857 16.954 C 296.750 16.781,279.620 16.517,279.454 16.671 M241.339 91.789 C 239.867 92.775,238.380 93.197,235.650 93.404 C 230.237 93.816,228.461 94.974,228.134 98.304 C 228.067 98.991,227.856 100.558,227.666 101.786 C 227.068 105.638,226.708 116.549,227.040 120.714 C 227.180 122.470,227.159 122.684,226.720 124.072 C 225.981 126.405,226.043 126.770,227.283 127.365 C 227.844 127.634,229.027 128.306,229.911 128.859 C 231.883 130.091,233.750 130.966,233.750 130.659 C 233.750 129.591,237.197 127.401,239.203 127.194 C 241.847 126.921,248.777 129.263,249.608 130.711 L 249.881 131.188 251.845 130.592 C 252.925 130.264,254.780 129.831,255.967 129.630 C 257.985 129.288,259.662 128.855,262.232 128.011 C 262.821 127.818,264.382 127.379,265.700 127.035 C 268.490 126.309,272.142 124.908,273.630 123.993 C 274.875 123.228,275.202 123.197,276.485 123.723 C 276.761 123.836,277.030 123.929,277.082 123.929 C 277.134 123.929,277.390 124.080,277.651 124.266 L 278.125 124.603 278.174 109.846 C 278.201 101.730,278.268 94.868,278.322 94.598 C 278.442 94.006,278.532 94.009,277.143 94.554 C 275.669 95.131,275.480 95.121,273.535 94.361 C 268.872 92.539,258.602 91.427,252.375 92.070 C 251.122 92.200,244.376 91.634,243.482 91.324 C 242.512 90.988,242.549 90.980,241.339 91.789 M304.659 129.450 L 303.515 129.554 304.254 130.220 C 305.054 130.940,305.128 130.941,306.474 130.243 C 306.793 130.078,307.455 129.798,307.946 129.621 L 308.839 129.299 307.321 129.323 C 306.487 129.336,305.289 129.394,304.659 129.450 M234.413 151.964 C 234.350 152.799,234.262 154.366,234.218 155.446 L 234.139 157.411 234.469 155.804 C 234.818 154.109,234.883 152.583,234.662 151.250 C 234.536 150.491,234.523 150.531,234.413 151.964 " stroke="none" fill="#bd191a" fill-rule="evenodd"></path><path id="path4" d="M243.951 58.961 C 242.188 60.765,241.458 65.208,242.151 69.920 C 242.599 72.964,242.560 74.296,241.959 76.607 C 240.705 81.423,241.988 90.349,243.649 88.374 C 245.092 86.659,245.144 86.069,245.150 71.339 C 245.156 58.211,245.114 57.772,243.951 58.961 M284.107 91.720 C 283.469 91.865,282.344 92.086,281.607 92.211 C 279.607 92.550,278.701 93.133,278.400 94.274 C 278.303 94.641,278.213 101.275,278.188 109.911 L 278.144 124.911 278.670 126.323 C 279.548 128.679,279.630 128.705,286.964 128.920 C 289.862 129.005,292.960 129.173,293.851 129.294 C 295.240 129.483,295.695 129.472,297.065 129.221 C 299.057 128.855,299.926 128.854,301.811 129.214 C 302.937 129.429,303.873 129.473,305.625 129.392 C 306.902 129.333,309.875 129.244,312.232 129.194 C 319.634 129.037,325.219 128.269,325.698 127.342 C 326.194 126.382,326.252 114.724,325.770 112.908 C 325.363 111.376,325.365 108.852,325.775 107.512 C 326.189 106.158,326.184 102.976,325.766 102.031 C 325.526 101.489,325.455 100.761,325.436 98.661 C 325.420 96.937,325.323 95.705,325.164 95.206 C 324.938 94.495,324.944 94.411,325.246 94.190 C 325.724 93.841,325.060 92.936,324.143 92.686 C 321.044 91.839,309.444 91.472,301.161 91.958 C 298.949 92.088,297.240 92.100,296.250 91.992 C 295.415 91.901,293.647 91.864,292.321 91.909 C 290.599 91.968,289.451 91.912,288.303 91.711 C 286.370 91.373,285.632 91.374,284.107 91.720 M224.554 127.286 C 223.657 127.516,222.419 127.550,216.964 127.491 C 201.184 127.321,199.478 127.482,195.982 129.471 C 192.462 131.474,192.284 132.457,192.407 149.286 C 192.506 162.924,192.737 164.164,195.420 165.423 L 196.339 165.854 208.839 165.814 C 234.748 165.729,234.316 166.036,234.351 147.679 C 234.377 133.410,234.177 131.058,232.885 130.498 C 232.428 130.299,231.230 129.644,230.223 129.042 C 226.316 126.704,226.544 126.775,224.554 127.286 " stroke="none" fill="#d2c51a" fill-rule="evenodd"></path><path id="path5" d="M0.000 0.361 C 0.000 0.739,0.315 0.737,1.429 0.353 C 1.674 0.268,2.036 0.163,2.232 0.120 C 2.429 0.077,2.007 0.032,1.295 0.021 C 0.108 0.002,0.000 0.030,0.000 0.361 M21.380 0.129 C 21.697 0.168,22.259 0.169,22.630 0.130 C 23.000 0.092,22.741 0.059,22.054 0.059 C 21.366 0.058,21.063 0.089,21.380 0.129 M225.313 0.134 C 227.792 0.162,231.850 0.162,234.330 0.134 C 236.810 0.106,234.781 0.083,229.821 0.083 C 224.862 0.083,222.833 0.106,225.313 0.134 M258.125 0.179 C 258.642 0.401,266.071 0.401,266.071 0.179 C 266.071 0.064,264.577 0.005,261.920 0.013 C 259.435 0.020,257.911 0.087,258.125 0.179 M394.643 0.165 C 394.643 0.627,396.091 0.773,399.509 0.657 C 399.856 0.645,400.000 0.546,400.000 0.320 C 400.000 0.027,399.777 0.000,397.321 0.000 C 395.805 0.000,394.643 0.071,394.643 0.165 M280.000 13.937 C 277.523 14.084,275.880 14.331,271.214 15.259 C 266.410 16.215,265.837 16.498,263.897 18.885 C 263.279 19.645,262.201 20.830,261.501 21.518 C 259.220 23.759,258.977 25.435,259.557 34.925 C 259.938 41.159,259.853 49.686,259.400 50.772 C 258.686 52.480,257.404 52.822,250.893 53.039 C 240.261 53.394,238.211 54.641,238.757 60.420 C 238.981 62.787,238.747 85.326,238.481 87.054 C 238.067 89.738,237.594 90.149,234.375 90.630 C 230.687 91.180,227.478 92.236,226.401 93.253 C 225.382 94.216,225.298 94.595,225.157 98.839 C 225.085 101.000,224.935 105.299,224.824 108.393 C 224.712 111.487,224.621 115.931,224.621 118.270 L 224.620 122.523 223.936 123.207 C 222.891 124.252,221.905 124.321,207.589 124.360 C 196.673 124.390,195.213 124.532,192.659 125.817 C 191.656 126.321,189.883 127.909,189.722 128.447 C 189.658 128.663,189.291 129.464,188.906 130.227 C 187.655 132.713,187.666 132.574,187.787 144.760 C 187.847 150.736,187.902 156.308,187.910 157.143 C 187.918 157.978,187.857 159.485,187.775 160.491 C 187.609 162.513,187.774 163.184,188.751 164.464 C 189.014 164.808,189.669 165.773,190.208 166.610 C 191.318 168.332,191.985 168.964,193.393 169.627 L 194.375 170.089 210.000 170.087 C 228.321 170.083,230.125 169.957,233.327 168.451 C 235.134 167.601,236.996 165.296,237.541 163.232 C 238.024 161.403,238.262 143.106,237.843 140.051 C 237.146 134.978,238.905 131.400,241.830 131.941 C 246.079 132.726,246.879 134.485,245.493 140.000 L 244.933 142.232 244.922 148.929 C 244.904 159.949,245.218 161.786,247.471 163.839 C 248.010 164.330,249.061 165.336,249.806 166.073 C 252.697 168.936,253.894 169.364,259.018 169.371 C 265.149 169.378,273.509 169.137,280.893 168.741 C 284.463 168.549,285.822 168.588,287.884 168.943 C 289.900 169.290,291.531 168.555,292.644 166.799 C 293.007 166.227,293.920 165.103,294.674 164.300 C 296.682 162.160,296.874 161.453,296.233 158.563 C 295.833 156.762,295.836 155.258,296.247 151.607 C 296.352 150.674,296.511 149.067,296.599 148.036 C 296.688 147.004,296.934 144.714,297.146 142.946 C 297.518 139.850,297.537 138.115,297.225 135.536 C 296.897 132.829,301.344 131.811,303.307 134.144 C 303.757 134.679,303.764 134.731,303.697 137.032 C 303.646 138.786,303.699 139.622,303.908 140.357 C 304.128 141.134,304.172 142.012,304.115 144.554 C 304.039 147.977,304.040 148.448,304.151 156.607 C 304.234 162.710,304.244 162.754,306.036 164.546 C 308.171 166.680,309.214 166.905,313.964 166.261 C 317.211 165.820,318.436 165.899,322.054 166.778 C 323.232 167.064,324.839 167.387,325.625 167.496 C 328.014 167.825,329.279 168.022,331.518 168.415 C 334.019 168.854,339.268 168.808,341.071 168.331 C 342.325 168.000,345.222 167.016,346.200 166.589 C 346.930 166.270,347.740 165.289,348.021 164.383 C 348.283 163.536,350.561 159.252,351.543 157.760 C 352.609 156.138,352.824 155.698,353.194 154.375 C 353.731 152.459,353.840 150.914,353.570 149.082 C 353.449 148.261,353.313 147.110,353.268 146.525 C 353.223 145.940,353.113 145.322,353.022 145.153 C 352.931 144.984,352.857 143.853,352.857 142.641 C 352.857 141.429,352.778 139.796,352.682 139.013 C 352.585 138.230,352.437 136.705,352.353 135.625 C 352.250 134.301,352.081 133.399,351.836 132.857 C 351.635 132.415,351.420 131.893,351.357 131.696 C 351.084 130.846,347.383 127.789,345.982 127.257 C 343.993 126.501,341.617 126.122,337.979 125.979 C 336.684 125.928,334.696 125.850,333.560 125.807 C 329.269 125.641,329.197 125.527,329.195 118.929 C 329.195 116.326,329.126 113.071,329.043 111.696 C 328.929 109.827,328.952 108.813,329.133 107.679 C 329.403 105.983,329.430 102.592,329.206 98.304 C 329.063 95.555,329.072 95.411,329.463 94.505 C 329.843 93.623,330.931 92.500,331.405 92.500 C 331.511 92.500,332.064 92.038,332.634 91.473 C 335.628 88.505,336.025 84.959,334.353 76.107 C 334.007 74.278,334.125 72.006,334.740 68.661 C 335.455 64.772,334.964 58.234,333.836 56.603 C 332.822 55.137,329.371 54.487,322.500 54.467 C 318.327 54.455,318.000 53.961,318.024 47.710 C 318.033 45.385,317.921 41.714,317.775 39.554 C 317.630 37.393,317.496 33.938,317.477 31.875 C 317.438 27.409,317.291 25.870,316.598 22.700 C 315.237 16.469,313.667 15.481,304.643 15.179 C 300.484 15.040,299.390 14.944,297.500 14.553 C 294.466 13.925,285.521 13.610,280.000 13.937 M297.857 16.954 C 298.496 17.054,300.705 17.216,302.768 17.315 C 311.060 17.713,311.398 17.907,312.920 23.151 C 313.767 26.066,314.483 30.536,314.905 35.536 C 314.967 36.272,315.141 38.000,315.292 39.375 C 315.666 42.789,315.529 46.584,314.932 49.311 C 314.688 50.427,314.438 51.745,314.375 52.241 C 314.313 52.736,314.195 53.251,314.113 53.384 C 313.899 53.730,315.530 55.196,316.924 55.911 C 318.031 56.480,318.083 56.488,321.477 56.624 C 326.263 56.815,328.628 57.378,329.410 58.510 C 330.167 59.607,330.633 67.037,330.097 69.464 C 329.073 74.097,328.713 77.659,329.232 78.013 C 329.503 78.198,330.631 80.563,330.885 81.479 C 331.394 83.320,330.909 85.935,329.824 87.194 C 329.364 87.728,328.741 88.595,327.744 90.089 C 326.771 91.548,326.651 91.658,325.378 92.267 C 324.645 92.617,324.481 92.763,324.688 92.879 C 324.837 92.962,325.208 93.419,325.513 93.892 L 326.065 94.754 326.078 109.036 C 326.089 121.972,326.026 125.930,325.792 127.089 C 325.726 127.413,325.984 127.675,327.276 128.597 C 329.344 130.072,329.880 130.203,332.500 129.874 C 334.053 129.679,334.836 129.661,335.714 129.801 C 336.353 129.902,337.397 130.038,338.036 130.103 C 342.931 130.600,343.158 131.143,343.289 142.679 C 343.334 146.558,343.433 150.777,343.509 152.054 C 343.780 156.579,343.717 157.358,342.909 159.464 C 342.513 160.496,342.086 161.661,341.960 162.054 C 341.188 164.460,340.456 164.893,336.529 165.270 C 333.665 165.544,333.420 165.527,330.000 164.822 C 328.903 164.596,326.903 164.373,325.179 164.284 C 323.558 164.200,321.188 164.038,319.911 163.925 C 318.437 163.793,316.220 163.761,313.839 163.836 C 309.287 163.980,308.655 163.796,307.715 162.054 C 307.204 161.107,306.923 148.051,307.344 144.869 C 307.531 143.463,307.517 142.807,307.250 140.405 C 307.079 138.856,306.902 137.188,306.858 136.696 C 306.687 134.794,306.564 134.322,305.811 132.657 C 304.670 130.133,304.042 129.601,301.720 129.194 C 298.249 128.584,295.849 129.079,295.348 130.509 C 295.164 131.034,294.945 131.557,294.861 131.670 C 294.776 131.783,294.472 132.397,294.184 133.036 L 293.661 134.196 293.650 140.446 C 293.644 143.884,293.531 148.504,293.397 150.714 C 293.264 152.924,293.183 155.696,293.217 156.875 C 293.337 161.024,293.316 161.485,292.966 162.393 C 292.238 164.279,290.431 165.621,288.661 165.588 C 288.071 165.577,285.404 165.512,282.733 165.442 C 278.874 165.342,277.334 165.373,275.233 165.596 C 272.678 165.866,263.426 166.174,258.661 166.148 C 256.606 166.137,256.175 166.078,254.911 165.640 C 248.980 163.584,247.977 161.672,248.306 153.036 C 248.382 151.022,248.462 147.929,248.482 146.161 C 248.513 143.519,248.606 142.490,249.005 140.387 C 249.643 137.023,250.043 131.545,249.702 130.855 C 248.953 129.342,242.094 126.936,239.263 127.192 C 236.743 127.421,233.540 129.732,233.832 131.112 C 233.970 131.766,234.200 137.077,234.459 145.625 C 234.554 148.768,234.682 151.902,234.743 152.589 C 234.906 154.426,233.916 159.617,233.056 161.439 C 231.221 165.324,228.871 165.748,208.839 165.814 L 196.339 165.854 195.420 165.423 C 192.737 164.164,192.506 162.924,192.407 149.286 C 192.296 133.997,192.430 132.708,194.339 130.748 C 197.187 127.826,201.191 127.135,213.169 127.499 C 223.373 127.809,226.250 127.530,226.250 126.229 C 226.250 125.858,226.461 124.887,226.720 124.072 C 227.159 122.684,227.180 122.470,227.040 120.714 C 226.708 116.549,227.068 105.638,227.666 101.786 C 227.856 100.558,228.067 98.991,228.134 98.304 C 228.461 94.973,230.236 93.816,235.654 93.404 C 240.965 93.000,244.187 90.640,242.606 88.312 C 241.843 87.187,241.243 82.955,241.509 80.568 C 241.671 79.104,241.641 76.910,241.444 75.804 C 241.183 74.347,241.201 72.768,241.506 70.439 C 241.646 69.363,241.807 67.588,241.863 66.495 C 242.069 62.480,242.736 60.142,244.028 58.907 C 244.375 58.575,244.766 58.057,244.897 57.755 C 245.807 55.649,246.564 55.416,253.571 55.085 C 258.904 54.833,261.977 54.437,262.598 53.922 C 263.666 53.035,264.163 43.797,263.503 37.093 C 262.661 28.539,262.714 26.661,263.862 24.310 C 264.534 22.934,266.476 20.688,267.588 20.001 C 268.637 19.353,274.600 17.547,277.054 17.135 C 278.330 16.920,279.411 16.711,279.454 16.671 C 279.620 16.517,296.750 16.781,297.857 16.954 M50.757 21.989 C 49.997 22.156,48.667 22.433,47.801 22.605 C 46.331 22.897,46.157 22.981,45.163 23.867 C 43.965 24.937,43.941 24.945,41.607 25.068 C 37.908 25.263,34.643 27.182,34.643 29.161 C 34.643 29.242,34.076 29.846,33.383 30.503 C 32.259 31.567,31.429 32.826,31.429 33.464 C 31.429 33.577,31.151 34.091,30.811 34.607 C 30.116 35.662,29.868 36.764,30.000 38.214 L 30.089 39.196 30.685 37.377 C 31.808 33.945,34.116 31.081,38.125 28.140 C 39.784 26.923,40.162 26.715,43.482 25.198 C 47.551 23.338,54.489 22.473,60.214 23.111 C 67.816 23.959,69.956 24.747,76.130 28.972 C 76.774 29.412,76.876 29.298,76.599 28.449 C 75.844 26.133,73.291 24.107,71.127 24.107 C 70.801 24.107,70.112 23.901,69.597 23.649 C 67.493 22.620,65.933 22.368,60.804 22.228 C 58.938 22.177,56.647 22.054,55.714 21.955 C 52.966 21.663,52.214 21.668,50.757 21.989 M80.378 33.254 C 80.482 33.448,80.723 34.060,80.914 34.614 C 81.104 35.168,81.573 36.147,81.955 36.790 C 82.976 38.510,83.379 39.913,83.716 42.929 C 83.967 45.169,84.034 45.474,84.111 44.732 C 84.301 42.916,84.132 41.022,83.642 39.464 C 83.379 38.629,82.983 37.263,82.763 36.429 C 82.110 33.956,82.043 33.846,80.817 33.221 C 80.199 32.906,80.193 32.907,80.378 33.254 M54.721 40.541 C 49.199 40.996,45.818 46.478,47.399 52.416 C 48.160 55.276,49.308 56.559,52.494 58.109 L 54.363 59.018 56.512 59.018 L 58.661 59.018 60.268 58.246 C 63.077 56.897,64.720 55.299,65.928 52.740 C 68.395 47.513,63.053 40.149,56.964 40.384 C 56.621 40.397,55.611 40.468,54.721 40.541 M58.983 41.896 C 60.809 42.307,61.076 42.477,62.182 43.929 C 62.444 44.272,62.972 44.894,63.354 45.311 C 65.127 47.240,64.974 51.197,63.018 54.026 C 61.278 56.544,59.720 57.536,56.995 57.864 C 52.377 58.419,53.025 58.799,49.420 53.426 C 48.658 52.291,48.026 51.237,48.015 51.083 C 47.980 50.608,48.064 50.098,48.208 49.911 C 48.284 49.813,48.510 49.290,48.710 48.750 C 51.095 42.333,53.573 40.679,58.983 41.896 M28.612 43.257 C 27.512 47.083,27.703 51.058,29.039 52.158 C 29.317 52.388,29.334 52.369,29.229 51.944 C 28.762 50.070,28.639 46.786,28.919 43.661 C 28.999 42.777,29.046 42.033,29.024 42.007 C 29.002 41.982,28.817 42.544,28.612 43.257 M83.594 51.694 C 83.280 54.204,82.966 55.246,82.211 56.277 C 81.877 56.733,81.327 57.714,80.988 58.457 L 80.373 59.807 80.835 59.631 C 82.051 59.169,82.857 58.191,82.857 57.179 C 82.857 56.895,83.022 56.188,83.223 55.608 C 83.901 53.655,83.941 53.413,83.890 51.570 L 83.839 49.732 83.594 51.694 M30.223 55.045 C 30.268 55.167,30.446 55.695,30.617 56.217 C 30.789 56.739,30.961 57.135,30.999 57.096 C 31.090 57.006,30.353 54.821,30.232 54.821 C 30.182 54.821,30.177 54.922,30.223 55.045 M32.215 59.318 C 32.459 59.778,33.504 60.989,34.539 62.010 C 36.539 63.984,37.215 65.064,37.430 66.632 L 37.539 67.431 36.046 68.767 C 35.225 69.501,34.272 70.316,33.929 70.578 C 31.364 72.530,29.643 74.665,29.643 75.896 C 29.643 76.554,29.248 77.371,28.535 78.189 C 27.707 79.139,27.447 80.231,27.232 83.661 C 27.098 85.801,26.989 86.484,26.562 87.837 C 26.035 89.511,26.271 91.377,27.321 93.839 C 28.005 95.445,29.097 97.651,29.255 97.749 C 29.362 97.815,29.300 97.525,29.117 97.104 C 28.102 94.768,27.467 87.040,28.028 83.856 C 28.220 82.766,28.491 81.141,28.632 80.244 C 29.220 76.482,33.400 70.804,36.850 69.081 C 38.032 68.490,39.579 67.012,39.757 66.303 C 39.956 65.512,39.560 65.066,37.897 64.207 C 36.302 63.383,34.862 62.086,32.538 59.375 L 31.772 58.482 32.215 59.318 M76.993 63.037 C 76.567 63.422,75.627 64.018,74.903 64.361 C 72.224 65.633,72.503 67.104,75.762 68.885 C 77.659 69.922,79.966 71.860,80.906 73.205 C 81.843 74.547,82.580 75.379,82.416 74.911 C 81.595 72.567,81.317 72.205,79.035 70.524 C 75.530 67.943,74.997 65.516,77.380 62.991 C 78.204 62.118,77.980 62.145,76.993 63.037 M54.564 74.447 C 54.456 74.622,58.086 74.896,59.107 74.790 C 59.714 74.727,59.704 74.719,58.786 74.505 C 57.690 74.251,54.711 74.209,54.564 74.447 M50.000 76.235 C 48.690 77.022,48.391 77.324,47.422 78.839 C 46.896 79.662,46.835 79.824,47.163 79.539 C 47.397 79.334,47.964 78.953,48.423 78.692 C 49.353 78.161,51.674 75.525,51.199 75.537 C 51.178 75.537,50.638 75.852,50.000 76.235 M61.875 76.083 C 62.071 76.312,62.615 76.858,63.084 77.297 C 65.384 79.453,66.302 84.605,65.104 88.632 C 64.865 89.433,64.621 90.330,64.560 90.625 C 64.403 91.388,63.343 92.767,62.469 93.346 C 59.899 95.047,49.790 92.999,47.111 90.235 L 46.518 89.623 46.501 87.356 C 46.490 85.864,46.379 84.666,46.177 83.852 C 45.896 82.717,45.893 81.569,46.170 81.016 C 46.229 80.899,46.153 80.955,46.003 81.140 C 44.794 82.625,45.203 87.938,46.712 90.360 C 49.108 94.205,51.537 95.452,56.607 95.440 C 60.485 95.430,62.191 94.697,65.380 91.670 C 67.538 89.622,68.086 83.650,66.426 80.275 C 65.865 79.133,63.479 76.657,62.432 76.129 L 61.518 75.668 61.875 76.083 M83.379 77.235 C 83.632 77.969,83.866 78.492,83.898 78.396 C 83.994 78.108,83.415 76.312,83.157 76.098 C 83.008 75.974,83.091 76.402,83.379 77.235 M85.304 83.580 C 85.561 84.885,85.529 90.983,85.258 92.411 L 85.156 92.946 85.786 92.232 C 87.136 90.703,87.103 84.771,85.735 83.191 C 85.619 83.056,85.415 82.790,85.283 82.598 C 85.087 82.315,85.091 82.499,85.304 83.580 M83.315 98.358 C 83.154 98.842,82.701 99.669,82.309 100.195 C 81.916 100.721,81.279 101.729,80.891 102.434 C 79.771 104.476,75.667 107.953,72.500 109.544 C 69.763 110.918,68.149 111.786,68.328 111.786 C 68.414 111.786,68.765 111.702,69.108 111.599 C 69.451 111.496,70.335 111.301,71.071 111.167 C 72.800 110.851,73.225 110.679,73.758 110.081 C 74.647 109.084,75.151 108.652,75.826 108.310 C 76.207 108.118,77.532 106.933,78.771 105.677 C 80.011 104.420,81.114 103.393,81.223 103.393 C 81.627 103.393,82.963 100.591,83.509 98.597 C 83.844 97.375,83.701 97.198,83.315 98.358 M29.743 98.827 C 29.799 99.114,29.884 99.797,29.933 100.345 C 30.050 101.659,30.462 102.252,32.682 104.299 C 33.686 105.225,35.041 106.504,35.693 107.143 C 37.308 108.724,39.812 110.158,41.784 110.631 C 43.263 110.985,43.096 110.809,41.052 109.854 C 39.876 109.305,38.807 108.648,38.141 108.065 C 37.561 107.558,37.019 107.143,36.935 107.143 C 36.797 107.143,35.872 106.355,33.993 104.637 C 32.518 103.289,31.230 101.593,30.444 99.966 C 30.002 99.052,29.686 98.539,29.743 98.827 M45.245 111.953 C 46.129 112.403,47.465 112.683,48.625 112.660 C 49.719 112.639,49.582 112.593,46.543 111.969 C 44.393 111.527,44.411 111.527,45.245 111.953 M89.375 116.597 C 88.040 117.144,87.792 118.308,87.759 124.196 L 87.731 129.196 87.860 124.286 C 87.977 119.842,88.056 119.042,88.485 117.984 C 88.726 117.391,89.650 117.090,91.518 116.996 L 93.304 116.907 92.321 116.675 C 91.213 116.414,89.908 116.379,89.375 116.597 M50.714 119.004 C 51.254 119.124,51.872 119.316,52.086 119.432 C 52.697 119.762,52.777 119.682,52.321 119.196 C 51.958 118.810,51.756 118.752,50.817 118.768 L 49.732 118.787 50.714 119.004 M95.498 125.197 C 95.567 133.719,95.600 133.785,98.924 132.109 L 100.804 131.161 103.070 131.161 C 105.455 131.161,105.527 131.085,103.482 130.722 C 99.378 129.992,97.680 128.412,97.676 125.320 C 97.674 123.336,97.391 122.172,96.547 120.672 C 95.371 118.582,95.441 118.277,95.498 125.197 M45.441 122.913 C 45.380 123.239,45.402 123.781,45.490 124.119 C 45.627 124.645,45.648 124.561,45.637 123.527 C 45.623 122.160,45.597 122.079,45.441 122.913 M54.700 123.750 C 54.700 124.388,54.732 124.650,54.772 124.330 C 54.812 124.011,54.812 123.489,54.772 123.170 C 54.732 122.850,54.700 123.112,54.700 123.750 M121.250 123.120 C 120.277 123.378,119.839 123.642,119.397 124.232 L 119.062 124.681 119.486 124.408 C 120.403 123.818,123.535 123.885,124.810 124.521 C 125.111 124.671,125.357 124.730,125.357 124.651 C 125.357 124.337,123.904 123.034,123.527 123.010 C 123.306 122.996,122.884 122.967,122.589 122.946 C 122.295 122.924,121.692 123.003,121.250 123.120 M126.006 127.720 C 126.166 130.658,126.859 131.607,128.844 131.607 L 129.666 131.607 128.566 130.261 C 127.308 128.721,126.250 127.042,126.250 126.584 C 126.250 126.412,126.175 126.225,126.083 126.168 C 125.981 126.105,125.951 126.713,126.006 127.720 M47.043 126.914 C 47.843 128.126,48.020 130.335,47.426 131.679 L 46.982 132.683 47.629 132.190 C 49.220 130.978,53.019 131.673,53.856 133.329 C 54.429 134.463,54.634 141.206,54.418 151.786 C 54.353 154.935,54.382 155.898,54.532 155.644 C 55.506 153.999,57.388 152.511,58.049 152.864 C 58.569 153.143,58.576 153.078,58.117 152.188 C 56.519 149.092,56.447 140.940,57.990 137.856 L 58.482 136.873 57.955 136.891 C 56.618 136.937,52.322 131.178,52.647 129.777 C 52.665 129.703,52.598 129.643,52.500 129.643 C 52.230 129.643,52.288 128.193,52.581 127.632 L 52.838 127.140 52.215 127.615 C 50.882 128.631,49.024 128.423,47.565 127.091 L 46.545 126.161 47.043 126.914 M117.890 126.888 C 117.872 126.994,117.435 127.569,116.920 128.166 C 116.404 128.763,115.667 129.850,115.282 130.581 C 114.401 132.257,113.463 132.947,112.275 132.797 C 108.984 132.380,107.644 132.125,107.035 131.799 C 106.054 131.273,105.889 131.340,106.737 131.920 C 108.400 133.054,109.120 133.718,109.746 134.694 C 110.110 135.262,110.725 135.990,111.111 136.311 L 111.814 136.895 111.912 146.081 C 111.966 151.134,112.030 155.291,112.054 155.320 C 112.078 155.348,112.278 154.627,112.498 153.717 C 112.903 152.045,112.907 151.600,112.534 149.186 C 112.258 147.399,112.925 144.182,113.698 143.574 C 115.728 141.977,117.703 145.680,117.042 149.841 C 116.726 151.826,116.851 152.906,117.587 154.549 L 117.989 155.446 118.000 147.706 C 118.015 138.395,118.168 138.998,115.596 138.232 C 112.922 137.436,112.582 136.887,113.385 134.664 C 114.076 132.751,114.441 132.271,115.728 131.585 C 117.614 130.580,118.129 129.691,117.991 127.679 C 117.954 127.138,117.908 126.783,117.890 126.888 M348.376 129.333 C 349.622 129.973,349.669 131.034,348.474 131.533 C 346.485 132.364,344.090 130.324,345.850 129.299 C 346.284 129.046,347.860 129.068,348.376 129.333 M28.393 130.728 C 28.147 130.834,27.184 131.120,26.252 131.364 C 23.692 132.033,23.154 132.321,22.574 133.330 C 22.300 133.807,21.755 134.598,21.362 135.089 L 20.648 135.982 21.619 135.015 C 22.274 134.361,23.024 133.849,23.929 133.437 C 24.665 133.102,25.726 132.549,26.286 132.210 C 27.579 131.425,29.209 131.078,31.607 131.077 C 34.382 131.075,35.324 131.421,38.571 133.630 C 39.103 133.992,39.284 134.060,39.107 133.832 C 38.113 132.551,35.139 131.122,32.992 130.892 C 30.003 130.571,28.850 130.530,28.393 130.728 M65.633 130.989 C 65.184 131.103,64.757 131.261,64.685 131.341 C 64.613 131.420,64.714 131.422,64.911 131.344 C 65.107 131.266,66.272 131.146,67.500 131.076 C 68.728 131.007,69.411 130.922,69.018 130.886 C 67.538 130.754,66.425 130.788,65.633 130.989 M74.375 130.910 C 72.399 131.237,71.655 131.279,70.764 131.115 C 70.251 131.021,69.869 131.003,69.914 131.076 C 69.959 131.150,70.298 131.263,70.668 131.329 C 71.037 131.395,71.977 131.815,72.756 132.264 C 74.740 133.405,75.116 133.424,76.968 132.473 C 78.433 131.722,78.536 131.696,80.131 131.696 C 81.709 131.696,81.763 131.684,81.387 131.398 C 80.796 130.951,79.006 130.697,78.687 131.016 C 78.469 131.233,77.795 131.217,76.551 130.963 C 75.881 130.826,75.319 130.725,75.301 130.738 C 75.283 130.751,74.866 130.828,74.375 130.910 M61.607 133.115 C 61.263 133.344,60.741 133.799,60.446 134.125 L 59.911 134.719 60.637 134.101 C 61.036 133.760,61.598 133.306,61.887 133.090 C 62.578 132.573,62.398 132.589,61.607 133.115 M45.562 135.107 C 44.593 136.707,42.939 137.725,41.964 137.321 C 41.670 137.199,41.427 137.049,41.425 136.987 C 41.422 136.926,41.255 136.674,41.052 136.429 C 40.584 135.861,40.673 136.048,41.600 137.570 C 42.770 139.493,43.486 144.665,42.806 146.281 C 42.247 147.609,42.381 147.587,34.561 147.606 C 26.706 147.624,26.551 147.647,26.331 148.818 C 26.191 149.566,26.535 150.279,27.404 151.042 C 29.470 152.856,32.254 152.928,34.932 151.237 C 37.099 149.868,38.124 150.095,40.134 152.386 L 40.714 153.048 40.714 151.250 C 40.714 148.940,41.367 148.036,43.033 148.036 C 44.658 148.036,45.801 152.209,44.995 155.198 C 44.172 158.249,47.536 160.562,50.354 158.882 L 51.058 158.462 49.681 158.145 C 46.712 157.461,46.134 156.894,46.302 154.833 C 46.362 154.099,46.295 153.160,46.121 152.321 C 45.897 151.234,45.874 150.495,46.000 148.393 C 46.146 145.961,46.178 144.398,46.213 138.036 C 46.225 135.862,46.205 134.091,46.169 134.112 C 46.165 134.115,45.891 134.563,45.562 135.107 M83.574 137.321 C 83.558 138.353,83.523 143.777,83.498 149.375 C 83.443 161.487,83.482 161.159,81.692 164.542 C 80.180 167.400,79.250 168.396,77.143 169.418 L 75.625 170.154 76.497 170.166 C 77.818 170.185,78.621 169.864,79.887 168.813 C 80.520 168.287,81.123 167.857,81.226 167.857 C 81.530 167.857,82.264 166.418,82.503 165.357 C 82.771 164.164,83.177 162.544,83.892 159.821 C 84.998 155.610,85.135 154.004,84.646 150.982 C 84.470 149.898,84.504 148.682,84.745 147.433 C 84.846 146.907,85.687 145.714,85.957 145.714 C 86.818 145.714,87.186 147.488,86.930 150.399 C 86.617 153.945,87.079 156.305,88.279 157.301 C 88.545 157.522,88.544 157.481,88.269 156.852 C 88.000 156.237,87.958 155.050,87.888 146.071 C 87.818 137.135,87.782 136.111,87.573 137.113 C 86.787 140.890,85.276 140.606,83.922 136.429 L 83.604 135.446 83.574 137.321 M19.080 137.464 C 18.342 138.213,18.132 138.785,17.866 140.772 C 17.589 142.837,17.633 142.803,18.488 140.295 C 18.919 139.033,19.432 137.727,19.629 137.393 C 20.092 136.610,19.898 136.635,19.080 137.464 M28.939 137.777 C 27.015 138.309,26.134 139.563,26.598 141.110 C 26.947 142.277,27.308 142.389,30.288 142.254 C 33.348 142.115,33.998 141.913,34.390 140.973 C 35.277 138.851,32.000 136.930,28.939 137.777 M131.038 137.946 C 130.676 138.079,129.725 138.245,128.925 138.315 C 126.328 138.541,126.062 139.052,126.097 143.750 C 126.110 145.469,126.151 146.674,126.189 146.429 C 126.570 143.971,127.872 141.775,130.535 139.103 C 131.345 138.289,131.886 137.668,131.763 137.691 C 131.726 137.698,131.400 137.813,131.038 137.946 M69.669 138.592 C 67.976 138.909,66.033 140.642,64.986 142.770 C 63.291 146.211,65.791 150.330,69.981 151.000 C 71.522 151.246,74.704 149.272,75.630 147.496 C 77.674 143.573,73.818 137.814,69.669 138.592 M98.443 138.787 C 97.922 139.038,96.108 141.417,95.859 142.174 C 95.480 143.329,95.511 155.477,95.891 155.060 C 96.316 154.594,96.844 152.509,96.811 151.429 C 96.707 148.028,96.732 147.268,96.997 145.696 C 97.482 142.827,98.227 141.841,99.856 141.913 C 101.990 142.006,103.397 144.879,103.118 148.571 C 102.855 152.040,102.907 153.017,103.416 154.107 L 103.875 155.089 103.960 149.196 C 104.056 142.495,104.028 142.286,102.758 140.322 C 101.694 138.678,99.953 138.058,98.443 138.787 M71.741 141.068 C 74.207 142.454,74.890 147.656,72.806 149.180 C 71.680 150.003,68.127 149.114,66.586 147.624 C 65.293 146.374,64.986 142.225,66.117 141.286 C 67.077 140.489,70.477 140.357,71.741 141.068 M17.057 145.030 C 16.290 148.251,17.894 153.214,19.701 153.214 C 19.768 153.214,18.547 149.615,17.855 147.768 C 17.557 146.976,17.449 146.289,17.437 145.134 C 17.429 144.275,17.418 143.571,17.414 143.571 C 17.409 143.571,17.249 144.228,17.057 145.030 M125.982 151.819 C 125.913 152.832,125.889 153.862,125.928 154.107 C 125.968 154.353,126.065 153.565,126.145 152.357 C 126.225 151.148,126.249 150.118,126.199 150.068 C 126.149 150.018,126.051 150.805,125.982 151.819 M60.860 156.211 C 60.943 156.380,60.999 157.394,60.983 158.464 L 60.955 160.411 60.192 161.316 C 59.347 162.319,57.925 164.951,58.512 164.425 C 58.701 164.256,59.124 163.641,59.451 163.059 C 60.497 161.199,61.244 161.213,65.714 163.174 C 69.115 164.665,72.702 163.728,74.805 160.800 C 77.084 157.626,75.141 156.296,70.982 158.181 C 68.633 159.246,65.004 158.574,61.566 156.437 C 60.944 156.050,60.749 155.988,60.860 156.211 M23.057 157.102 C 23.721 158.359,24.665 158.993,26.161 159.189 C 26.652 159.253,27.375 159.375,27.768 159.459 C 31.050 160.160,33.566 160.060,35.897 159.134 C 36.631 158.843,37.572 158.504,37.988 158.382 C 38.825 158.136,39.258 157.752,39.373 157.153 C 39.415 156.935,39.502 156.591,39.567 156.388 L 39.684 156.018 39.172 156.379 C 35.110 159.248,30.573 159.904,27.054 158.132 C 26.170 157.687,24.890 157.120,24.211 156.872 C 23.531 156.624,22.864 156.330,22.728 156.217 C 22.593 156.105,22.741 156.503,23.057 157.102 M69.625 160.670 C 70.396 161.414,70.881 162.581,70.478 162.726 C 70.051 162.879,67.421 162.828,67.109 162.660 C 66.891 162.544,66.786 162.549,66.786 162.679 C 66.786 162.810,66.665 162.805,66.400 162.663 C 66.027 162.464,66.026 162.451,66.355 162.278 C 66.543 162.180,66.964 161.816,67.292 161.470 C 67.756 160.979,68.696 160.448,69.249 160.365 C 69.277 160.361,69.446 160.498,69.625 160.670 M57.679 168.385 C 57.679 168.699,58.642 169.296,59.595 169.573 C 60.830 169.932,61.029 169.776,59.840 169.381 C 59.347 169.217,58.659 168.890,58.311 168.654 C 57.963 168.418,57.679 168.297,57.679 168.385 M66.429 171.438 C 66.871 171.516,67.955 171.574,68.839 171.566 L 70.446 171.552 68.929 171.419 C 68.094 171.345,67.009 171.288,66.518 171.290 L 65.625 171.295 66.429 171.438 M70.940 171.378 C 71.211 171.419,71.613 171.418,71.833 171.376 C 72.052 171.333,71.830 171.300,71.339 171.301 C 70.848 171.302,70.669 171.337,70.940 171.378 " stroke="none" fill="#a1329e" fill-rule="evenodd"></path></g></svg>