<svg id="svg" xmlns="http://www.w3.org/2000/svg" xmlns:xlink="http://www.w3.org/1999/xlink" width="400" height="400" viewBox="0, 0, 400,400"><g id="svgg"><path id="path0" d="M213.985 19.100 C 213.271 19.705,212.119 20.682,211.424 21.271 C 209.425 22.965,207.863 26.407,208.197 28.381 C 208.534 30.375,209.200 30.511,209.200 28.587 C 209.200 26.590,210.121 24.630,211.559 23.567 C 212.237 23.066,212.897 22.323,213.026 21.917 C 213.695 19.810,216.962 19.579,219.220 21.479 C 220.711 22.733,221.409 22.364,220.579 20.760 C 219.191 18.074,216.109 17.299,213.985 19.100 M163.556 30.569 C 163.422 30.707,160.182 31.064,156.356 31.362 C 150.607 31.809,148.775 32.113,145.800 33.113 C 143.820 33.779,140.516 34.709,138.458 35.178 C 136.399 35.648,133.519 36.630,132.058 37.360 C 130.596 38.091,128.410 39.009,127.200 39.401 C 125.990 39.794,124.370 40.589,123.600 41.168 C 122.830 41.748,121.480 42.550,120.600 42.952 C 115.327 45.356,104.111 55.816,100.818 61.400 C 100.299 62.280,99.392 63.540,98.802 64.200 C 98.212 64.860,97.221 66.300,96.599 67.400 C 95.978 68.500,95.340 69.490,95.181 69.600 C 95.023 69.710,94.053 71.502,93.027 73.582 C 92.001 75.662,90.995 77.565,90.792 77.810 C 90.588 78.055,89.901 79.774,89.266 81.628 C 85.598 92.332,83.925 97.011,83.633 97.382 C 83.452 97.612,82.815 99.960,82.217 102.600 C 81.620 105.240,80.616 109.485,79.987 112.034 C 78.087 119.728,77.453 128.558,77.984 139.927 C 78.439 149.678,78.624 151.365,79.989 158.200 C 80.428 160.400,80.983 163.370,81.221 164.800 C 82.781 174.163,84.772 175.419,98.601 175.765 C 111.681 176.093,111.488 176.097,113.589 175.433 C 115.588 174.802,127.599 174.831,135.727 175.487 C 138.245 175.690,141.170 175.686,142.727 175.476 C 146.681 174.945,175.136 174.831,176.600 175.342 C 178.486 175.999,205.256 175.987,207.984 175.328 C 210.734 174.663,223.849 174.602,225.474 175.247 C 228.187 176.323,266.999 175.943,273.742 174.775 C 276.216 174.346,276.839 174.388,280.098 175.203 C 283.884 176.149,297.580 176.123,300.926 175.164 C 302.575 174.691,306.647 174.697,308.313 175.175 C 309.738 175.584,312.400 174.781,312.400 173.943 C 312.400 173.698,313.031 172.799,313.802 171.946 C 314.572 171.092,316.021 168.739,317.021 166.715 C 318.020 164.692,318.993 162.848,319.183 162.618 C 319.373 162.388,319.831 161.030,320.201 159.601 C 320.571 158.171,321.281 156.011,321.780 154.801 C 325.768 145.116,328.028 123.378,326.000 114.200 C 325.514 112.000,324.968 108.850,324.788 107.200 C 324.484 104.415,322.701 97.914,321.991 97.000 C 321.820 96.780,321.234 95.500,320.690 94.155 C 320.146 92.810,318.913 90.380,317.950 88.755 C 316.988 87.130,315.847 85.107,315.415 84.259 C 313.349 80.205,312.478 80.017,302.800 81.544 C 299.341 82.090,295.602 82.392,292.400 82.384 C 287.825 82.373,286.044 82.138,280.800 80.856 C 279.810 80.614,277.401 80.150,275.446 79.825 C 273.029 79.424,271.664 78.990,271.180 78.471 C 270.789 78.051,269.238 77.381,267.735 76.981 C 266.231 76.582,264.010 75.613,262.800 74.828 C 261.590 74.042,259.880 73.040,259.000 72.601 C 258.120 72.161,257.170 71.584,256.888 71.318 C 256.607 71.051,255.347 70.533,254.088 70.166 C 251.394 69.379,248.085 68.298,245.677 67.418 C 238.688 64.863,229.600 66.574,229.600 70.444 C 229.600 73.077,225.255 74.255,221.451 72.653 C 220.599 72.294,219.393 72.000,218.770 72.000 C 217.701 72.000,215.637 71.295,215.200 70.781 C 215.090 70.652,213.290 69.568,211.200 68.373 C 207.808 66.433,202.800 62.154,202.800 61.195 C 202.800 61.020,202.176 60.129,201.414 59.217 C 199.400 56.806,199.132 53.361,200.873 52.262 C 202.395 51.302,206.062 54.059,206.772 56.697 C 207.015 57.600,207.931 59.293,208.807 60.459 C 209.683 61.625,210.406 62.763,210.414 62.989 C 210.464 64.419,212.339 65.670,214.909 65.989 C 216.355 66.168,217.727 66.431,217.958 66.574 C 219.308 67.408,219.041 53.764,217.615 49.081 C 216.782 46.345,216.594 46.034,216.081 46.548 C 215.422 47.206,214.057 46.640,210.209 44.109 C 209.114 43.389,208.030 42.800,207.800 42.800 C 207.570 42.800,206.486 42.211,205.391 41.490 C 202.460 39.563,194.246 35.779,190.800 34.768 C 189.150 34.285,187.608 33.740,187.374 33.557 C 187.139 33.374,185.879 33.105,184.574 32.959 C 183.268 32.814,181.570 32.435,180.800 32.117 C 178.476 31.159,164.223 29.879,163.556 30.569 M168.281 37.801 C 175.461 38.128,179.129 40.993,175.453 43.402 C 174.844 43.801,173.669 43.983,171.967 43.943 C 169.362 43.881,165.903 44.440,163.000 45.394 C 162.120 45.683,159.536 46.311,157.257 46.790 C 154.532 47.363,152.463 48.061,151.212 48.830 C 150.167 49.474,149.187 50.000,149.034 50.000 C 148.245 50.000,144.761 51.892,143.048 53.251 C 141.974 54.103,140.918 54.800,140.701 54.800 C 140.483 54.800,139.661 55.366,138.874 56.057 C 138.087 56.748,136.444 57.755,135.222 58.296 C 134.001 58.836,132.281 59.964,131.401 60.804 C 125.229 66.687,120.000 72.016,120.000 72.422 C 120.000 72.686,118.501 74.364,116.668 76.151 C 113.919 78.832,113.167 79.843,112.368 81.931 C 111.820 83.364,110.199 86.055,108.633 88.131 C 106.673 90.730,105.555 92.686,104.800 94.838 C 104.214 96.510,103.272 98.490,102.707 99.238 C 102.142 99.987,101.297 101.846,100.831 103.369 C 100.365 104.893,99.473 106.967,98.850 107.980 C 98.227 108.992,97.591 110.663,97.437 111.692 C 97.283 112.721,96.719 114.385,96.184 115.391 C 95.650 116.396,95.033 118.340,94.814 119.710 C 94.399 122.310,93.662 125.081,92.396 128.800 C 91.984 130.010,91.180 132.800,90.608 135.000 C 88.927 141.472,88.250 142.442,86.489 140.900 C 84.706 139.338,84.178 131.338,85.400 124.400 C 85.729 122.530,85.999 119.549,85.999 117.776 C 86.000 114.900,86.151 114.245,87.400 111.710 C 88.170 110.147,88.800 108.332,88.800 107.677 C 88.800 105.520,90.045 100.411,91.187 97.883 C 91.804 96.517,92.526 94.348,92.791 93.062 C 93.342 90.387,94.221 88.092,95.052 87.155 C 95.368 86.800,95.979 85.273,96.411 83.763 C 96.843 82.253,97.710 80.293,98.338 79.408 C 98.966 78.524,99.971 76.810,100.572 75.600 C 101.173 74.390,101.913 73.260,102.216 73.089 C 102.520 72.918,103.406 71.563,104.186 70.079 C 105.468 67.640,106.890 65.963,113.924 58.600 C 114.765 57.720,115.759 56.506,116.134 55.902 C 116.509 55.298,117.848 54.252,119.108 53.579 C 121.579 52.259,124.676 50.232,126.600 48.676 C 127.260 48.142,128.880 47.135,130.200 46.438 C 131.520 45.741,133.152 44.821,133.826 44.392 C 134.500 43.964,136.840 43.098,139.026 42.468 C 141.212 41.838,143.720 40.955,144.600 40.507 C 146.469 39.555,149.334 38.956,153.800 38.582 C 155.560 38.434,158.440 38.000,160.200 37.616 C 162.435 37.128,163.701 37.031,164.400 37.293 C 164.950 37.500,166.696 37.728,168.281 37.801 " stroke="none" fill="#df2235" fill-rule="evenodd"></path><path id="path1" d="M0.000 200.000 L 0.000 400.000 11.400 400.000 L 22.800 400.000 22.861 398.700 C 22.895 397.985,22.957 395.685,22.999 393.590 C 23.041 391.494,23.284 389.391,23.538 388.916 C 24.153 387.767,24.133 383.493,23.509 382.869 C 23.185 382.545,22.974 380.579,22.889 377.089 C 22.144 346.451,22.139 342.399,22.848 337.395 C 23.108 335.561,23.346 327.214,23.407 317.800 C 23.469 308.380,23.703 300.156,23.959 298.477 C 24.427 295.401,24.313 294.266,23.314 292.037 C 22.796 290.882,22.776 290.272,23.184 288.037 C 24.101 283.009,24.138 281.218,23.390 278.213 C 22.800 275.842,22.752 275.013,23.121 273.546 C 23.479 272.127,23.451 271.366,22.985 269.818 C 22.194 267.190,22.249 265.365,23.200 262.600 C 24.202 259.686,24.204 258.335,23.210 255.362 C 22.046 251.883,22.121 247.582,23.391 245.000 C 24.645 242.451,24.656 240.319,23.435 236.823 C 22.608 234.455,22.530 233.821,22.894 232.389 C 23.184 231.247,23.191 230.129,22.918 228.859 C 22.469 226.778,22.619 206.980,23.099 204.884 C 23.264 204.160,23.265 200.626,23.100 197.029 C 22.874 192.085,22.935 189.778,23.353 187.569 C 23.728 185.584,23.784 184.300,23.527 183.562 C 22.025 179.253,25.548 175.760,31.800 175.361 C 36.643 175.052,37.826 175.058,46.600 175.436 C 56.786 175.876,62.453 175.812,64.764 175.232 C 65.955 174.934,68.835 174.663,71.164 174.631 C 73.582 174.598,75.766 174.369,76.253 174.098 C 77.750 173.263,77.934 169.486,76.583 167.349 C 75.893 166.256,74.502 160.502,74.178 157.400 C 74.041 156.080,73.756 154.431,73.545 153.736 C 72.056 148.827,71.277 140.366,71.267 129.000 C 71.257 118.467,71.203 118.912,74.191 105.000 C 74.915 101.629,75.994 97.950,76.420 97.400 C 76.590 97.180,77.210 95.290,77.796 93.200 C 78.383 91.110,79.099 88.860,79.387 88.200 C 79.675 87.540,80.043 86.550,80.204 86.000 C 80.366 85.450,80.632 84.820,80.796 84.600 C 80.960 84.380,81.489 82.995,81.972 81.522 C 82.455 80.049,83.184 78.420,83.592 77.902 C 83.999 77.384,85.076 75.439,85.984 73.580 C 89.230 66.938,90.411 64.754,91.231 63.884 C 91.688 63.398,92.704 61.965,93.488 60.700 C 94.272 59.435,95.040 58.400,95.193 58.400 C 95.347 58.400,95.943 57.536,96.518 56.479 C 98.095 53.583,105.688 45.956,111.447 41.484 C 119.211 35.455,131.722 29.997,141.400 28.417 C 150.139 26.990,159.268 25.916,160.570 26.163 C 161.246 26.291,164.860 26.568,168.600 26.780 C 176.215 27.209,182.297 28.268,185.636 29.744 C 186.865 30.288,189.295 31.221,191.035 31.819 C 197.344 33.984,203.624 37.425,207.250 40.704 C 208.053 41.431,208.665 41.624,209.850 41.527 L 211.400 41.400 211.523 39.243 C 211.646 37.085,210.030 34.400,208.608 34.400 C 208.368 34.400,207.854 33.861,207.464 33.201 C 207.075 32.542,206.046 31.432,205.178 30.734 C 202.930 28.928,203.062 26.294,205.533 23.621 C 206.046 23.066,206.760 22.114,207.119 21.506 C 207.479 20.897,208.092 20.298,208.481 20.174 C 208.870 20.051,209.697 19.441,210.318 18.820 C 214.432 14.707,220.002 14.483,221.976 18.352 C 222.408 19.200,223.212 20.428,223.762 21.081 C 224.546 22.014,224.854 23.019,225.194 25.748 C 225.431 27.662,225.826 30.166,226.071 31.314 C 226.316 32.461,226.625 35.182,226.758 37.359 C 227.075 42.553,230.168 45.065,232.430 41.967 C 234.077 39.712,237.489 36.071,238.600 35.383 C 239.260 34.975,240.752 33.867,241.916 32.920 C 243.079 31.974,244.159 31.200,244.316 31.200 C 244.472 31.199,245.133 30.741,245.784 30.181 C 253.406 23.626,271.718 19.944,282.167 22.866 C 283.725 23.301,286.080 23.928,287.400 24.258 C 289.823 24.864,296.265 28.075,298.742 29.910 C 299.481 30.458,301.101 31.446,302.342 32.106 C 303.584 32.767,305.109 33.733,305.731 34.254 C 306.353 34.774,307.036 35.200,307.250 35.200 C 307.463 35.200,308.508 36.070,309.572 37.134 C 310.635 38.197,312.323 39.452,313.321 39.921 C 314.320 40.390,315.390 41.136,315.700 41.579 C 316.975 43.399,324.520 46.072,329.035 46.302 C 333.835 46.547,335.600 47.281,335.600 49.033 C 335.600 50.520,334.443 54.380,333.560 55.839 C 333.147 56.521,332.356 58.285,331.801 59.760 C 330.867 62.239,329.780 64.317,329.163 64.800 C 329.022 64.910,328.498 65.810,327.997 66.800 C 326.816 69.135,323.952 72.324,321.851 73.641 C 320.790 74.307,319.783 75.431,319.061 76.759 L 317.931 78.835 319.639 80.718 C 320.579 81.753,321.749 83.014,322.239 83.520 C 322.729 84.026,323.523 85.286,324.003 86.320 C 324.483 87.354,325.296 88.650,325.809 89.200 C 326.322 89.750,327.206 91.460,327.775 93.000 C 328.343 94.540,328.985 96.160,329.201 96.600 C 330.099 98.426,330.897 101.190,331.397 104.200 C 331.689 105.960,332.302 109.436,332.760 111.924 C 334.426 120.986,334.236 131.821,332.222 142.707 C 331.907 144.408,331.455 146.880,331.218 148.200 C 330.981 149.520,330.269 151.680,329.635 153.000 C 329.002 154.320,328.089 156.750,327.607 158.400 C 327.125 160.050,326.441 161.850,326.087 162.400 C 323.720 166.079,321.562 170.935,321.677 172.322 C 321.910 175.128,322.007 175.140,341.522 174.927 C 355.700 174.771,359.056 174.841,361.207 175.333 C 363.863 175.941,366.454 175.772,369.406 174.798 C 371.668 174.051,375.862 176.615,376.093 178.887 C 376.193 179.866,376.382 226.329,376.305 231.000 C 376.280 232.540,376.267 234.790,376.276 236.000 C 376.286 237.210,376.308 244.590,376.325 252.400 C 376.342 260.210,376.391 267.680,376.434 269.000 C 376.628 275.030,376.592 309.490,376.364 336.000 C 376.293 344.250,376.268 352.170,376.309 353.600 C 376.399 356.751,376.379 381.492,376.282 386.800 C 376.244 388.890,376.371 392.715,376.565 395.300 L 376.917 400.000 388.459 400.000 L 400.000 400.000 400.000 200.000 L 400.000 0.000 200.000 0.000 L 0.000 0.000 0.000 200.000 " stroke="none" fill="#0bb9e9" fill-rule="evenodd"></path><path id="path2" d="M216.200 15.609 C 214.431 15.992,211.600 17.539,210.315 18.823 C 209.696 19.443,208.870 20.051,208.481 20.174 C 208.092 20.298,207.479 20.897,207.119 21.506 C 206.760 22.114,206.046 23.066,205.533 23.621 C 203.062 26.294,202.930 28.928,205.178 30.734 C 206.046 31.432,207.075 32.542,207.464 33.201 C 208.148 34.359,209.724 34.918,209.431 33.900 C 209.352 33.625,208.971 31.926,208.584 30.124 L 207.880 26.848 209.020 24.595 C 209.647 23.356,210.729 21.860,211.424 21.271 C 212.119 20.682,213.271 19.705,213.985 19.100 C 216.495 16.972,219.224 18.082,221.181 22.025 C 221.853 23.379,222.852 24.840,223.401 25.272 C 223.951 25.704,224.400 26.304,224.400 26.605 C 224.400 26.906,224.609 27.282,224.864 27.439 C 225.866 28.059,224.916 22.454,223.793 21.119 C 223.226 20.445,222.424 19.230,222.010 18.420 C 220.775 15.998,218.803 15.044,216.200 15.609 M266.107 22.185 C 260.361 23.010,246.000 28.556,246.000 29.951 C 246.000 30.501,251.138 29.780,251.865 29.128 C 252.814 28.277,258.368 26.543,261.200 26.214 C 262.410 26.073,264.468 25.684,265.773 25.349 C 270.545 24.125,279.255 24.792,282.200 26.607 C 282.640 26.878,283.884 27.312,284.965 27.572 C 286.046 27.832,287.666 28.409,288.565 28.854 C 289.464 29.299,291.550 30.107,293.200 30.650 C 296.813 31.839,298.359 32.654,299.329 33.879 C 299.730 34.385,300.248 34.800,300.480 34.800 C 300.712 34.800,302.124 35.706,303.617 36.813 C 305.110 37.920,307.161 39.108,308.173 39.453 C 309.186 39.798,310.188 40.404,310.400 40.800 C 310.786 41.521,313.901 42.800,315.271 42.800 C 317.038 42.800,315.735 41.030,313.050 39.782 C 312.197 39.385,310.630 38.192,309.569 37.130 C 308.507 36.069,307.463 35.200,307.250 35.200 C 307.036 35.200,306.353 34.774,305.731 34.254 C 305.109 33.733,303.584 32.767,302.342 32.106 C 301.101 31.446,299.481 30.458,298.742 29.910 C 296.265 28.075,289.823 24.864,287.400 24.258 C 286.080 23.928,283.678 23.289,282.062 22.838 C 278.241 21.772,271.042 21.478,266.107 22.185 M153.800 26.596 C 151.820 26.886,148.850 27.311,147.200 27.541 C 140.645 28.455,138.376 28.942,132.877 30.615 C 123.369 33.506,115.682 37.757,107.647 44.565 C 104.088 47.582,97.554 54.577,96.518 56.479 C 95.943 57.536,95.347 58.400,95.193 58.400 C 95.040 58.400,94.272 59.435,93.488 60.700 C 92.704 61.965,91.688 63.398,91.231 63.884 C 90.411 64.754,89.230 66.938,85.984 73.580 C 85.076 75.439,83.999 77.384,83.592 77.902 C 83.184 78.420,82.458 80.025,81.977 81.469 C 81.496 82.914,80.856 84.569,80.554 85.148 C 80.252 85.727,80.004 86.353,80.002 86.540 C 80.001 86.726,79.744 87.446,79.431 88.140 C 79.119 88.833,78.383 91.110,77.796 93.200 C 77.210 95.290,76.590 97.180,76.420 97.400 C 75.994 97.950,74.915 101.629,74.191 105.000 C 71.203 118.912,71.257 118.467,71.267 129.000 C 71.277 140.366,72.056 148.827,73.545 153.736 C 73.756 154.431,74.041 156.080,74.178 157.400 C 74.502 160.502,75.893 166.256,76.583 167.349 C 77.934 169.486,77.750 173.263,76.253 174.098 C 75.766 174.369,73.582 174.598,71.164 174.631 C 68.835 174.663,65.955 174.934,64.764 175.232 C 62.453 175.812,56.786 175.876,46.600 175.436 C 30.240 174.731,26.584 175.181,24.776 178.122 C 23.600 180.035,23.083 182.288,23.527 183.562 C 23.784 184.300,23.728 185.584,23.353 187.569 C 22.935 189.778,22.874 192.085,23.100 197.029 C 23.265 200.626,23.264 204.160,23.099 204.884 C 22.619 206.980,22.469 226.778,22.918 228.859 C 23.191 230.129,23.184 231.247,22.894 232.389 C 22.530 233.821,22.608 234.455,23.435 236.823 C 24.656 240.319,24.645 242.451,23.391 245.000 C 22.121 247.582,22.046 251.883,23.210 255.362 C 24.204 258.335,24.202 259.686,23.200 262.600 C 22.249 265.365,22.194 267.190,22.985 269.818 C 23.451 271.366,23.479 272.127,23.121 273.546 C 22.752 275.013,22.800 275.842,23.390 278.213 C 24.138 281.218,24.101 283.009,23.184 288.037 C 22.776 290.272,22.796 290.882,23.314 292.037 C 24.313 294.266,24.427 295.401,23.959 298.477 C 23.703 300.156,23.469 308.380,23.407 317.800 C 23.346 327.214,23.108 335.561,22.848 337.395 C 22.139 342.399,22.144 346.451,22.889 377.089 C 22.974 380.579,23.185 382.545,23.509 382.869 C 24.115 383.475,24.160 387.753,23.573 388.850 C 23.338 389.289,23.080 391.977,22.999 394.824 L 22.851 400.000 25.283 400.000 L 27.716 400.000 27.484 397.230 C 27.356 395.707,26.994 393.952,26.679 393.330 C 25.563 391.125,25.502 389.433,26.494 388.172 C 27.985 386.276,27.809 368.513,26.214 360.000 C 25.286 355.049,25.266 349.741,26.167 347.991 C 27.331 345.733,28.055 284.939,27.153 265.200 C 27.138 264.870,27.259 261.895,27.421 258.590 C 27.698 252.957,27.663 252.458,26.858 250.639 C 25.777 248.195,25.775 246.827,26.850 245.005 C 27.554 243.812,27.682 243.033,27.592 240.482 C 27.532 238.787,27.466 224.890,27.445 209.600 C 27.399 176.107,27.039 178.135,33.000 178.270 C 50.152 178.660,88.427 178.510,89.749 178.047 C 90.978 177.618,91.885 177.597,94.149 177.946 C 97.087 178.399,114.493 178.962,118.400 178.731 C 119.610 178.659,122.670 178.652,125.200 178.715 C 127.730 178.778,131.780 178.624,134.200 178.373 C 137.857 177.994,139.343 178.022,143.000 178.542 C 146.324 179.015,148.065 179.074,150.120 178.783 C 151.615 178.571,154.675 178.434,156.920 178.479 C 159.365 178.527,161.830 178.340,163.071 178.012 C 164.897 177.529,165.592 177.548,168.935 178.178 C 171.022 178.570,172.922 178.772,173.159 178.625 C 173.396 178.479,179.667 178.398,187.095 178.445 C 214.243 178.618,261.114 178.347,265.308 177.993 C 268.289 177.742,270.321 177.769,271.908 178.082 C 273.453 178.387,279.868 178.501,291.600 178.431 C 311.954 178.311,312.177 178.311,322.600 178.430 C 327.000 178.480,332.400 178.391,334.600 178.232 C 337.435 178.026,339.519 178.106,341.755 178.506 C 344.013 178.910,345.491 178.965,346.955 178.699 C 348.080 178.494,352.240 178.422,356.200 178.538 C 360.160 178.655,364.490 178.753,365.823 178.757 C 368.894 178.764,371.850 179.955,372.402 181.405 C 373.114 183.279,373.436 205.517,373.201 236.600 C 373.101 249.755,373.190 253.804,373.610 255.262 C 374.063 256.839,374.058 257.484,373.573 259.462 C 372.742 262.852,372.911 275.972,373.834 279.738 C 374.612 282.915,374.476 287.654,373.292 298.600 C 372.415 306.708,372.443 311.093,373.390 314.200 C 374.337 317.308,374.489 325.683,373.625 327.200 C 372.717 328.795,372.534 338.407,373.351 341.662 C 374.192 345.017,374.163 346.446,373.193 349.542 C 372.365 352.183,372.491 354.931,373.566 357.726 C 374.265 359.541,374.125 370.403,373.380 372.187 C 372.391 374.552,372.655 387.565,373.804 393.153 C 374.215 395.152,374.397 397.212,374.255 398.253 L 374.015 400.000 375.466 400.000 L 376.917 400.000 376.565 395.300 C 376.371 392.715,376.244 388.890,376.282 386.800 C 376.379 381.492,376.399 356.751,376.309 353.600 C 376.268 352.170,376.293 344.250,376.364 336.000 C 376.592 309.490,376.628 275.030,376.434 269.000 C 376.391 267.680,376.342 260.210,376.325 252.400 C 376.308 244.590,376.286 237.210,376.276 236.000 C 376.267 234.790,376.280 232.540,376.305 231.000 C 376.382 226.329,376.193 179.866,376.093 178.887 C 375.862 176.615,371.668 174.051,369.406 174.798 C 366.454 175.772,363.863 175.941,361.207 175.333 C 359.056 174.841,355.700 174.771,341.522 174.927 C 322.007 175.140,321.910 175.128,321.677 172.322 C 321.562 170.935,323.720 166.079,326.087 162.400 C 326.441 161.850,327.125 160.050,327.607 158.400 C 328.089 156.750,329.002 154.320,329.635 153.000 C 330.269 151.680,330.981 149.520,331.218 148.200 C 331.455 146.880,331.907 144.408,332.222 142.707 C 334.236 131.821,334.426 120.986,332.760 111.924 C 332.302 109.436,331.689 105.960,331.397 104.200 C 330.897 101.190,330.099 98.426,329.201 96.600 C 328.985 96.160,328.343 94.540,327.775 93.000 C 327.206 91.460,326.322 89.750,325.809 89.200 C 325.296 88.650,324.483 87.354,324.003 86.320 C 323.523 85.286,322.729 84.026,322.239 83.520 C 321.749 83.014,320.579 81.753,319.639 80.718 L 317.931 78.835 319.061 76.759 C 319.790 75.419,320.784 74.313,321.863 73.641 C 323.970 72.329,327.166 68.701,328.161 66.490 C 328.579 65.560,329.033 64.800,329.169 64.800 C 329.842 64.800,331.361 61.201,330.888 60.728 C 330.504 60.344,330.400 60.364,330.400 60.820 C 330.400 61.367,326.761 64.800,326.182 64.800 C 326.033 64.800,325.149 65.574,324.217 66.519 C 323.285 67.464,321.640 68.807,320.561 69.502 C 319.483 70.197,318.004 71.314,317.275 71.983 C 316.547 72.652,315.751 73.200,315.506 73.200 C 315.262 73.200,313.248 74.088,311.031 75.173 C 307.551 76.876,306.290 77.261,301.800 77.994 C 298.940 78.460,295.970 79.141,295.200 79.507 C 294.143 80.009,292.306 80.210,287.700 80.329 C 284.345 80.415,281.600 80.632,281.600 80.810 C 281.600 82.327,294.815 82.811,302.600 81.579 C 312.503 80.012,313.340 80.187,315.415 84.259 C 315.847 85.107,316.988 87.130,317.950 88.755 C 318.913 90.380,320.146 92.810,320.690 94.155 C 321.234 95.500,321.820 96.780,321.991 97.000 C 322.701 97.914,324.484 104.415,324.788 107.200 C 324.968 108.850,325.514 112.000,326.000 114.200 C 328.028 123.378,325.768 145.116,321.780 154.801 C 321.281 156.011,320.571 158.171,320.201 159.601 C 319.831 161.030,319.373 162.388,319.183 162.618 C 318.993 162.848,318.020 164.692,317.021 166.715 C 316.021 168.739,314.572 171.092,313.802 171.946 C 313.031 172.799,312.400 173.698,312.400 173.943 C 312.400 174.781,309.738 175.584,308.313 175.175 C 306.647 174.697,302.575 174.691,300.926 175.164 C 297.580 176.123,283.884 176.149,280.098 175.203 C 276.839 174.388,276.216 174.346,273.742 174.775 C 266.999 175.943,228.187 176.323,225.474 175.247 C 223.849 174.602,210.734 174.663,207.984 175.328 C 205.256 175.987,178.486 175.999,176.600 175.342 C 175.136 174.831,146.681 174.945,142.727 175.476 C 141.170 175.686,138.245 175.690,135.727 175.487 C 127.599 174.831,115.588 174.802,113.589 175.433 C 111.488 176.097,111.681 176.093,98.601 175.765 C 84.772 175.419,82.781 174.163,81.221 164.800 C 80.983 163.370,80.428 160.400,79.989 158.200 C 78.624 151.365,78.439 149.678,77.984 139.927 C 77.453 128.558,78.087 119.728,79.987 112.034 C 80.616 109.485,81.620 105.240,82.217 102.600 C 82.815 99.960,83.452 97.612,83.633 97.382 C 83.925 97.011,85.598 92.332,89.266 81.628 C 89.901 79.774,90.588 78.055,90.792 77.810 C 90.995 77.565,92.001 75.662,93.027 73.582 C 94.053 71.502,95.023 69.710,95.181 69.600 C 95.340 69.490,95.978 68.500,96.599 67.400 C 97.221 66.300,98.212 64.860,98.802 64.200 C 99.392 63.540,100.299 62.280,100.818 61.400 C 104.111 55.816,115.327 45.356,120.600 42.952 C 121.480 42.550,122.830 41.748,123.600 41.168 C 124.370 40.589,125.990 39.794,127.200 39.401 C 128.410 39.009,130.596 38.091,132.058 37.360 C 133.519 36.630,136.399 35.648,138.458 35.178 C 140.516 34.709,143.820 33.779,145.800 33.113 C 153.808 30.420,175.199 29.812,180.800 32.118 C 181.570 32.435,183.268 32.814,184.574 32.959 C 185.879 33.105,187.139 33.374,187.374 33.557 C 187.608 33.740,189.150 34.285,190.800 34.768 C 194.246 35.779,202.460 39.563,205.391 41.490 C 206.486 42.211,207.570 42.800,207.800 42.800 C 208.030 42.800,209.114 43.389,210.209 44.109 C 215.595 47.651,217.079 47.689,216.340 44.265 C 215.878 42.122,215.188 40.400,214.791 40.400 C 214.620 40.400,214.146 39.591,213.740 38.601 C 213.333 37.612,212.910 36.805,212.800 36.808 C 212.055 36.825,211.634 37.684,211.526 39.408 L 211.400 41.400 209.850 41.527 C 208.665 41.624,208.053 41.431,207.250 40.704 C 203.624 37.425,197.344 33.984,191.035 31.819 C 189.295 31.221,186.865 30.288,185.636 29.744 C 182.330 28.282,176.242 27.210,168.800 26.779 C 165.170 26.568,161.120 26.323,159.800 26.233 C 158.480 26.143,155.780 26.306,153.800 26.596 M251.500 42.433 C 249.962 44.040,249.757 44.597,250.356 45.542 C 250.642 45.994,250.857 45.985,251.650 45.487 C 252.172 45.158,253.254 44.682,254.053 44.429 C 255.478 43.978,256.416 42.196,255.775 41.159 C 255.200 40.229,252.975 40.893,251.500 42.433 M226.800 44.799 L 226.800 48.457 228.125 47.052 C 230.267 44.781,230.875 42.800,229.430 42.800 C 229.143 42.800,228.434 42.427,227.854 41.971 L 226.800 41.142 226.800 44.799 M269.054 41.798 C 269.181 42.126,269.445 42.296,269.642 42.174 C 270.207 41.825,270.060 41.200,269.413 41.200 C 269.056 41.200,268.915 41.435,269.054 41.798 M200.378 52.627 C 199.477 53.713,199.672 56.982,200.715 58.270 C 201.218 58.891,201.938 59.911,202.315 60.535 C 203.803 63.001,207.483 66.248,211.200 68.373 C 213.290 69.568,215.090 70.652,215.200 70.781 C 215.637 71.295,217.701 72.000,218.770 72.000 C 219.393 72.000,220.599 72.294,221.451 72.653 C 225.297 74.273,229.600 73.078,229.600 70.390 C 229.600 68.746,228.091 68.069,226.955 69.205 C 226.732 69.428,225.123 69.883,223.378 70.217 C 219.846 70.893,219.418 70.709,218.927 68.309 C 218.606 66.742,217.963 66.367,214.954 65.994 C 212.338 65.670,210.465 64.430,210.414 62.989 C 210.406 62.763,209.678 61.618,208.796 60.444 C 207.914 59.270,207.079 57.835,206.940 57.255 C 206.100 53.745,201.905 50.786,200.378 52.627 M262.000 74.147 C 262.000 74.463,265.055 76.279,265.989 76.518 C 266.944 76.763,266.937 76.737,265.789 75.773 C 264.288 74.512,262.000 73.531,262.000 74.147 M271.433 78.793 C 272.009 79.369,274.400 79.778,274.400 79.300 C 274.400 79.080,273.838 78.788,273.150 78.650 C 271.366 78.293,270.966 78.326,271.433 78.793 M134.950 200.088 C 134.042 200.275,133.025 200.736,132.689 201.114 C 131.993 201.897,127.600 210.335,127.600 210.889 C 127.600 211.392,122.480 221.868,121.367 223.644 C 120.869 224.438,120.251 225.878,119.995 226.844 C 119.739 227.810,118.825 229.882,117.965 231.448 C 117.105 233.015,116.153 234.999,115.850 235.857 C 115.548 236.715,114.828 238.113,114.251 238.963 C 113.674 239.814,113.018 241.189,112.795 242.019 C 112.571 242.849,111.582 244.939,110.597 246.664 C 109.612 248.389,108.805 249.953,108.803 250.139 C 108.801 250.326,108.096 251.946,107.235 253.739 C 106.374 255.533,105.108 258.241,104.421 259.757 C 103.735 261.274,102.851 262.984,102.459 263.557 C 102.066 264.131,101.343 265.675,100.852 266.989 C 100.361 268.303,99.457 270.195,98.842 271.193 C 98.228 272.192,97.498 273.727,97.221 274.604 C 96.943 275.482,96.284 276.872,95.756 277.694 C 95.228 278.516,94.258 280.543,93.601 282.198 C 92.943 283.853,91.939 285.946,91.369 286.849 C 90.799 287.753,90.099 289.146,89.814 289.946 C 89.529 290.746,88.464 293.053,87.448 295.074 C 86.431 297.094,85.600 298.904,85.600 299.095 C 85.600 299.287,85.082 300.261,84.448 301.260 C 83.814 302.259,82.899 304.194,82.415 305.559 C 81.930 306.924,80.933 309.102,80.200 310.399 C 79.467 311.697,78.743 313.172,78.592 313.679 C 78.440 314.185,77.549 316.040,76.611 317.800 C 75.673 319.560,74.799 321.450,74.669 322.000 C 74.539 322.550,73.806 324.039,73.041 325.308 C 72.275 326.577,71.530 328.017,71.385 328.508 C 71.239 328.999,70.255 331.200,69.197 333.400 C 68.140 335.600,66.878 338.300,66.392 339.400 C 65.907 340.500,65.276 341.670,64.990 342.000 C 64.703 342.330,63.969 343.860,63.358 345.400 C 62.747 346.940,61.779 349.010,61.206 350.000 C 60.634 350.990,59.758 352.877,59.261 354.193 C 58.763 355.509,58.115 356.859,57.821 357.193 C 57.526 357.527,56.716 359.150,56.020 360.800 C 55.324 362.450,54.322 364.539,53.794 365.443 C 53.266 366.346,52.452 368.056,51.985 369.243 C 51.519 370.429,50.901 371.670,50.613 372.000 C 49.651 373.102,49.451 375.172,50.224 376.027 C 50.889 376.761,51.579 376.800,63.962 376.794 L 77.000 376.787 78.217 375.694 C 79.907 374.174,80.907 372.597,81.950 369.807 C 82.441 368.491,83.086 367.141,83.382 366.807 C 83.678 366.473,84.392 365.072,84.968 363.693 C 85.545 362.314,86.549 360.320,87.200 359.262 C 87.851 358.203,88.835 356.181,89.385 354.769 C 90.263 352.518,91.822 349.327,95.723 341.800 C 96.293 340.700,96.965 339.230,97.215 338.533 C 97.736 337.081,99.394 335.128,100.674 334.458 C 101.992 333.767,178.620 333.819,179.987 334.511 C 181.193 335.121,183.855 338.567,184.208 339.974 C 184.349 340.538,185.065 341.990,185.799 343.200 C 186.533 344.410,187.535 346.570,188.026 348.000 C 188.516 349.430,189.404 351.320,189.999 352.200 C 190.594 353.080,191.590 354.970,192.212 356.400 C 192.834 357.830,193.591 359.296,193.895 359.658 C 194.199 360.020,194.864 361.505,195.371 362.959 C 195.879 364.413,196.733 366.277,197.268 367.101 C 197.803 367.925,198.740 369.770,199.351 371.200 C 201.785 376.901,201.693 376.871,216.820 376.836 C 233.467 376.797,232.780 377.319,228.200 368.187 C 226.550 364.897,225.200 361.999,225.200 361.747 C 225.200 361.495,224.480 360.057,223.600 358.551 C 222.720 357.045,222.000 355.642,222.000 355.434 C 222.000 355.226,221.031 353.063,219.847 350.628 C 216.666 344.085,214.197 338.784,213.594 337.200 C 213.300 336.430,212.709 335.290,212.279 334.666 C 211.849 334.043,210.878 332.063,210.121 330.268 C 209.363 328.473,208.411 326.463,208.004 325.802 C 207.596 325.141,206.906 323.692,206.470 322.583 C 206.034 321.474,205.146 319.664,204.496 318.562 C 203.846 317.461,203.093 315.848,202.822 314.980 C 202.332 313.407,201.284 311.105,200.191 309.200 C 199.306 307.656,194.931 298.311,194.624 297.308 C 194.474 296.817,193.732 295.388,192.976 294.131 C 192.219 292.875,191.600 291.619,191.600 291.341 C 191.600 291.063,190.720 289.072,189.644 286.918 C 186.423 280.465,184.484 276.327,183.592 274.000 C 183.129 272.790,182.322 271.170,181.800 270.400 C 181.278 269.630,180.465 268.010,179.994 266.800 C 179.524 265.590,178.635 263.700,178.020 262.600 C 177.405 261.500,176.573 259.700,176.171 258.600 C 175.769 257.500,174.950 255.790,174.351 254.800 C 173.752 253.810,172.823 251.830,172.286 250.400 C 171.749 248.970,170.745 246.910,170.055 245.822 C 169.365 244.734,168.800 243.654,168.800 243.422 C 168.799 243.190,167.939 241.290,166.888 239.200 C 165.836 237.110,164.748 234.632,164.470 233.693 C 164.192 232.755,163.463 231.225,162.850 230.293 C 162.238 229.362,161.326 227.610,160.823 226.400 C 160.320 225.190,159.321 223.120,158.602 221.800 C 157.883 220.480,157.179 218.900,157.037 218.289 C 156.895 217.678,156.248 216.314,155.598 215.258 C 154.948 214.201,153.963 212.134,153.409 210.662 C 152.855 209.191,151.978 207.315,151.460 206.494 C 150.941 205.672,150.381 204.550,150.214 204.000 C 149.079 200.249,142.436 198.546,134.950 200.088 M141.522 251.830 C 142.435 252.470,144.947 257.108,146.441 260.913 C 146.892 262.061,147.752 263.810,148.352 264.800 C 148.952 265.790,149.946 267.995,150.562 269.700 C 151.177 271.405,151.818 272.800,151.986 272.800 C 152.154 272.800,152.779 273.925,153.376 275.300 C 153.973 276.675,155.169 279.240,156.034 281.000 C 156.899 282.760,157.605 284.353,157.603 284.541 C 157.600 284.858,164.456 299.068,166.634 303.259 C 168.251 306.371,167.540 308.483,164.702 309.000 C 160.787 309.714,114.339 309.005,113.768 308.224 C 113.027 307.211,113.038 304.632,113.785 304.013 C 114.107 303.746,114.748 302.509,115.210 301.264 C 115.673 300.019,116.640 297.920,117.361 296.600 C 118.082 295.280,119.057 293.166,119.529 291.902 C 120.001 290.639,120.807 288.929,121.320 288.102 C 121.833 287.276,122.672 285.551,123.185 284.269 C 123.699 282.986,124.543 281.311,125.063 280.546 C 125.582 279.780,126.380 278.046,126.836 276.692 C 127.292 275.338,128.095 273.498,128.619 272.603 C 129.144 271.709,130.094 269.713,130.730 268.169 C 131.367 266.625,132.329 264.650,132.868 263.781 C 133.407 262.911,134.262 261.030,134.768 259.600 C 136.949 253.437,139.547 250.447,141.522 251.830 M275.400 263.004 C 268.974 264.032,262.442 266.163,258.497 268.516 C 257.234 269.270,255.626 270.163,254.924 270.501 C 252.237 271.793,245.501 277.772,242.643 281.400 C 241.430 282.940,239.972 284.773,239.403 285.472 C 237.657 287.622,233.419 295.898,232.989 298.000 C 232.831 298.770,232.389 300.030,232.005 300.800 C 227.078 310.699,228.827 339.386,234.957 349.200 C 235.437 349.970,236.530 351.995,237.383 353.700 C 238.237 355.405,239.081 356.800,239.258 356.800 C 239.435 356.800,239.882 357.385,240.251 358.100 C 241.993 361.471,251.065 370.104,255.115 372.245 C 256.152 372.793,257.810 373.758,258.800 374.389 C 259.790 375.020,260.839 375.551,261.131 375.569 C 261.422 375.586,263.132 376.216,264.931 376.969 C 278.409 382.613,300.037 381.180,310.878 373.925 C 312.131 373.086,313.335 372.400,313.555 372.400 C 313.774 372.400,314.893 371.498,316.043 370.396 C 320.144 366.464,325.196 367.665,323.470 372.161 C 323.153 372.988,324.013 375.488,324.887 376.279 C 325.969 377.258,346.777 377.095,348.471 376.094 C 350.059 375.157,349.989 377.696,349.995 320.729 C 350.000 263.315,350.138 267.144,348.035 266.019 C 346.342 265.113,325.629 265.433,324.620 266.381 C 323.486 267.446,323.078 269.226,323.632 270.685 C 324.148 272.041,323.167 274.468,321.810 275.195 C 320.513 275.889,317.890 274.648,315.620 272.266 C 314.642 271.240,313.634 270.400,313.380 270.400 C 313.126 270.400,311.677 269.583,310.159 268.585 C 308.642 267.586,306.410 266.484,305.200 266.136 C 303.990 265.788,302.820 265.364,302.600 265.193 C 299.636 262.896,283.958 261.634,275.400 263.004 M294.268 285.235 C 297.111 285.630,302.815 287.288,303.800 288.005 C 304.020 288.165,304.858 288.507,305.661 288.766 C 306.465 289.025,307.570 289.651,308.117 290.159 C 308.665 290.666,309.806 291.509,310.654 292.033 C 314.113 294.171,318.904 300.141,320.678 304.525 C 321.229 305.886,321.830 307.184,322.013 307.409 C 322.899 308.495,324.034 314.154,324.258 318.600 C 325.492 343.118,307.706 360.363,284.395 357.250 C 276.218 356.158,266.013 349.761,262.300 343.400 C 261.914 342.740,261.180 341.634,260.667 340.941 C 260.155 340.249,259.407 338.629,259.004 337.341 C 258.602 336.054,258.046 334.640,257.768 334.200 C 256.296 331.870,255.818 328.690,255.815 321.200 C 255.811 313.514,255.935 312.711,257.789 308.400 C 258.310 307.190,259.115 305.210,259.578 304.000 C 260.042 302.790,260.956 301.191,261.611 300.446 C 262.265 299.701,262.800 298.923,262.800 298.716 C 262.800 298.510,263.835 297.252,265.100 295.923 C 273.147 287.462,283.365 283.718,294.268 285.235 " stroke="none" fill="#252426" fill-rule="evenodd"></path><path id="path3" d="M160.000 38.657 C 158.130 38.932,154.620 39.354,152.200 39.595 C 148.729 39.941,147.336 40.272,145.600 41.162 C 144.390 41.783,142.192 42.514,140.716 42.787 C 138.949 43.115,136.991 43.878,134.983 45.022 C 133.306 45.978,131.363 46.948,130.664 47.179 C 129.966 47.409,128.911 48.046,128.320 48.594 C 126.768 50.033,121.055 53.866,119.945 54.213 C 118.565 54.644,117.677 55.338,116.570 56.854 C 116.029 57.594,114.066 59.820,112.208 61.800 C 108.363 65.897,105.448 69.555,104.397 71.600 C 104.002 72.370,103.210 73.436,102.639 73.970 C 102.068 74.503,101.600 75.098,101.600 75.292 C 101.600 76.103,99.973 79.121,98.841 80.411 C 98.057 81.303,97.454 82.587,97.155 84.000 C 96.898 85.210,96.146 87.190,95.484 88.400 C 94.822 89.610,93.846 92.400,93.316 94.600 C 92.785 96.800,91.920 99.374,91.392 100.321 C 90.439 102.031,89.600 105.488,89.600 107.707 C 89.600 108.345,89.060 110.215,88.400 111.864 C 87.397 114.369,87.200 115.416,87.200 118.250 C 87.200 120.661,87.005 122.009,86.524 122.920 C 85.999 123.914,85.809 125.602,85.677 130.471 L 85.506 136.742 86.535 137.771 C 88.376 139.613,89.125 138.566,89.947 133.000 C 90.237 131.035,90.904 128.796,91.676 127.200 C 93.039 124.378,93.964 120.757,93.986 118.154 C 93.995 117.137,94.303 116.123,94.792 115.501 C 95.771 114.256,96.328 112.868,97.040 109.899 C 97.343 108.634,98.061 106.854,98.635 105.944 C 99.210 105.034,100.035 103.190,100.470 101.845 C 100.905 100.500,101.678 98.770,102.187 98.000 C 102.696 97.230,103.430 95.610,103.818 94.400 C 104.601 91.957,105.119 91.035,107.193 88.400 C 108.945 86.175,109.607 85.068,111.653 80.950 C 112.620 79.002,113.654 77.492,114.234 77.182 C 114.765 76.898,115.200 76.531,115.200 76.368 C 115.200 76.205,116.189 75.110,117.398 73.936 C 118.606 72.761,119.599 71.620,119.603 71.400 C 119.621 70.453,132.034 58.678,133.487 58.229 C 133.975 58.078,135.460 57.155,136.788 56.177 C 138.116 55.200,139.364 54.400,139.561 54.400 C 139.759 54.400,140.974 53.616,142.260 52.658 C 148.354 48.122,161.447 43.569,170.200 42.942 C 174.515 42.633,175.600 42.288,175.600 41.227 C 175.600 40.246,171.198 38.805,168.157 38.790 C 167.081 38.785,165.570 38.641,164.800 38.469 C 163.992 38.289,161.962 38.369,160.000 38.657 M87.400 180.032 C 86.300 180.242,81.980 180.399,77.800 180.380 C 55.974 180.283,49.890 180.366,47.857 180.788 C 46.120 181.149,44.764 181.115,41.223 180.621 C 32.156 179.356,30.026 179.803,29.408 183.097 C 29.261 183.883,29.176 196.782,29.219 211.763 C 29.262 226.743,29.289 239.900,29.278 241.000 C 29.167 252.746,29.110 276.023,29.130 301.000 C 29.156 333.017,28.962 347.548,28.475 350.200 C 28.313 351.080,28.326 353.060,28.504 354.600 C 28.683 356.140,28.896 365.860,28.979 376.200 C 29.062 386.540,29.145 396.125,29.165 397.500 L 29.200 400.000 200.365 400.000 L 371.530 400.000 371.802 398.388 C 372.079 396.751,371.534 393.702,370.537 391.313 C 369.661 389.214,369.785 374.435,370.694 372.487 C 371.636 370.470,371.595 359.440,370.638 357.423 C 369.609 355.254,369.426 352.055,370.214 350.000 C 371.250 347.301,371.372 344.706,370.598 341.848 C 369.624 338.248,369.874 329.620,371.012 327.600 C 372.202 325.486,372.086 318.281,370.812 315.200 C 369.631 312.345,369.518 306.375,370.501 298.800 C 372.608 282.561,372.531 283.575,371.842 281.195 C 370.115 275.233,369.522 265.833,370.592 261.400 C 371.362 258.212,371.345 255.614,370.545 254.009 C 369.996 252.910,369.941 252.037,370.204 248.648 C 370.594 243.626,370.590 245.428,370.287 211.619 C 369.992 178.543,370.447 181.412,365.493 181.381 C 363.468 181.368,362.247 181.171,361.777 180.781 C 360.802 179.971,348.009 179.943,346.106 180.746 C 344.991 181.217,344.597 181.206,343.250 180.667 C 340.638 179.621,336.286 179.443,331.319 180.179 C 327.727 180.710,326.357 180.755,324.416 180.403 C 322.760 180.103,321.537 180.090,320.545 180.364 C 319.466 180.662,318.420 180.607,316.448 180.146 C 314.567 179.707,312.989 179.610,311.000 179.810 C 309.460 179.965,306.760 180.089,305.000 180.085 C 303.240 180.081,297.487 180.233,292.216 180.423 C 284.347 180.706,281.663 180.654,277.216 180.132 C 272.504 179.579,270.474 179.559,261.600 179.975 C 255.990 180.239,245.730 180.439,238.800 180.421 C 231.870 180.403,225.210 180.408,224.000 180.433 C 222.790 180.459,218.740 180.392,215.000 180.285 C 209.421 180.126,207.860 180.207,206.309 180.737 C 204.544 181.339,204.229 181.333,201.595 180.655 C 199.784 180.188,197.739 179.970,195.886 180.047 C 193.289 180.155,188.688 180.173,177.200 180.120 C 175.110 180.111,172.500 180.038,171.400 179.959 C 170.300 179.880,167.600 179.839,165.400 179.868 C 163.200 179.896,159.510 179.939,157.200 179.962 C 154.890 179.986,151.663 180.299,150.028 180.658 C 147.212 181.278,146.897 181.273,144.028 180.560 C 140.545 179.695,135.402 179.617,131.857 180.374 C 130.015 180.767,128.973 180.772,126.981 180.396 C 125.077 180.037,123.622 180.028,121.124 180.358 C 116.648 180.950,110.340 180.987,107.365 180.438 C 106.026 180.191,103.146 180.015,100.965 180.047 C 98.784 180.079,95.290 180.003,93.200 179.878 C 91.110 179.753,88.500 179.822,87.400 180.032 M148.000 198.701 C 149.023 199.211,149.724 200.047,150.600 201.800 C 151.260 203.120,152.003 204.332,152.252 204.493 C 152.501 204.654,153.218 206.004,153.845 207.493 C 154.473 208.982,155.509 211.187,156.147 212.392 C 156.785 213.598,157.635 215.540,158.037 216.708 C 158.439 217.876,159.117 219.322,159.545 219.923 C 160.339 221.038,161.891 224.286,162.831 226.800 C 163.119 227.570,163.476 228.290,163.624 228.400 C 164.044 228.713,165.459 231.687,165.735 232.839 C 165.872 233.410,166.588 234.880,167.326 236.105 C 168.064 237.330,169.061 239.580,169.542 241.105 C 170.027 242.641,170.850 244.283,171.388 244.789 C 171.922 245.290,172.480 246.263,172.628 246.950 C 172.776 247.638,173.746 249.820,174.783 251.800 C 175.820 253.780,176.801 255.934,176.964 256.588 C 177.126 257.241,177.870 258.771,178.617 259.988 C 179.363 261.204,180.429 263.418,180.986 264.906 C 181.542 266.395,182.448 268.326,182.999 269.198 C 183.550 270.070,184.000 270.948,184.000 271.148 C 184.000 271.348,184.882 273.196,185.959 275.256 C 187.037 277.315,188.207 279.979,188.560 281.175 C 188.913 282.371,189.549 283.721,189.974 284.175 C 190.400 284.629,191.369 286.440,192.129 288.200 C 192.888 289.960,194.070 292.453,194.755 293.741 C 195.440 295.028,196.000 296.346,196.000 296.671 C 196.000 296.995,196.715 298.463,197.588 299.934 C 198.462 301.404,199.537 303.654,199.977 304.932 C 200.416 306.210,201.216 307.779,201.754 308.419 C 202.292 309.058,202.858 310.170,203.011 310.890 C 203.164 311.611,204.064 313.640,205.012 315.400 C 205.959 317.160,206.945 319.410,207.204 320.400 C 207.462 321.390,208.124 322.795,208.674 323.522 C 209.224 324.248,210.106 325.908,210.635 327.209 C 211.164 328.511,212.147 330.593,212.819 331.836 C 213.492 333.079,214.324 334.929,214.668 335.948 C 215.013 336.966,215.618 338.256,216.014 338.814 C 216.879 340.035,218.787 344.138,218.832 344.874 C 218.850 345.163,219.294 346.120,219.820 347.000 C 220.345 347.880,221.156 349.410,221.621 350.400 C 222.630 352.546,224.714 356.757,225.185 357.600 C 225.369 357.930,226.003 359.505,226.595 361.100 C 227.187 362.695,227.810 364.000,227.981 364.000 C 228.289 364.000,230.065 367.757,230.594 369.526 C 230.746 370.036,231.419 371.077,232.090 371.841 C 233.454 373.395,233.532 377.039,232.229 378.342 C 231.169 379.403,203.849 379.163,202.661 378.083 C 202.187 377.652,201.395 377.091,200.900 376.836 C 200.353 376.554,199.291 374.895,198.192 372.605 C 197.198 370.533,196.234 368.745,196.051 368.631 C 195.867 368.518,195.397 367.385,195.005 366.113 C 194.613 364.841,194.074 363.530,193.806 363.200 C 193.042 362.259,191.720 359.627,190.652 356.922 C 190.114 355.558,189.228 353.848,188.683 353.122 C 188.139 352.395,187.560 351.350,187.399 350.800 C 187.237 350.250,186.250 348.088,185.205 345.996 C 184.161 343.904,183.179 341.617,183.025 340.913 C 182.840 340.071,181.927 338.878,180.349 337.417 L 177.954 335.200 140.356 335.200 L 102.757 335.200 101.364 336.300 C 99.722 337.596,97.894 340.354,97.189 342.600 C 96.912 343.480,96.171 344.791,95.543 345.514 C 94.914 346.237,94.400 347.097,94.400 347.426 C 94.400 348.340,92.440 352.795,91.431 354.174 C 90.937 354.848,90.308 356.210,90.031 357.200 C 89.755 358.190,89.023 359.810,88.405 360.800 C 87.256 362.639,85.603 366.099,85.596 366.678 C 85.594 366.855,84.964 367.790,84.196 368.756 C 83.428 369.722,82.800 370.859,82.800 371.282 C 82.800 373.098,81.134 375.815,79.076 377.354 L 76.998 378.908 63.799 378.974 C 56.540 379.010,50.165 378.889,49.633 378.704 C 47.035 377.803,46.821 374.346,49.149 370.895 C 50.001 369.633,50.930 367.880,51.212 367.000 C 51.494 366.120,52.139 364.770,52.645 364.000 C 53.152 363.230,54.145 361.160,54.854 359.400 C 55.562 357.640,56.638 355.515,57.244 354.677 C 57.851 353.839,58.466 352.579,58.613 351.877 C 58.759 351.175,59.677 349.122,60.651 347.317 C 61.626 345.511,62.681 343.303,62.996 342.410 C 63.311 341.518,63.998 340.205,64.521 339.494 C 65.045 338.782,65.971 336.760,66.577 335.000 C 67.184 333.240,68.130 331.204,68.679 330.476 C 69.229 329.747,69.856 328.487,70.074 327.676 C 70.292 326.864,70.943 325.390,71.522 324.400 C 72.101 323.410,73.163 321.174,73.882 319.431 C 74.601 317.689,75.544 315.886,75.977 315.425 C 76.410 314.964,77.102 313.502,77.514 312.176 C 77.927 310.850,78.917 308.653,79.714 307.292 C 80.512 305.931,81.357 304.102,81.593 303.227 C 81.828 302.352,82.440 301.133,82.952 300.518 C 83.463 299.903,84.350 298.090,84.921 296.488 C 85.492 294.886,86.501 292.773,87.163 291.792 C 87.825 290.812,88.554 289.332,88.782 288.505 C 89.010 287.677,89.643 286.225,90.188 285.277 C 90.734 284.330,91.910 281.900,92.803 279.877 C 93.696 277.855,94.653 276.020,94.930 275.800 C 95.207 275.580,95.749 274.500,96.134 273.400 C 96.519 272.300,97.669 269.690,98.690 267.600 C 99.711 265.510,100.730 263.350,100.955 262.800 C 101.180 262.250,101.653 261.440,102.008 261.000 C 102.655 260.196,103.352 258.607,104.587 255.116 C 104.954 254.080,105.717 252.550,106.283 251.716 C 106.849 250.882,107.623 249.300,108.003 248.200 C 108.384 247.100,109.216 245.300,109.854 244.200 C 110.491 243.100,111.445 241.120,111.973 239.800 C 112.502 238.480,113.341 236.907,113.837 236.305 C 114.334 235.702,115.029 234.216,115.382 233.002 C 115.735 231.788,116.531 229.934,117.151 228.883 C 117.771 227.831,118.654 225.968,119.112 224.743 C 119.570 223.518,120.396 221.853,120.946 221.041 C 121.496 220.230,122.256 218.629,122.635 217.483 C 123.014 216.338,123.994 214.320,124.813 213.000 C 125.633 211.680,126.615 209.637,126.997 208.461 C 127.761 206.103,131.125 200.149,132.272 199.124 C 133.742 197.809,145.578 197.491,148.000 198.701 M139.467 254.487 C 137.883 257.032,136.056 260.399,135.798 261.246 C 135.214 263.168,133.893 266.000,133.580 266.000 C 133.403 266.000,132.691 267.485,131.997 269.300 C 131.304 271.115,130.188 273.582,129.518 274.782 C 128.848 275.983,127.970 277.924,127.566 279.098 C 127.163 280.271,126.501 281.719,126.096 282.315 C 125.691 282.912,124.670 284.975,123.828 286.900 C 122.986 288.825,122.174 290.400,122.025 290.400 C 121.717 290.400,120.724 292.629,119.977 295.000 C 119.500 296.512,118.421 298.670,116.768 301.418 C 115.704 303.189,115.409 305.618,116.140 306.600 C 116.724 307.384,117.201 307.400,140.462 307.400 L 164.189 307.400 164.720 306.291 C 165.396 304.881,164.508 301.494,162.868 299.231 C 162.268 298.403,161.255 296.392,160.617 294.763 C 159.978 293.133,159.054 291.248,158.563 290.572 C 158.072 289.897,157.468 288.594,157.220 287.676 C 156.973 286.757,156.237 285.148,155.585 284.099 C 154.933 283.049,153.865 280.681,153.212 278.835 C 152.560 276.989,151.666 275.096,151.226 274.628 C 150.787 274.160,150.144 272.976,149.799 271.997 C 149.454 271.019,148.460 268.899,147.590 267.287 C 146.721 265.675,145.729 263.391,145.386 262.212 C 145.043 261.032,144.507 259.855,144.194 259.595 C 143.882 259.336,142.986 257.979,142.203 256.580 C 140.496 253.526,140.204 253.303,139.467 254.487 M293.300 261.034 C 299.579 262.109,302.100 262.796,304.800 264.168 C 306.230 264.894,307.938 265.618,308.597 265.776 C 309.255 265.934,310.681 266.702,311.767 267.482 C 314.248 269.264,314.177 269.208,316.739 271.409 C 319.912 274.134,322.269 273.575,321.527 270.273 C 321.091 268.334,321.349 267.045,322.454 265.640 C 324.358 263.220,324.439 263.206,336.051 263.203 C 347.774 263.200,348.813 263.371,350.371 265.559 L 351.209 266.736 351.209 321.214 C 351.209 383.538,351.550 377.964,347.686 378.698 C 343.856 379.427,325.143 379.049,323.880 378.218 C 322.279 377.165,321.485 375.369,321.490 372.809 C 321.496 369.599,319.989 369.030,317.494 371.300 C 314.921 373.641,312.102 375.547,309.731 376.549 C 308.449 377.091,306.590 377.981,305.600 378.526 C 299.478 381.897,284.453 383.422,275.739 381.557 C 273.572 381.093,270.360 380.405,268.600 380.027 C 265.579 379.378,263.651 378.650,263.200 377.986 C 263.090 377.825,261.740 377.254,260.200 376.718 C 258.660 376.182,256.610 375.216,255.644 374.572 C 254.678 373.927,253.398 373.130,252.799 372.800 C 249.833 371.166,241.262 362.873,240.017 360.434 C 239.578 359.573,238.745 358.358,238.165 357.734 C 236.520 355.965,233.246 350.141,232.732 348.070 C 232.476 347.042,231.838 345.515,231.314 344.677 C 228.862 340.759,226.358 323.514,227.190 316.276 C 228.285 306.748,229.630 300.536,231.155 297.961 C 231.623 297.170,232.293 295.558,232.643 294.380 C 232.993 293.202,233.848 291.329,234.543 290.219 C 235.239 289.109,236.076 287.672,236.404 287.027 C 236.732 286.382,237.561 285.302,238.247 284.627 C 238.933 283.952,239.630 282.964,239.796 282.432 C 240.185 281.181,246.918 274.200,249.000 272.889 C 249.880 272.334,250.960 271.530,251.400 271.100 C 252.858 269.678,258.767 266.071,260.095 265.793 C 260.813 265.643,262.598 264.916,264.063 264.179 C 266.582 262.911,270.505 261.963,277.800 260.860 C 281.740 260.264,289.301 260.349,293.300 261.034 M286.000 287.042 C 279.779 288.195,274.181 290.052,273.000 291.355 C 272.560 291.841,271.373 292.715,270.363 293.299 C 269.352 293.883,268.047 294.987,267.463 295.753 C 266.879 296.519,266.050 297.257,265.621 297.393 C 265.192 297.530,264.723 298.037,264.579 298.520 C 264.436 299.004,263.630 300.480,262.790 301.800 C 261.104 304.447,260.465 305.825,259.265 309.400 C 258.822 310.720,258.168 312.590,257.813 313.555 C 257.327 314.873,257.170 316.714,257.182 320.955 C 257.199 326.758,257.356 327.823,258.759 331.600 C 259.208 332.810,259.759 334.532,259.984 335.427 C 260.208 336.322,261.293 338.539,262.396 340.354 C 263.498 342.169,264.400 343.715,264.400 343.791 C 264.400 343.866,265.359 344.926,266.530 346.145 C 278.602 358.709,298.855 359.140,312.504 347.124 C 320.400 340.172,324.644 324.295,321.625 313.000 C 319.492 305.021,319.234 304.317,317.693 302.277 C 316.825 301.127,315.774 299.538,315.357 298.746 C 314.573 297.254,311.729 294.596,309.226 293.016 C 308.435 292.517,307.528 291.796,307.211 291.413 C 305.344 289.164,290.763 286.159,286.000 287.042 " stroke="none" fill="#f8f8f8" fill-rule="evenodd"></path><path id="path4" d="M213.886 21.002 C 213.399 21.553,212.331 22.658,211.513 23.456 C 209.393 25.526,208.455 30.039,209.301 34.098 C 209.534 35.217,211.679 37.229,212.396 37.001 C 212.849 36.858,213.182 37.195,213.526 38.145 C 213.794 38.886,214.371 39.905,214.808 40.409 C 215.245 40.913,215.782 42.063,216.001 42.963 C 216.219 43.863,216.891 46.310,217.494 48.400 C 218.509 51.920,218.596 52.794,218.668 60.267 C 218.757 69.494,219.121 71.031,221.124 70.646 C 225.919 69.725,226.814 69.501,227.017 69.173 C 227.143 68.968,227.822 68.797,228.524 68.793 C 229.336 68.789,230.123 68.446,230.688 67.849 C 232.708 65.718,242.064 65.891,247.745 68.163 C 249.115 68.711,251.111 69.356,252.180 69.596 C 254.490 70.113,258.037 71.574,258.600 72.239 C 259.081 72.807,261.362 73.827,262.948 74.182 C 263.579 74.324,264.749 74.949,265.548 75.572 C 266.879 76.609,272.452 78.800,273.761 78.800 C 274.065 78.800,274.408 79.045,274.523 79.344 C 275.066 80.758,292.246 80.887,295.200 79.500 C 295.970 79.138,298.940 78.460,301.800 77.994 C 306.290 77.261,307.551 76.876,311.031 75.173 C 313.248 74.088,315.262 73.200,315.506 73.200 C 315.751 73.200,316.547 72.652,317.275 71.983 C 318.004 71.314,319.483 70.197,320.561 69.502 C 321.640 68.807,323.285 67.464,324.217 66.519 C 325.149 65.574,326.033 64.800,326.182 64.800 C 326.704 64.800,330.400 61.394,330.400 60.913 C 330.400 60.644,330.669 60.528,331.000 60.655 C 331.351 60.790,331.601 60.661,331.601 60.343 C 331.602 60.044,332.226 58.563,332.987 57.051 C 337.242 48.604,336.536 46.685,329.035 46.302 C 325.247 46.109,324.535 45.936,320.671 44.277 C 318.239 43.232,316.109 42.551,315.648 42.671 C 314.513 42.968,310.867 41.672,310.404 40.807 C 310.190 40.407,309.186 39.798,308.173 39.453 C 307.161 39.108,305.110 37.920,303.617 36.813 C 302.124 35.706,300.712 34.800,300.480 34.800 C 300.248 34.800,299.730 34.385,299.329 33.879 C 298.359 32.654,296.813 31.839,293.200 30.650 C 291.550 30.107,289.464 29.299,288.565 28.854 C 287.666 28.409,286.046 27.832,284.965 27.572 C 283.884 27.312,282.640 26.878,282.200 26.607 C 279.255 24.792,270.545 24.125,265.773 25.349 C 264.468 25.684,262.410 26.073,261.200 26.214 C 258.304 26.551,252.904 28.260,251.671 29.230 C 250.994 29.763,250.059 30.000,248.640 30.000 C 246.326 30.000,244.402 30.861,241.600 33.152 C 240.610 33.961,239.321 34.926,238.737 35.297 C 237.396 36.146,233.680 40.057,232.730 41.619 C 232.335 42.268,231.736 42.800,231.399 42.800 C 231.063 42.800,230.477 43.451,230.098 44.246 C 229.718 45.041,228.832 46.302,228.128 47.048 L 226.849 48.405 226.694 40.903 C 226.534 33.153,225.863 28.037,224.934 27.480 C 224.640 27.304,224.400 26.912,224.400 26.609 C 224.400 26.306,223.985 25.730,223.479 25.329 C 222.972 24.928,222.219 24.025,221.805 23.322 C 221.392 22.619,220.893 22.143,220.697 22.264 C 220.501 22.385,219.933 22.101,219.434 21.632 C 218.587 20.836,216.463 20.000,215.288 20.000 C 215.004 20.000,214.373 20.451,213.886 21.002 M160.200 37.616 C 158.440 38.000,155.560 38.434,153.800 38.582 C 149.334 38.956,146.469 39.555,144.600 40.507 C 143.720 40.955,141.212 41.838,139.026 42.468 C 136.840 43.098,134.500 43.964,133.826 44.392 C 133.152 44.821,131.520 45.741,130.200 46.438 C 128.880 47.135,127.260 48.142,126.600 48.676 C 124.676 50.232,121.579 52.259,119.108 53.579 C 117.848 54.252,116.509 55.298,116.134 55.902 C 115.759 56.506,114.765 57.720,113.924 58.600 C 106.890 65.963,105.468 67.640,104.186 70.079 C 103.406 71.563,102.520 72.918,102.216 73.089 C 101.913 73.260,101.173 74.390,100.572 75.600 C 99.971 76.810,98.966 78.524,98.338 79.408 C 97.710 80.293,96.843 82.253,96.411 83.763 C 95.979 85.273,95.368 86.800,95.052 87.155 C 94.221 88.092,93.342 90.387,92.791 93.062 C 92.526 94.348,91.804 96.517,91.187 97.883 C 90.045 100.411,88.800 105.520,88.800 107.677 C 88.800 108.332,88.170 110.147,87.400 111.710 C 86.151 114.245,86.000 114.900,85.999 117.776 C 85.999 119.549,85.729 122.530,85.400 124.400 C 84.178 131.338,84.706 139.338,86.489 140.900 C 88.250 142.442,88.927 141.472,90.608 135.000 C 91.180 132.800,91.984 130.010,92.396 128.800 C 93.662 125.081,94.399 122.310,94.814 119.710 C 95.033 118.340,95.650 116.396,96.184 115.391 C 96.719 114.385,97.283 112.721,97.437 111.692 C 97.591 110.663,98.227 108.992,98.850 107.980 C 99.473 106.967,100.365 104.893,100.831 103.369 C 101.297 101.846,102.142 99.987,102.707 99.238 C 103.272 98.490,104.214 96.510,104.800 94.838 C 105.555 92.686,106.673 90.730,108.633 88.131 C 110.199 86.055,111.820 83.364,112.368 81.931 C 113.167 79.843,113.919 78.832,116.668 76.151 C 118.501 74.364,120.000 72.686,120.000 72.422 C 120.000 72.016,125.229 66.687,131.401 60.804 C 132.281 59.964,134.001 58.836,135.222 58.296 C 136.444 57.755,138.087 56.748,138.874 56.057 C 139.661 55.366,140.483 54.800,140.701 54.800 C 140.918 54.800,141.974 54.103,143.048 53.251 C 144.761 51.892,148.245 50.000,149.034 50.000 C 149.187 50.000,150.167 49.474,151.212 48.830 C 152.463 48.061,154.532 47.363,157.257 46.790 C 159.536 46.311,162.120 45.683,163.000 45.394 C 165.903 44.440,169.362 43.881,171.967 43.943 C 173.669 43.983,174.844 43.801,175.453 43.402 C 179.129 40.993,175.461 38.128,168.281 37.801 C 166.696 37.728,164.950 37.500,164.400 37.293 C 163.701 37.031,162.435 37.128,160.200 37.616 M168.157 38.790 C 171.198 38.805,175.600 40.246,175.600 41.227 C 175.600 42.288,174.515 42.633,170.200 42.942 C 161.447 43.569,148.354 48.122,142.260 52.658 C 140.974 53.616,139.759 54.400,139.561 54.400 C 139.364 54.400,138.116 55.200,136.788 56.177 C 135.460 57.155,133.975 58.078,133.487 58.229 C 132.034 58.678,119.621 70.453,119.603 71.400 C 119.599 71.620,118.606 72.761,117.398 73.936 C 116.189 75.110,115.200 76.205,115.200 76.368 C 115.200 76.531,114.765 76.898,114.234 77.182 C 113.654 77.492,112.620 79.002,111.653 80.950 C 109.607 85.068,108.945 86.175,107.193 88.400 C 105.119 91.035,104.601 91.957,103.818 94.400 C 103.430 95.610,102.696 97.230,102.187 98.000 C 101.678 98.770,100.905 100.500,100.470 101.845 C 100.035 103.190,99.210 105.034,98.635 105.944 C 98.061 106.854,97.343 108.634,97.040 109.899 C 96.328 112.868,95.771 114.256,94.792 115.501 C 94.303 116.123,93.995 117.137,93.986 118.154 C 93.964 120.757,93.039 124.378,91.676 127.200 C 90.904 128.796,90.237 131.035,89.947 133.000 C 89.125 138.566,88.376 139.613,86.535 137.771 L 85.506 136.742 85.677 130.471 C 85.809 125.602,85.999 123.914,86.524 122.920 C 87.005 122.009,87.200 120.661,87.200 118.250 C 87.200 115.416,87.397 114.369,88.400 111.864 C 89.060 110.215,89.600 108.345,89.600 107.707 C 89.600 105.488,90.439 102.031,91.392 100.321 C 91.920 99.374,92.785 96.800,93.316 94.600 C 93.846 92.400,94.822 89.610,95.484 88.400 C 96.146 87.190,96.898 85.210,97.155 84.000 C 97.454 82.587,98.057 81.303,98.841 80.411 C 99.973 79.121,101.600 76.103,101.600 75.292 C 101.600 75.098,102.068 74.503,102.639 73.970 C 103.210 73.436,104.002 72.370,104.397 71.600 C 105.448 69.555,108.363 65.897,112.208 61.800 C 114.066 59.820,116.029 57.594,116.570 56.854 C 117.677 55.338,118.565 54.644,119.945 54.213 C 121.055 53.866,126.768 50.033,128.320 48.594 C 128.911 48.046,129.966 47.409,130.664 47.179 C 131.363 46.948,133.306 45.978,134.983 45.022 C 136.991 43.878,138.949 43.115,140.716 42.787 C 142.192 42.514,144.390 41.783,145.600 41.162 C 147.336 40.272,148.729 39.941,152.200 39.595 C 154.620 39.354,158.130 38.932,160.000 38.657 C 161.962 38.369,163.992 38.289,164.800 38.469 C 165.570 38.641,167.081 38.785,168.157 38.790 M255.775 41.159 C 256.416 42.196,255.478 43.978,254.053 44.429 C 253.254 44.682,252.172 45.158,251.650 45.487 C 250.659 46.110,250.021 45.727,250.006 44.500 C 249.984 42.666,254.934 39.799,255.775 41.159 M270.000 41.576 C 270.000 42.247,269.291 42.413,269.054 41.798 C 268.915 41.435,269.056 41.200,269.413 41.200 C 269.736 41.200,270.000 41.369,270.000 41.576 M89.600 178.100 C 88.779 178.469,46.999 178.595,33.000 178.271 C 27.040 178.133,27.399 176.107,27.445 209.600 C 27.466 224.890,27.532 238.787,27.592 240.482 C 27.682 243.033,27.554 243.812,26.850 245.005 C 25.775 246.827,25.777 248.195,26.858 250.639 C 27.663 252.458,27.698 252.957,27.421 258.590 C 27.259 261.895,27.138 264.870,27.153 265.200 C 28.055 284.939,27.331 345.733,26.167 347.991 C 25.266 349.741,25.286 355.049,26.214 360.000 C 27.809 368.513,27.985 386.276,26.494 388.172 C 25.502 389.433,25.563 391.125,26.679 393.330 C 26.994 393.952,27.356 395.707,27.484 397.230 C 27.677 399.530,27.837 400.000,28.427 400.000 C 29.182 400.000,29.232 360.834,28.485 354.400 C 28.319 352.970,28.315 351.080,28.476 350.200 C 28.963 347.543,29.156 332.991,29.130 301.000 C 29.110 276.023,29.167 252.746,29.278 241.000 C 29.289 239.900,29.262 226.743,29.219 211.763 C 29.176 196.782,29.261 183.883,29.408 183.097 C 30.026 179.803,32.156 179.356,41.223 180.621 C 44.823 181.123,46.105 181.152,47.932 180.773 C 49.344 180.479,53.637 180.329,59.395 180.372 C 64.458 180.410,73.100 180.335,78.600 180.207 C 95.145 179.821,104.321 179.900,107.400 180.455 C 110.362 180.988,116.697 180.944,121.124 180.358 C 123.622 180.028,125.077 180.037,126.981 180.396 C 128.973 180.772,130.015 180.767,131.857 180.374 C 135.402 179.617,140.545 179.695,144.028 180.560 C 146.897 181.273,147.212 181.278,150.028 180.658 C 151.663 180.299,154.890 179.986,157.200 179.962 C 159.510 179.939,163.200 179.896,165.400 179.868 C 167.600 179.839,170.300 179.880,171.400 179.959 C 172.500 180.038,175.110 180.111,177.200 180.120 C 188.688 180.173,193.289 180.155,195.886 180.047 C 197.739 179.970,199.784 180.188,201.595 180.655 C 204.229 181.333,204.544 181.339,206.309 180.737 C 207.860 180.207,209.421 180.126,215.000 180.285 C 218.740 180.392,222.790 180.459,224.000 180.433 C 225.210 180.408,231.870 180.403,238.800 180.421 C 245.730 180.439,255.990 180.239,261.600 179.975 C 270.474 179.559,272.504 179.579,277.216 180.132 C 281.663 180.654,284.347 180.706,292.216 180.423 C 297.487 180.233,303.240 180.081,305.000 180.085 C 306.760 180.089,309.460 179.965,311.000 179.810 C 312.989 179.610,314.567 179.707,316.448 180.146 C 318.420 180.607,319.466 180.662,320.545 180.364 C 321.537 180.090,322.760 180.103,324.416 180.403 C 326.357 180.755,327.727 180.710,331.319 180.179 C 336.286 179.443,340.638 179.621,343.250 180.667 C 344.597 181.206,344.991 181.217,346.106 180.746 C 348.009 179.943,360.802 179.971,361.777 180.781 C 362.247 181.171,363.468 181.368,365.493 181.381 C 370.447 181.412,369.992 178.543,370.287 211.619 C 370.590 245.428,370.594 243.626,370.204 248.648 C 369.941 252.037,369.996 252.910,370.545 254.009 C 371.345 255.614,371.362 258.212,370.592 261.400 C 369.522 265.833,370.115 275.233,371.842 281.195 C 372.531 283.575,372.608 282.561,370.501 298.800 C 369.518 306.375,369.631 312.345,370.812 315.200 C 372.086 318.281,372.202 325.486,371.012 327.600 C 369.874 329.620,369.624 338.248,370.598 341.848 C 371.372 344.706,371.250 347.301,370.214 350.000 C 369.426 352.055,369.609 355.254,370.638 357.423 C 371.595 359.440,371.636 370.470,370.694 372.487 C 369.550 374.939,369.679 388.953,370.876 392.214 C 371.454 393.788,371.753 395.518,371.754 397.300 C 371.755 399.964,371.770 400.000,372.831 400.000 C 374.542 400.000,374.833 397.840,373.773 393.000 C 372.667 387.950,372.413 374.501,373.380 372.187 C 374.125 370.403,374.265 359.541,373.566 357.726 C 372.491 354.931,372.365 352.183,373.193 349.542 C 374.163 346.446,374.192 345.017,373.351 341.662 C 372.534 338.407,372.717 328.795,373.625 327.200 C 374.489 325.683,374.337 317.308,373.390 314.200 C 372.443 311.093,372.415 306.708,373.292 298.600 C 374.476 287.654,374.612 282.915,373.834 279.738 C 372.911 275.972,372.742 262.852,373.573 259.462 C 374.058 257.484,374.063 256.839,373.610 255.262 C 373.190 253.804,373.101 249.755,373.201 236.600 C 373.436 205.517,373.114 183.279,372.402 181.405 C 371.850 179.955,368.894 178.764,365.823 178.757 C 364.490 178.753,360.160 178.655,356.200 178.538 C 352.240 178.422,348.080 178.494,346.955 178.699 C 345.491 178.965,344.013 178.910,341.755 178.506 C 339.519 178.106,337.435 178.026,334.600 178.232 C 332.400 178.391,327.000 178.480,322.600 178.430 C 312.177 178.311,311.954 178.311,291.600 178.431 C 279.868 178.501,273.453 178.387,271.908 178.082 C 270.321 177.769,268.289 177.742,265.308 177.993 C 261.114 178.347,214.243 178.618,187.095 178.445 C 179.667 178.398,173.396 178.479,173.159 178.625 C 172.922 178.772,171.022 178.570,168.935 178.178 C 165.592 177.548,164.897 177.529,163.071 178.012 C 161.830 178.340,159.365 178.527,156.920 178.479 C 154.675 178.434,151.615 178.571,150.120 178.783 C 148.065 179.074,146.324 179.015,143.000 178.542 C 139.343 178.022,137.857 177.994,134.200 178.373 C 131.780 178.624,127.730 178.778,125.200 178.715 C 122.670 178.652,119.610 178.658,118.400 178.730 C 114.664 178.951,96.724 178.394,94.427 177.986 C 91.735 177.508,90.872 177.528,89.600 178.100 M134.000 198.291 C 132.102 198.636,128.474 203.904,126.997 208.461 C 126.615 209.637,125.633 211.680,124.813 213.000 C 123.994 214.320,123.014 216.338,122.635 217.483 C 122.256 218.629,121.496 220.230,120.946 221.041 C 120.396 221.853,119.570 223.518,119.112 224.743 C 118.654 225.968,117.771 227.831,117.151 228.883 C 116.531 229.934,115.735 231.788,115.382 233.002 C 115.029 234.216,114.334 235.702,113.837 236.305 C 113.341 236.907,112.502 238.480,111.973 239.800 C 111.445 241.120,110.491 243.100,109.854 244.200 C 109.216 245.300,108.384 247.100,108.003 248.200 C 107.623 249.300,106.849 250.882,106.283 251.716 C 105.717 252.550,104.954 254.080,104.587 255.116 C 103.352 258.607,102.655 260.196,102.008 261.000 C 101.653 261.440,101.180 262.250,100.955 262.800 C 100.730 263.350,99.711 265.510,98.690 267.600 C 97.669 269.690,96.519 272.300,96.134 273.400 C 95.749 274.500,95.207 275.580,94.930 275.800 C 94.653 276.020,93.696 277.855,92.803 279.877 C 91.910 281.900,90.734 284.330,90.188 285.277 C 89.643 286.225,89.010 287.677,88.782 288.505 C 88.554 289.332,87.825 290.812,87.163 291.792 C 86.501 292.773,85.492 294.886,84.921 296.488 C 84.350 298.090,83.463 299.903,82.952 300.518 C 82.440 301.133,81.828 302.352,81.593 303.227 C 81.357 304.102,80.512 305.931,79.714 307.292 C 78.917 308.653,77.927 310.850,77.514 312.176 C 77.102 313.502,76.410 314.964,75.977 315.425 C 75.544 315.886,74.601 317.689,73.882 319.431 C 73.163 321.174,72.101 323.410,71.522 324.400 C 70.943 325.390,70.292 326.864,70.074 327.676 C 69.856 328.487,69.229 329.747,68.679 330.476 C 68.130 331.204,67.184 333.240,66.577 335.000 C 65.971 336.760,65.045 338.782,64.521 339.494 C 63.998 340.205,63.311 341.518,62.996 342.410 C 62.681 343.303,61.626 345.511,60.651 347.317 C 59.677 349.122,58.759 351.175,58.613 351.877 C 58.466 352.579,57.851 353.839,57.244 354.677 C 56.638 355.515,55.562 357.640,54.854 359.400 C 54.145 361.160,53.152 363.230,52.645 364.000 C 52.139 364.770,51.494 366.120,51.212 367.000 C 50.930 367.880,50.001 369.633,49.149 370.895 C 46.821 374.346,47.035 377.803,49.633 378.704 C 50.165 378.889,56.540 379.010,63.799 378.974 L 76.998 378.908 79.076 377.354 C 81.134 375.815,82.800 373.098,82.800 371.282 C 82.800 370.859,83.428 369.722,84.196 368.756 C 84.964 367.790,85.594 366.855,85.596 366.678 C 85.603 366.099,87.256 362.639,88.405 360.800 C 89.023 359.810,89.755 358.190,90.031 357.200 C 90.308 356.210,90.937 354.848,91.431 354.174 C 92.440 352.795,94.400 348.340,94.400 347.426 C 94.400 347.097,94.914 346.237,95.543 345.514 C 96.171 344.791,96.912 343.480,97.189 342.600 C 97.894 340.354,99.722 337.596,101.364 336.300 L 102.757 335.200 140.356 335.200 L 177.954 335.200 180.349 337.417 C 181.927 338.878,182.840 340.071,183.025 340.913 C 183.179 341.617,184.161 343.904,185.205 345.996 C 186.250 348.088,187.237 350.250,187.399 350.800 C 187.560 351.350,188.139 352.395,188.683 353.122 C 189.228 353.848,190.114 355.558,190.652 356.922 C 191.720 359.627,193.042 362.259,193.806 363.200 C 194.074 363.530,194.613 364.841,195.005 366.113 C 195.397 367.385,195.867 368.518,196.051 368.631 C 196.234 368.745,197.198 370.533,198.192 372.605 C 199.291 374.895,200.353 376.554,200.900 376.836 C 201.395 377.091,202.187 377.652,202.661 378.083 C 203.849 379.163,231.169 379.403,232.229 378.342 C 233.532 377.039,233.454 373.395,232.090 371.841 C 231.419 371.077,230.746 370.036,230.594 369.526 C 230.065 367.757,228.289 364.000,227.981 364.000 C 227.810 364.000,227.187 362.695,226.595 361.100 C 226.003 359.505,225.369 357.930,225.185 357.600 C 224.714 356.757,222.630 352.546,221.621 350.400 C 221.156 349.410,220.345 347.880,219.820 347.000 C 219.294 346.120,218.850 345.163,218.832 344.874 C 218.787 344.138,216.879 340.035,216.014 338.814 C 215.618 338.256,215.013 336.966,214.668 335.948 C 214.324 334.929,213.492 333.079,212.819 331.836 C 212.147 330.593,211.164 328.511,210.635 327.209 C 210.106 325.908,209.224 324.248,208.674 323.522 C 208.124 322.795,207.462 321.390,207.204 320.400 C 206.945 319.410,205.959 317.160,205.012 315.400 C 204.064 313.640,203.164 311.611,203.011 310.890 C 202.858 310.170,202.292 309.058,201.754 308.419 C 201.216 307.779,200.416 306.210,199.977 304.932 C 199.537 303.654,198.462 301.404,197.588 299.934 C 196.715 298.463,196.000 296.995,196.000 296.671 C 196.000 296.346,195.440 295.028,194.755 293.741 C 194.070 292.453,192.888 289.960,192.129 288.200 C 191.369 286.440,190.400 284.629,189.974 284.175 C 189.549 283.721,188.913 282.371,188.560 281.175 C 188.207 279.979,187.037 277.315,185.959 275.256 C 184.882 273.196,184.000 271.348,184.000 271.148 C 184.000 270.948,183.550 270.070,182.999 269.198 C 182.448 268.326,181.542 266.395,180.986 264.906 C 180.429 263.418,179.363 261.204,178.617 259.988 C 177.870 258.771,177.126 257.241,176.964 256.588 C 176.801 255.934,175.820 253.780,174.783 251.800 C 173.746 249.820,172.776 247.638,172.628 246.950 C 172.480 246.263,171.922 245.290,171.388 244.789 C 170.850 244.283,170.027 242.641,169.542 241.105 C 169.061 239.580,168.064 237.330,167.326 236.105 C 166.588 234.880,165.872 233.410,165.735 232.839 C 165.459 231.687,164.044 228.713,163.624 228.400 C 163.476 228.290,163.119 227.570,162.831 226.800 C 161.891 224.286,160.339 221.038,159.545 219.923 C 159.117 219.322,158.439 217.876,158.037 216.708 C 157.635 215.540,156.785 213.598,156.147 212.392 C 155.509 211.187,154.473 208.982,153.845 207.493 C 153.218 206.004,152.501 204.654,152.252 204.493 C 152.003 204.332,151.260 203.120,150.600 201.800 C 148.847 198.294,148.046 197.988,140.800 198.055 C 137.610 198.085,134.550 198.191,134.000 198.291 M146.014 200.029 C 147.590 200.425,149.751 202.468,150.214 204.000 C 150.381 204.550,150.941 205.672,151.460 206.494 C 151.978 207.315,152.855 209.191,153.409 210.662 C 153.963 212.134,154.948 214.201,155.598 215.258 C 156.248 216.314,156.895 217.678,157.037 218.289 C 157.179 218.900,157.883 220.480,158.602 221.800 C 159.321 223.120,160.320 225.190,160.823 226.400 C 161.326 227.610,162.238 229.362,162.850 230.293 C 163.463 231.225,164.192 232.755,164.470 233.693 C 164.748 234.632,165.836 237.110,166.888 239.200 C 167.939 241.290,168.799 243.190,168.800 243.422 C 168.800 243.654,169.365 244.734,170.055 245.822 C 170.745 246.910,171.749 248.970,172.286 250.400 C 172.823 251.830,173.752 253.810,174.351 254.800 C 174.950 255.790,175.769 257.500,176.171 258.600 C 176.573 259.700,177.405 261.500,178.020 262.600 C 178.635 263.700,179.524 265.590,179.994 266.800 C 180.465 268.010,181.278 269.630,181.800 270.400 C 182.322 271.170,183.129 272.790,183.592 274.000 C 184.484 276.327,186.423 280.465,189.644 286.918 C 190.720 289.072,191.600 291.063,191.600 291.341 C 191.600 291.619,192.219 292.875,192.976 294.131 C 193.732 295.388,194.474 296.817,194.624 297.308 C 194.931 298.311,199.306 307.656,200.191 309.200 C 201.284 311.105,202.332 313.407,202.822 314.980 C 203.093 315.848,203.846 317.461,204.496 318.562 C 205.146 319.664,206.034 321.474,206.470 322.583 C 206.906 323.692,207.596 325.141,208.004 325.802 C 208.411 326.463,209.363 328.473,210.121 330.268 C 210.878 332.063,211.849 334.043,212.279 334.666 C 212.709 335.290,213.300 336.430,213.594 337.200 C 214.197 338.784,216.666 344.085,219.847 350.628 C 221.031 353.063,222.000 355.226,222.000 355.434 C 222.000 355.642,222.720 357.045,223.600 358.551 C 224.480 360.057,225.200 361.495,225.200 361.747 C 225.200 361.999,226.550 364.897,228.200 368.187 C 232.780 377.319,233.467 376.797,216.820 376.836 C 201.693 376.871,201.785 376.901,199.351 371.200 C 198.740 369.770,197.803 367.925,197.268 367.101 C 196.733 366.277,195.879 364.413,195.371 362.959 C 194.864 361.505,194.199 360.020,193.895 359.658 C 193.591 359.296,192.834 357.830,192.212 356.400 C 191.590 354.970,190.594 353.080,189.999 352.200 C 189.404 351.320,188.516 349.430,188.026 348.000 C 187.535 346.570,186.533 344.410,185.799 343.200 C 185.065 341.990,184.349 340.538,184.208 339.974 C 183.855 338.567,181.193 335.121,179.987 334.511 C 178.620 333.819,101.992 333.767,100.674 334.458 C 99.394 335.128,97.736 337.081,97.215 338.533 C 96.965 339.230,96.293 340.700,95.723 341.800 C 91.822 349.327,90.263 352.518,89.385 354.769 C 88.835 356.181,87.851 358.203,87.200 359.262 C 86.549 360.320,85.545 362.314,84.968 363.693 C 84.392 365.072,83.678 366.473,83.382 366.807 C 83.086 367.141,82.441 368.491,81.950 369.807 C 80.907 372.597,79.907 374.174,78.217 375.694 L 77.000 376.787 63.962 376.794 C 51.579 376.800,50.889 376.761,50.224 376.027 C 49.451 375.172,49.651 373.102,50.613 372.000 C 50.901 371.670,51.519 370.429,51.985 369.243 C 52.452 368.056,53.266 366.346,53.794 365.443 C 54.322 364.539,55.324 362.450,56.020 360.800 C 56.716 359.150,57.526 357.527,57.821 357.193 C 58.115 356.859,58.763 355.509,59.261 354.193 C 59.758 352.877,60.634 350.990,61.206 350.000 C 61.779 349.010,62.747 346.940,63.358 345.400 C 63.969 343.860,64.703 342.330,64.990 342.000 C 65.276 341.670,65.907 340.500,66.392 339.400 C 66.878 338.300,68.140 335.600,69.197 333.400 C 70.255 331.200,71.239 328.999,71.385 328.508 C 71.530 328.017,72.275 326.577,73.041 325.308 C 73.806 324.039,74.539 322.550,74.669 322.000 C 74.799 321.450,75.673 319.560,76.611 317.800 C 77.549 316.040,78.440 314.185,78.592 313.679 C 78.743 313.172,79.467 311.697,80.200 310.399 C 80.933 309.102,81.930 306.924,82.415 305.559 C 82.899 304.194,83.814 302.259,84.448 301.260 C 85.082 300.261,85.600 299.287,85.600 299.095 C 85.600 298.904,86.431 297.094,87.448 295.074 C 88.464 293.053,89.529 290.746,89.814 289.946 C 90.099 289.146,90.799 287.753,91.369 286.849 C 91.939 285.946,92.943 283.853,93.601 282.198 C 94.258 280.543,95.228 278.516,95.756 277.694 C 96.284 276.872,96.943 275.482,97.221 274.604 C 97.498 273.727,98.228 272.192,98.842 271.193 C 99.457 270.195,100.361 268.303,100.852 266.989 C 101.343 265.675,102.066 264.131,102.459 263.557 C 102.851 262.984,103.735 261.274,104.421 259.757 C 105.108 258.241,106.374 255.533,107.235 253.739 C 108.096 251.946,108.801 250.326,108.803 250.139 C 108.805 249.953,109.612 248.389,110.597 246.664 C 111.582 244.939,112.571 242.849,112.795 242.019 C 113.018 241.189,113.674 239.814,114.251 238.963 C 114.828 238.113,115.548 236.715,115.850 235.857 C 116.153 234.999,117.105 233.015,117.965 231.448 C 118.825 229.882,119.739 227.810,119.995 226.844 C 120.251 225.878,120.869 224.438,121.367 223.644 C 122.480 221.868,127.600 211.392,127.600 210.889 C 127.600 210.335,131.993 201.897,132.689 201.114 C 133.817 199.846,142.477 199.141,146.014 200.029 M138.913 252.100 C 137.539 253.598,135.741 256.850,134.768 259.600 C 134.262 261.030,133.407 262.911,132.868 263.781 C 132.329 264.650,131.367 266.625,130.730 268.169 C 130.094 269.713,129.144 271.709,128.619 272.603 C 128.095 273.498,127.292 275.338,126.836 276.692 C 126.380 278.046,125.582 279.780,125.063 280.546 C 124.543 281.311,123.699 282.986,123.185 284.269 C 122.672 285.551,121.833 287.276,121.320 288.102 C 120.807 288.929,120.001 290.639,119.529 291.902 C 119.057 293.166,118.082 295.280,117.361 296.600 C 116.640 297.920,115.673 300.019,115.210 301.264 C 114.748 302.509,114.107 303.746,113.785 304.013 C 113.038 304.632,113.027 307.211,113.768 308.224 C 114.339 309.005,160.787 309.714,164.702 309.000 C 167.540 308.483,168.251 306.371,166.634 303.259 C 164.456 299.068,157.600 284.858,157.603 284.541 C 157.605 284.353,156.899 282.760,156.034 281.000 C 155.169 279.240,153.973 276.675,153.376 275.300 C 152.779 273.925,152.154 272.800,151.986 272.800 C 151.818 272.800,151.177 271.405,150.562 269.700 C 149.946 267.995,148.952 265.790,148.352 264.800 C 147.752 263.810,146.892 262.061,146.441 260.913 C 143.258 252.808,140.851 249.989,138.913 252.100 M142.203 256.580 C 142.986 257.979,143.882 259.336,144.194 259.595 C 144.507 259.855,145.043 261.032,145.386 262.212 C 145.729 263.391,146.721 265.675,147.590 267.287 C 148.460 268.899,149.454 271.019,149.799 271.997 C 150.144 272.976,150.787 274.160,151.226 274.628 C 151.666 275.096,152.560 276.989,153.212 278.835 C 153.865 280.681,154.933 283.049,155.585 284.099 C 156.237 285.148,156.973 286.757,157.220 287.676 C 157.468 288.594,158.072 289.897,158.563 290.572 C 159.054 291.248,159.978 293.133,160.617 294.763 C 161.255 296.392,162.268 298.403,162.868 299.231 C 164.508 301.494,165.396 304.881,164.720 306.291 L 164.189 307.400 140.462 307.400 C 117.201 307.400,116.724 307.384,116.140 306.600 C 115.409 305.618,115.704 303.189,116.768 301.418 C 118.421 298.670,119.500 296.512,119.977 295.000 C 120.724 292.629,121.717 290.400,122.025 290.400 C 122.174 290.400,122.986 288.825,123.828 286.900 C 124.670 284.975,125.691 282.912,126.096 282.315 C 126.501 281.719,127.163 280.271,127.566 279.098 C 127.970 277.924,128.848 275.983,129.518 274.782 C 130.188 273.582,131.304 271.115,131.997 269.300 C 132.691 267.485,133.403 266.000,133.580 266.000 C 133.893 266.000,135.214 263.168,135.798 261.246 C 136.056 260.399,137.883 257.032,139.467 254.487 C 140.204 253.303,140.496 253.526,142.203 256.580 M277.800 260.860 C 270.505 261.963,266.582 262.911,264.063 264.179 C 262.598 264.916,260.813 265.643,260.095 265.793 C 258.767 266.071,252.858 269.678,251.400 271.100 C 250.960 271.530,249.880 272.334,249.000 272.889 C 246.918 274.200,240.185 281.181,239.796 282.432 C 239.630 282.964,238.933 283.952,238.247 284.627 C 237.561 285.302,236.732 286.382,236.404 287.027 C 236.076 287.672,235.239 289.109,234.543 290.219 C 233.848 291.329,232.993 293.202,232.643 294.380 C 232.293 295.558,231.623 297.170,231.155 297.961 C 229.630 300.536,228.285 306.748,227.190 316.276 C 226.358 323.514,228.862 340.759,231.314 344.677 C 231.838 345.515,232.476 347.042,232.732 348.070 C 233.246 350.141,236.520 355.965,238.165 357.734 C 238.745 358.358,239.578 359.573,240.017 360.434 C 241.262 362.873,249.833 371.166,252.799 372.800 C 253.398 373.130,254.678 373.927,255.644 374.572 C 256.610 375.216,258.660 376.182,260.200 376.718 C 261.740 377.254,263.090 377.825,263.200 377.986 C 263.651 378.650,265.579 379.378,268.600 380.027 C 270.360 380.405,273.572 381.093,275.739 381.557 C 284.453 383.422,299.478 381.897,305.600 378.526 C 306.590 377.981,308.449 377.091,309.731 376.549 C 312.102 375.547,314.921 373.641,317.494 371.300 C 319.989 369.030,321.496 369.599,321.490 372.809 C 321.485 375.369,322.279 377.165,323.880 378.218 C 325.143 379.049,343.856 379.427,347.686 378.698 C 351.550 377.964,351.209 383.538,351.209 321.214 L 351.209 266.736 350.371 265.559 C 348.813 263.371,347.774 263.200,336.051 263.203 C 324.439 263.206,324.358 263.220,322.454 265.640 C 321.349 267.045,321.091 268.334,321.527 270.273 C 322.269 273.575,319.912 274.134,316.739 271.409 C 314.177 269.208,314.248 269.264,311.767 267.482 C 310.681 266.702,309.255 265.934,308.597 265.776 C 307.938 265.618,306.230 264.894,304.800 264.168 C 298.897 261.169,286.110 259.603,277.800 260.860 M293.723 262.830 C 296.727 263.279,301.911 264.659,302.600 265.193 C 302.820 265.364,303.990 265.788,305.200 266.136 C 306.410 266.484,308.642 267.586,310.159 268.585 C 311.677 269.583,313.126 270.400,313.380 270.400 C 313.634 270.400,314.642 271.240,315.620 272.266 C 317.890 274.648,320.513 275.889,321.810 275.195 C 323.167 274.468,324.148 272.041,323.632 270.685 C 323.078 269.226,323.486 267.446,324.620 266.381 C 325.629 265.433,346.342 265.113,348.035 266.019 C 350.138 267.144,350.000 263.315,349.995 320.729 C 349.989 377.696,350.059 375.157,348.471 376.094 C 346.777 377.095,325.969 377.258,324.887 376.279 C 324.013 375.488,323.153 372.988,323.470 372.161 C 325.196 367.665,320.144 366.464,316.043 370.396 C 314.893 371.498,313.774 372.400,313.555 372.400 C 313.335 372.400,312.131 373.086,310.878 373.925 C 300.037 381.180,278.409 382.613,264.931 376.969 C 263.132 376.216,261.422 375.586,261.131 375.569 C 260.839 375.551,259.790 375.020,258.800 374.389 C 257.810 373.758,256.152 372.793,255.115 372.245 C 251.065 370.104,241.993 361.471,240.251 358.100 C 239.882 357.385,239.435 356.800,239.258 356.800 C 239.081 356.800,238.237 355.405,237.383 353.700 C 236.530 351.995,235.437 349.970,234.957 349.200 C 228.827 339.386,227.078 310.699,232.005 300.800 C 232.389 300.030,232.831 298.770,232.989 298.000 C 233.419 295.898,237.657 287.622,239.403 285.472 C 239.972 284.773,241.430 282.940,242.643 281.400 C 245.501 277.772,252.237 271.793,254.924 270.501 C 255.626 270.163,257.234 269.270,258.497 268.516 C 266.582 263.692,282.405 261.138,293.723 262.830 M284.000 285.413 C 278.952 286.307,274.261 288.341,270.200 291.397 C 267.340 293.550,262.800 298.040,262.800 298.716 C 262.800 298.923,262.265 299.701,261.611 300.446 C 260.956 301.191,260.042 302.790,259.578 304.000 C 259.115 305.210,258.310 307.190,257.789 308.400 C 255.935 312.711,255.811 313.514,255.815 321.200 C 255.818 328.690,256.296 331.870,257.768 334.200 C 258.046 334.640,258.602 336.054,259.004 337.341 C 259.407 338.629,260.155 340.249,260.667 340.941 C 261.180 341.634,261.914 342.740,262.300 343.400 C 266.013 349.761,276.218 356.158,284.395 357.250 C 307.706 360.363,325.492 343.118,324.258 318.600 C 324.034 314.154,322.899 308.495,322.013 307.409 C 321.830 307.184,321.229 305.886,320.678 304.525 C 318.904 300.141,314.113 294.171,310.654 292.033 C 309.806 291.509,308.665 290.666,308.117 290.159 C 307.570 289.651,306.465 289.025,305.661 288.766 C 304.858 288.507,304.020 288.165,303.800 288.005 C 300.537 285.629,290.327 284.293,284.000 285.413 M299.800 288.561 C 305.628 290.196,306.470 290.520,307.211 291.413 C 307.528 291.796,308.435 292.517,309.226 293.016 C 311.729 294.596,314.573 297.254,315.357 298.746 C 315.774 299.538,316.825 301.127,317.693 302.277 C 319.234 304.317,319.492 305.021,321.625 313.000 C 324.644 324.295,320.400 340.172,312.504 347.124 C 298.855 359.140,278.602 358.709,266.530 346.145 C 265.359 344.926,264.400 343.866,264.400 343.791 C 264.400 343.715,263.498 342.169,262.396 340.354 C 261.293 338.539,260.208 336.322,259.984 335.427 C 259.759 334.532,259.208 332.810,258.759 331.600 C 257.356 327.823,257.199 326.758,257.182 320.955 C 257.170 316.714,257.327 314.873,257.813 313.555 C 258.168 312.590,258.822 310.720,259.265 309.400 C 260.465 305.825,261.104 304.447,262.790 301.800 C 263.630 300.480,264.436 299.004,264.579 298.520 C 264.723 298.037,265.192 297.530,265.621 297.393 C 266.050 297.257,266.879 296.519,267.463 295.753 C 268.047 294.987,269.352 293.883,270.363 293.299 C 271.373 292.715,272.560 291.841,273.000 291.355 C 274.181 290.052,279.779 288.195,286.000 287.042 C 288.699 286.541,295.125 287.249,299.800 288.561 " stroke="none" fill="#abc33d" fill-rule="evenodd"></path></g></svg>