<svg id="svg" xmlns="http://www.w3.org/2000/svg" xmlns:xlink="http://www.w3.org/1999/xlink" width="400" height="497.2972972972973" viewBox="0, 0, 400,497.2972972972973"><g id="svgg"><path id="path0" d="M187.400 32.624 C 186.960 32.726,185.685 33.009,184.566 33.253 C 182.118 33.786,177.763 37.093,176.715 39.214 C 173.213 46.304,173.283 49.833,177.007 53.955 C 178.399 55.496,178.448 55.643,178.006 56.982 C 177.408 58.793,177.581 58.718,172.763 59.243 C 169.771 59.568,168.250 59.934,167.220 60.578 C 166.439 61.065,164.649 62.074,163.241 62.819 C 159.487 64.807,157.200 68.026,157.200 71.322 C 157.200 73.646,155.820 77.370,154.703 78.060 C 154.464 78.208,155.063 78.545,156.034 78.811 C 157.005 79.076,158.479 79.542,159.308 79.846 C 160.138 80.151,161.243 80.400,161.765 80.400 C 162.696 80.400,163.200 81.060,163.200 82.279 C 163.200 82.982,157.956 88.085,156.422 88.874 C 152.980 90.645,154.528 92.490,158.340 91.161 C 159.033 90.919,159.600 90.495,159.600 90.218 C 159.600 89.738,162.638 87.694,165.562 86.208 C 166.312 85.827,167.302 85.159,167.762 84.724 C 168.223 84.288,169.095 83.673,169.700 83.356 C 171.640 82.339,169.290 80.430,166.074 80.409 C 164.086 80.396,163.200 79.766,163.200 78.366 C 163.200 77.703,162.908 76.596,162.552 75.906 C 161.051 73.004,162.372 67.852,164.959 66.520 C 165.642 66.169,166.471 65.593,166.803 65.241 C 168.356 63.591,169.411 63.052,172.875 62.138 C 178.354 60.692,178.707 60.651,180.948 61.182 C 184.117 61.933,185.163 61.379,184.813 59.132 C 184.422 56.626,183.374 54.883,181.884 54.261 C 180.333 53.613,178.555 51.661,177.236 49.160 L 176.271 47.331 177.493 45.566 C 178.165 44.595,179.094 43.367,179.558 42.839 C 180.021 42.310,180.400 41.738,180.400 41.568 C 180.400 41.397,181.345 40.792,182.500 40.222 C 183.655 39.652,185.227 38.829,185.994 38.393 C 186.760 37.957,188.020 37.597,188.794 37.593 C 189.567 37.589,191.910 37.298,194.000 36.947 C 200.658 35.828,200.846 35.828,202.400 36.951 C 204.916 38.769,207.068 39.582,210.065 39.848 C 212.672 40.079,215.200 40.946,215.200 41.610 C 215.200 42.605,217.798 44.276,220.372 44.938 C 222.809 45.565,223.375 45.879,224.121 47.021 C 224.672 47.863,225.644 48.611,226.724 49.025 C 228.594 49.741,232.704 53.661,232.987 55.000 C 233.080 55.440,233.261 56.610,233.390 57.600 C 233.518 58.590,233.773 59.639,233.955 59.932 C 234.538 60.866,241.683 61.600,249.800 61.558 C 262.820 61.492,270.074 62.200,274.800 64.002 C 276.450 64.630,278.790 65.438,280.000 65.796 C 281.210 66.155,282.920 66.660,283.800 66.919 C 284.680 67.178,286.030 67.944,286.800 68.622 C 288.498 70.117,290.893 71.595,291.647 71.613 C 291.951 71.621,292.920 72.156,293.800 72.804 C 294.680 73.451,296.120 74.463,297.000 75.052 C 297.880 75.642,299.770 77.240,301.200 78.604 C 302.630 79.967,304.610 81.780,305.600 82.632 C 307.351 84.139,308.793 85.580,313.631 90.659 C 314.920 92.012,316.270 93.858,316.632 94.763 C 317.060 95.833,317.607 96.487,318.198 96.635 C 318.749 96.774,319.378 97.463,319.794 98.387 C 320.778 100.569,323.645 103.476,326.171 104.855 C 326.902 105.253,327.846 106.414,328.586 107.823 C 330.232 110.961,330.814 111.263,332.258 109.729 C 334.188 107.679,337.959 104.825,339.109 104.544 C 339.709 104.398,340.629 103.945,341.154 103.539 C 342.990 102.117,347.200 104.414,347.200 106.839 C 347.200 107.008,347.515 107.248,347.900 107.373 C 348.285 107.497,349.007 108.274,349.504 109.100 C 350.001 109.925,350.572 110.870,350.772 111.200 C 352.513 114.075,354.399 119.085,354.988 122.400 C 355.820 127.085,357.244 130.213,357.946 128.901 C 358.611 127.658,358.501 125.669,357.643 123.400 C 357.227 122.300,356.595 119.403,356.238 116.962 C 355.570 112.381,354.151 108.883,352.201 107.006 C 351.740 106.563,350.647 105.137,349.772 103.837 C 347.890 101.044,347.931 101.069,343.669 100.163 C 340.164 99.418,336.324 99.893,333.120 101.469 C 330.415 102.799,328.737 102.119,324.450 97.957 C 322.773 96.328,320.320 94.011,319.000 92.809 C 317.680 91.606,315.758 89.486,314.728 88.098 C 313.699 86.710,312.340 85.085,311.710 84.487 C 311.079 83.889,309.680 81.898,308.601 80.061 C 307.006 77.345,306.232 76.461,304.454 75.324 C 303.252 74.555,301.983 73.614,301.634 73.233 C 301.285 72.852,300.102 71.834,299.005 70.970 C 297.907 70.107,296.698 69.091,296.318 68.714 C 295.938 68.336,294.676 67.549,293.514 66.964 C 292.351 66.380,290.555 65.286,289.523 64.533 C 288.244 63.601,286.925 63.048,285.384 62.797 C 282.348 62.303,281.703 62.103,279.600 61.004 C 272.318 57.198,254.790 54.538,247.458 56.126 C 243.563 56.970,239.879 55.369,237.138 51.642 C 236.474 50.739,235.763 50.000,235.557 50.000 C 235.351 50.000,234.242 49.062,233.091 47.915 C 230.769 45.600,225.151 41.701,223.600 41.328 C 222.002 40.944,220.293 39.998,219.000 38.782 C 218.032 37.871,217.104 37.533,214.200 37.032 C 211.795 36.617,209.538 35.896,207.400 34.859 C 204.460 33.433,203.842 33.287,199.800 33.063 C 189.774 32.505,188.163 32.448,187.400 32.624 M219.743 56.578 C 219.334 56.861,218.550 57.226,218.000 57.390 C 214.356 58.475,208.188 62.855,209.067 63.734 C 209.554 64.220,213.384 63.981,214.400 63.400 C 214.950 63.086,215.807 62.822,216.304 62.814 C 216.802 62.806,218.015 62.421,219.001 61.958 C 220.368 61.315,221.197 61.178,222.496 61.378 C 226.555 62.003,228.644 62.029,230.200 61.474 L 231.800 60.903 229.517 59.812 C 228.261 59.213,227.024 58.470,226.768 58.161 C 226.512 57.852,226.004 57.600,225.640 57.600 C 225.276 57.600,224.623 57.357,224.189 57.060 C 222.994 56.242,220.604 55.983,219.743 56.578 M93.071 62.544 C 86.619 63.808,81.007 73.860,82.959 80.654 C 83.267 81.724,83.828 84.310,84.206 86.400 C 84.822 89.803,86.411 93.564,87.586 94.400 C 87.740 94.510,88.479 95.757,89.227 97.172 C 89.976 98.587,91.446 100.546,92.494 101.527 C 93.542 102.507,94.400 103.516,94.400 103.768 C 94.400 104.741,96.711 105.710,96.984 104.852 C 97.368 103.642,96.461 102.184,95.070 101.774 C 94.007 101.461,93.779 101.177,93.670 100.034 C 93.598 99.282,93.132 98.112,92.635 97.434 C 89.057 92.556,87.193 82.895,88.599 76.523 C 89.405 72.866,90.083 71.560,91.656 70.630 C 92.287 70.258,93.309 69.412,93.927 68.751 C 96.045 66.484,100.510 66.305,103.200 68.378 C 104.723 69.552,106.225 70.200,108.400 70.621 C 110.389 71.006,113.761 72.716,114.215 73.570 C 116.574 78.003,116.917 78.482,117.997 78.859 C 118.632 79.080,119.650 79.923,120.259 80.731 C 120.868 81.539,122.139 82.958,123.083 83.885 C 124.028 84.812,124.800 85.928,124.800 86.365 C 124.800 88.731,125.651 91.112,126.424 90.910 C 127.497 90.629,127.398 89.681,126.000 86.863 C 125.340 85.533,124.797 84.210,124.794 83.922 C 124.771 81.893,123.179 79.218,120.139 76.099 C 118.907 74.835,116.922 72.583,115.728 71.095 C 114.148 69.125,112.939 68.077,111.279 67.237 C 110.026 66.603,108.153 65.337,107.118 64.424 C 104.440 62.061,99.147 61.353,93.071 62.544 M183.065 70.784 C 182.001 71.205,180.561 72.158,179.865 72.902 C 179.169 73.646,177.972 74.925,177.205 75.745 C 176.047 76.981,175.911 77.299,176.405 77.611 C 177.797 78.492,182.949 77.854,183.653 76.714 C 183.801 76.474,184.885 75.876,186.061 75.384 C 191.822 72.975,188.893 68.478,183.065 70.784 M148.105 82.701 C 146.815 84.286,146.993 84.543,148.654 83.491 C 150.134 82.555,150.461 81.880,149.521 81.701 C 149.235 81.646,148.597 82.096,148.105 82.701 M294.600 87.796 C 291.916 88.982,291.408 90.041,291.981 93.249 C 292.561 96.495,294.033 100.122,295.369 101.600 C 295.866 102.150,296.677 103.277,297.172 104.105 C 298.431 106.211,302.130 107.321,303.800 106.094 C 305.790 104.632,305.882 101.311,304.037 97.600 C 303.654 96.830,302.853 95.210,302.257 94.000 C 300.996 91.441,300.434 90.737,298.028 88.700 C 296.047 87.023,296.235 87.073,294.600 87.796 M275.689 91.442 C 273.247 93.367,272.599 95.217,272.624 100.200 L 272.646 104.600 274.623 108.400 C 280.254 119.223,288.465 111.987,285.175 99.101 C 283.317 91.825,279.309 88.589,275.689 91.442 M146.100 91.865 C 145.796 91.987,145.600 92.829,145.600 94.009 C 145.600 95.392,145.251 96.622,144.391 98.276 C 143.182 100.599,143.780 101.980,145.326 100.434 C 145.565 100.195,146.006 100.000,146.307 100.000 C 147.844 100.000,151.200 96.282,151.200 94.578 C 151.200 92.523,148.297 90.979,146.100 91.865 M99.732 111.056 C 99.850 111.787,99.779 112.489,99.574 112.616 C 98.596 113.221,99.430 113.600,101.738 113.600 C 104.811 113.600,106.192 112.659,104.872 111.465 C 104.468 111.099,103.757 110.800,103.292 110.800 C 102.827 110.800,102.349 110.641,102.229 110.446 C 101.492 109.255,99.518 109.737,99.732 111.056 M167.500 111.924 C 165.434 112.095,165.602 112.807,167.700 112.772 C 169.944 112.735,171.445 112.205,169.989 111.964 C 169.445 111.874,168.325 111.856,167.500 111.924 M84.000 115.163 C 82.350 115.782,80.367 116.666,79.594 117.128 C 78.821 117.590,76.931 118.353,75.394 118.823 C 72.017 119.856,69.001 122.020,66.815 124.979 C 65.936 126.169,64.891 127.381,64.492 127.671 C 64.093 127.962,63.342 128.807,62.822 129.548 C 62.302 130.290,61.286 131.487,60.564 132.210 C 59.754 133.020,59.144 134.112,58.972 135.061 C 58.819 135.908,58.246 138.490,57.700 140.800 C 56.167 147.286,56.101 150.070,57.384 154.184 C 57.972 156.070,58.556 158.286,58.682 159.107 C 59.104 161.856,61.748 165.235,65.986 168.443 L 68.573 170.400 71.937 170.400 C 73.787 170.400,76.972 170.685,79.015 171.033 C 83.363 171.774,86.846 171.101,90.071 168.896 C 91.022 168.246,92.673 167.331,93.740 166.862 C 94.807 166.393,96.541 165.377,97.595 164.604 C 98.648 163.831,100.745 162.736,102.255 162.171 C 103.838 161.579,105.600 160.564,106.417 159.772 C 107.196 159.018,107.978 158.400,108.154 158.400 C 108.574 158.400,114.732 152.675,115.515 151.557 C 116.533 150.104,112.616 150.882,111.352 152.384 C 110.834 152.999,109.418 153.906,108.205 154.398 C 106.992 154.890,106.000 155.445,106.000 155.632 C 106.000 156.016,101.518 159.167,100.000 159.850 C 99.450 160.097,98.562 160.687,98.027 161.160 C 97.492 161.633,96.052 162.294,94.827 162.628 C 93.602 162.963,91.430 163.671,90.000 164.202 C 87.857 164.997,86.732 165.156,83.600 165.105 C 81.510 165.071,78.581 165.280,77.091 165.569 C 74.383 166.094,74.381 166.094,72.751 164.947 C 71.854 164.316,70.574 163.496,69.907 163.125 C 69.240 162.753,68.133 161.668,67.447 160.713 C 66.761 159.758,65.622 158.378,64.916 157.646 C 62.763 155.414,61.735 149.687,62.754 145.600 C 62.946 144.830,63.338 143.120,63.625 141.800 C 64.726 136.750,68.745 129.990,71.767 128.109 C 72.665 127.550,74.300 126.292,75.400 125.313 C 80.288 120.966,82.880 119.210,85.612 118.397 C 88.241 117.613,89.153 116.821,90.327 114.300 C 90.655 113.596,86.765 114.127,84.000 115.163 M208.465 115.571 C 207.149 117.911,207.845 124.000,209.428 124.000 C 210.714 124.000,211.590 118.107,210.641 115.836 C 209.830 113.895,209.433 113.847,208.465 115.571 M159.955 116.164 C 159.430 116.694,158.561 117.941,158.024 118.936 L 157.048 120.743 158.324 123.177 C 159.213 124.873,159.600 126.162,159.600 127.424 C 159.600 130.152,160.816 131.200,163.982 131.200 L 166.400 131.200 166.400 129.698 C 166.400 128.403,166.229 128.120,165.164 127.648 C 162.499 126.468,161.294 122.325,162.746 119.335 C 164.433 115.865,162.464 113.629,159.955 116.164 M138.705 118.829 C 136.680 120.009,135.638 127.322,137.074 130.285 C 139.570 135.440,141.035 134.972,140.702 129.128 C 140.502 125.621,140.504 125.609,142.051 122.963 C 143.840 119.900,143.833 119.935,142.869 119.062 C 142.058 118.329,139.783 118.201,138.705 118.829 M340.678 121.945 C 337.419 124.094,335.188 131.860,336.180 137.606 C 336.521 139.583,336.800 142.658,336.800 144.438 C 336.800 149.050,337.936 150.741,341.118 150.865 C 344.186 150.985,345.600 149.123,345.600 144.963 C 345.600 143.479,346.046 140.613,346.639 138.282 C 347.863 133.473,347.871 134.405,346.564 129.200 C 345.984 126.890,345.348 124.342,345.150 123.537 C 344.871 122.404,344.508 121.976,343.535 121.637 C 341.935 121.079,342.002 121.072,340.678 121.945 M206.355 130.300 C 205.636 132.161,206.147 135.059,207.544 137.042 C 208.978 139.076,209.210 141.444,208.211 143.835 C 207.153 146.368,207.324 147.583,209.133 150.362 C 210.320 152.187,210.800 153.346,210.800 154.391 C 210.800 156.720,211.976 159.665,213.598 161.400 C 214.421 162.280,215.646 164.190,216.320 165.644 C 217.143 167.419,218.606 169.432,220.773 171.771 C 222.548 173.687,224.000 175.514,224.000 175.833 C 224.000 176.700,230.713 183.153,232.309 183.820 C 237.348 185.925,239.706 183.202,235.437 180.210 C 234.138 179.299,232.941 178.194,232.779 177.755 C 232.617 177.316,231.875 176.422,231.132 175.769 C 230.388 175.116,229.175 173.686,228.436 172.591 C 227.697 171.496,226.771 170.375,226.379 170.100 C 225.987 169.825,225.259 168.925,224.762 168.100 C 224.265 167.275,223.090 165.764,222.152 164.742 C 221.213 163.719,219.926 161.739,219.290 160.342 C 218.655 158.944,217.844 157.560,217.487 157.268 C 216.889 156.775,216.476 155.987,214.667 151.886 C 214.300 151.054,214.000 149.694,214.000 148.865 C 214.000 147.661,213.713 147.079,212.574 145.978 C 209.894 143.388,209.597 141.800,210.747 136.200 C 211.700 131.558,207.862 126.402,206.355 130.300 M100.200 133.062 C 97.445 133.645,97.510 133.610,98.014 134.216 C 98.594 134.915,101.248 134.992,101.910 134.330 C 102.373 133.867,101.868 132.732,101.251 132.846 C 101.113 132.872,100.640 132.969,100.200 133.062 M150.866 133.379 C 146.678 134.897,149.386 143.200,154.068 143.200 L 155.640 143.200 155.378 140.887 C 155.092 138.355,155.744 136.149,157.257 134.540 L 158.075 133.668 157.264 133.234 C 156.218 132.675,152.582 132.757,150.866 133.379 M112.000 133.991 C 112.000 134.693,112.115 134.730,113.011 134.322 C 113.745 133.988,113.882 133.772,113.511 133.537 C 112.632 132.978,112.000 133.168,112.000 133.991 M125.309 135.900 C 124.226 138.965,124.035 139.795,124.340 140.100 C 124.524 140.284,124.893 140.169,125.162 139.846 C 125.722 139.171,127.624 139.627,128.962 140.757 C 129.673 141.357,132.800 147.484,132.800 148.276 C 132.800 148.473,134.053 150.156,135.584 152.017 C 140.008 157.393,140.246 157.712,141.115 159.425 C 141.568 160.318,142.661 161.549,143.543 162.161 C 145.040 163.198,148.045 166.219,150.429 169.084 C 150.995 169.764,152.386 170.821,153.521 171.434 C 154.656 172.047,156.104 173.010,156.739 173.574 C 158.110 174.793,158.971 175.383,160.644 176.250 C 162.658 177.294,163.234 181.359,161.863 184.859 C 161.316 186.257,160.744 188.030,160.592 188.800 C 160.440 189.570,159.956 191.280,159.516 192.600 C 158.412 195.912,158.689 199.832,160.363 204.600 C 161.058 206.580,161.981 209.301,162.413 210.646 C 163.201 213.099,168.679 219.199,170.096 219.201 C 170.373 219.201,171.401 219.912,172.381 220.782 C 175.583 223.624,179.526 223.428,183.800 220.213 C 185.120 219.221,186.327 218.407,186.482 218.404 C 186.637 218.402,187.370 217.605,188.112 216.634 C 188.854 215.663,190.472 213.728,191.709 212.334 C 197.521 205.784,197.707 205.504,199.214 201.000 C 200.990 195.695,202.456 194.674,206.711 195.777 C 208.030 196.119,210.097 196.376,211.304 196.348 C 212.842 196.312,214.611 196.682,217.213 197.583 C 220.289 198.648,221.276 198.824,222.963 198.610 C 229.826 197.740,231.252 198.584,233.082 204.599 C 233.990 207.585,237.182 211.315,241.000 213.853 C 241.880 214.438,243.650 215.627,244.934 216.496 C 247.526 218.250,248.666 218.297,251.654 216.773 C 253.851 215.652,258.400 212.399,258.400 211.949 C 258.400 211.586,260.386 209.355,264.200 205.434 C 265.080 204.530,266.474 202.791,267.297 201.570 C 268.920 199.163,270.631 198.014,273.800 197.204 C 274.900 196.923,277.399 195.986,279.354 195.122 C 281.658 194.104,284.402 193.282,287.154 192.785 C 293.113 191.710,294.816 191.217,296.261 190.150 C 296.954 189.638,298.469 188.846,299.628 188.389 C 300.787 187.932,302.199 187.236,302.767 186.842 C 304.281 185.791,307.076 184.567,309.755 183.782 C 312.130 183.085,314.867 181.133,314.285 180.551 C 313.030 179.297,304.792 181.208,302.780 183.220 C 302.362 183.638,301.521 184.084,300.910 184.211 C 300.300 184.339,298.676 184.882,297.301 185.418 C 295.927 185.954,293.497 186.591,291.901 186.834 C 290.306 187.077,287.110 187.809,284.800 188.461 C 278.773 190.161,274.771 190.799,270.132 190.799 C 267.318 190.800,264.667 191.102,261.532 191.779 C 255.617 193.058,245.288 194.038,242.495 193.587 C 241.337 193.400,237.107 193.037,233.095 192.780 C 229.083 192.523,225.030 192.072,224.090 191.778 C 223.149 191.483,220.449 190.950,218.090 190.594 C 213.544 189.907,210.819 189.179,208.188 187.949 C 203.762 185.878,202.709 186.557,201.126 192.495 C 200.700 194.093,200.090 195.760,199.770 196.200 C 199.451 196.640,198.786 197.584,198.294 198.298 C 197.803 199.012,197.089 199.698,196.708 199.823 C 196.019 200.048,194.784 202.407,194.261 204.496 C 194.110 205.099,193.329 206.179,192.526 206.896 C 191.722 207.613,190.780 208.548,190.433 208.973 C 190.085 209.399,189.372 210.119,188.849 210.573 C 188.326 211.028,187.336 211.981,186.649 212.691 C 180.673 218.867,169.562 216.078,166.768 207.700 C 166.310 206.325,165.784 205.200,165.599 205.200 C 165.134 205.200,164.899 203.880,164.177 197.222 C 163.833 194.045,163.482 191.333,163.398 191.196 C 163.132 190.766,165.053 186.041,165.680 185.584 C 165.843 185.465,166.259 184.565,166.605 183.584 C 166.950 182.603,167.968 181.050,168.867 180.134 C 170.447 178.521,172.284 174.486,171.675 173.964 C 171.524 173.835,170.320 173.504,169.000 173.229 C 167.680 172.955,166.330 172.565,166.000 172.362 C 165.670 172.160,165.130 171.877,164.800 171.732 C 164.470 171.588,163.375 170.710,162.366 169.780 C 161.250 168.752,159.553 167.734,158.031 167.179 C 156.197 166.510,155.195 165.849,154.268 164.695 C 153.573 163.831,152.624 162.915,152.160 162.661 C 151.345 162.216,148.421 159.849,146.649 158.200 C 146.176 157.760,145.537 156.906,145.228 156.303 C 144.920 155.699,144.202 154.906,143.634 154.540 C 141.747 153.327,137.163 148.313,136.945 147.224 C 136.827 146.635,135.576 144.904,134.165 143.378 C 132.754 141.851,131.600 140.360,131.600 140.063 C 131.600 138.794,127.200 134.800,125.803 134.800 C 125.745 134.800,125.522 135.295,125.309 135.900 M122.535 141.700 C 122.104 142.392,122.049 144.017,122.465 143.760 C 123.271 143.262,124.051 141.200,123.434 141.200 C 123.111 141.200,122.707 141.425,122.535 141.700 M157.335 146.625 C 157.152 147.102,157.374 147.558,158.033 148.060 C 158.565 148.464,159.450 149.220,160.000 149.741 C 162.022 151.655,164.335 149.413,162.520 147.300 C 161.501 146.114,157.720 145.622,157.335 146.625 M117.211 146.987 C 116.887 147.378,116.839 147.917,117.069 148.606 L 117.413 149.639 118.599 148.401 C 119.589 147.367,119.688 147.100,119.193 146.787 C 118.350 146.254,117.771 146.312,117.211 146.987 M353.505 154.886 C 352.902 155.511,352.302 156.513,352.172 157.111 C 352.041 157.710,351.769 158.722,351.567 159.360 C 351.365 159.998,351.200 160.997,351.200 161.580 C 351.200 162.163,350.987 162.853,350.727 163.113 C 350.466 163.374,350.390 163.723,350.557 163.890 C 350.724 164.057,351.035 163.880,351.250 163.497 C 351.464 163.114,351.896 162.800,352.210 162.800 C 353.037 162.800,353.888 160.907,354.411 157.907 C 355.078 154.077,354.890 153.449,353.505 154.886 M328.176 163.752 C 327.626 165.945,328.089 166.957,329.800 167.301 C 331.022 167.547,331.664 167.995,332.515 169.196 C 333.499 170.585,335.580 171.610,336.810 171.311 C 336.926 171.283,338.906 171.053,341.210 170.800 C 346.443 170.226,347.503 169.729,348.900 167.195 L 350.000 165.200 348.773 165.200 C 348.099 165.200,346.974 165.632,346.273 166.160 C 341.524 169.743,334.956 169.057,332.602 164.734 C 331.338 162.411,328.662 161.817,328.176 163.752 M176.866 168.750 C 176.441 169.020,176.468 169.140,176.999 169.344 C 178.481 169.913,184.178 169.412,183.768 168.749 C 183.492 168.302,177.572 168.303,176.866 168.750 M193.901 175.086 C 192.524 175.295,192.104 176.667,192.929 178.262 C 194.143 180.610,194.183 182.921,193.035 184.286 C 192.466 184.962,192.000 185.859,192.000 186.278 C 192.000 186.697,191.784 187.256,191.520 187.520 C 191.147 187.893,191.324 188.000,192.320 188.000 C 193.024 188.000,193.600 187.811,193.600 187.580 C 193.600 187.348,194.196 186.910,194.925 186.605 C 196.923 185.771,198.953 181.728,198.699 179.089 C 198.517 177.191,196.601 174.745,195.400 174.876 C 195.180 174.900,194.505 174.995,193.901 175.086 M316.846 176.763 C 316.461 177.007,316.380 177.464,316.579 178.257 L 316.867 179.400 317.839 178.271 C 319.127 176.776,318.450 175.747,316.846 176.763 M262.820 198.210 C 264.007 198.824,264.661 202.000,263.600 202.000 C 263.380 202.000,263.200 202.270,263.200 202.600 C 263.200 202.930,263.065 203.203,262.900 203.206 C 262.735 203.209,261.520 204.219,260.200 205.450 C 253.626 211.579,245.947 212.787,241.752 208.353 C 240.552 207.085,239.756 206.349,238.126 205.000 C 237.183 204.220,237.175 204.167,237.819 202.880 C 239.393 199.732,243.091 198.495,247.562 199.622 C 251.723 200.671,252.902 200.593,256.600 199.028 C 260.260 197.479,261.174 197.359,262.820 198.210 M39.400 232.433 C 29.475 232.878,28.038 234.834,28.602 247.132 C 28.781 251.020,28.853 255.370,28.763 256.800 C 28.571 259.858,28.545 279.291,28.724 286.200 C 28.849 291.036,28.999 354.475,28.900 360.800 C 28.665 375.837,28.722 488.825,28.967 492.500 L 29.279 497.200 32.203 497.200 L 35.126 497.200 34.873 483.100 C 34.734 475.345,34.650 467.470,34.686 465.600 C 34.721 463.730,34.739 448.430,34.724 431.600 C 34.710 414.770,34.700 399.740,34.703 398.200 C 34.706 396.660,34.825 388.020,34.968 379.000 C 35.111 369.980,35.178 361.340,35.117 359.800 C 35.004 356.956,34.964 343.574,35.044 335.200 C 35.068 332.670,35.031 318.990,34.961 304.800 C 34.891 290.610,34.853 273.960,34.877 267.800 C 34.900 261.640,34.873 253.838,34.816 250.463 C 34.647 240.437,38.339 236.680,46.063 239.019 C 48.212 239.670,48.942 239.703,52.543 239.310 C 54.880 239.054,57.448 239.002,58.600 239.185 C 61.547 239.654,98.185 239.632,109.979 239.154 C 117.329 238.856,121.499 238.866,124.979 239.191 C 131.513 239.799,134.349 239.822,153.800 239.427 C 169.909 239.099,186.681 239.021,215.600 239.138 C 222.970 239.167,231.250 239.173,234.000 239.151 C 236.750 239.129,240.710 239.170,242.800 239.244 C 244.890 239.317,248.021 239.174,249.757 238.926 C 252.392 238.550,253.185 238.575,254.557 239.080 C 255.785 239.533,257.715 239.670,262.200 239.625 C 265.500 239.592,286.110 239.522,308.000 239.468 C 346.021 239.376,347.943 239.336,351.000 238.586 C 355.113 237.576,359.967 237.554,362.379 238.534 C 363.357 238.931,365.482 239.405,367.101 239.587 C 372.000 240.136,373.146 242.269,372.575 249.772 C 372.390 252.207,372.238 258.250,372.237 263.200 C 372.235 271.615,372.313 292.721,372.356 295.400 C 372.396 297.951,372.448 349.551,372.413 352.200 C 372.393 353.740,372.392 361.840,372.411 370.200 C 372.454 388.326,372.180 405.159,371.828 406.021 C 371.689 406.362,371.851 408.476,372.188 410.718 C 372.890 415.397,372.945 419.313,372.387 425.000 C 372.126 427.652,372.134 433.111,372.410 441.200 C 372.714 450.150,372.696 457.768,372.339 469.800 C 371.758 489.403,371.753 490.139,372.182 494.100 L 372.517 497.200 375.498 497.200 L 378.479 497.200 378.208 494.700 C 378.058 493.325,377.758 491.505,377.541 490.655 C 376.969 488.421,377.020 483.101,377.650 479.400 C 378.115 476.672,378.290 441.916,377.902 429.600 C 377.870 428.610,378.027 425.460,378.249 422.600 C 378.505 419.297,378.518 416.086,378.283 413.800 C 377.858 409.660,377.861 411.313,378.235 382.600 C 378.627 352.525,378.619 353.830,378.445 349.800 C 378.359 347.820,378.320 328.159,378.358 306.109 C 378.406 278.170,378.291 265.242,377.981 263.460 C 377.736 262.054,377.638 259.395,377.762 257.552 C 378.841 241.549,378.624 238.951,375.913 235.502 C 373.844 232.870,365.040 231.610,352.800 232.194 C 347.561 232.444,294.021 232.983,285.400 232.873 C 283.860 232.853,278.010 232.854,272.400 232.875 C 266.790 232.896,261.300 232.888,260.200 232.857 C 247.410 232.495,139.002 232.652,136.744 233.035 C 134.576 233.404,133.059 233.392,129.691 232.983 C 126.428 232.586,117.925 232.484,94.200 232.560 C 77.040 232.614,58.860 232.555,53.800 232.429 C 48.740 232.303,42.260 232.305,39.400 232.433 M99.037 272.429 L 98.000 273.661 98.000 373.045 C 98.000 462.573,98.062 472.523,98.626 473.384 C 99.713 475.043,101.137 475.243,109.994 474.982 C 114.507 474.850,119.952 474.895,122.094 475.084 C 126.602 475.480,127.873 475.078,129.247 472.818 C 130.061 471.480,130.066 471.202,129.962 426.836 C 129.845 377.234,129.661 380.591,132.600 378.910 L 134.200 377.995 167.463 378.032 C 203.736 378.071,202.025 378.185,203.087 375.668 C 204.148 373.150,203.920 352.812,202.809 351.015 C 201.613 349.079,202.213 349.108,166.400 349.248 C 132.188 349.381,133.089 349.421,131.118 347.703 C 130.038 346.762,129.943 344.971,129.849 323.795 C 129.750 301.692,129.676 302.379,132.337 300.883 L 133.953 299.975 168.792 299.993 C 206.383 300.013,204.810 300.109,205.801 297.737 C 206.923 295.052,206.662 274.507,205.484 272.759 L 204.568 271.400 152.321 271.299 L 100.074 271.197 99.037 272.429 M277.843 271.997 C 267.934 274.013,257.081 280.260,254.213 285.600 C 253.917 286.150,253.199 287.140,252.617 287.800 C 251.693 288.848,250.000 291.942,250.000 292.582 C 250.000 292.707,249.310 294.205,248.468 295.911 C 247.462 297.947,246.712 300.250,246.287 302.607 C 244.459 312.746,244.301 314.582,244.050 328.600 C 243.721 347.043,244.218 346.320,232.174 345.850 C 221.099 345.417,221.611 344.725,221.604 360.140 C 221.598 374.577,221.292 374.200,233.000 374.200 C 241.701 374.200,242.779 374.552,243.618 377.666 C 243.882 378.647,244.011 395.349,243.987 425.582 C 243.946 476.366,243.828 473.688,246.166 474.689 C 247.140 475.106,273.101 475.075,274.025 474.656 C 275.638 473.924,275.651 473.493,275.613 424.896 C 275.588 392.994,275.711 377.802,276.000 376.973 C 276.864 374.495,278.032 374.205,287.374 374.154 L 295.749 374.109 296.673 372.954 C 298.005 371.290,298.073 370.503,297.930 358.489 C 297.763 344.561,298.623 345.757,288.886 345.915 C 274.964 346.142,275.836 347.270,275.681 328.822 C 275.513 308.973,275.977 306.397,280.529 301.844 C 284.945 297.428,295.828 296.131,302.315 299.247 C 304.373 300.236,307.417 300.002,308.759 298.753 C 309.615 297.955,310.062 279.477,309.272 277.530 C 308.965 276.774,306.027 274.444,304.177 273.490 C 299.668 271.164,285.800 270.378,277.843 271.997 " stroke="none" fill="#392d33" fill-rule="evenodd"></path><path id="path1" d="M0.000 248.600 L 0.000 497.200 14.631 497.200 L 29.261 497.200 28.954 492.100 C 28.713 488.112,28.668 375.872,28.901 360.800 C 28.999 354.439,28.849 291.022,28.724 286.200 C 28.545 279.291,28.571 259.858,28.763 256.800 C 28.853 255.370,28.781 251.020,28.602 247.132 C 27.930 232.492,29.094 231.814,53.800 232.429 C 58.860 232.555,77.040 232.614,94.200 232.560 C 117.925 232.484,126.428 232.586,129.691 232.983 C 133.059 233.392,134.576 233.404,136.744 233.035 C 139.002 232.652,247.410 232.495,260.200 232.857 C 261.300 232.888,266.790 232.896,272.400 232.875 C 278.010 232.854,283.860 232.853,285.400 232.873 C 294.021 232.983,347.561 232.444,352.800 232.194 C 365.040 231.610,373.844 232.870,375.913 235.502 C 378.624 238.951,378.841 241.549,377.762 257.552 C 377.638 259.395,377.736 262.054,377.981 263.460 C 378.291 265.242,378.406 278.170,378.358 306.109 C 378.320 328.159,378.359 347.820,378.445 349.800 C 378.619 353.830,378.627 352.525,378.235 382.600 C 377.861 411.313,377.858 409.660,378.283 413.800 C 378.518 416.086,378.505 419.297,378.249 422.600 C 378.027 425.460,377.862 428.610,377.884 429.600 C 378.521 458.865,378.352 473.068,377.255 482.600 C 376.936 485.377,377.042 486.952,378.006 493.700 L 378.507 497.200 389.253 497.200 L 400.000 497.200 400.000 248.600 L 400.000 0.000 200.000 0.000 L 0.000 0.000 0.000 248.600 M72.071 9.395 C 75.780 11.267,75.796 11.284,77.222 14.788 C 81.727 25.859,65.606 33.951,58.472 24.200 C 54.061 18.171,56.035 12.013,63.400 8.828 C 66.862 7.331,68.150 7.415,72.071 9.395 M136.510 24.184 C 144.952 28.190,145.720 38.072,137.939 42.575 C 134.478 44.579,131.714 44.894,129.312 43.560 C 124.695 40.997,124.034 40.365,122.473 37.020 C 119.041 29.664,128.954 20.599,136.510 24.184 M356.200 28.031 C 357.409 28.571,361.701 32.694,362.385 33.972 C 366.556 41.765,353.633 53.528,346.245 48.664 C 339.129 43.979,337.366 39.495,340.247 33.411 C 342.808 28.001,350.402 25.440,356.200 28.031 M199.800 33.063 C 203.842 33.287,204.460 33.433,207.400 34.859 C 209.538 35.896,211.795 36.617,214.200 37.032 C 217.104 37.533,218.032 37.871,219.000 38.782 C 220.293 39.998,222.002 40.944,223.600 41.328 C 225.151 41.701,230.769 45.600,233.091 47.915 C 234.242 49.062,235.351 50.000,235.557 50.000 C 235.763 50.000,236.474 50.739,237.138 51.642 C 239.879 55.369,243.563 56.970,247.458 56.126 C 254.790 54.538,272.318 57.198,279.600 61.004 C 281.703 62.103,282.348 62.303,285.384 62.797 C 286.925 63.048,288.244 63.601,289.523 64.533 C 290.555 65.286,292.351 66.380,293.514 66.964 C 294.676 67.549,295.938 68.336,296.318 68.714 C 296.698 69.091,297.907 70.107,299.005 70.970 C 300.102 71.834,301.285 72.852,301.634 73.233 C 301.983 73.614,303.252 74.555,304.454 75.324 C 306.232 76.461,307.006 77.345,308.601 80.061 C 309.680 81.898,311.079 83.889,311.710 84.487 C 312.340 85.085,313.699 86.710,314.728 88.098 C 315.758 89.486,317.680 91.606,319.000 92.809 C 320.320 94.011,322.773 96.328,324.450 97.957 C 328.737 102.119,330.415 102.799,333.120 101.469 C 336.324 99.893,340.164 99.418,343.669 100.163 C 347.931 101.069,347.890 101.044,349.772 103.837 C 350.647 105.137,351.740 106.563,352.201 107.006 C 354.150 108.882,355.570 112.381,356.240 116.962 C 356.597 119.403,357.247 122.358,357.684 123.528 C 358.518 125.761,358.502 126.524,357.530 131.200 C 357.203 132.774,357.096 134.589,357.260 135.800 C 357.764 139.535,357.607 141.800,356.634 144.811 C 355.707 147.677,355.315 149.867,354.435 157.087 C 354.020 160.490,353.148 162.800,352.279 162.800 C 351.583 162.800,350.699 163.913,349.137 166.757 C 347.479 169.775,346.639 170.204,341.210 170.800 C 338.906 171.053,336.926 171.283,336.810 171.311 C 335.588 171.608,333.498 170.584,332.515 169.209 C 330.281 166.082,326.738 166.564,324.586 170.287 C 323.978 171.339,322.382 173.357,321.040 174.770 C 315.159 180.965,312.706 182.919,309.701 183.798 C 307.073 184.568,304.273 185.797,302.767 186.842 C 302.199 187.236,300.787 187.932,299.628 188.389 C 298.469 188.846,296.954 189.638,296.261 190.150 C 294.816 191.217,293.113 191.710,287.154 192.785 C 284.402 193.282,281.658 194.104,279.354 195.122 C 277.399 195.986,274.900 196.923,273.800 197.204 C 270.631 198.014,268.920 199.163,267.297 201.570 C 266.474 202.791,265.080 204.530,264.200 205.434 C 260.386 209.355,258.400 211.586,258.400 211.949 C 258.400 212.399,253.851 215.652,251.654 216.773 C 248.666 218.297,247.526 218.250,244.934 216.496 C 243.650 215.627,241.880 214.438,241.000 213.853 C 237.182 211.315,233.990 207.585,233.082 204.599 C 231.252 198.584,229.826 197.740,222.963 198.610 C 221.276 198.824,220.289 198.648,217.213 197.583 C 214.611 196.682,212.842 196.312,211.304 196.348 C 210.097 196.376,208.030 196.119,206.711 195.777 C 202.456 194.674,200.990 195.695,199.214 201.000 C 197.707 205.504,197.521 205.784,191.709 212.334 C 190.472 213.728,188.854 215.663,188.112 216.634 C 187.370 217.605,186.637 218.402,186.482 218.404 C 186.327 218.407,185.120 219.221,183.800 220.213 C 179.526 223.428,175.583 223.624,172.381 220.782 C 171.401 219.912,170.373 219.201,170.096 219.201 C 168.679 219.199,163.201 213.099,162.413 210.646 C 161.981 209.301,161.058 206.580,160.363 204.600 C 158.689 199.832,158.412 195.912,159.516 192.600 C 159.956 191.280,160.440 189.570,160.592 188.800 C 160.744 188.030,161.316 186.257,161.863 184.859 C 163.234 181.359,162.658 177.294,160.644 176.250 C 158.971 175.383,158.110 174.793,156.739 173.574 C 156.104 173.010,154.656 172.047,153.521 171.434 C 152.386 170.821,150.995 169.764,150.429 169.084 C 148.045 166.219,145.040 163.198,143.543 162.161 C 142.661 161.549,141.568 160.318,141.115 159.425 C 140.246 157.712,140.008 157.393,135.584 152.017 C 134.053 150.156,132.800 148.473,132.800 148.276 C 132.800 147.484,129.673 141.357,128.962 140.757 C 126.835 138.961,123.600 139.717,123.600 142.010 C 123.600 143.219,109.390 158.348,108.217 158.387 C 108.006 158.394,107.196 159.018,106.417 159.772 C 105.600 160.564,103.838 161.579,102.255 162.171 C 100.745 162.736,98.648 163.831,97.595 164.604 C 96.541 165.377,94.807 166.393,93.740 166.862 C 92.673 167.331,91.022 168.246,90.071 168.896 C 86.846 171.101,83.363 171.774,79.015 171.033 C 76.972 170.685,73.787 170.400,71.937 170.400 L 68.573 170.400 65.986 168.443 C 61.748 165.235,59.104 161.856,58.682 159.107 C 58.556 158.286,57.972 156.070,57.384 154.184 C 56.101 150.070,56.167 147.286,57.700 140.800 C 58.246 138.490,58.819 135.908,58.972 135.061 C 59.144 134.112,59.754 133.020,60.564 132.210 C 61.286 131.487,62.302 130.290,62.822 129.548 C 63.342 128.807,64.093 127.962,64.492 127.671 C 64.891 127.381,65.936 126.169,66.815 124.979 C 69.000 122.022,72.017 119.856,75.390 118.824 C 76.925 118.355,78.905 117.552,79.790 117.040 C 83.694 114.785,85.863 114.260,92.259 114.024 C 100.083 113.735,101.419 112.669,98.806 108.800 C 98.434 108.250,98.018 107.488,97.880 107.107 C 97.743 106.726,96.910 105.916,96.030 105.307 C 95.150 104.698,94.424 104.000,94.415 103.755 C 94.407 103.510,93.542 102.507,92.494 101.527 C 91.446 100.546,89.976 98.587,89.227 97.172 C 88.479 95.757,87.740 94.510,87.586 94.400 C 86.411 93.564,84.822 89.803,84.206 86.400 C 83.828 84.310,83.267 81.724,82.959 80.654 C 80.925 73.578,86.760 63.584,93.584 62.457 C 99.929 61.410,104.445 62.066,107.118 64.424 C 108.153 65.337,110.026 66.603,111.279 67.237 C 112.939 68.077,114.148 69.125,115.728 71.095 C 116.922 72.583,118.907 74.835,120.139 76.099 C 123.169 79.207,124.770 81.892,124.794 83.904 C 124.797 84.182,125.695 86.252,126.789 88.504 C 128.173 91.353,129.012 93.766,129.547 96.430 C 129.970 98.537,130.675 101.057,131.114 102.030 C 131.552 103.004,132.041 104.610,132.200 105.600 C 132.511 107.534,133.407 110.000,133.799 110.000 C 134.495 110.000,136.380 108.674,137.734 107.233 C 138.577 106.335,139.422 105.600,139.610 105.600 C 139.799 105.600,140.529 104.520,141.232 103.200 C 141.936 101.880,142.646 100.800,142.810 100.800 C 144.182 100.800,145.567 95.880,145.484 91.296 C 145.370 84.934,147.359 81.858,153.654 78.662 C 155.686 77.630,157.200 74.490,157.200 71.305 C 157.200 68.027,159.495 64.803,163.241 62.819 C 164.649 62.074,166.439 61.065,167.220 60.578 C 168.250 59.934,169.771 59.568,172.763 59.243 C 177.581 58.718,177.408 58.793,178.006 56.982 C 178.448 55.643,178.399 55.496,177.007 53.955 C 173.283 49.833,173.213 46.304,176.715 39.214 C 177.763 37.093,182.118 33.786,184.566 33.253 C 185.685 33.009,186.960 32.726,187.400 32.624 C 188.163 32.448,189.774 32.505,199.800 33.063 M67.962 51.092 C 69.669 52.388,71.582 54.413,71.644 54.989 C 71.918 57.526,70.144 60.465,67.508 61.842 C 63.147 64.120,57.043 57.572,59.867 53.644 C 62.343 50.199,65.483 49.209,67.962 51.092 M354.274 62.827 C 358.043 64.255,359.667 68.698,357.521 71.711 C 354.109 76.503,348.151 76.333,345.806 71.376 C 343.247 65.966,348.517 60.645,354.274 62.827 M355.051 89.167 C 357.577 90.314,357.614 93.125,355.136 95.602 C 352.318 98.421,347.628 93.884,349.584 90.230 C 350.512 88.496,352.655 88.079,355.051 89.167 M116.400 178.606 C 119.341 180.089,119.800 180.841,119.800 184.182 C 119.800 187.523,119.491 188.057,116.891 189.207 C 107.752 193.250,101.713 183.045,110.403 178.243 C 112.451 177.112,113.570 177.179,116.400 178.606 M328.549 196.564 C 331.951 198.114,332.734 199.151,333.071 202.545 C 333.834 210.232,323.234 213.912,318.789 207.503 C 316.067 203.578,316.168 204.093,317.546 201.176 C 319.303 197.457,320.420 196.619,325.478 195.222 C 325.521 195.210,326.903 195.814,328.549 196.564 M115.483 198.069 C 117.591 199.819,117.779 204.218,115.801 205.500 C 112.339 207.742,106.488 205.944,106.913 202.769 C 107.531 198.167,112.390 195.502,115.483 198.069 M113.836 214.467 C 115.100 214.924,115.838 216.810,115.317 218.248 C 114.712 219.916,109.990 219.967,108.226 218.324 L 107.412 217.566 108.206 216.098 C 109.264 214.141,111.302 213.551,113.836 214.467 " stroke="none" fill="#07bff1" fill-rule="evenodd"></path><path id="path2" d="M63.400 8.828 C 56.035 12.013,54.061 18.171,58.472 24.200 C 62.344 29.492,70.356 30.067,74.895 25.378 C 80.175 19.923,78.926 12.855,72.071 9.395 C 68.150 7.415,66.862 7.331,63.400 8.828 M129.875 23.735 C 126.034 24.983,121.511 30.397,121.525 33.731 C 121.537 36.325,123.982 40.409,126.400 41.873 C 130.897 44.596,132.350 44.925,135.200 43.869 C 141.763 41.438,144.811 36.179,142.791 30.775 C 140.844 25.569,134.639 22.187,129.875 23.735 M345.715 27.903 C 342.539 29.243,340.040 32.595,338.808 37.171 C 337.949 40.361,341.152 45.311,346.245 48.664 C 353.633 53.528,366.556 41.765,362.385 33.972 C 361.701 32.694,357.409 28.571,356.200 28.031 C 354.206 27.140,347.713 27.061,345.715 27.903 M62.586 51.059 C 58.371 53.793,57.894 56.784,61.156 60.041 C 65.047 63.926,71.144 61.801,71.604 56.400 C 71.736 54.837,71.670 54.654,70.500 53.381 C 67.292 49.888,65.295 49.302,62.586 51.059 M348.914 62.844 C 344.183 64.211,343.927 72.334,348.549 74.433 C 353.952 76.886,360.339 71.728,358.066 66.747 C 356.347 62.980,353.154 61.618,348.914 62.844 M351.132 88.908 C 347.912 90.185,349.497 96.800,353.023 96.800 C 354.957 96.800,357.905 91.864,356.921 90.272 C 356.136 89.003,352.848 88.228,351.132 88.908 M336.100 109.566 C 334.285 111.286,332.800 112.904,332.800 113.161 C 332.800 113.624,331.653 115.615,331.165 116.000 C 330.536 116.497,329.563 118.972,328.787 122.050 C 328.323 123.892,327.495 126.374,326.946 127.565 C 325.338 131.056,325.107 133.276,325.600 140.506 C 326.386 152.046,329.693 159.258,336.540 164.365 L 339.285 166.412 340.743 165.537 C 347.382 161.551,348.177 160.495,349.588 153.800 C 350.171 151.032,350.842 149.122,351.765 147.600 C 354.110 143.732,354.493 127.176,352.293 124.698 C 351.104 123.358,350.019 120.775,350.009 119.262 C 349.992 116.742,348.387 112.292,346.950 110.783 C 346.207 110.004,345.600 109.165,345.600 108.919 C 345.600 107.812,343.154 106.400,341.269 106.418 C 339.493 106.436,339.236 106.593,336.100 109.566 M345.467 119.685 C 346.195 120.413,346.537 121.357,346.823 123.429 C 347.082 125.300,347.449 126.403,347.955 126.825 C 350.286 128.772,351.827 134.122,350.674 136.271 C 348.944 139.494,347.440 144.182,346.854 148.173 C 346.201 152.622,344.065 154.362,340.153 153.631 C 336.454 152.940,334.958 150.409,334.422 143.937 C 334.216 141.442,333.756 138.158,333.401 136.640 C 332.730 133.773,333.672 129.161,335.450 126.611 C 335.752 126.177,336.000 125.500,336.000 125.106 C 336.000 124.712,336.151 124.077,336.335 123.695 C 336.519 123.313,337.014 122.297,337.435 121.437 C 338.924 118.395,343.236 117.455,345.467 119.685 M110.403 178.243 C 103.500 182.057,105.494 190.358,113.244 190.073 C 120.630 189.801,122.820 181.843,116.400 178.606 C 113.570 177.179,112.451 177.112,110.403 178.243 M323.058 195.991 C 320.115 196.931,319.101 197.885,317.546 201.176 C 316.168 204.093,316.067 203.578,318.789 207.503 C 324.329 215.490,336.676 207.856,332.205 199.209 C 331.672 198.179,326.300 194.994,325.478 195.222 C 325.435 195.233,324.346 195.580,323.058 195.991 M110.000 197.702 C 106.974 198.779,105.841 203.720,108.246 205.354 C 111.735 207.724,117.185 206.259,117.195 202.949 C 117.208 198.466,114.140 196.228,110.000 197.702 M110.000 214.355 C 109.421 214.514,108.665 215.248,108.206 216.098 L 107.412 217.566 108.226 218.324 C 109.990 219.967,114.712 219.916,115.317 218.248 C 116.358 215.378,113.606 213.363,110.000 214.355 M352.600 240.796 C 351.500 240.980,280.514 241.142,194.853 241.156 C 90.359 241.172,38.945 241.314,38.617 241.585 C 38.349 241.808,37.941 242.668,37.712 243.495 C 37.377 244.702,37.226 470.520,37.545 493.300 L 37.600 497.200 204.052 497.200 L 370.503 497.200 370.152 494.300 C 369.773 491.175,369.789 486.599,370.234 471.000 C 370.607 457.958,370.643 450.642,370.403 437.000 C 370.295 430.840,370.363 423.550,370.555 420.800 C 370.815 417.061,370.768 415.043,370.366 412.800 C 369.757 409.394,369.751 408.777,370.201 394.800 C 370.382 389.190,370.522 383.745,370.512 382.700 C 370.502 381.655,370.502 378.280,370.512 375.200 C 370.523 372.120,370.522 366.765,370.510 363.300 C 370.498 359.835,370.497 354.390,370.509 351.200 C 370.548 340.515,370.560 313.059,370.527 307.600 C 370.509 304.630,370.491 301.210,370.487 300.000 C 370.483 298.790,370.438 296.810,370.386 295.600 C 370.335 294.390,370.307 289.440,370.324 284.600 C 370.341 279.760,370.213 271.797,370.039 266.904 C 369.804 260.310,369.857 256.998,370.242 254.104 C 370.997 248.430,370.931 244.927,370.032 242.948 L 369.282 241.296 365.341 241.060 C 356.245 240.514,354.502 240.478,352.600 240.796 M206.008 270.500 C 208.169 271.966,208.336 273.006,208.367 285.200 C 208.396 296.385,208.162 298.683,206.867 299.964 C 204.911 301.899,206.984 301.787,169.350 302.000 L 134.022 302.200 133.143 303.079 L 132.265 303.957 132.312 323.920 C 132.362 345.031,132.502 346.693,134.286 347.378 C 134.630 347.510,149.813 347.612,168.028 347.605 C 202.626 347.591,202.065 347.565,204.378 349.303 C 206.155 350.638,206.328 352.015,206.238 364.123 C 206.145 376.755,206.098 376.994,203.389 378.896 L 201.779 380.026 168.891 380.007 C 134.295 379.987,134.303 379.987,132.854 381.734 C 132.400 382.282,132.315 389.916,132.347 427.296 C 132.390 477.364,132.574 474.045,129.658 475.742 C 127.651 476.910,99.588 476.839,98.006 475.663 C 95.997 474.167,96.070 478.017,96.056 373.133 C 96.042 263.411,95.798 271.430,99.187 269.928 C 99.524 269.779,123.398 269.644,152.241 269.628 L 204.682 269.600 206.008 270.500 M298.400 270.166 C 305.173 271.068,307.208 271.976,309.917 275.308 L 311.234 276.928 311.117 288.422 C 310.981 301.750,311.094 301.356,307.283 301.832 C 305.554 302.048,304.178 301.894,301.223 301.156 C 293.447 299.212,283.697 300.301,281.424 303.368 C 277.785 308.279,277.197 311.691,277.213 327.826 C 277.230 345.355,276.285 344.000,288.495 344.000 L 296.643 344.000 297.897 345.300 C 299.910 347.387,300.000 348.009,300.000 359.848 C 300.000 376.153,300.393 375.608,288.544 375.731 C 279.264 375.828,278.444 376.015,277.646 378.223 C 277.268 379.270,277.170 390.262,277.221 426.290 C 277.291 475.938,277.344 474.490,275.411 475.756 C 273.874 476.763,246.286 476.787,244.268 475.783 C 241.436 474.375,241.600 477.436,241.596 426.051 C 241.593 400.613,241.484 379.153,241.353 378.361 C 240.927 375.784,239.965 375.527,231.294 375.674 C 219.067 375.880,219.600 376.606,219.600 359.742 C 219.600 343.260,219.019 344.000,231.955 344.000 L 239.942 344.000 240.771 342.946 C 241.562 341.940,241.600 341.409,241.600 331.354 C 241.600 318.353,242.108 311.963,243.600 306.200 C 244.226 303.780,244.954 300.630,245.216 299.200 C 245.479 297.770,246.103 295.959,246.602 295.176 C 247.102 294.393,247.904 292.863,248.384 291.776 C 248.865 290.689,249.519 289.224,249.838 288.521 C 250.480 287.105,255.518 281.080,257.400 279.477 C 260.163 277.123,262.697 275.410,264.169 274.900 C 265.032 274.601,266.202 274.030,266.769 273.631 C 271.663 270.185,286.411 268.570,298.400 270.166 " stroke="none" fill="#f9f8f9" fill-rule="evenodd"></path><path id="path3" d="M197.910 36.223 C 197.610 36.524,190.554 37.584,188.794 37.593 C 188.020 37.597,186.760 37.957,185.994 38.393 C 185.227 38.829,183.655 39.652,182.500 40.222 C 181.345 40.792,180.400 41.397,180.400 41.568 C 180.400 41.738,180.021 42.310,179.558 42.839 C 179.094 43.367,178.165 44.595,177.493 45.566 L 176.271 47.331 177.236 49.160 C 178.555 51.661,180.333 53.613,181.884 54.261 C 183.374 54.883,184.422 56.626,184.813 59.132 C 185.163 61.379,184.117 61.933,180.948 61.182 C 178.707 60.651,178.354 60.692,172.875 62.138 C 169.411 63.052,168.356 63.591,166.803 65.241 C 166.471 65.593,165.642 66.169,164.959 66.520 C 162.372 67.852,161.051 73.004,162.552 75.906 C 162.908 76.596,163.200 77.703,163.200 78.366 C 163.200 79.766,164.086 80.396,166.074 80.409 C 169.290 80.430,171.640 82.339,169.700 83.356 C 169.095 83.673,168.223 84.288,167.762 84.724 C 167.302 85.159,166.312 85.827,165.562 86.208 C 162.638 87.694,159.600 89.738,159.600 90.218 C 159.600 90.495,159.033 90.919,158.340 91.161 C 154.528 92.490,152.980 90.645,156.422 88.874 C 157.956 88.085,163.200 82.982,163.200 82.279 C 163.200 81.066,162.698 80.400,161.783 80.400 C 161.271 80.400,160.345 80.203,159.726 79.962 C 155.189 78.195,153.707 78.258,150.894 80.338 C 149.879 81.089,149.688 81.424,150.035 81.842 C 150.465 82.360,148.454 83.991,147.443 83.945 C 146.511 83.902,145.522 86.475,145.462 89.098 L 145.400 91.800 146.533 91.680 C 151.383 91.165,152.811 94.856,149.027 98.124 C 147.831 99.156,146.582 100.000,146.250 100.000 C 145.919 100.000,145.536 100.180,145.400 100.400 C 145.264 100.620,144.558 100.800,143.832 100.800 C 142.627 100.800,142.400 101.010,141.232 103.200 C 140.529 104.520,139.799 105.600,139.610 105.600 C 139.422 105.600,138.577 106.335,137.734 107.233 C 136.380 108.674,134.495 110.000,133.799 110.000 C 133.407 110.000,132.511 107.534,132.200 105.600 C 132.041 104.610,131.552 103.004,131.114 102.030 C 130.675 101.057,129.980 98.587,129.568 96.541 C 128.737 92.407,127.714 89.587,127.281 90.236 C 126.154 91.929,124.800 89.817,124.800 86.365 C 124.800 85.928,124.028 84.812,123.083 83.885 C 122.139 82.958,120.868 81.539,120.259 80.731 C 119.650 79.923,118.632 79.080,117.997 78.859 C 116.917 78.482,116.574 78.003,114.215 73.570 C 113.761 72.716,110.389 71.006,108.400 70.621 C 106.225 70.200,104.723 69.552,103.200 68.378 C 100.510 66.305,96.045 66.484,93.927 68.751 C 93.309 69.412,92.287 70.258,91.656 70.630 C 86.556 73.643,87.152 89.957,92.635 97.434 C 93.132 98.112,93.598 99.282,93.670 100.034 C 93.779 101.177,94.007 101.461,95.070 101.774 C 96.467 102.186,97.367 103.643,96.979 104.865 C 96.844 105.290,96.952 105.902,97.220 106.224 C 97.487 106.546,98.017 107.392,98.398 108.104 C 98.808 108.872,99.561 109.541,100.245 109.747 C 100.880 109.938,101.713 110.253,102.095 110.447 C 102.477 110.641,103.124 110.800,103.533 110.800 C 103.941 110.800,104.575 111.131,104.941 111.535 C 106.095 112.810,104.675 113.644,101.344 113.648 C 99.835 113.650,96.781 113.746,94.557 113.862 L 90.514 114.071 89.399 115.836 C 88.403 117.412,87.994 117.687,85.589 118.403 C 82.882 119.209,80.273 120.979,75.400 125.313 C 74.300 126.292,72.665 127.550,71.767 128.109 C 68.745 129.990,64.726 136.750,63.625 141.800 C 63.338 143.120,62.946 144.830,62.754 145.600 C 61.735 149.687,62.763 155.414,64.916 157.646 C 65.622 158.378,66.761 159.758,67.447 160.713 C 68.133 161.668,69.240 162.753,69.907 163.125 C 70.574 163.496,71.854 164.316,72.751 164.947 C 74.381 166.094,74.383 166.094,77.091 165.569 C 78.581 165.280,81.510 165.071,83.600 165.105 C 86.732 165.156,87.857 164.997,90.000 164.202 C 91.430 163.671,93.602 162.963,94.827 162.628 C 96.052 162.294,97.492 161.633,98.027 161.160 C 98.562 160.687,99.450 160.097,100.000 159.850 C 101.518 159.167,106.000 156.016,106.000 155.632 C 106.000 155.445,106.992 154.890,108.205 154.398 C 109.418 153.906,110.834 152.999,111.352 152.384 C 112.040 151.567,112.817 151.186,114.234 150.974 C 116.597 150.620,117.373 149.945,117.023 148.550 C 116.670 147.142,117.441 146.302,118.811 146.602 C 119.689 146.795,120.094 146.603,120.947 145.590 C 122.030 144.303,122.065 144.219,122.150 142.712 C 122.179 142.197,122.620 141.613,123.200 141.323 C 123.750 141.048,124.210 140.502,124.223 140.111 C 124.262 138.906,125.483 134.800,125.803 134.800 C 127.200 134.800,131.600 138.794,131.600 140.063 C 131.600 140.360,132.754 141.851,134.165 143.378 C 135.576 144.904,136.827 146.635,136.945 147.224 C 137.163 148.313,141.747 153.327,143.634 154.540 C 144.202 154.906,144.920 155.699,145.228 156.303 C 145.537 156.906,146.176 157.760,146.649 158.200 C 148.421 159.849,151.345 162.216,152.160 162.661 C 152.624 162.915,153.573 163.831,154.268 164.695 C 155.195 165.849,156.197 166.510,158.031 167.179 C 159.498 167.714,161.290 168.775,162.366 169.745 C 165.231 172.330,165.529 172.486,169.000 173.221 C 170.320 173.500,171.524 173.835,171.675 173.964 C 172.284 174.486,170.447 178.521,168.867 180.134 C 167.968 181.050,166.950 182.603,166.605 183.584 C 166.259 184.565,165.843 185.465,165.680 185.584 C 165.053 186.041,163.132 190.766,163.398 191.196 C 163.482 191.333,163.833 194.045,164.177 197.222 C 164.899 203.880,165.134 205.200,165.599 205.200 C 165.784 205.200,166.310 206.325,166.768 207.700 C 169.562 216.078,180.673 218.867,186.649 212.691 C 187.336 211.981,188.326 211.028,188.849 210.573 C 189.372 210.119,190.085 209.399,190.433 208.973 C 190.780 208.548,191.722 207.613,192.526 206.896 C 193.329 206.179,194.110 205.099,194.261 204.496 C 194.784 202.407,196.019 200.048,196.708 199.823 C 197.089 199.698,197.803 199.012,198.294 198.298 C 198.786 197.584,199.451 196.640,199.770 196.200 C 200.090 195.760,200.700 194.093,201.126 192.495 C 202.709 186.557,203.762 185.878,208.188 187.949 C 210.819 189.179,213.544 189.907,218.090 190.594 C 220.449 190.950,223.149 191.483,224.090 191.778 C 225.030 192.072,229.083 192.523,233.095 192.780 C 237.107 193.037,241.337 193.400,242.495 193.587 C 245.288 194.038,255.617 193.058,261.532 191.779 C 264.667 191.102,267.318 190.800,270.132 190.799 C 274.771 190.799,278.773 190.161,284.800 188.461 C 287.110 187.809,290.306 187.077,291.901 186.834 C 293.497 186.591,295.927 185.954,297.301 185.418 C 298.676 184.882,300.300 184.339,300.910 184.211 C 301.521 184.084,302.362 183.638,302.780 183.220 C 304.212 181.788,305.749 181.214,310.285 180.414 C 311.478 180.204,312.883 180.194,313.571 180.392 C 315.297 180.887,316.867 179.635,316.544 178.022 C 316.304 176.819,317.226 176.128,318.445 176.596 C 319.172 176.875,323.134 172.799,324.598 170.266 C 325.262 169.118,326.231 168.086,326.983 167.727 C 328.057 167.216,328.224 166.947,328.080 165.967 C 327.520 162.151,330.722 161.278,332.602 164.734 C 334.956 169.057,341.524 169.743,346.273 166.160 C 346.974 165.632,348.064 165.200,348.696 165.200 C 349.903 165.200,351.200 163.192,351.200 161.325 C 351.200 160.882,351.365 159.998,351.567 159.360 C 351.769 158.722,352.041 157.709,352.173 157.108 C 352.304 156.508,352.915 155.501,353.530 154.871 C 354.394 153.988,354.767 153.050,355.164 150.763 C 355.447 149.133,356.111 146.455,356.640 144.811 C 357.607 141.800,357.764 139.517,357.258 135.800 C 357.108 134.700,357.142 132.975,357.333 131.966 C 357.633 130.381,357.542 129.858,356.664 128.127 C 356.106 127.024,355.347 124.430,354.978 122.361 C 354.395 119.089,352.492 114.041,350.772 111.200 C 350.572 110.870,350.001 109.925,349.504 109.100 C 349.007 108.274,348.285 107.497,347.900 107.373 C 347.515 107.248,347.200 107.008,347.200 106.839 C 347.200 104.414,342.990 102.117,341.154 103.539 C 340.629 103.945,339.709 104.398,339.109 104.544 C 337.959 104.825,334.188 107.679,332.258 109.729 C 330.814 111.263,330.232 110.961,328.586 107.823 C 327.846 106.414,326.902 105.253,326.171 104.855 C 323.645 103.476,320.778 100.569,319.794 98.387 C 319.378 97.463,318.749 96.774,318.198 96.635 C 317.607 96.487,317.060 95.833,316.632 94.763 C 316.270 93.858,314.920 92.012,313.631 90.659 C 308.793 85.580,307.351 84.139,305.600 82.632 C 304.610 81.780,302.630 79.967,301.200 78.604 C 299.770 77.240,297.880 75.642,297.000 75.052 C 296.120 74.463,294.680 73.451,293.800 72.804 C 292.920 72.156,291.951 71.621,291.647 71.613 C 290.893 71.595,288.498 70.117,286.800 68.622 C 286.030 67.944,284.680 67.178,283.800 66.919 C 282.920 66.660,281.210 66.155,280.000 65.796 C 278.790 65.438,276.450 64.630,274.800 64.002 C 270.074 62.200,262.820 61.492,249.800 61.558 C 241.683 61.600,234.538 60.866,233.955 59.932 C 233.773 59.639,233.518 58.590,233.390 57.600 C 233.261 56.610,233.080 55.440,232.987 55.000 C 232.704 53.661,228.594 49.741,226.724 49.025 C 225.644 48.611,224.672 47.863,224.121 47.021 C 223.375 45.879,222.809 45.565,220.372 44.938 C 217.798 44.276,215.200 42.605,215.200 41.610 C 215.200 40.946,212.672 40.079,210.065 39.848 C 207.084 39.584,204.917 38.769,202.441 36.981 C 201.182 36.073,198.508 35.625,197.910 36.223 M224.189 57.060 C 224.623 57.357,225.276 57.600,225.640 57.600 C 226.004 57.600,226.512 57.852,226.768 58.161 C 227.024 58.470,228.261 59.213,229.517 59.812 L 231.800 60.903 230.200 61.474 C 228.644 62.029,226.555 62.003,222.496 61.378 C 221.197 61.178,220.368 61.315,219.001 61.958 C 218.015 62.421,216.802 62.806,216.304 62.814 C 215.807 62.822,214.950 63.086,214.400 63.400 C 213.384 63.981,209.554 64.220,209.067 63.734 C 208.188 62.855,214.356 58.475,218.000 57.390 C 218.550 57.226,219.334 56.861,219.743 56.578 C 220.604 55.983,222.994 56.242,224.189 57.060 M188.746 71.223 C 189.641 72.825,188.704 74.279,186.061 75.384 C 184.885 75.876,183.801 76.474,183.653 76.714 C 182.949 77.854,177.797 78.492,176.405 77.611 C 175.911 77.299,176.047 76.981,177.205 75.745 C 177.972 74.925,179.169 73.646,179.865 72.902 C 182.454 70.133,187.594 69.161,188.746 71.223 M298.028 88.700 C 300.434 90.737,300.996 91.441,302.257 94.000 C 302.853 95.210,303.654 96.830,304.037 97.600 C 305.315 100.170,305.771 103.938,304.925 104.941 C 302.820 107.435,298.910 107.014,297.172 104.105 C 296.677 103.277,295.866 102.150,295.369 101.600 C 294.033 100.122,292.561 96.495,291.981 93.249 C 291.408 90.041,291.916 88.982,294.600 87.796 C 296.235 87.073,296.047 87.023,298.028 88.700 M281.162 91.700 C 287.582 96.587,287.335 113.667,280.845 113.581 C 277.978 113.543,276.779 112.544,274.623 108.400 L 272.646 104.600 272.624 100.200 C 272.584 92.158,276.561 88.198,281.162 91.700 M344.369 107.436 C 345.046 108.005,345.600 108.673,345.600 108.919 C 345.600 109.165,346.207 110.004,346.950 110.783 C 348.387 112.292,349.992 116.742,350.009 119.262 C 350.019 120.775,351.104 123.358,352.293 124.698 C 354.493 127.176,354.110 143.732,351.765 147.600 C 350.842 149.122,350.171 151.032,349.588 153.800 C 348.177 160.495,347.382 161.551,340.743 165.537 L 339.285 166.412 336.540 164.365 C 329.693 159.258,326.386 152.046,325.600 140.506 C 325.107 133.276,325.338 131.056,326.946 127.565 C 327.495 126.374,328.323 123.892,328.787 122.050 C 329.563 118.972,330.536 116.497,331.165 116.000 C 331.653 115.615,332.800 113.624,332.800 113.161 C 332.800 112.904,334.285 111.286,336.100 109.566 C 339.981 105.886,341.931 105.384,344.369 107.436 M170.189 112.435 C 169.057 112.878,166.000 112.869,166.000 112.424 C 166.000 112.001,168.483 111.714,169.989 111.964 C 170.899 112.114,170.915 112.152,170.189 112.435 M210.641 115.836 C 211.590 118.107,210.714 124.000,209.428 124.000 C 207.845 124.000,207.149 117.911,208.465 115.571 C 209.433 113.847,209.830 113.895,210.641 115.836 M162.826 115.614 C 163.826 116.149,163.804 117.158,162.746 119.335 C 161.294 122.325,162.499 126.468,165.164 127.648 C 166.229 128.120,166.400 128.403,166.400 129.698 L 166.400 131.200 163.982 131.200 C 160.816 131.200,159.600 130.152,159.600 127.424 C 159.600 126.162,159.213 124.873,158.324 123.177 L 157.048 120.743 158.024 118.936 C 159.796 115.654,161.150 114.717,162.826 115.614 M142.869 119.062 C 143.833 119.935,143.840 119.900,142.051 122.963 C 140.504 125.609,140.502 125.621,140.702 129.128 C 141.035 134.972,139.570 135.440,137.074 130.285 C 135.638 127.322,136.680 120.009,138.705 118.829 C 139.783 118.201,142.058 118.329,142.869 119.062 M339.600 119.113 C 338.777 119.560,337.884 120.519,337.435 121.437 C 337.014 122.297,336.519 123.313,336.335 123.695 C 336.151 124.077,336.000 124.712,336.000 125.106 C 336.000 125.500,335.752 126.177,335.450 126.611 C 333.672 129.161,332.730 133.773,333.401 136.640 C 333.756 138.158,334.216 141.442,334.422 143.937 C 334.958 150.409,336.454 152.940,340.153 153.631 C 344.065 154.362,346.201 152.622,346.854 148.173 C 347.440 144.182,348.944 139.494,350.674 136.271 C 351.827 134.122,350.286 128.772,347.955 126.825 C 347.449 126.403,347.082 125.300,346.823 123.429 C 346.209 118.988,343.169 117.172,339.600 119.113 M343.535 121.637 C 344.508 121.976,344.871 122.404,345.150 123.537 C 345.348 124.342,345.984 126.890,346.564 129.200 C 347.871 134.405,347.863 133.473,346.639 138.282 C 346.046 140.613,345.600 143.479,345.600 144.963 C 345.600 149.123,344.186 150.985,341.118 150.865 C 337.936 150.741,336.800 149.050,336.800 144.438 C 336.800 142.658,336.521 139.583,336.180 137.606 C 335.613 134.320,335.616 133.780,336.214 131.306 C 338.155 123.286,340.266 120.498,343.535 121.637 M210.305 131.700 C 211.031 133.827,211.096 134.498,210.747 136.200 C 209.597 141.800,209.894 143.388,212.574 145.978 C 213.713 147.079,214.000 147.661,214.000 148.865 C 214.000 149.694,214.300 151.054,214.667 151.886 C 216.476 155.987,216.889 156.775,217.487 157.268 C 217.844 157.560,218.655 158.944,219.290 160.342 C 219.926 161.739,221.213 163.719,222.152 164.742 C 223.090 165.764,224.265 167.275,224.762 168.100 C 225.259 168.925,225.987 169.825,226.379 170.100 C 226.771 170.375,227.697 171.496,228.436 172.591 C 229.175 173.686,230.388 175.116,231.132 175.769 C 231.875 176.422,232.617 177.316,232.779 177.755 C 232.941 178.194,234.138 179.299,235.437 180.210 C 239.706 183.202,237.348 185.925,232.309 183.820 C 230.713 183.153,224.000 176.700,224.000 175.833 C 224.000 175.514,222.548 173.687,220.773 171.771 C 218.606 169.432,217.143 167.419,216.320 165.644 C 215.646 164.190,214.421 162.280,213.598 161.400 C 211.976 159.665,210.800 156.720,210.800 154.391 C 210.800 153.346,210.320 152.187,209.133 150.362 C 207.324 147.583,207.153 146.368,208.211 143.835 C 209.210 141.444,208.978 139.076,207.544 137.042 C 205.221 133.745,205.552 129.200,208.116 129.200 C 209.397 129.200,209.487 129.303,210.305 131.700 M101.942 133.330 C 102.605 134.129,101.705 134.800,99.969 134.800 C 98.167 134.800,97.007 133.745,98.465 133.432 C 99.953 133.112,100.980 132.897,101.251 132.846 C 101.389 132.821,101.700 133.038,101.942 133.330 M157.264 133.234 L 158.075 133.668 157.257 134.540 C 155.744 136.149,155.092 138.355,155.378 140.887 L 155.640 143.200 154.068 143.200 C 150.685 143.200,147.375 137.271,149.172 134.431 C 150.018 133.094,155.490 132.285,157.264 133.234 M113.511 133.537 C 113.882 133.772,113.745 133.988,113.011 134.322 C 112.115 134.730,112.000 134.693,112.000 133.991 C 112.000 133.168,112.632 132.978,113.511 133.537 M162.520 147.300 C 164.335 149.413,162.022 151.655,160.000 149.741 C 159.450 149.220,158.565 148.464,158.033 148.060 C 157.374 147.558,157.152 147.102,157.335 146.625 C 157.720 145.622,161.501 146.114,162.520 147.300 M183.768 168.749 C 184.178 169.412,178.481 169.913,176.999 169.344 C 176.468 169.140,176.441 169.020,176.866 168.750 C 177.572 168.303,183.492 168.302,183.768 168.749 M197.156 175.993 C 199.921 178.356,198.501 185.112,194.925 186.605 C 194.196 186.910,193.600 187.348,193.600 187.580 C 193.600 187.811,193.024 188.000,192.320 188.000 C 191.324 188.000,191.147 187.893,191.520 187.520 C 191.784 187.256,192.000 186.697,192.000 186.278 C 192.000 185.859,192.466 184.962,193.035 184.286 C 194.183 182.921,194.143 180.610,192.929 178.262 C 191.824 176.127,192.507 175.192,195.400 174.876 C 195.620 174.852,196.410 175.355,197.156 175.993 M256.600 199.028 C 252.902 200.593,251.723 200.671,247.562 199.622 C 243.091 198.495,239.393 199.732,237.819 202.880 C 237.175 204.167,237.183 204.220,238.126 205.000 C 239.756 206.349,240.552 207.085,241.752 208.353 C 245.947 212.787,253.626 211.579,260.200 205.450 C 261.520 204.219,262.735 203.209,262.900 203.206 C 263.065 203.203,263.200 202.930,263.200 202.600 C 263.200 202.270,263.380 202.000,263.600 202.000 C 263.820 202.000,264.000 201.285,264.000 200.410 C 264.000 197.374,261.578 196.921,256.600 199.028 M353.400 238.013 C 349.087 239.434,345.658 239.545,303.600 239.626 C 255.673 239.719,256.464 239.728,254.450 239.018 C 253.217 238.583,252.290 238.565,249.757 238.926 C 248.021 239.174,244.890 239.317,242.800 239.244 C 240.710 239.170,236.750 239.129,234.000 239.151 C 231.250 239.173,222.970 239.167,215.600 239.138 C 186.681 239.021,169.909 239.099,153.800 239.427 C 134.349 239.822,131.513 239.799,124.979 239.191 C 121.499 238.866,117.329 238.856,109.979 239.154 C 98.185 239.632,61.547 239.654,58.600 239.185 C 57.448 239.002,54.880 239.054,52.543 239.310 C 48.942 239.703,48.212 239.670,46.063 239.019 C 38.339 236.680,34.647 240.437,34.816 250.463 C 34.873 253.838,34.900 261.640,34.877 267.800 C 34.853 273.960,34.891 290.610,34.961 304.800 C 35.031 318.990,35.068 332.670,35.044 335.200 C 34.964 343.574,35.004 356.956,35.117 359.800 C 35.178 361.340,35.111 369.980,34.968 379.000 C 34.825 388.020,34.706 396.660,34.703 398.200 C 34.700 399.740,34.710 414.770,34.724 431.600 C 34.739 448.430,34.720 463.730,34.683 465.600 C 34.598 469.905,34.821 484.049,35.090 491.500 L 35.297 497.200 36.353 497.200 L 37.408 497.200 37.348 371.100 C 37.287 244.952,37.309 242.671,38.613 241.589 C 38.933 241.324,92.185 241.129,196.648 241.012 C 283.302 240.915,355.550 240.802,357.200 240.760 C 358.850 240.719,362.246 240.828,364.746 241.001 L 369.292 241.318 370.037 242.959 C 370.931 244.927,370.995 248.441,370.242 254.104 C 369.857 256.998,369.804 260.310,370.039 266.904 C 370.213 271.797,370.341 279.760,370.324 284.600 C 370.307 289.440,370.335 294.390,370.386 295.600 C 370.438 296.810,370.483 298.790,370.487 300.000 C 370.491 301.210,370.509 304.630,370.527 307.600 C 370.560 313.059,370.548 340.515,370.509 351.200 C 370.497 354.390,370.498 359.835,370.510 363.300 C 370.522 366.765,370.523 372.120,370.512 375.200 C 370.502 378.280,370.502 381.655,370.512 382.700 C 370.522 383.745,370.382 389.190,370.201 394.800 C 369.751 408.777,369.757 409.394,370.366 412.800 C 370.768 415.043,370.815 417.061,370.555 420.800 C 370.363 423.550,370.295 430.840,370.403 437.000 C 370.698 453.796,370.439 474.501,369.826 483.123 C 369.305 490.447,370.119 497.200,371.524 497.200 L 372.517 497.200 372.182 494.100 C 371.753 490.139,371.758 489.403,372.339 469.800 C 372.696 457.768,372.714 450.150,372.410 441.200 C 372.134 433.111,372.126 427.652,372.387 425.000 C 372.945 419.313,372.890 415.397,372.188 410.718 C 371.851 408.476,371.689 406.362,371.828 406.021 C 372.180 405.159,372.454 388.326,372.411 370.200 C 372.392 361.840,372.393 353.740,372.413 352.200 C 372.448 349.551,372.396 297.951,372.356 295.400 C 372.313 292.721,372.235 271.615,372.237 263.200 C 372.238 258.250,372.390 252.207,372.575 249.772 C 373.147 242.253,372.003 240.136,367.069 239.583 C 365.431 239.399,363.396 238.951,362.546 238.588 C 360.715 237.804,355.104 237.451,353.400 238.013 M99.187 269.928 C 95.798 271.430,96.042 263.411,96.056 373.133 C 96.070 478.017,95.997 474.167,98.006 475.663 C 99.588 476.839,127.651 476.910,129.658 475.742 C 132.574 474.045,132.390 477.364,132.347 427.296 C 132.315 389.916,132.400 382.282,132.854 381.734 C 134.303 379.987,134.295 379.987,168.891 380.007 L 201.779 380.026 203.389 378.896 C 206.098 376.994,206.145 376.755,206.238 364.123 C 206.328 352.015,206.155 350.638,204.378 349.303 C 202.065 347.565,202.626 347.591,168.028 347.605 C 149.813 347.612,134.630 347.510,134.286 347.378 C 132.502 346.693,132.362 345.031,132.312 323.920 L 132.265 303.957 133.143 303.079 L 134.022 302.200 169.350 302.000 C 206.984 301.787,204.911 301.899,206.867 299.964 C 208.162 298.683,208.396 296.385,208.367 285.200 C 208.336 273.006,208.169 271.966,206.008 270.500 L 204.682 269.600 152.241 269.628 C 123.398 269.644,99.524 269.779,99.187 269.928 M279.600 270.042 C 272.132 270.886,269.702 271.565,266.769 273.631 C 266.202 274.030,265.032 274.601,264.169 274.900 C 262.697 275.410,260.163 277.123,257.400 279.477 C 255.518 281.080,250.480 287.105,249.838 288.521 C 249.519 289.224,248.865 290.689,248.384 291.776 C 247.904 292.863,247.102 294.393,246.602 295.176 C 246.103 295.959,245.479 297.770,245.216 299.200 C 244.954 300.630,244.226 303.780,243.600 306.200 C 242.108 311.963,241.600 318.353,241.600 331.354 C 241.600 341.409,241.562 341.940,240.771 342.946 L 239.942 344.000 231.955 344.000 C 219.019 344.000,219.600 343.260,219.600 359.742 C 219.600 376.606,219.067 375.880,231.294 375.674 C 239.965 375.527,240.927 375.784,241.353 378.361 C 241.484 379.153,241.593 400.613,241.596 426.051 C 241.600 477.436,241.436 474.375,244.268 475.783 C 246.286 476.787,273.874 476.763,275.411 475.756 C 277.344 474.490,277.291 475.938,277.221 426.290 C 277.170 390.262,277.268 379.270,277.646 378.223 C 278.444 376.015,279.264 375.828,288.544 375.731 C 300.393 375.608,300.000 376.153,300.000 359.848 C 300.000 348.009,299.910 347.387,297.897 345.300 L 296.643 344.000 288.495 344.000 C 276.285 344.000,277.230 345.355,277.213 327.826 C 277.197 311.691,277.785 308.279,281.424 303.368 C 283.697 300.301,293.447 299.212,301.223 301.156 C 304.178 301.894,305.554 302.048,307.283 301.832 C 311.094 301.356,310.981 301.750,311.117 288.422 L 311.234 276.928 309.917 275.308 C 308.412 273.457,305.562 271.460,303.800 271.023 C 298.658 269.746,286.559 269.256,279.600 270.042 M205.484 272.759 C 206.662 274.507,206.923 295.052,205.801 297.737 C 204.810 300.109,206.383 300.013,168.792 299.993 L 133.953 299.975 132.337 300.883 C 129.676 302.379,129.750 301.692,129.849 323.795 C 129.943 344.971,130.038 346.762,131.118 347.703 C 133.089 349.421,132.188 349.381,166.400 349.248 C 202.213 349.108,201.613 349.079,202.809 351.015 C 203.920 352.812,204.148 373.150,203.087 375.668 C 202.025 378.185,203.736 378.071,167.463 378.032 L 134.200 377.995 132.600 378.910 C 129.661 380.591,129.845 377.234,129.962 426.836 C 130.066 471.202,130.061 471.480,129.247 472.818 C 127.873 475.078,126.602 475.480,122.094 475.084 C 119.952 474.895,114.507 474.850,109.994 474.982 C 101.137 475.243,99.713 475.043,98.626 473.384 C 98.062 472.523,98.000 462.573,98.000 373.045 L 98.000 273.661 99.037 272.429 L 100.074 271.197 152.321 271.299 L 204.568 271.400 205.484 272.759 M299.522 272.030 C 304.073 273.130,308.500 275.627,309.272 277.530 C 310.062 279.477,309.615 297.955,308.759 298.753 C 307.417 300.002,304.373 300.236,302.315 299.247 C 295.828 296.131,284.945 297.428,280.529 301.844 C 275.977 306.397,275.513 308.973,275.681 328.822 C 275.836 347.270,274.964 346.142,288.886 345.915 C 298.623 345.757,297.763 344.561,297.930 358.489 C 298.073 370.503,298.005 371.290,296.673 372.954 L 295.749 374.109 287.374 374.154 C 278.032 374.205,276.864 374.495,276.000 376.973 C 275.711 377.802,275.588 392.994,275.613 424.896 C 275.651 473.493,275.638 473.924,274.025 474.656 C 273.101 475.075,247.140 475.106,246.166 474.689 C 243.828 473.688,243.946 476.366,243.987 425.582 C 244.011 395.349,243.882 378.647,243.618 377.666 C 242.779 374.552,241.701 374.200,233.000 374.200 C 221.292 374.200,221.598 374.577,221.604 360.140 C 221.611 344.725,221.099 345.417,232.174 345.850 C 244.218 346.320,243.721 347.043,244.050 328.600 C 244.301 314.582,244.459 312.746,246.287 302.607 C 246.712 300.250,247.462 297.947,248.468 295.911 C 249.310 294.205,250.000 292.707,250.000 292.582 C 250.000 291.942,251.693 288.848,252.617 287.800 C 253.199 287.140,253.917 286.150,254.213 285.600 C 259.707 275.373,283.667 268.197,299.522 272.030 " stroke="none" fill="#e85b9f" fill-rule="evenodd"></path></g></svg>