<svg id="svg" xmlns="http://www.w3.org/2000/svg" xmlns:xlink="http://www.w3.org/1999/xlink" width="400" height="428.9156626506024" viewBox="0, 0, 400,428.9156626506024"><g id="svgg"><path id="path0" d="M0.000 214.400 L 0.000 428.800 7.795 428.800 L 15.590 428.800 15.599 423.900 C 15.604 421.205,15.601 418.550,15.592 418.000 C 15.469 410.221,15.694 398.811,16.004 397.181 C 16.616 393.951,16.477 380.277,15.800 377.200 C 15.052 373.798,15.048 367.177,15.791 363.641 C 16.244 361.490,16.327 359.253,16.146 354.115 C 16.015 350.422,15.862 342.000,15.806 335.400 C 15.749 328.800,15.569 322.571,15.406 321.559 C 15.207 320.323,15.319 318.793,15.748 316.909 C 16.706 312.697,16.732 299.057,15.788 295.813 C 14.617 291.792,15.143 253.278,16.418 249.638 C 17.161 247.515,17.239 246.863,16.872 245.838 C 15.150 241.028,14.740 234.819,15.836 230.125 C 16.289 228.184,16.393 226.595,16.197 224.600 C 15.827 220.817,15.819 216.496,16.176 212.400 C 16.402 209.802,16.322 208.437,15.836 206.616 C 13.621 198.313,16.696 193.117,24.281 192.348 C 31.647 191.601,35.475 184.950,32.631 177.840 C 31.455 174.900,31.626 172.341,33.079 171.134 C 34.698 169.790,35.323 167.512,35.362 162.800 C 35.397 158.514,35.488 158.006,36.690 155.356 C 37.602 153.344,38.098 151.468,38.384 148.941 C 39.046 143.100,39.488 141.404,41.152 138.327 C 42.022 136.717,43.179 133.780,43.723 131.800 C 45.262 126.200,46.932 121.894,48.716 118.923 C 49.616 117.425,50.573 115.300,50.843 114.200 C 51.489 111.566,53.547 107.131,55.803 103.516 C 56.803 101.912,57.884 99.720,58.206 98.644 C 58.707 96.967,60.337 94.251,61.233 93.600 C 61.597 93.336,65.200 85.758,65.200 85.257 C 65.200 84.811,68.746 81.600,69.238 81.600 C 69.416 81.600,69.880 80.925,70.267 80.100 C 72.281 75.812,74.143 73.250,77.445 70.221 C 80.768 67.173,82.761 64.666,84.698 61.094 C 86.152 58.413,87.892 56.495,89.910 55.348 C 92.358 53.956,95.003 51.442,96.269 49.301 C 98.565 45.422,104.381 40.870,113.041 36.175 C 115.046 35.088,119.438 31.898,120.800 30.540 C 123.798 27.550,127.707 25.168,130.460 24.652 C 132.567 24.258,134.106 23.394,135.101 22.049 C 136.086 20.716,139.411 19.006,141.800 18.603 C 144.167 18.203,145.907 17.638,148.728 16.352 C 150.118 15.719,151.343 15.200,151.450 15.200 C 151.557 15.200,152.399 14.858,153.322 14.440 C 167.512 8.012,202.722 3.321,218.600 5.743 C 221.240 6.145,225.920 6.622,229.000 6.801 C 234.210 7.105,245.095 9.489,249.000 11.182 C 250.302 11.746,253.554 12.661,257.439 13.557 C 261.165 14.415,268.051 17.578,270.860 19.720 C 271.627 20.306,273.053 21.057,274.027 21.389 C 275.002 21.722,276.880 22.520,278.200 23.163 C 279.520 23.805,281.243 24.598,282.029 24.925 C 284.227 25.839,288.709 29.666,297.800 38.388 C 298.680 39.233,300.300 40.340,301.400 40.848 C 302.767 41.480,304.857 43.235,308.000 46.390 C 310.530 48.929,313.218 51.455,313.973 52.003 C 316.972 54.179,320.467 57.529,322.315 60.000 C 323.998 62.249,329.200 72.088,329.200 73.022 C 329.200 73.394,332.260 77.416,334.315 79.744 C 335.065 80.593,335.934 81.943,336.248 82.744 C 336.562 83.545,337.888 86.360,339.196 89.000 C 342.198 95.062,345.009 101.442,345.365 103.000 C 345.515 103.660,346.158 105.464,346.793 107.009 C 347.428 108.553,348.330 111.253,348.798 113.009 C 349.265 114.764,350.180 117.148,350.831 118.306 C 352.583 121.425,353.088 123.355,353.338 127.876 C 353.545 131.613,354.447 136.020,355.206 137.000 C 356.694 138.921,357.362 143.096,357.283 149.990 L 357.203 156.981 358.847 160.390 C 360.731 164.296,361.075 166.596,360.477 171.277 C 360.170 173.675,360.216 175.042,360.687 177.477 C 361.668 182.555,361.712 183.818,361.006 186.635 C 360.109 190.212,360.422 190.524,366.009 191.614 C 377.300 193.816,379.454 195.538,379.198 202.160 C 379.046 206.095,379.049 206.774,379.297 221.600 C 379.441 230.250,379.352 234.299,378.966 236.769 C 378.676 238.622,378.550 240.320,378.687 240.541 C 378.824 240.763,378.972 248.247,379.016 257.172 C 379.072 268.421,379.253 274.175,379.606 275.927 C 380.021 277.990,380.018 278.856,379.590 280.642 C 379.169 282.397,379.153 284.347,379.508 290.515 C 379.831 296.128,379.831 300.141,379.508 305.400 C 378.954 314.408,378.954 313.994,379.517 324.800 C 379.859 331.356,379.868 334.480,379.551 336.304 C 379.312 337.680,379.213 339.480,379.330 340.304 C 380.206 346.430,380.285 348.190,379.780 350.353 C 379.397 351.998,379.292 355.495,379.390 363.400 C 379.463 369.340,379.510 374.830,379.494 375.600 C 379.478 376.370,379.516 380.960,379.578 385.800 C 379.641 390.640,379.649 396.130,379.597 398.000 C 379.421 404.291,379.499 410.575,379.799 414.295 C 379.992 416.681,379.939 418.619,379.651 419.764 C 379.376 420.856,379.303 422.933,379.462 425.169 L 379.720 428.800 389.860 428.800 L 400.000 428.800 400.000 214.400 L 400.000 0.000 200.000 0.000 L 0.000 0.000 0.000 214.400 M230.600 92.289 C 230.160 92.398,229.620 92.631,229.400 92.808 C 228.609 93.445,223.702 94.095,218.600 94.239 C 214.506 94.355,212.932 94.567,211.200 95.237 C 209.990 95.705,207.380 96.532,205.400 97.074 C 198.180 99.053,197.391 99.297,196.868 99.721 C 196.575 99.957,194.685 100.992,192.668 102.019 C 180.156 108.390,178.043 109.602,176.033 111.568 C 175.364 112.221,174.039 113.212,173.088 113.770 C 172.137 114.327,168.794 117.262,165.660 120.291 C 162.526 123.321,158.989 126.700,157.801 127.800 C 156.614 128.900,155.153 130.760,154.556 131.934 C 153.959 133.108,153.003 134.548,152.432 135.134 C 149.514 138.131,148.009 140.239,147.173 142.502 C 146.665 143.876,145.604 145.900,144.816 147.000 C 144.028 148.100,142.939 149.990,142.396 151.200 C 141.854 152.410,140.937 154.068,140.359 154.885 C 139.782 155.702,138.897 157.502,138.393 158.885 C 137.889 160.268,137.060 162.305,136.552 163.410 C 136.043 164.516,135.349 166.739,135.011 168.350 C 134.672 169.960,133.843 172.534,133.170 174.069 C 132.343 175.952,131.833 177.939,131.603 180.175 C 131.415 181.998,131.075 184.189,130.847 185.045 C 129.481 190.187,130.737 191.975,135.749 192.017 C 136.877 192.027,138.571 192.184,139.513 192.366 C 140.660 192.588,142.178 192.506,144.113 192.117 C 145.701 191.799,148.890 191.416,151.200 191.268 C 154.358 191.065,155.747 190.794,156.800 190.177 L 158.200 189.356 158.300 185.841 C 158.408 182.018,159.563 177.464,160.833 175.849 C 161.250 175.318,161.933 173.456,162.350 171.712 C 163.188 168.202,164.027 166.306,165.409 164.800 C 166.192 163.946,168.252 160.302,170.766 155.321 C 171.544 153.779,173.582 151.306,175.928 149.057 C 176.878 148.145,178.040 146.770,178.509 146.000 C 180.209 143.211,184.269 139.074,187.400 136.939 C 192.840 133.230,193.369 132.848,194.437 131.846 C 195.008 131.311,196.807 130.202,198.435 129.382 C 200.064 128.562,201.954 127.466,202.636 126.946 C 203.318 126.426,204.078 126.000,204.326 126.000 C 204.574 126.000,205.817 125.529,207.089 124.953 C 209.560 123.834,211.724 123.084,215.122 122.170 C 216.289 121.856,218.449 120.977,219.922 120.216 C 222.483 118.893,222.878 118.815,229.000 118.406 C 232.520 118.171,237.148 117.806,239.284 117.595 C 248.119 116.724,263.135 118.004,267.413 119.995 C 268.741 120.612,271.561 121.485,273.680 121.934 C 276.038 122.434,278.819 123.382,280.847 124.376 C 282.670 125.269,284.489 126.000,284.889 126.000 C 285.289 126.000,286.294 126.428,287.122 126.951 C 288.853 128.043,292.165 129.600,292.758 129.600 C 292.980 129.600,293.935 130.317,294.880 131.193 C 297.166 133.311,301.502 136.841,303.015 137.817 C 303.684 138.247,306.624 141.165,309.548 144.300 C 312.473 147.435,315.013 150.000,315.193 150.000 C 315.636 150.000,316.875 152.181,317.749 154.498 C 318.143 155.542,318.699 156.532,318.985 156.698 C 319.861 157.207,323.853 165.611,325.316 170.027 C 326.077 172.322,327.228 175.370,327.874 176.800 C 329.254 179.853,329.818 181.903,330.407 185.998 C 331.064 190.572,333.790 192.559,337.828 191.409 L 339.400 190.961 339.353 187.905 C 339.326 186.118,339.035 184.171,338.653 183.216 C 338.294 182.318,337.994 180.822,337.986 179.892 C 337.966 177.584,336.505 171.886,335.603 170.600 C 335.223 170.058,333.784 164.523,333.003 160.600 C 332.653 158.840,331.956 156.770,331.455 156.000 C 330.954 155.230,330.426 154.281,330.281 153.892 C 330.137 153.503,329.312 152.143,328.447 150.870 C 326.671 148.254,325.850 146.464,325.452 144.341 C 325.302 143.538,324.856 142.458,324.461 141.941 C 324.066 141.423,323.071 139.880,322.250 138.512 C 321.428 137.144,320.361 135.701,319.878 135.306 C 319.395 134.911,318.378 133.691,317.619 132.594 C 316.165 130.497,313.879 127.696,311.700 125.346 C 310.985 124.574,310.400 123.796,310.400 123.617 C 310.400 123.300,305.668 119.031,301.741 115.806 C 300.674 114.929,299.025 113.436,298.078 112.489 C 297.130 111.541,295.330 110.217,294.078 109.547 C 292.825 108.876,290.990 107.826,290.000 107.213 C 289.010 106.600,287.300 105.766,286.200 105.359 C 285.100 104.952,283.210 104.091,282.000 103.446 C 275.336 99.894,274.526 99.546,270.400 98.451 C 268.750 98.014,266.680 97.381,265.800 97.045 C 264.920 96.710,263.770 96.427,263.245 96.418 C 262.719 96.408,260.379 95.840,258.045 95.155 C 254.296 94.055,252.935 93.871,246.400 93.583 C 241.614 93.372,238.306 93.035,237.036 92.628 C 235.152 92.025,232.288 91.875,230.600 92.289 M246.648 138.478 C 244.251 139.730,243.413 139.847,238.600 139.602 C 235.194 139.429,225.794 143.123,220.200 146.831 C 219.320 147.415,217.610 148.208,216.400 148.595 C 215.190 148.982,213.750 149.707,213.200 150.208 C 212.650 150.708,210.580 151.963,208.600 152.996 C 206.620 154.029,204.716 155.128,204.369 155.437 C 204.021 155.747,203.513 156.000,203.239 156.000 C 202.395 156.000,197.968 160.503,197.346 161.993 C 197.024 162.767,196.248 163.940,195.623 164.600 C 194.998 165.260,193.909 166.836,193.204 168.102 C 192.498 169.368,191.680 170.539,191.385 170.704 C 190.760 171.054,186.973 176.638,185.710 179.071 C 185.234 179.990,184.670 181.070,184.458 181.471 C 184.141 182.072,182.461 186.863,181.748 189.200 C 181.647 189.530,182.076 190.410,182.701 191.155 L 183.837 192.510 187.819 192.037 C 194.158 191.285,204.884 191.304,208.150 192.073 C 210.754 192.687,211.045 192.681,213.645 191.961 C 216.929 191.051,219.138 190.996,221.013 191.780 C 221.777 192.099,223.256 192.351,224.301 192.341 C 225.345 192.331,232.860 192.290,241.000 192.251 C 250.909 192.202,256.993 192.002,259.411 191.645 C 262.209 191.231,263.667 191.211,265.888 191.555 C 267.464 191.800,270.159 192.006,271.877 192.013 C 273.594 192.020,276.260 192.194,277.800 192.400 C 279.678 192.650,281.390 192.629,283.000 192.336 C 284.320 192.096,287.920 191.860,291.000 191.811 C 294.080 191.763,298.237 191.582,300.237 191.409 C 302.936 191.177,304.276 191.235,305.437 191.635 C 306.380 191.960,309.299 192.221,312.800 192.295 C 315.990 192.362,319.255 192.433,320.057 192.451 C 323.289 192.527,325.546 190.311,324.837 187.758 C 324.599 186.901,324.403 185.171,324.402 183.914 C 324.400 181.804,324.228 181.371,322.173 178.314 C 317.220 170.944,316.740 170.326,312.000 165.207 C 311.010 164.138,309.210 162.043,308.000 160.553 C 305.122 157.008,301.794 153.741,299.800 152.500 C 298.920 151.953,297.660 151.005,297.000 150.393 C 296.340 149.781,294.450 148.744,292.800 148.088 C 291.150 147.431,288.810 146.434,287.600 145.870 C 286.390 145.307,284.660 144.655,283.755 144.422 C 282.850 144.189,281.500 143.587,280.755 143.085 C 279.134 141.991,278.221 141.635,273.000 140.058 C 269.600 139.030,268.370 138.853,264.800 138.875 C 262.250 138.890,259.657 138.659,258.200 138.286 C 253.255 137.021,249.312 137.086,246.648 138.478 " stroke="none" fill="#09bbec" fill-rule="evenodd"></path><path id="path1" d="M205.600 5.028 C 205.270 5.103,202.210 5.352,198.800 5.582 C 183.864 6.589,180.729 7.324,179.803 10.039 C 179.331 11.421,175.357 12.140,173.546 11.171 C 172.788 10.765,172.780 10.689,173.405 9.737 C 174.287 8.389,174.371 8.399,169.687 9.324 C 167.127 9.830,165.768 10.262,166.087 10.469 C 166.658 10.837,165.863 11.582,164.886 11.594 C 163.889 11.606,162.345 12.940,161.569 14.461 C 160.700 16.164,161.295 16.028,154.200 16.147 C 151.182 16.197,150.993 16.252,150.869 17.122 C 150.706 18.272,149.080 18.942,147.275 18.603 C 146.207 18.403,146.031 18.244,146.393 17.808 C 146.756 17.371,146.683 17.306,146.027 17.477 C 145.577 17.595,145.325 17.878,145.466 18.107 C 145.608 18.336,145.535 18.407,145.304 18.264 C 144.771 17.935,140.759 18.681,140.232 19.208 C 140.015 19.425,139.738 20.439,139.618 21.459 C 139.369 23.582,137.432 24.584,134.220 24.250 C 132.502 24.072,131.492 24.301,131.800 24.799 C 132.235 25.503,130.797 27.904,129.658 28.376 C 129.009 28.645,128.075 29.295,127.581 29.821 C 127.087 30.346,126.034 30.987,125.241 31.244 C 124.449 31.501,123.348 32.028,122.795 32.415 C 122.242 32.803,121.342 33.183,120.795 33.260 C 120.122 33.355,119.759 33.692,119.672 34.300 C 119.600 34.808,119.264 35.200,118.901 35.200 C 117.505 35.200,115.722 36.162,115.096 37.252 C 114.568 38.172,114.159 38.400,113.037 38.400 C 112.268 38.400,111.148 38.623,110.551 38.895 C 109.691 39.287,109.429 39.288,109.299 38.898 C 109.174 38.522,108.936 38.513,108.283 38.863 L 107.430 39.319 108.315 39.647 C 111.014 40.645,105.378 48.800,101.988 48.800 C 101.395 48.800,98.661 51.601,97.436 53.463 C 96.825 54.392,95.780 55.351,95.071 55.634 C 92.940 56.484,89.240 59.682,88.778 61.074 C 88.523 61.842,87.801 62.674,86.958 63.172 C 86.190 63.625,85.315 64.582,85.014 65.298 C 84.447 66.646,84.008 67.139,81.538 69.198 C 80.733 69.868,79.734 71.106,79.317 71.949 C 78.393 73.816,77.142 75.464,74.900 77.766 C 73.965 78.726,73.200 79.790,73.200 80.130 C 73.200 82.549,69.566 87.600,67.825 87.600 C 67.068 87.600,66.070 89.345,65.816 91.111 C 65.412 93.930,64.122 96.400,63.053 96.400 C 60.965 96.400,59.598 98.489,59.645 101.608 C 59.684 104.130,59.573 104.588,58.693 105.532 C 58.146 106.119,57.492 107.001,57.240 107.491 C 56.839 108.270,56.564 108.352,55.051 108.145 C 52.764 107.832,52.635 108.164,52.611 114.400 C 52.595 118.765,52.485 119.578,51.745 120.800 C 51.280 121.570,50.593 123.143,50.219 124.295 C 49.845 125.448,49.365 126.498,49.153 126.629 C 48.593 126.975,46.799 129.859,45.563 132.400 C 44.725 134.122,44.430 134.448,44.204 133.900 C 43.863 133.075,43.200 132.967,43.200 133.736 C 43.200 134.031,42.639 135.395,41.953 136.768 C 40.900 138.875,40.757 139.493,41.038 140.732 C 41.805 144.125,40.949 153.214,39.578 156.240 C 39.169 157.142,38.645 159.068,38.413 160.518 C 37.792 164.403,37.739 164.493,36.443 163.822 C 35.364 163.264,35.363 163.265,35.382 164.732 C 35.392 165.539,35.272 166.774,35.115 167.476 C 34.844 168.689,34.892 168.758,36.115 168.876 C 38.111 169.069,37.475 172.920,34.887 176.313 C 33.058 178.710,33.599 187.885,35.710 190.268 C 37.344 192.112,43.292 193.069,48.800 192.374 C 52.382 191.922,58.498 192.154,61.708 192.862 C 63.044 193.157,64.363 193.157,66.108 192.863 C 73.025 191.694,76.128 191.590,81.046 192.359 C 91.509 193.997,92.631 194.103,96.616 193.834 C 98.807 193.686,102.850 193.430,105.600 193.265 C 109.404 193.038,111.222 192.731,113.200 191.983 C 115.690 191.042,116.129 191.005,123.571 191.127 C 130.639 191.243,131.295 191.197,130.815 190.618 C 130.468 190.200,129.999 190.077,129.444 190.259 C 128.980 190.412,125.360 190.565,121.400 190.600 C 115.893 190.648,113.730 190.819,112.200 191.327 C 110.882 191.765,108.836 191.994,106.200 192.000 C 103.963 192.005,101.230 192.270,100.000 192.600 C 96.939 193.422,92.405 193.344,88.180 192.399 C 76.612 189.810,77.489 189.928,73.305 190.383 C 63.441 191.456,58.291 190.813,59.026 188.600 C 59.172 188.160,59.343 186.000,59.405 183.800 C 59.468 181.600,59.807 178.694,60.160 177.342 C 60.512 175.991,60.802 173.921,60.805 172.742 C 60.808 171.564,61.181 168.890,61.633 166.800 C 62.085 164.710,62.806 161.305,63.235 159.233 C 63.663 157.160,64.165 155.270,64.350 155.033 C 64.654 154.642,65.912 150.981,66.853 147.748 C 67.053 147.059,67.930 143.661,68.801 140.195 C 69.888 135.871,70.697 133.486,71.379 132.592 C 71.925 131.876,72.732 129.991,73.172 128.404 C 73.612 126.817,74.473 124.707,75.086 123.715 C 76.885 120.802,77.517 119.483,77.790 118.071 C 77.931 117.340,78.690 115.736,79.477 114.507 C 80.263 113.278,81.140 111.385,81.427 110.300 C 82.026 108.025,83.689 105.149,86.760 101.069 C 87.948 99.491,89.208 97.739,89.560 97.176 C 89.912 96.613,91.280 94.567,92.600 92.629 C 93.920 90.692,95.630 88.159,96.400 87.001 C 98.006 84.587,100.051 82.149,103.211 78.884 C 104.426 77.628,106.788 75.070,108.459 73.200 C 113.612 67.434,116.926 64.150,118.719 63.035 C 119.665 62.447,120.529 61.728,120.641 61.437 C 120.753 61.146,121.844 60.403,123.067 59.784 C 124.289 59.165,126.214 57.829,127.345 56.814 C 131.244 53.311,136.610 49.724,140.565 47.974 C 141.498 47.561,142.698 46.883,143.231 46.468 C 143.764 46.052,145.345 45.146,146.744 44.454 C 148.143 43.763,149.836 42.736,150.506 42.173 C 152.141 40.797,156.454 38.693,159.400 37.835 C 160.720 37.451,162.250 36.974,162.800 36.776 C 163.350 36.578,165.635 35.958,167.878 35.398 C 170.121 34.838,173.151 33.931,174.611 33.381 C 176.583 32.639,178.622 32.279,182.533 31.984 C 188.102 31.563,195.682 30.259,197.868 29.346 C 199.417 28.698,209.069 28.633,215.600 29.226 C 217.910 29.436,221.960 29.772,224.600 29.972 C 227.240 30.173,230.120 30.613,231.000 30.951 C 231.927 31.307,233.921 31.572,235.738 31.582 C 238.595 31.598,242.801 32.442,243.800 33.200 C 244.020 33.367,245.460 33.901,247.000 34.388 C 248.540 34.875,250.212 35.436,250.715 35.635 C 251.218 35.834,252.658 36.103,253.915 36.234 C 256.958 36.551,258.739 37.123,260.255 38.274 C 260.945 38.797,262.824 39.590,264.431 40.035 C 266.038 40.481,268.372 41.474,269.618 42.243 C 270.864 43.012,272.811 43.886,273.944 44.185 C 275.078 44.484,276.897 45.370,277.987 46.153 C 279.077 46.936,280.574 47.829,281.313 48.138 C 282.053 48.447,283.275 49.232,284.029 49.883 C 285.611 51.248,290.454 54.403,292.816 55.608 C 293.706 56.062,294.791 56.791,295.228 57.228 C 295.665 57.665,296.872 58.667,297.911 59.455 C 300.192 61.185,310.645 71.044,314.572 75.170 C 316.128 76.804,318.120 78.896,319.000 79.821 C 319.924 80.792,320.916 82.409,321.349 83.651 C 321.761 84.833,322.696 86.464,323.426 87.276 C 324.157 88.088,325.023 89.271,325.351 89.905 C 325.679 90.539,326.227 91.291,326.570 91.575 C 326.912 91.859,327.838 93.359,328.628 94.909 C 329.418 96.459,330.576 98.373,331.201 99.163 C 331.826 99.953,332.527 101.320,332.759 102.200 C 332.990 103.080,333.813 104.782,334.587 105.982 C 335.361 107.183,336.101 108.803,336.231 109.582 C 336.636 112.014,337.276 113.741,338.386 115.400 C 339.694 117.355,340.268 118.844,340.622 121.200 C 340.945 123.347,341.360 124.238,342.712 125.688 C 343.500 126.533,343.974 127.920,344.833 131.888 C 345.441 134.700,346.309 138.350,346.762 140.000 C 347.215 141.650,347.776 144.530,348.010 146.400 C 348.669 151.671,349.153 153.872,350.627 158.298 C 351.954 162.283,352.458 165.366,353.655 176.800 C 353.897 179.110,354.313 182.855,354.579 185.122 L 355.064 189.244 353.913 190.212 C 353.280 190.745,351.838 191.455,350.708 191.790 C 347.480 192.749,345.968 192.629,340.046 190.949 C 339.331 190.746,339.139 190.818,339.279 191.238 C 340.305 194.316,353.720 193.942,356.916 190.746 C 357.641 190.020,358.480 189.600,359.202 189.600 C 361.206 189.600,361.953 183.605,360.715 177.477 C 360.215 175.003,360.165 173.713,360.477 171.277 C 361.075 166.596,360.731 164.296,358.847 160.390 L 357.203 156.981 357.283 149.990 C 357.362 143.096,356.694 138.921,355.206 137.000 C 354.442 136.014,353.545 131.607,353.349 127.876 C 353.231 125.634,352.970 123.305,352.767 122.700 C 351.786 119.761,351.506 119.261,350.963 119.470 C 350.566 119.622,350.400 119.371,350.400 118.616 C 350.400 118.028,350.228 117.226,350.018 116.834 C 349.808 116.441,349.256 114.702,348.792 112.969 C 348.327 111.235,347.428 108.553,346.793 107.009 C 346.158 105.464,345.515 103.660,345.365 103.000 C 345.118 101.918,343.379 97.804,340.519 91.534 C 339.864 90.097,339.296 89.342,338.967 89.468 C 338.623 89.600,338.353 89.152,338.164 88.133 C 337.681 85.530,336.535 83.350,335.137 82.373 C 333.388 81.151,333.097 80.688,333.763 80.188 C 334.213 79.850,334.149 79.589,333.405 78.724 C 332.629 77.821,332.420 77.751,331.939 78.232 C 331.458 78.713,331.277 78.605,330.665 77.469 C 329.931 76.106,328.160 74.800,327.048 74.800 C 326.702 74.800,326.106 74.305,325.724 73.700 C 325.342 73.095,324.168 71.640,323.115 70.468 C 322.062 69.295,321.200 68.145,321.200 67.912 C 321.200 67.680,320.466 66.693,319.569 65.721 C 318.673 64.748,317.679 63.329,317.360 62.567 C 317.042 61.805,316.196 60.511,315.480 59.691 C 314.764 58.871,313.949 57.746,313.670 57.190 C 313.390 56.635,312.650 55.837,312.025 55.417 C 311.401 54.997,310.581 53.955,310.205 53.102 C 309.794 52.170,309.108 51.393,308.490 51.158 C 307.923 50.943,306.771 50.144,305.929 49.383 C 305.087 48.622,304.213 48.000,303.987 48.000 C 303.760 48.000,302.715 47.145,301.663 46.100 C 300.612 45.055,299.132 43.628,298.376 42.929 C 297.619 42.230,296.696 41.330,296.325 40.929 C 295.954 40.528,295.163 39.840,294.567 39.400 C 293.970 38.960,292.834 37.991,292.041 37.247 C 291.249 36.503,290.046 35.658,289.368 35.370 C 288.691 35.082,287.911 34.575,287.637 34.244 C 287.362 33.913,286.296 33.327,285.268 32.942 C 281.649 31.587,278.990 29.769,275.623 26.348 C 274.620 25.329,273.029 24.167,272.087 23.765 C 270.994 23.299,270.293 22.711,270.150 22.143 C 269.964 21.401,269.411 21.138,266.863 20.577 C 261.944 19.496,258.436 18.524,254.800 17.237 C 252.930 16.575,251.130 16.024,250.800 16.012 C 250.470 16.000,249.784 15.347,249.275 14.562 C 248.640 13.582,247.635 12.818,246.075 12.130 C 243.349 10.927,243.263 10.855,244.000 10.400 C 244.802 9.904,244.783 9.896,239.274 8.417 C 234.382 7.104,234.345 7.100,233.785 7.900 C 232.114 10.286,227.147 10.114,224.703 7.585 C 223.964 6.821,223.050 6.375,221.903 6.222 C 220.966 6.096,218.323 5.725,216.030 5.397 C 212.261 4.857,207.156 4.677,205.600 5.028 M152.800 14.633 C 152.177 14.979,152.035 15.190,152.424 15.194 C 152.766 15.197,153.396 14.936,153.824 14.613 C 154.794 13.878,154.137 13.892,152.800 14.633 M238.800 117.607 C 237.150 117.795,232.830 118.146,229.200 118.388 C 222.852 118.811,222.498 118.881,219.922 120.213 C 218.449 120.975,216.289 121.856,215.122 122.170 C 211.724 123.084,209.560 123.834,207.089 124.953 C 205.817 125.529,204.574 126.000,204.326 126.000 C 204.078 126.000,203.318 126.426,202.636 126.946 C 201.954 127.466,200.064 128.562,198.435 129.382 C 196.807 130.202,195.008 131.311,194.437 131.846 C 193.369 132.848,192.840 133.230,187.400 136.939 C 184.269 139.074,180.209 143.211,178.509 146.000 C 178.040 146.770,176.878 148.145,175.928 149.057 C 173.582 151.306,171.544 153.779,170.766 155.321 C 168.252 160.302,166.192 163.946,165.409 164.800 C 164.027 166.306,163.188 168.202,162.350 171.712 C 161.933 173.456,161.250 175.318,160.833 175.849 C 159.525 177.512,158.378 182.095,158.328 185.853 L 158.283 189.296 156.881 190.123 L 155.479 190.950 157.639 191.700 C 159.519 192.352,160.164 192.393,162.600 192.016 C 164.140 191.777,168.106 191.436,171.412 191.258 C 176.203 190.999,177.654 190.783,178.553 190.194 C 179.441 189.612,179.906 189.540,180.740 189.855 C 181.670 190.206,181.805 190.153,181.842 189.428 C 181.865 188.972,182.375 187.256,182.975 185.614 C 184.079 182.590,184.110 181.617,183.171 179.333 C 182.503 177.710,183.258 175.169,184.861 173.643 C 187.036 171.572,190.401 166.973,190.632 165.756 C 191.014 163.742,195.271 159.069,198.115 157.540 C 199.022 157.053,200.513 157.489,200.127 158.129 C 199.971 158.388,200.515 158.015,201.336 157.300 C 202.156 156.585,203.056 156.000,203.334 156.000 C 204.379 156.000,204.739 155.174,204.171 154.078 C 203.872 153.502,203.787 152.932,203.982 152.811 C 204.177 152.691,204.457 152.112,204.604 151.525 C 205.102 149.543,206.158 149.014,209.934 148.855 C 213.419 148.709,214.800 148.067,214.800 146.595 C 214.800 146.329,215.430 145.444,216.200 144.627 C 216.970 143.811,217.600 143.009,217.600 142.845 C 217.600 142.158,222.982 140.884,228.273 140.317 C 228.534 140.289,228.852 139.847,228.981 139.333 C 229.208 138.430,229.348 138.401,233.308 138.416 C 237.694 138.432,237.549 139.139,233.019 139.818 C 232.019 139.968,231.200 140.250,231.200 140.445 C 231.200 140.640,230.930 140.800,230.600 140.800 C 230.270 140.800,230.000 140.980,230.000 141.200 C 230.000 141.720,229.811 141.757,233.223 140.565 C 234.852 139.996,236.784 139.501,237.516 139.465 C 238.521 139.416,238.702 139.307,238.254 139.021 C 237.781 138.719,238.082 138.363,239.727 137.279 C 242.202 135.649,245.275 135.579,246.909 137.115 C 247.556 137.723,247.981 137.855,248.406 137.581 C 248.750 137.360,250.600 137.304,252.800 137.448 C 255.743 137.641,256.928 137.560,258.056 137.088 C 259.821 136.348,261.276 136.452,265.200 137.599 C 267.454 138.258,268.845 138.427,270.794 138.277 C 274.619 137.982,277.728 138.363,277.153 139.056 C 276.867 139.402,275.809 139.607,274.251 139.619 L 271.800 139.638 273.400 140.170 C 278.958 142.018,279.020 142.029,280.396 141.342 C 284.994 139.048,296.446 144.457,295.639 148.542 C 295.469 149.405,296.581 149.953,298.471 149.938 C 300.982 149.919,301.553 150.401,300.650 151.779 C 300.282 152.341,300.126 152.800,300.302 152.800 C 300.479 152.800,301.826 153.945,303.297 155.345 C 304.767 156.745,306.031 157.708,306.105 157.485 C 306.389 156.632,309.104 157.564,309.365 158.604 C 309.527 159.247,309.991 159.676,310.706 159.844 C 312.875 160.351,315.147 163.960,315.265 167.086 C 315.316 168.443,315.607 169.264,316.320 170.064 C 320.837 175.133,324.275 181.292,324.564 184.829 C 324.716 186.683,324.876 188.590,324.920 189.067 C 324.987 189.797,325.251 189.934,326.600 189.936 C 327.480 189.937,328.707 190.132,329.326 190.369 C 329.945 190.606,330.922 190.800,331.496 190.800 L 332.539 190.800 331.688 189.894 C 331.097 189.265,330.704 188.069,330.406 185.994 C 329.818 181.903,329.253 179.852,327.874 176.800 C 327.228 175.370,326.077 172.322,325.316 170.027 C 323.853 165.611,319.861 157.207,318.985 156.698 C 318.699 156.532,318.143 155.542,317.749 154.498 C 316.875 152.181,315.636 150.000,315.193 150.000 C 315.013 150.000,312.473 147.435,309.548 144.300 C 306.624 141.165,303.684 138.247,303.015 137.817 C 301.502 136.841,297.166 133.311,294.880 131.193 C 293.935 130.317,292.980 129.600,292.758 129.600 C 292.165 129.600,288.853 128.043,287.122 126.951 C 286.294 126.428,285.289 126.000,284.889 126.000 C 284.489 126.000,282.670 125.269,280.847 124.376 C 278.798 123.371,276.057 122.441,273.667 121.938 C 271.540 121.491,268.935 120.694,267.877 120.168 C 264.040 118.257,262.875 118.112,245.800 117.426 C 243.600 117.338,240.450 117.419,238.800 117.607 M75.200 196.000 C 72.728 197.598,64.995 198.307,60.335 197.363 C 58.107 196.911,56.212 196.792,54.070 196.968 C 45.322 197.686,37.834 197.693,34.736 196.985 C 32.105 196.384,31.174 196.348,28.197 196.733 C 21.286 197.625,19.810 199.869,21.225 207.333 C 21.473 208.640,21.449 211.223,21.156 214.825 C 20.771 219.551,20.798 220.673,21.343 222.823 C 21.922 225.103,21.922 225.699,21.348 229.562 C 20.969 232.116,20.817 234.754,20.966 236.200 C 22.003 246.234,21.984 247.842,20.739 255.600 C 20.066 259.797,19.894 265.259,20.383 266.896 C 20.660 267.824,20.894 273.823,20.999 282.696 C 21.093 290.563,21.309 299.610,21.481 302.800 C 21.652 305.990,21.719 309.950,21.629 311.600 C 21.490 314.146,21.491 341.082,21.630 349.200 C 21.802 359.180,21.340 364.490,20.152 366.189 C 19.538 367.066,19.466 370.051,19.992 372.800 C 21.639 381.408,21.685 382.017,21.394 391.400 C 21.237 396.460,21.172 401.950,21.249 403.600 C 21.469 408.326,21.388 414.833,21.017 422.100 L 20.675 428.800 21.883 428.800 L 23.091 428.800 23.325 419.700 C 23.833 399.888,23.669 380.947,22.932 374.288 C 22.345 368.986,22.317 367.771,22.757 366.688 C 23.312 365.323,24.171 348.406,23.754 347.067 C 23.563 346.454,23.559 338.901,23.734 310.000 C 23.786 301.489,23.124 268.429,22.858 266.217 C 22.644 264.438,22.778 260.926,23.267 255.486 C 23.889 248.564,23.930 246.437,23.554 240.711 C 23.231 235.786,23.234 232.799,23.567 229.388 C 23.816 226.840,23.897 224.558,23.748 224.316 C 23.599 224.074,23.440 218.729,23.396 212.438 L 23.317 201.000 24.261 200.151 C 25.390 199.136,31.918 198.527,34.600 199.187 C 36.495 199.654,47.488 199.677,52.600 199.225 C 54.623 199.046,57.427 199.070,59.000 199.279 C 63.284 199.849,70.628 199.678,73.573 198.941 C 75.747 198.397,76.462 198.374,78.173 198.795 C 79.458 199.111,84.299 199.347,91.400 199.439 C 97.560 199.519,104.248 199.672,106.262 199.779 C 108.646 199.906,111.160 199.755,113.462 199.348 C 119.412 198.295,119.652 198.280,122.976 198.769 C 125.875 199.196,136.382 199.611,143.200 199.568 C 144.630 199.559,146.771 199.272,147.957 198.931 C 149.287 198.548,150.744 198.405,151.757 198.557 C 158.360 199.551,159.866 199.594,165.345 198.948 C 170.166 198.379,171.183 198.366,173.145 198.847 C 176.265 199.612,194.405 199.610,199.486 198.844 C 202.619 198.371,203.459 198.371,205.086 198.838 C 206.932 199.369,210.729 199.505,216.600 199.250 C 218.904 199.149,275.669 199.490,281.000 199.636 C 285.531 199.760,297.546 199.209,298.526 198.833 C 300.044 198.249,302.503 198.310,305.400 199.002 C 308.260 199.685,321.180 199.801,326.400 199.191 C 328.916 198.896,330.909 198.931,334.067 199.325 C 337.638 199.770,340.083 199.767,349.067 199.304 C 371.033 198.172,371.612 198.376,371.546 207.200 C 371.526 209.950,371.563 217.330,371.630 223.600 C 371.696 229.870,371.721 241.750,371.685 250.000 C 371.648 258.250,371.711 267.070,371.823 269.600 C 371.936 272.130,372.005 275.550,371.977 277.200 C 371.949 278.850,371.902 281.640,371.872 283.400 C 371.843 285.160,371.849 289.390,371.886 292.800 C 371.923 296.210,371.919 306.290,371.877 315.200 C 371.835 324.110,371.857 334.820,371.926 339.000 C 371.995 343.180,371.934 351.460,371.790 357.400 C 371.448 371.583,371.448 370.941,371.798 383.400 C 371.965 389.340,372.060 397.919,372.008 402.464 C 371.943 408.189,372.066 411.188,372.409 412.227 C 373.085 414.276,372.991 417.480,372.200 419.355 C 371.665 420.622,371.595 421.639,371.823 424.855 L 372.103 428.800 373.698 428.800 C 375.466 428.800,375.401 429.134,374.395 425.200 C 373.828 422.983,374.088 420.208,374.953 419.252 C 375.819 418.295,375.820 413.587,374.954 411.046 C 374.490 409.686,374.377 408.449,374.553 406.675 C 375.218 399.963,375.301 394.536,374.751 393.570 C 374.242 392.674,373.918 385.038,374.100 378.200 C 374.129 377.100,374.100 375.480,374.035 374.600 C 373.750 370.730,373.849 366.357,374.292 363.329 C 374.684 360.645,374.666 359.411,374.189 356.460 C 373.665 353.221,373.673 352.532,374.269 349.532 C 375.005 345.822,375.019 344.864,374.459 336.000 C 373.907 327.267,373.902 313.141,374.450 310.966 C 374.814 309.523,374.767 308.465,374.210 305.489 C 373.545 301.938,373.547 301.725,374.265 299.800 C 375.185 297.332,375.181 290.508,374.258 286.122 C 373.644 283.205,373.803 281.474,374.884 279.304 C 375.213 278.645,375.213 278.010,374.885 276.904 C 374.640 276.077,374.329 272.430,374.195 268.800 C 374.061 265.170,373.858 260.040,373.745 257.400 C 373.626 254.624,373.741 251.152,374.018 249.168 C 374.380 246.572,374.387 244.920,374.047 242.394 C 373.676 239.638,373.709 238.379,374.237 235.211 C 374.804 231.809,374.813 230.892,374.317 227.185 C 374.009 224.883,373.811 221.110,373.878 218.800 C 374.045 212.981,374.044 212.749,373.844 207.800 C 373.747 205.380,373.652 202.784,373.633 202.031 C 373.522 197.454,366.596 195.383,355.800 196.701 C 353.600 196.969,349.379 197.287,346.420 197.407 C 343.460 197.527,340.656 197.721,340.188 197.839 C 339.720 197.956,337.822 197.745,335.969 197.369 C 333.202 196.808,331.599 196.741,327.000 196.994 C 316.529 197.571,307.500 197.411,305.960 196.621 C 303.833 195.529,300.043 195.343,298.374 196.247 C 297.228 196.869,296.071 196.996,291.400 197.017 C 288.320 197.031,284.693 197.278,283.340 197.565 C 281.316 197.996,280.607 197.996,279.340 197.567 C 276.896 196.739,266.919 196.514,261.485 197.164 C 257.513 197.640,255.686 197.647,249.885 197.211 C 243.359 196.720,230.691 196.839,225.310 197.442 C 223.774 197.614,222.534 197.454,220.633 196.840 C 218.128 196.031,217.967 196.026,215.523 196.679 C 212.334 197.531,208.718 197.506,206.400 196.615 C 203.492 195.498,202.599 195.465,198.701 196.331 C 192.006 197.817,174.544 197.842,173.020 196.368 C 172.387 195.755,167.912 195.954,163.941 196.771 C 159.986 197.585,159.786 197.572,152.417 196.046 C 150.422 195.633,148.204 195.872,147.000 196.630 C 145.718 197.437,141.144 197.992,140.200 197.455 C 139.680 197.159,136.743 197.000,131.800 196.999 C 126.343 196.999,123.946 196.854,123.299 196.485 C 122.078 195.788,117.724 195.810,116.000 196.521 C 113.351 197.613,109.584 198.061,105.995 197.711 C 104.122 197.529,101.782 197.528,100.795 197.710 C 99.808 197.892,96.660 197.926,93.800 197.784 C 90.940 197.643,87.160 197.494,85.400 197.453 C 81.786 197.369,79.298 196.967,77.354 196.155 C 75.790 195.502,75.953 195.513,75.200 196.000 M86.514 222.425 C 84.841 222.648,83.471 223.547,82.750 224.893 C 81.942 226.403,82.298 403.268,83.111 404.359 C 84.855 406.701,85.490 406.800,98.709 406.800 L 110.831 406.800 112.437 405.300 L 114.043 403.800 114.012 368.684 L 113.981 333.567 115.372 332.986 C 116.721 332.422,119.600 333.352,119.600 334.350 C 119.600 334.500,120.137 335.210,120.793 335.928 C 121.450 336.647,122.434 337.992,122.980 338.917 C 123.526 339.843,124.474 341.120,125.086 341.756 C 126.225 342.939,127.710 344.934,130.996 349.696 C 132.019 351.178,133.087 352.528,133.370 352.696 C 133.652 352.863,134.386 353.810,135.000 354.800 C 135.614 355.790,136.810 357.435,137.658 358.456 C 138.506 359.476,139.200 360.444,139.200 360.607 C 139.200 360.770,139.752 361.555,140.426 362.351 C 141.100 363.148,142.495 364.933,143.526 366.318 C 144.557 367.703,146.120 369.803,147.000 370.984 C 147.880 372.166,149.140 373.892,149.800 374.820 C 150.460 375.748,151.483 377.026,152.074 377.659 C 152.664 378.291,153.789 379.865,154.572 381.154 C 155.356 382.444,156.292 383.744,156.653 384.044 C 157.014 384.343,157.759 385.311,158.308 386.194 C 158.858 387.077,159.641 388.120,160.048 388.510 C 160.455 388.901,161.422 390.161,162.195 391.310 C 163.627 393.436,164.999 395.265,168.119 399.200 C 169.079 400.410,170.201 401.982,170.614 402.694 C 171.104 403.537,172.286 404.472,174.007 405.376 L 176.649 406.764 191.425 406.800 C 199.551 406.820,206.592 406.828,207.071 406.818 C 208.436 406.790,209.200 405.728,209.200 403.860 C 209.200 402.070,208.813 401.333,206.718 399.131 C 204.987 397.312,203.114 394.982,201.790 393.000 C 201.202 392.120,200.233 390.860,199.637 390.200 C 199.041 389.540,198.033 388.280,197.398 387.400 C 196.762 386.520,196.131 385.710,195.994 385.600 C 195.858 385.490,195.004 384.410,194.097 383.200 C 193.189 381.990,192.076 380.735,191.624 380.412 C 191.171 380.088,190.800 379.611,190.800 379.351 C 190.800 379.092,189.945 377.768,188.900 376.410 C 187.855 375.052,186.715 373.506,186.368 372.974 C 186.020 372.443,185.102 371.323,184.328 370.487 C 183.554 369.650,182.429 368.222,181.827 367.313 C 181.226 366.404,180.505 365.572,180.225 365.465 C 179.946 365.358,179.220 364.422,178.612 363.385 C 178.005 362.348,177.183 361.117,176.787 360.650 C 175.039 358.587,172.504 355.366,171.394 353.798 C 170.731 352.861,169.446 351.289,168.539 350.305 C 167.632 349.321,166.694 348.150,166.455 347.703 C 166.216 347.257,165.661 346.466,165.222 345.946 C 163.613 344.042,160.977 340.709,160.100 339.471 C 158.675 337.459,157.700 336.225,156.585 335.022 C 155.439 333.785,154.026 331.586,153.297 329.905 C 152.721 328.577,153.464 328.081,157.600 327.031 C 159.030 326.668,160.920 325.982,161.800 325.508 C 162.680 325.034,164.480 324.123,165.800 323.483 C 167.120 322.843,169.137 321.618,170.283 320.760 C 171.428 319.902,172.490 319.200,172.641 319.200 C 172.793 319.200,173.836 318.378,174.959 317.372 C 176.081 316.367,177.140 315.422,177.311 315.272 C 179.868 313.033,185.103 306.487,186.485 303.800 C 186.825 303.140,187.666 301.587,188.355 300.348 C 189.044 299.109,189.952 296.769,190.372 295.148 C 190.792 293.527,191.507 291.371,191.961 290.357 C 194.193 285.378,194.232 268.299,192.023 263.451 C 191.598 262.518,191.038 260.865,190.779 259.777 C 189.934 256.231,189.215 254.385,187.845 252.243 C 187.104 251.084,186.380 249.766,186.236 249.313 C 186.092 248.860,185.539 248.019,185.007 247.445 C 184.475 246.871,183.493 245.608,182.826 244.638 C 179.107 239.233,169.965 231.805,164.499 229.748 C 163.105 229.223,160.906 228.259,159.612 227.606 C 158.319 226.953,156.482 226.304,155.530 226.163 C 154.579 226.022,152.450 225.551,150.800 225.115 C 146.624 224.012,142.157 223.260,137.000 222.791 C 132.280 222.362,89.320 222.050,86.514 222.425 M113.800 224.596 C 125.240 224.712,135.860 224.965,137.400 225.159 C 138.940 225.353,141.910 225.716,144.000 225.965 C 149.360 226.606,154.437 227.608,155.389 228.215 C 155.835 228.499,157.640 229.223,159.400 229.824 C 165.786 232.003,177.200 239.019,177.200 240.765 C 177.200 240.917,177.888 241.753,178.729 242.621 C 179.570 243.489,180.875 245.100,181.629 246.200 C 182.383 247.300,183.405 248.596,183.900 249.081 C 184.395 249.565,184.800 250.071,184.800 250.204 C 184.800 250.337,185.598 252.119,186.573 254.164 C 191.307 264.094,193.285 277.800,191.081 285.400 C 190.762 286.500,190.284 288.390,190.018 289.600 C 189.261 293.048,187.975 296.852,186.974 298.600 C 186.471 299.480,185.743 301.010,185.357 302.000 C 184.970 302.990,183.877 304.697,182.927 305.793 C 181.977 306.889,181.200 307.999,181.200 308.260 C 181.200 308.695,176.775 313.314,173.559 316.234 C 172.811 316.912,171.300 317.978,170.200 318.601 C 169.100 319.225,167.409 320.335,166.442 321.067 C 165.476 321.800,164.425 322.400,164.107 322.400 C 163.789 322.400,162.420 322.913,161.065 323.539 C 159.709 324.166,157.195 325.095,155.478 325.604 C 151.718 326.719,150.600 327.810,151.005 329.969 C 151.327 331.684,151.671 332.170,156.874 338.263 C 157.685 339.212,158.669 340.531,159.060 341.194 C 159.452 341.857,159.904 342.400,160.065 342.400 C 160.226 342.400,161.017 343.394,161.823 344.609 C 162.629 345.823,163.592 347.038,163.963 347.309 C 164.333 347.579,165.072 348.520,165.604 349.400 C 166.497 350.877,169.076 354.189,171.990 357.600 C 173.567 359.446,176.583 363.428,177.803 365.274 C 178.338 366.084,179.007 366.894,179.288 367.074 C 179.570 367.253,180.503 368.444,181.363 369.720 C 182.222 370.996,183.323 372.353,183.808 372.735 C 184.294 373.117,185.010 374.053,185.399 374.815 C 185.789 375.577,186.758 376.942,187.554 377.850 C 189.902 380.529,191.719 382.837,193.021 384.793 C 193.692 385.803,194.710 387.162,195.282 387.814 C 196.908 389.667,199.084 392.447,200.278 394.200 C 200.878 395.080,201.969 396.371,202.702 397.070 C 204.366 398.656,206.014 401.057,206.429 402.501 C 206.967 404.377,206.433 404.437,190.300 404.314 L 175.400 404.200 173.860 403.136 C 173.013 402.550,171.524 400.930,170.552 399.536 C 168.694 396.869,166.441 393.870,165.428 392.714 C 165.098 392.336,164.342 391.256,163.749 390.314 C 163.156 389.371,162.042 387.970,161.274 387.200 C 160.506 386.430,159.647 385.260,159.366 384.600 C 159.084 383.940,158.117 382.590,157.216 381.600 C 156.315 380.610,155.287 379.260,154.932 378.600 C 154.576 377.940,153.903 377.040,153.436 376.600 C 152.968 376.160,152.103 374.990,151.512 374.000 C 150.921 373.010,149.894 371.570,149.231 370.800 C 148.567 370.030,146.851 367.780,145.418 365.800 C 143.985 363.820,142.360 361.749,141.808 361.197 C 141.255 360.646,140.420 359.476,139.951 358.597 C 139.482 357.719,138.575 356.402,137.936 355.671 C 137.296 354.940,136.301 353.590,135.723 352.671 C 135.145 351.752,134.344 350.767,133.942 350.482 C 133.541 350.196,132.719 349.116,132.116 348.082 C 131.513 347.047,130.490 345.613,129.842 344.896 C 129.194 344.179,128.380 343.160,128.032 342.631 C 126.227 339.887,122.580 334.962,122.160 334.702 C 121.895 334.538,121.223 333.627,120.667 332.678 C 119.642 330.929,117.721 329.893,116.100 330.213 C 111.600 331.104,111.985 327.589,112.007 367.594 C 112.026 402.357,111.995 403.189,110.640 404.094 C 109.944 404.559,87.264 404.462,86.383 403.991 C 85.962 403.766,85.433 403.235,85.206 402.812 C 84.625 401.725,84.632 227.060,85.215 225.973 C 85.847 224.792,87.847 224.158,90.565 224.278 C 91.904 224.337,102.360 224.480,113.800 224.596 M114.804 248.327 C 114.257 248.496,113.402 249.238,112.904 249.976 L 112.000 251.318 112.000 277.600 L 112.000 303.882 112.912 305.235 C 114.398 307.440,115.043 307.588,123.200 307.594 C 131.489 307.601,137.553 306.813,142.912 305.033 C 144.624 304.465,146.239 304.000,146.501 304.000 C 148.510 304.000,154.813 300.016,158.238 296.582 C 172.021 282.760,166.376 258.022,148.200 252.586 C 146.880 252.192,145.604 251.721,145.365 251.540 C 142.466 249.344,119.375 246.917,114.804 248.327 M130.182 250.430 C 132.812 250.645,136.412 251.195,138.182 251.651 C 139.952 252.108,142.423 252.709,143.673 252.986 C 144.923 253.263,146.723 253.899,147.673 254.400 C 148.623 254.900,150.485 255.870,151.812 256.555 C 155.751 258.589,161.164 264.216,162.007 267.155 C 164.588 276.151,163.674 287.331,159.975 292.018 C 158.058 294.447,153.109 299.179,152.474 299.191 C 152.184 299.196,150.357 299.997,148.414 300.971 C 146.013 302.175,143.810 302.937,141.541 303.350 C 139.703 303.684,136.490 304.268,134.400 304.649 C 131.786 305.126,128.392 305.351,123.529 305.371 L 116.457 305.400 115.226 304.222 L 113.994 303.045 114.097 277.465 L 114.200 251.886 115.249 251.103 C 117.288 249.581,118.890 249.508,130.182 250.430 M278.939 286.195 C 274.146 286.849,269.743 287.926,268.000 288.872 C 267.230 289.290,265.297 290.334,263.704 291.193 C 262.111 292.052,260.153 293.390,259.354 294.166 C 256.696 296.747,255.738 296.494,254.129 292.783 C 252.514 289.059,252.609 289.082,239.325 289.123 C 226.824 289.161,226.006 289.313,224.869 291.809 C 224.094 293.509,224.204 402.862,224.982 404.366 C 226.137 406.600,227.170 406.775,239.342 406.813 C 256.572 406.865,254.801 410.565,254.797 374.538 C 254.793 336.592,255.087 332.870,258.658 325.667 C 259.930 323.100,261.232 320.840,261.550 320.644 C 261.868 320.449,263.146 319.352,264.391 318.209 C 269.321 313.676,285.735 312.897,290.147 316.986 C 292.910 319.547,296.042 320.065,297.718 318.239 C 298.203 317.710,300.197 315.595,302.148 313.539 C 314.118 300.924,313.440 301.948,311.993 298.677 C 311.197 296.878,304.381 291.200,303.018 291.200 C 302.742 291.200,302.021 290.741,301.416 290.180 C 299.624 288.519,295.065 287.046,289.091 286.196 C 284.367 285.525,283.857 285.525,278.939 286.195 M291.550 288.648 C 296.317 289.451,302.529 292.262,305.400 294.916 C 305.840 295.322,306.871 296.034,307.692 296.496 C 309.996 297.796,310.898 301.668,309.262 303.233 C 308.898 303.582,306.890 305.739,304.800 308.027 C 295.335 318.391,294.775 318.742,291.926 316.097 C 288.680 313.084,286.173 312.285,279.346 312.090 C 271.559 311.867,266.604 313.282,263.200 316.700 C 262.650 317.252,261.791 317.973,261.292 318.303 C 259.437 319.527,256.050 325.418,255.189 328.916 C 254.744 330.722,254.182 332.920,253.941 333.800 C 252.610 338.653,252.425 343.319,252.413 372.474 C 252.400 402.289,252.354 403.168,250.778 404.012 C 249.696 404.591,229.041 404.557,227.952 403.974 C 226.392 403.140,226.397 403.310,226.393 348.008 C 226.389 292.456,226.377 292.869,227.981 292.010 C 229.241 291.336,249.845 291.373,250.662 292.051 C 251.578 292.810,252.400 294.915,252.400 296.498 C 252.400 300.158,255.864 299.953,260.200 296.037 C 263.908 292.688,269.859 289.753,274.501 288.984 C 276.315 288.683,278.250 288.363,278.800 288.273 C 281.311 287.861,288.054 288.059,291.550 288.648 " stroke="none" fill="#b73f53" fill-rule="evenodd"></path><path id="path2" d="M197.785 29.361 C 195.749 30.248,188.100 31.563,182.533 31.984 C 178.622 32.279,176.583 32.639,174.611 33.381 C 173.151 33.931,170.121 34.838,167.878 35.398 C 165.635 35.958,163.350 36.578,162.800 36.776 C 162.250 36.974,160.720 37.451,159.400 37.835 C 156.454 38.693,152.141 40.797,150.506 42.173 C 149.836 42.736,148.143 43.763,146.744 44.454 C 145.345 45.146,143.764 46.052,143.231 46.468 C 142.698 46.883,141.498 47.561,140.565 47.974 C 136.610 49.724,131.244 53.311,127.345 56.814 C 126.214 57.829,124.289 59.165,123.067 59.784 C 121.844 60.403,120.753 61.146,120.641 61.437 C 120.529 61.728,119.665 62.447,118.719 63.035 C 116.926 64.150,113.612 67.434,108.459 73.200 C 106.788 75.070,104.426 77.628,103.211 78.884 C 100.051 82.149,98.006 84.587,96.400 87.001 C 95.630 88.159,93.920 90.692,92.600 92.629 C 91.280 94.567,89.912 96.613,89.560 97.176 C 89.208 97.739,87.948 99.491,86.760 101.069 C 83.689 105.149,82.026 108.025,81.427 110.300 C 81.140 111.385,80.263 113.278,79.477 114.507 C 78.690 115.736,77.931 117.340,77.790 118.071 C 77.517 119.483,76.885 120.802,75.086 123.715 C 74.473 124.707,73.612 126.817,73.172 128.404 C 72.732 129.991,71.925 131.876,71.379 132.592 C 70.697 133.486,69.888 135.871,68.801 140.195 C 67.930 143.661,67.053 147.059,66.853 147.748 C 65.912 150.981,64.654 154.642,64.350 155.033 C 64.165 155.270,63.663 157.160,63.235 159.233 C 62.806 161.305,62.085 164.710,61.633 166.800 C 61.181 168.890,60.808 171.564,60.805 172.742 C 60.802 173.921,60.512 175.991,60.160 177.342 C 59.807 178.694,59.468 181.600,59.405 183.800 C 59.343 186.000,59.172 188.160,59.026 188.600 C 58.291 190.813,63.441 191.456,73.305 190.383 C 77.489 189.928,76.612 189.810,88.180 192.399 C 92.405 193.344,96.939 193.422,100.000 192.600 C 101.230 192.270,103.963 192.005,106.200 192.000 C 108.836 191.994,110.882 191.765,112.200 191.327 C 113.730 190.819,115.893 190.648,121.400 190.600 C 130.174 190.523,130.215 190.513,130.339 188.298 C 130.391 187.364,130.620 185.900,130.847 185.045 C 131.075 184.189,131.415 181.998,131.603 180.175 C 131.833 177.939,132.343 175.952,133.170 174.069 C 133.843 172.534,134.672 169.960,135.011 168.350 C 135.349 166.739,136.043 164.516,136.552 163.410 C 137.060 162.305,137.889 160.268,138.393 158.885 C 138.897 157.502,139.782 155.702,140.359 154.885 C 140.937 154.068,141.854 152.410,142.396 151.200 C 142.939 149.990,144.028 148.100,144.816 147.000 C 145.604 145.900,146.665 143.876,147.173 142.502 C 148.009 140.239,149.514 138.131,152.432 135.134 C 153.003 134.548,153.959 133.108,154.556 131.934 C 155.153 130.760,156.614 128.900,157.801 127.800 C 158.989 126.700,162.526 123.321,165.660 120.291 C 168.794 117.262,172.137 114.327,173.088 113.770 C 174.039 113.212,175.364 112.221,176.033 111.568 C 178.043 109.602,180.156 108.390,192.668 102.019 C 194.685 100.992,196.575 99.957,196.868 99.721 C 197.391 99.297,198.180 99.053,205.400 97.074 C 207.380 96.532,209.990 95.705,211.200 95.237 C 212.932 94.567,214.506 94.355,218.600 94.239 C 223.943 94.088,228.628 93.438,229.485 92.728 C 230.446 91.933,234.546 91.869,237.029 92.610 C 238.670 93.099,241.618 93.408,246.600 93.612 C 252.972 93.873,254.288 94.050,258.045 95.153 C 260.379 95.839,262.719 96.408,263.245 96.418 C 263.770 96.427,264.920 96.710,265.800 97.045 C 266.680 97.381,268.750 98.014,270.400 98.451 C 274.526 99.546,275.336 99.894,282.000 103.446 C 283.210 104.091,285.100 104.952,286.200 105.359 C 287.300 105.766,289.010 106.600,290.000 107.213 C 290.990 107.826,292.825 108.876,294.078 109.547 C 295.330 110.217,297.130 111.541,298.078 112.489 C 299.025 113.436,300.674 114.929,301.741 115.806 C 305.668 119.031,310.400 123.300,310.400 123.617 C 310.400 123.796,310.985 124.574,311.700 125.346 C 313.879 127.696,316.165 130.497,317.619 132.594 C 318.378 133.691,319.395 134.911,319.878 135.306 C 320.361 135.701,321.428 137.144,322.250 138.512 C 323.071 139.880,324.066 141.423,324.461 141.941 C 324.856 142.458,325.302 143.538,325.452 144.341 C 325.850 146.464,326.671 148.254,328.447 150.870 C 329.312 152.143,330.137 153.503,330.281 153.892 C 330.426 154.281,330.954 155.230,331.455 156.000 C 331.956 156.770,332.653 158.840,333.003 160.600 C 333.784 164.523,335.223 170.058,335.603 170.600 C 336.509 171.892,337.966 177.587,337.986 179.913 C 337.994 180.855,338.279 182.293,338.620 183.110 C 338.961 183.926,339.347 185.982,339.478 187.679 L 339.716 190.764 341.558 191.400 C 345.997 192.931,351.283 192.425,353.905 190.218 L 355.064 189.244 354.579 185.122 C 354.313 182.855,353.897 179.110,353.655 176.800 C 352.458 165.366,351.954 162.283,350.627 158.298 C 349.153 153.872,348.669 151.671,348.010 146.400 C 347.776 144.530,347.215 141.650,346.762 140.000 C 346.309 138.350,345.441 134.700,344.833 131.888 C 343.974 127.920,343.500 126.533,342.712 125.688 C 341.360 124.238,340.945 123.347,340.622 121.200 C 340.268 118.844,339.694 117.355,338.386 115.400 C 337.276 113.741,336.636 112.014,336.231 109.582 C 336.101 108.803,335.361 107.183,334.587 105.982 C 333.813 104.782,332.990 103.080,332.759 102.200 C 332.527 101.320,331.826 99.953,331.201 99.163 C 330.576 98.373,329.418 96.459,328.628 94.909 C 327.838 93.359,326.912 91.859,326.570 91.575 C 326.227 91.291,325.679 90.539,325.351 89.905 C 325.023 89.271,324.157 88.088,323.426 87.276 C 322.696 86.464,321.761 84.833,321.349 83.651 C 320.916 82.409,319.924 80.792,319.000 79.821 C 318.120 78.896,316.128 76.804,314.572 75.170 C 310.645 71.044,300.192 61.185,297.911 59.455 C 296.872 58.667,295.665 57.665,295.228 57.228 C 294.791 56.791,293.706 56.062,292.816 55.608 C 290.454 54.403,285.611 51.248,284.029 49.883 C 283.275 49.232,282.053 48.447,281.313 48.138 C 280.574 47.829,279.077 46.936,277.987 46.153 C 276.897 45.370,275.078 44.484,273.944 44.185 C 272.811 43.886,270.864 43.012,269.618 42.243 C 268.372 41.474,266.038 40.481,264.431 40.035 C 262.824 39.590,260.945 38.797,260.255 38.274 C 258.739 37.123,256.958 36.551,253.915 36.234 C 252.658 36.103,251.218 35.834,250.715 35.635 C 250.212 35.436,248.540 34.875,247.000 34.388 C 245.460 33.901,244.020 33.367,243.800 33.200 C 242.801 32.442,238.595 31.598,235.738 31.582 C 233.921 31.572,231.927 31.307,231.000 30.951 C 230.120 30.613,227.240 30.173,224.600 29.972 C 221.960 29.772,217.910 29.436,215.600 29.226 C 209.244 28.649,199.245 28.725,197.785 29.361 " stroke="none" fill="#dbc81f" fill-rule="evenodd"></path><path id="path3" d="M224.772 7.660 C 226.580 9.525,229.822 10.168,231.982 9.090 C 235.383 7.392,234.482 6.905,227.572 6.709 L 223.745 6.600 224.772 7.660 M177.765 7.918 C 172.292 8.754,170.893 11.600,175.955 11.600 C 177.590 11.600,179.600 10.920,179.600 10.366 C 179.600 10.199,180.072 9.500,180.650 8.814 C 181.980 7.233,182.069 7.261,177.765 7.918 M244.012 10.384 C 243.263 10.858,243.341 10.923,246.075 12.130 C 247.635 12.818,248.640 13.582,249.275 14.562 C 249.784 15.347,250.470 16.000,250.800 16.012 C 251.130 16.024,252.930 16.575,254.800 17.237 C 258.436 18.524,261.944 19.496,266.863 20.577 C 269.411 21.138,269.964 21.401,270.150 22.143 C 270.293 22.711,270.994 23.299,272.087 23.765 C 273.029 24.167,274.620 25.329,275.623 26.348 C 278.990 29.769,281.649 31.587,285.268 32.942 C 286.296 33.327,287.362 33.913,287.637 34.244 C 287.911 34.575,288.691 35.082,289.368 35.370 C 290.046 35.658,291.249 36.503,292.041 37.247 C 292.834 37.991,293.970 38.960,294.567 39.400 C 295.163 39.840,295.954 40.528,296.325 40.929 C 296.696 41.330,297.619 42.230,298.376 42.929 C 299.132 43.628,300.612 45.055,301.663 46.100 C 302.715 47.145,303.760 48.000,303.987 48.000 C 304.213 48.000,305.087 48.622,305.929 49.383 C 306.771 50.144,307.923 50.943,308.490 51.158 C 309.108 51.393,309.794 52.170,310.205 53.102 C 310.581 53.955,311.401 54.997,312.025 55.417 C 312.650 55.837,313.390 56.635,313.670 57.190 C 313.949 57.746,314.764 58.871,315.480 59.691 C 316.196 60.511,317.042 61.805,317.360 62.567 C 317.679 63.329,318.673 64.748,319.569 65.721 C 320.466 66.693,321.200 67.680,321.200 67.912 C 321.200 68.145,322.062 69.295,323.115 70.468 C 324.168 71.640,325.342 73.095,325.724 73.700 C 326.106 74.305,326.702 74.800,327.048 74.800 C 328.160 74.800,329.931 76.106,330.665 77.469 C 331.286 78.621,331.453 78.718,331.954 78.218 C 332.455 77.717,332.313 77.362,330.865 75.484 C 329.949 74.297,329.200 73.184,329.200 73.010 C 329.200 72.085,323.986 62.233,322.315 60.000 C 320.467 57.529,316.972 54.179,313.973 52.003 C 313.218 51.455,310.530 48.929,308.000 46.390 C 304.857 43.235,302.767 41.480,301.400 40.848 C 300.300 40.340,298.680 39.233,297.800 38.388 C 288.732 29.688,284.235 25.846,282.029 24.918 C 281.243 24.587,279.340 23.716,277.800 22.982 C 276.260 22.249,274.190 21.416,273.201 21.131 C 272.211 20.847,271.041 20.206,270.601 19.707 C 269.191 18.111,261.398 14.469,257.439 13.557 C 253.564 12.663,250.309 11.748,249.000 11.183 C 246.750 10.212,244.782 9.897,244.012 10.384 M161.600 11.246 C 160.390 11.696,158.590 12.348,157.600 12.696 C 156.610 13.043,155.173 13.749,154.407 14.264 C 153.641 14.779,152.550 15.200,151.984 15.200 C 151.417 15.200,150.604 15.464,150.176 15.787 C 149.749 16.110,149.130 16.381,148.800 16.389 C 148.470 16.397,147.660 16.836,147.000 17.365 L 145.800 18.325 147.204 18.589 C 149.074 18.940,150.704 18.288,150.869 17.122 C 150.993 16.252,151.182 16.197,154.200 16.147 C 161.295 16.028,160.700 16.164,161.569 14.461 C 162.414 12.804,163.554 11.886,165.300 11.456 C 165.905 11.307,166.400 11.008,166.400 10.792 C 166.400 10.143,163.942 10.376,161.600 11.246 M138.095 19.847 C 136.938 20.407,135.521 21.481,134.948 22.233 C 134.374 22.985,133.646 23.600,133.329 23.600 C 132.167 23.600,133.185 24.235,134.472 24.313 C 137.515 24.498,139.378 23.499,139.610 21.557 C 139.726 20.591,139.962 19.575,140.134 19.300 C 140.536 18.659,140.572 18.649,138.095 19.847 M130.200 24.669 C 127.414 25.282,123.255 28.013,120.103 31.300 C 119.101 32.345,118.100 33.200,117.878 33.200 C 117.657 33.200,116.905 33.635,116.208 34.167 C 115.510 34.699,113.873 35.705,112.570 36.403 C 109.222 38.194,107.600 40.239,110.617 38.865 C 111.178 38.609,112.268 38.400,113.037 38.400 C 114.159 38.400,114.568 38.172,115.096 37.252 C 115.722 36.162,117.505 35.200,118.901 35.200 C 119.264 35.200,119.600 34.808,119.672 34.300 C 119.759 33.692,120.122 33.355,120.795 33.260 C 121.342 33.183,122.242 32.803,122.795 32.415 C 123.348 32.028,124.449 31.501,125.241 31.244 C 126.034 30.987,127.087 30.346,127.581 29.821 C 128.075 29.295,129.009 28.645,129.658 28.376 C 130.830 27.891,132.230 25.496,131.774 24.758 C 131.543 24.385,131.502 24.382,130.200 24.669 M105.600 40.368 C 103.561 41.462,97.441 47.322,96.269 49.301 C 95.003 51.442,92.358 53.956,89.910 55.348 C 87.892 56.495,86.152 58.413,84.698 61.094 C 82.761 64.666,80.768 67.173,77.445 70.221 C 74.143 73.250,72.281 75.812,70.267 80.100 C 69.880 80.925,69.416 81.600,69.238 81.600 C 68.746 81.600,65.200 84.811,65.200 85.257 C 65.200 86.007,61.556 93.281,60.752 94.136 C 59.835 95.110,58.400 98.048,58.400 98.950 C 58.400 99.276,57.709 100.591,56.865 101.872 C 56.021 103.152,54.848 105.031,54.258 106.046 L 53.187 107.893 54.893 108.134 C 56.219 108.322,56.689 108.231,57.000 107.726 C 57.220 107.369,57.915 106.473,58.544 105.735 C 59.580 104.520,59.684 104.129,59.645 101.574 C 59.598 98.491,60.975 96.400,63.053 96.400 C 64.122 96.400,65.412 93.930,65.816 91.111 C 66.070 89.345,67.068 87.600,67.825 87.600 C 69.566 87.600,73.200 82.549,73.200 80.130 C 73.200 79.790,73.965 78.726,74.900 77.766 C 77.142 75.464,78.393 73.816,79.317 71.949 C 79.734 71.106,80.733 69.868,81.538 69.198 C 84.008 67.139,84.447 66.646,85.014 65.298 C 85.315 64.582,86.190 63.625,86.958 63.172 C 87.801 62.674,88.523 61.842,88.778 61.074 C 89.240 59.682,92.940 56.484,95.071 55.634 C 95.780 55.351,96.825 54.392,97.436 53.463 C 98.661 51.601,101.395 48.800,101.988 48.800 C 103.445 48.800,106.855 45.819,108.522 43.090 C 110.193 40.354,108.524 38.799,105.600 40.368 M333.450 80.319 C 333.171 80.770,333.604 81.301,335.100 82.347 C 336.616 83.405,336.712 83.199,335.567 81.347 C 334.774 80.064,333.877 79.628,333.450 80.319 M338.212 88.199 C 338.494 89.535,338.689 89.845,339.031 89.502 C 339.159 89.375,338.969 88.760,338.611 88.135 L 337.958 87.000 338.212 88.199 M51.711 111.400 C 51.451 112.060,51.035 113.410,50.789 114.400 C 50.542 115.390,49.606 117.425,48.710 118.923 C 45.715 123.927,42.957 132.599,44.008 133.706 C 44.624 134.355,44.724 134.268,45.632 132.299 C 46.649 130.092,48.600 126.971,49.191 126.606 C 49.382 126.487,49.845 125.448,50.219 124.295 C 50.593 123.143,51.222 121.660,51.617 121.000 C 52.485 119.551,52.946 114.972,52.504 112.200 L 52.185 110.200 51.711 111.400 M350.406 118.700 C 350.403 119.195,350.580 119.600,350.800 119.600 C 351.301 119.600,351.301 119.176,350.800 118.400 C 350.486 117.915,350.411 117.972,350.406 118.700 M239.504 137.350 C 236.510 139.434,240.516 140.810,244.995 139.235 C 247.895 138.216,247.942 138.164,246.893 137.116 C 245.378 135.600,241.857 135.712,239.504 137.350 M257.818 137.173 L 256.236 137.856 258.764 138.392 C 260.155 138.688,263.387 138.974,265.946 139.030 C 268.506 139.086,271.907 139.257,273.504 139.411 C 275.700 139.622,276.570 139.558,277.069 139.145 C 277.948 138.419,274.999 137.999,271.000 138.282 C 268.853 138.434,267.500 138.275,265.200 137.603 C 261.224 136.441,259.715 136.353,257.818 137.173 M228.981 139.333 C 228.852 139.847,228.534 140.289,228.273 140.317 C 222.982 140.884,217.600 142.158,217.600 142.845 C 217.600 143.009,216.970 143.811,216.200 144.627 C 215.430 145.444,214.800 146.329,214.800 146.595 C 214.800 148.067,213.419 148.709,209.934 148.855 C 206.104 149.016,205.046 149.568,204.591 151.641 C 204.451 152.279,204.188 152.800,204.006 152.800 C 203.511 152.800,204.035 154.438,204.599 154.655 C 205.238 154.900,211.860 151.426,213.400 150.037 C 214.060 149.441,215.478 148.734,216.550 148.465 C 217.623 148.196,219.423 147.384,220.550 146.661 C 221.678 145.938,224.261 144.548,226.290 143.573 C 228.320 142.598,229.985 141.575,229.990 141.300 C 229.996 141.025,230.270 140.800,230.600 140.800 C 230.930 140.800,231.200 140.640,231.200 140.445 C 231.200 140.250,232.019 139.968,233.019 139.818 C 237.549 139.139,237.694 138.432,233.308 138.416 C 229.348 138.401,229.208 138.430,228.981 139.333 M39.881 140.800 C 39.553 141.570,39.071 143.910,38.811 146.000 C 38.202 150.892,37.544 153.622,36.257 156.600 C 34.746 160.094,34.788 162.966,36.361 163.780 C 37.753 164.500,37.785 164.448,38.413 160.518 C 38.645 159.068,39.168 157.142,39.576 156.240 C 41.029 153.026,41.922 143.926,41.053 141.200 L 40.479 139.400 39.881 140.800 M280.500 141.187 C 278.768 141.932,280.404 143.539,283.800 144.429 C 284.680 144.659,286.210 145.225,287.200 145.686 C 294.898 149.270,296.228 149.494,295.463 147.082 C 294.320 143.481,284.323 139.542,280.500 141.187 M297.662 149.980 C 296.758 150.199,296.751 150.231,297.462 150.852 C 299.091 152.276,300.093 152.561,300.674 151.767 C 301.657 150.422,299.970 149.421,297.662 149.980 M196.376 158.781 C 193.695 160.796,190.936 164.149,190.634 165.760 C 190.407 166.969,185.123 174.000,184.441 174.000 C 183.184 174.000,182.555 178.478,183.550 180.345 L 184.267 181.691 185.134 180.222 C 185.610 179.415,186.000 178.642,186.000 178.505 C 186.000 178.034,190.547 171.400,191.418 170.600 C 191.896 170.160,192.787 168.900,193.396 167.800 C 194.006 166.700,195.012 165.260,195.632 164.600 C 196.252 163.940,197.059 162.680,197.426 161.800 C 197.793 160.920,198.633 159.684,199.293 159.052 C 200.233 158.152,200.375 157.830,199.946 157.558 C 199.030 156.978,198.562 157.139,196.376 158.781 M306.000 157.738 C 306.000 158.302,308.795 161.745,311.733 164.800 C 312.685 165.790,313.779 167.111,314.164 167.735 C 315.038 169.151,315.383 168.846,315.260 166.768 C 315.088 163.847,312.773 160.327,310.706 159.844 C 310.002 159.679,309.527 159.247,309.372 158.632 C 309.048 157.340,306.000 156.532,306.000 157.738 M34.400 169.145 C 34.400 169.362,33.970 170.050,33.445 170.674 C 31.688 172.762,31.404 174.650,32.434 177.400 L 33.333 179.800 33.717 178.600 C 33.929 177.940,34.523 176.835,35.038 176.144 C 37.631 172.663,38.059 169.055,35.900 168.876 C 35.075 168.808,34.400 168.929,34.400 169.145 M33.107 185.200 C 32.741 185.750,32.062 187.059,31.598 188.109 C 30.397 190.828,28.514 191.919,24.281 192.348 C 16.696 193.117,13.621 198.313,15.836 206.616 C 16.322 208.437,16.402 209.802,16.176 212.400 C 15.819 216.496,15.827 220.817,16.197 224.600 C 16.393 226.595,16.289 228.184,15.836 230.125 C 14.740 234.819,15.150 241.028,16.872 245.838 C 17.239 246.863,17.161 247.515,16.418 249.638 C 15.143 253.278,14.617 291.792,15.788 295.813 C 16.732 299.057,16.706 312.697,15.748 316.909 C 15.319 318.793,15.207 320.323,15.406 321.559 C 15.569 322.571,15.749 328.800,15.806 335.400 C 15.862 342.000,16.015 350.422,16.146 354.115 C 16.327 359.253,16.244 361.490,15.791 363.641 C 15.025 367.284,15.037 373.524,15.816 377.295 C 16.510 380.647,16.461 389.880,15.674 404.483 C 15.423 409.136,15.367 413.927,15.546 415.413 C 15.721 416.869,15.739 418.885,15.586 419.893 C 15.433 420.901,15.398 423.318,15.509 425.263 L 15.711 428.800 18.193 428.800 L 20.675 428.800 21.017 422.100 C 21.388 414.833,21.469 408.326,21.249 403.600 C 21.172 401.950,21.237 396.460,21.394 391.400 C 21.685 382.017,21.639 381.408,19.992 372.800 C 19.466 370.051,19.538 367.066,20.152 366.189 C 21.340 364.490,21.802 359.180,21.630 349.200 C 21.491 341.082,21.490 314.146,21.629 311.600 C 21.719 309.950,21.652 305.990,21.481 302.800 C 21.309 299.610,21.093 290.563,20.999 282.696 C 20.894 273.823,20.660 267.824,20.383 266.896 C 19.894 265.259,20.066 259.797,20.739 255.600 C 21.984 247.842,22.003 246.234,20.966 236.200 C 20.817 234.754,20.969 232.116,21.348 229.562 C 21.922 225.699,21.922 225.103,21.343 222.823 C 20.798 220.673,20.771 219.551,21.156 214.825 C 21.449 211.223,21.473 208.640,21.225 207.333 C 19.810 199.869,21.286 197.625,28.197 196.733 C 31.174 196.348,32.105 196.384,34.736 196.985 C 37.834 197.693,45.322 197.686,54.070 196.968 C 56.218 196.791,58.108 196.912,60.361 197.368 C 65.005 198.309,71.658 197.742,74.895 196.130 C 75.823 195.668,76.194 195.671,77.335 196.147 C 79.298 196.967,81.776 197.369,85.400 197.453 C 87.160 197.494,90.940 197.643,93.800 197.784 C 96.660 197.926,99.808 197.892,100.795 197.710 C 101.782 197.528,104.122 197.529,105.995 197.711 C 109.584 198.061,113.351 197.613,116.000 196.521 C 117.724 195.810,122.078 195.788,123.299 196.485 C 123.946 196.854,126.343 196.999,131.800 196.999 C 136.743 197.000,139.680 197.159,140.200 197.455 C 141.144 197.992,145.718 197.437,147.000 196.630 C 148.204 195.872,150.422 195.633,152.417 196.046 C 159.786 197.572,159.986 197.585,163.941 196.771 C 167.912 195.954,172.387 195.755,173.020 196.368 C 174.544 197.842,192.006 197.817,198.701 196.331 C 202.599 195.465,203.492 195.498,206.400 196.615 C 208.718 197.506,212.334 197.531,215.523 196.679 C 217.967 196.026,218.128 196.031,220.633 196.840 C 222.534 197.454,223.774 197.614,225.310 197.442 C 230.691 196.839,243.359 196.720,249.885 197.211 C 255.686 197.647,257.513 197.640,261.485 197.164 C 266.919 196.514,276.896 196.739,279.340 197.567 C 280.607 197.996,281.316 197.996,283.340 197.565 C 284.693 197.278,288.320 197.031,291.400 197.017 C 296.071 196.996,297.228 196.869,298.374 196.247 C 300.043 195.343,303.833 195.529,305.960 196.621 C 307.500 197.411,316.529 197.571,327.000 196.994 C 331.599 196.741,333.202 196.808,335.969 197.369 C 337.822 197.745,339.720 197.956,340.188 197.839 C 340.656 197.721,343.460 197.527,346.420 197.407 C 349.379 197.287,353.600 196.969,355.800 196.701 C 366.596 195.383,373.522 197.454,373.633 202.031 C 373.652 202.784,373.747 205.380,373.844 207.800 C 374.044 212.749,374.045 212.981,373.878 218.800 C 373.811 221.110,374.009 224.883,374.317 227.185 C 374.813 230.892,374.804 231.809,374.237 235.211 C 373.709 238.379,373.676 239.638,374.047 242.394 C 374.387 244.920,374.380 246.572,374.018 249.168 C 373.741 251.152,373.626 254.624,373.745 257.400 C 373.858 260.040,374.061 265.170,374.195 268.800 C 374.329 272.430,374.640 276.077,374.885 276.904 C 375.213 278.010,375.213 278.645,374.884 279.304 C 373.803 281.474,373.644 283.205,374.258 286.122 C 375.181 290.508,375.185 297.332,374.265 299.800 C 373.547 301.725,373.545 301.938,374.210 305.489 C 374.767 308.465,374.814 309.523,374.450 310.966 C 373.902 313.141,373.907 327.267,374.459 336.000 C 375.019 344.864,375.005 345.822,374.269 349.532 C 373.673 352.532,373.665 353.221,374.189 356.460 C 374.666 359.411,374.684 360.645,374.292 363.329 C 373.849 366.357,373.750 370.730,374.035 374.600 C 374.100 375.480,374.129 377.100,374.100 378.200 C 373.918 385.038,374.242 392.674,374.751 393.570 C 375.301 394.536,375.218 399.963,374.553 406.675 C 374.377 408.449,374.490 409.686,374.954 411.046 C 375.850 413.675,375.820 418.294,374.900 419.310 C 374.011 420.292,373.953 424.202,374.787 426.900 L 375.375 428.800 377.491 428.800 L 379.607 428.800 379.619 424.300 C 379.625 421.825,379.626 417.910,379.620 415.600 C 379.605 409.860,379.618 400.354,379.644 397.200 C 379.655 395.770,379.620 390.640,379.565 385.800 C 379.510 380.960,379.478 376.370,379.494 375.600 C 379.510 374.830,379.463 369.340,379.390 363.400 C 379.292 355.495,379.397 351.998,379.780 350.353 C 380.285 348.190,380.206 346.430,379.330 340.304 C 379.213 339.480,379.312 337.680,379.551 336.304 C 379.868 334.480,379.859 331.356,379.517 324.800 C 378.954 313.994,378.954 314.408,379.508 305.400 C 379.831 300.141,379.831 296.128,379.508 290.515 C 379.153 284.347,379.169 282.397,379.590 280.642 C 380.018 278.856,380.021 277.990,379.606 275.927 C 379.253 274.175,379.072 268.421,379.016 257.172 C 378.972 248.247,378.824 240.763,378.687 240.541 C 378.550 240.320,378.676 238.622,378.966 236.769 C 379.352 234.299,379.441 230.250,379.297 221.600 C 379.049 206.774,379.046 206.095,379.198 202.160 C 379.454 195.542,377.297 193.814,366.035 191.619 C 363.745 191.172,361.571 190.535,361.204 190.203 C 360.111 189.214,358.206 189.455,356.916 190.746 C 353.795 193.867,342.790 194.363,339.334 191.540 C 339.053 191.310,338.340 191.297,337.534 191.507 C 336.653 191.737,335.385 191.672,333.800 191.316 C 332.480 191.018,330.507 190.575,329.416 190.329 C 326.513 189.676,325.231 189.822,324.048 190.940 C 322.551 192.355,320.031 192.947,317.922 192.379 C 316.882 192.099,314.944 192.025,312.822 192.185 C 310.582 192.354,308.640 192.268,307.200 191.935 C 305.990 191.656,303.470 191.456,301.600 191.491 C 291.227 191.689,285.135 191.969,283.000 192.348 C 281.411 192.629,279.654 192.647,277.800 192.400 C 276.260 192.194,273.594 192.020,271.877 192.013 C 270.159 192.006,267.464 191.800,265.888 191.555 C 263.667 191.211,262.209 191.231,259.411 191.645 C 256.993 192.002,250.909 192.202,241.000 192.251 C 232.860 192.290,225.345 192.331,224.301 192.341 C 223.256 192.351,221.777 192.099,221.013 191.780 C 219.138 190.996,216.929 191.051,213.645 191.961 C 211.045 192.681,210.754 192.687,208.150 192.073 C 204.891 191.305,194.163 191.284,187.849 192.034 L 183.898 192.502 182.732 191.255 C 181.216 189.632,179.901 189.311,178.509 190.223 C 177.663 190.777,176.104 191.004,171.412 191.258 C 168.106 191.436,164.140 191.778,162.600 192.017 C 160.176 192.394,159.505 192.354,157.600 191.715 C 155.083 190.870,149.430 191.042,144.034 192.128 C 142.402 192.456,140.853 192.642,140.591 192.541 C 136.447 190.951,116.904 190.631,112.975 192.089 C 111.272 192.721,109.186 193.055,105.600 193.268 C 102.850 193.431,98.807 193.686,96.616 193.834 C 92.631 194.103,91.509 193.997,81.046 192.359 C 76.128 191.590,73.025 191.694,66.108 192.863 C 64.363 193.157,63.044 193.157,61.708 192.862 C 58.498 192.154,52.382 191.922,48.800 192.374 C 46.390 192.678,44.410 192.679,42.000 192.378 C 36.249 191.658,35.345 191.003,34.387 186.859 L 33.772 184.200 33.107 185.200 M86.882 224.679 C 84.687 225.575,84.795 220.949,84.795 314.400 C 84.795 404.492,84.770 403.128,86.383 403.991 C 87.264 404.462,109.944 404.559,110.640 404.094 C 111.995 403.189,112.026 402.357,112.007 367.594 C 111.986 329.850,111.909 331.086,114.307 330.582 C 114.908 330.455,115.715 330.290,116.100 330.213 C 117.721 329.893,119.642 330.929,120.667 332.678 C 121.223 333.627,121.895 334.538,122.160 334.702 C 122.580 334.962,126.227 339.887,128.032 342.631 C 128.380 343.160,129.194 344.179,129.842 344.896 C 130.490 345.613,131.513 347.047,132.116 348.082 C 132.719 349.116,133.541 350.196,133.942 350.482 C 134.344 350.767,135.145 351.752,135.723 352.671 C 136.301 353.590,137.296 354.940,137.936 355.671 C 138.575 356.402,139.482 357.719,139.951 358.597 C 140.420 359.476,141.255 360.646,141.808 361.197 C 142.360 361.749,143.985 363.820,145.418 365.800 C 146.851 367.780,148.567 370.030,149.231 370.800 C 149.894 371.570,150.921 373.010,151.512 374.000 C 152.103 374.990,152.968 376.160,153.436 376.600 C 153.903 377.040,154.576 377.940,154.932 378.600 C 155.287 379.260,156.315 380.610,157.216 381.600 C 158.117 382.590,159.084 383.940,159.366 384.600 C 159.647 385.260,160.506 386.430,161.274 387.200 C 162.042 387.970,163.156 389.371,163.749 390.314 C 164.342 391.256,165.098 392.336,165.428 392.714 C 166.441 393.870,168.694 396.869,170.552 399.536 C 171.524 400.930,173.013 402.550,173.860 403.136 L 175.400 404.200 190.300 404.314 C 206.433 404.437,206.967 404.377,206.429 402.501 C 206.014 401.057,204.366 398.656,202.702 397.070 C 201.969 396.371,200.878 395.080,200.278 394.200 C 199.084 392.447,196.908 389.667,195.282 387.814 C 194.710 387.162,193.692 385.803,193.021 384.793 C 191.719 382.837,189.902 380.529,187.554 377.850 C 186.758 376.942,185.789 375.577,185.399 374.815 C 185.010 374.053,184.294 373.117,183.808 372.735 C 183.323 372.353,182.222 370.996,181.363 369.720 C 180.503 368.444,179.570 367.253,179.288 367.074 C 179.007 366.894,178.338 366.084,177.803 365.274 C 176.583 363.428,173.567 359.446,171.990 357.600 C 169.076 354.189,166.497 350.877,165.604 349.400 C 165.072 348.520,164.333 347.579,163.963 347.309 C 163.592 347.038,162.629 345.823,161.823 344.609 C 161.017 343.394,160.226 342.400,160.065 342.400 C 159.904 342.400,159.452 341.857,159.060 341.194 C 158.669 340.531,157.685 339.212,156.874 338.263 C 151.671 332.170,151.327 331.684,151.005 329.969 C 150.600 327.810,151.718 326.719,155.478 325.604 C 157.195 325.095,159.709 324.166,161.065 323.539 C 162.420 322.913,163.789 322.400,164.107 322.400 C 164.425 322.400,165.476 321.800,166.442 321.067 C 167.409 320.335,169.100 319.225,170.200 318.601 C 171.300 317.978,172.811 316.912,173.559 316.234 C 176.775 313.314,181.200 308.695,181.200 308.260 C 181.200 307.999,181.977 306.889,182.927 305.793 C 183.877 304.697,184.970 302.990,185.357 302.000 C 185.743 301.010,186.471 299.480,186.974 298.600 C 187.975 296.852,189.261 293.048,190.018 289.600 C 190.284 288.390,190.762 286.500,191.081 285.400 C 192.352 281.017,192.244 273.445,190.822 267.319 C 189.110 259.945,188.650 258.522,186.573 254.164 C 185.598 252.119,184.800 250.337,184.800 250.204 C 184.800 250.071,184.395 249.565,183.900 249.081 C 183.405 248.596,182.383 247.300,181.629 246.200 C 180.875 245.100,179.570 243.489,178.729 242.621 C 177.888 241.753,177.200 240.917,177.200 240.765 C 177.200 239.019,165.786 232.003,159.400 229.824 C 157.640 229.223,155.835 228.499,155.389 228.215 C 154.437 227.608,149.360 226.606,144.000 225.965 C 141.910 225.716,138.940 225.353,137.400 225.159 C 135.860 224.965,125.240 224.712,113.800 224.596 C 102.360 224.480,91.904 224.337,90.565 224.278 C 89.225 224.219,87.568 224.399,86.882 224.679 M136.800 249.157 C 141.130 249.889,144.378 250.792,145.365 251.540 C 145.604 251.721,146.880 252.192,148.200 252.586 C 166.376 258.022,172.021 282.760,158.238 296.582 C 154.813 300.016,148.510 304.000,146.501 304.000 C 146.239 304.000,144.624 304.465,142.912 305.033 C 137.553 306.813,131.489 307.601,123.200 307.594 C 115.043 307.588,114.398 307.440,112.912 305.235 L 112.000 303.882 112.000 277.600 L 112.000 251.318 112.904 249.976 C 113.402 249.238,114.257 248.496,114.804 248.327 C 116.664 247.753,131.895 248.328,136.800 249.157 M278.800 288.273 C 278.250 288.363,276.315 288.683,274.501 288.984 C 269.859 289.753,263.908 292.688,260.200 296.037 C 255.864 299.953,252.400 300.158,252.400 296.498 C 252.400 294.915,251.578 292.810,250.662 292.051 C 249.845 291.373,229.241 291.336,227.981 292.010 C 226.377 292.869,226.389 292.456,226.393 348.008 C 226.397 403.310,226.392 403.140,227.952 403.974 C 229.041 404.557,249.696 404.591,250.778 404.012 C 252.354 403.168,252.400 402.289,252.413 372.474 C 252.425 343.319,252.610 338.653,253.941 333.800 C 254.182 332.920,254.744 330.722,255.189 328.916 C 256.050 325.418,259.437 319.527,261.292 318.303 C 261.791 317.973,262.650 317.252,263.200 316.700 C 266.604 313.282,271.559 311.867,279.346 312.090 C 286.173 312.285,288.680 313.084,291.926 316.097 C 294.775 318.742,295.335 318.391,304.800 308.027 C 306.890 305.739,308.898 303.582,309.262 303.233 C 310.898 301.668,309.996 297.796,307.692 296.496 C 306.871 296.034,305.840 295.322,305.400 294.916 C 300.004 289.929,287.594 286.830,278.800 288.273 " stroke="none" fill="#262425" fill-rule="evenodd"></path><path id="path4" d="M73.002 199.022 C 70.665 199.682,63.079 199.821,59.000 199.279 C 57.428 199.070,54.621 199.047,52.600 199.225 C 47.488 199.677,36.495 199.654,34.600 199.187 C 31.918 198.527,25.390 199.136,24.261 200.151 L 23.317 201.000 23.396 212.438 C 23.440 218.729,23.599 224.074,23.748 224.316 C 23.897 224.558,23.816 226.840,23.567 229.388 C 23.234 232.799,23.231 235.786,23.554 240.711 C 23.930 246.437,23.889 248.564,23.267 255.486 C 22.778 260.926,22.644 264.438,22.858 266.217 C 23.124 268.429,23.786 301.489,23.734 310.000 C 23.559 338.901,23.563 346.454,23.754 347.067 C 24.170 348.402,23.312 365.322,22.759 366.683 C 22.322 367.759,22.353 369.013,22.953 374.483 C 23.583 380.235,23.645 383.805,23.479 404.900 L 23.291 428.800 197.697 428.800 L 372.103 428.800 371.823 424.855 C 371.595 421.639,371.665 420.622,372.200 419.355 C 372.991 417.480,373.085 414.276,372.409 412.227 C 372.066 411.188,371.943 408.189,372.008 402.464 C 372.060 397.919,371.965 389.340,371.798 383.400 C 371.448 370.941,371.448 371.583,371.790 357.400 C 371.934 351.460,371.995 343.180,371.926 339.000 C 371.857 334.820,371.835 324.110,371.877 315.200 C 371.919 306.290,371.923 296.210,371.886 292.800 C 371.849 289.390,371.843 285.160,371.872 283.400 C 371.902 281.640,371.949 278.850,371.977 277.200 C 372.005 275.550,371.936 272.130,371.823 269.600 C 371.711 267.070,371.648 258.250,371.685 250.000 C 371.721 241.750,371.696 229.870,371.630 223.600 C 371.563 217.330,371.526 209.950,371.546 207.200 C 371.612 198.376,371.033 198.172,349.067 199.304 C 340.083 199.767,337.638 199.770,334.067 199.325 C 330.909 198.931,328.916 198.896,326.400 199.191 C 321.180 199.801,308.260 199.685,305.400 199.002 C 302.503 198.310,300.044 198.249,298.526 198.833 C 297.546 199.209,285.531 199.760,281.000 199.636 C 275.669 199.490,218.904 199.149,216.600 199.250 C 210.729 199.505,206.932 199.369,205.086 198.838 C 203.459 198.371,202.619 198.371,199.486 198.844 C 194.405 199.610,176.265 199.612,173.145 198.847 C 171.183 198.366,170.166 198.379,165.345 198.948 C 159.866 199.594,158.360 199.551,151.757 198.557 C 150.744 198.405,149.287 198.548,147.957 198.931 C 146.771 199.272,144.630 199.559,143.200 199.568 C 136.382 199.611,125.875 199.196,122.976 198.769 C 121.203 198.508,119.133 198.391,118.376 198.509 C 117.619 198.626,115.290 199.023,113.200 199.390 C 111.110 199.757,108.680 199.958,107.800 199.836 C 106.920 199.715,100.890 199.587,94.400 199.551 C 87.910 199.516,81.610 199.320,80.400 199.116 C 76.541 198.464,75.048 198.445,73.002 199.022 M137.000 222.791 C 142.157 223.260,146.624 224.012,150.800 225.115 C 152.450 225.551,154.579 226.022,155.530 226.163 C 156.482 226.304,158.319 226.953,159.612 227.606 C 160.906 228.259,163.105 229.223,164.499 229.748 C 169.965 231.805,179.107 239.233,182.826 244.638 C 183.493 245.608,184.475 246.871,185.007 247.445 C 185.539 248.019,186.092 248.860,186.236 249.313 C 186.380 249.766,187.104 251.084,187.845 252.243 C 189.215 254.385,189.934 256.231,190.779 259.777 C 191.038 260.865,191.598 262.518,192.023 263.451 C 194.232 268.299,194.193 285.378,191.961 290.357 C 191.507 291.371,190.792 293.527,190.372 295.148 C 189.952 296.769,189.044 299.109,188.355 300.348 C 187.666 301.587,186.825 303.140,186.485 303.800 C 185.103 306.487,179.868 313.033,177.311 315.272 C 177.140 315.422,176.081 316.367,174.959 317.372 C 173.836 318.378,172.793 319.200,172.641 319.200 C 172.490 319.200,171.428 319.902,170.283 320.760 C 169.137 321.618,167.120 322.843,165.800 323.483 C 164.480 324.123,162.680 325.034,161.800 325.508 C 160.920 325.982,159.030 326.668,157.600 327.031 C 153.464 328.081,152.721 328.577,153.297 329.905 C 154.026 331.586,155.439 333.785,156.585 335.022 C 157.700 336.225,158.675 337.459,160.100 339.471 C 160.977 340.709,163.613 344.042,165.222 345.946 C 165.661 346.466,166.216 347.257,166.455 347.703 C 166.694 348.150,167.632 349.321,168.539 350.305 C 169.446 351.289,170.731 352.861,171.394 353.798 C 172.504 355.366,175.039 358.587,176.787 360.650 C 177.183 361.117,178.005 362.348,178.612 363.385 C 179.220 364.422,179.946 365.358,180.225 365.465 C 180.505 365.572,181.226 366.404,181.827 367.313 C 182.429 368.222,183.554 369.650,184.328 370.487 C 185.102 371.323,186.020 372.443,186.368 372.974 C 186.715 373.506,187.855 375.052,188.900 376.410 C 189.945 377.768,190.800 379.092,190.800 379.351 C 190.800 379.611,191.171 380.088,191.624 380.412 C 192.076 380.735,193.189 381.990,194.097 383.200 C 195.004 384.410,195.858 385.490,195.994 385.600 C 196.131 385.710,196.762 386.520,197.398 387.400 C 198.033 388.280,199.041 389.540,199.637 390.200 C 200.233 390.860,201.202 392.120,201.790 393.000 C 203.114 394.982,204.987 397.312,206.718 399.131 C 208.813 401.333,209.200 402.070,209.200 403.860 C 209.200 405.728,208.436 406.790,207.071 406.818 C 206.592 406.828,199.551 406.820,191.425 406.800 L 176.649 406.764 174.007 405.376 C 172.286 404.472,171.104 403.537,170.614 402.694 C 170.201 401.982,169.079 400.410,168.119 399.200 C 164.999 395.265,163.627 393.436,162.195 391.310 C 161.422 390.161,160.455 388.901,160.048 388.510 C 159.641 388.120,158.858 387.077,158.308 386.194 C 157.759 385.311,157.014 384.343,156.653 384.044 C 156.292 383.744,155.356 382.444,154.572 381.154 C 153.789 379.865,152.664 378.291,152.074 377.659 C 151.483 377.026,150.460 375.748,149.800 374.820 C 149.140 373.892,147.880 372.166,147.000 370.984 C 146.120 369.803,144.557 367.703,143.526 366.318 C 142.495 364.933,141.100 363.148,140.426 362.351 C 139.752 361.555,139.200 360.770,139.200 360.607 C 139.200 360.444,138.506 359.476,137.658 358.456 C 136.810 357.435,135.614 355.790,135.000 354.800 C 134.386 353.810,133.652 352.863,133.370 352.696 C 133.087 352.528,132.019 351.178,130.996 349.696 C 127.710 344.934,126.225 342.939,125.086 341.756 C 124.474 341.120,123.526 339.843,122.980 338.917 C 122.434 337.992,121.450 336.647,120.793 335.928 C 120.137 335.210,119.600 334.500,119.600 334.350 C 119.600 333.352,116.721 332.422,115.372 332.986 L 113.981 333.567 114.012 368.684 L 114.043 403.800 112.437 405.300 L 110.831 406.800 98.709 406.800 C 85.490 406.800,84.855 406.701,83.111 404.359 C 82.298 403.268,81.942 226.403,82.750 224.893 C 83.471 223.547,84.841 222.648,86.514 222.425 C 89.320 222.050,132.280 222.362,137.000 222.791 M117.649 250.000 C 116.906 250.176,115.826 250.672,115.249 251.103 L 114.200 251.886 114.097 277.465 L 113.994 303.045 115.226 304.222 L 116.457 305.400 123.529 305.371 C 128.392 305.351,131.786 305.126,134.400 304.649 C 136.490 304.268,139.703 303.684,141.541 303.350 C 143.810 302.937,146.013 302.175,148.414 300.971 C 150.357 299.997,152.184 299.196,152.474 299.191 C 153.109 299.179,158.058 294.447,159.975 292.018 C 163.674 287.331,164.588 276.151,162.007 267.155 C 161.164 264.216,155.751 258.589,151.812 256.555 C 150.485 255.870,148.623 254.900,147.673 254.400 C 146.723 253.899,144.923 253.263,143.673 252.986 C 142.423 252.709,139.952 252.108,138.182 251.651 C 133.671 250.487,120.181 249.402,117.649 250.000 M289.091 286.196 C 295.065 287.046,299.624 288.519,301.416 290.180 C 302.021 290.741,302.742 291.200,303.018 291.200 C 304.381 291.200,311.197 296.878,311.993 298.677 C 313.440 301.948,314.118 300.924,302.148 313.539 C 300.197 315.595,298.203 317.710,297.718 318.239 C 296.042 320.065,292.910 319.547,290.147 316.986 C 285.735 312.897,269.321 313.676,264.391 318.209 C 263.146 319.352,261.868 320.449,261.550 320.644 C 261.232 320.840,259.930 323.100,258.658 325.667 C 255.087 332.870,254.793 336.592,254.797 374.538 C 254.801 410.565,256.572 406.865,239.342 406.813 C 227.170 406.775,226.137 406.600,224.982 404.366 C 224.204 402.862,224.094 293.509,224.869 291.809 C 226.006 289.313,226.824 289.161,239.325 289.123 C 252.609 289.082,252.514 289.059,254.129 292.783 C 255.738 296.494,256.696 296.747,259.354 294.166 C 260.153 293.390,262.111 292.052,263.704 291.193 C 265.297 290.334,267.230 289.290,268.000 288.872 C 269.743 287.926,274.146 286.849,278.939 286.195 C 283.857 285.525,284.367 285.525,289.091 286.196 " stroke="none" fill="#fafafa" fill-rule="evenodd"></path></g></svg>